<svg xmlns="http://www.w3.org/2000/svg" width="188" height="188" viewBox="0 0 188 188">
  <g fill="none" fill-rule="evenodd" transform="translate(19 19)">
    <path fill="#000" d="M150,75 C150,116.421 116.421,150 75,150 C33.579,150 0,116.421 0,75 C0,33.579 33.579,0 75,0 C116.421,0 150,33.579 150,75"/>
    <path fill="#FFF" d="M108.3799,57.6592 C108.3799,66.5842 114.8729,73.8182 122.8819,73.8182 C130.8919,73.8182 137.3839,66.5842 137.3839,57.6592 C137.3839,48.7342 130.8919,41.5002 122.8819,41.5002 C114.8729,41.5002 108.3799,48.7342 108.3799,57.6592"/>
    <path fill="#000" d="M121.3706,58.4834 C121.3706,59.3794 122.0216,60.1044 122.8246,60.1044 C123.6276,60.1044 124.2796,59.3794 124.2796,58.4834 C124.2796,57.5884 123.6276,56.8634 122.8246,56.8634 C122.0216,56.8634 121.3706,57.5884 121.3706,58.4834"/>
    <path fill="#FFF" d="M93.7026,57.6592 C93.7026,66.5842 87.2096,73.8182 79.2006,73.8182 C71.1916,73.8182 64.6986,66.5842 64.6986,57.6592 C64.6986,48.7342 71.1916,41.5002 79.2006,41.5002 C87.2096,41.5002 93.7026,48.7342 93.7026,57.6592"/>
    <path fill="#000" d="M78.3706,58.4834 C78.3706,59.3794 79.0216,60.1044 79.8246,60.1044 C80.6276,60.1044 81.2796,59.3794 81.2796,58.4834 C81.2796,57.5884 80.6276,56.8634 79.8246,56.8634 C79.0216,56.8634 78.3706,57.5884 78.3706,58.4834"/>
    <path stroke="#FFF" stroke-linecap="round" stroke-linejoin="round" stroke-width="4" d="M53.356,87.2725 L134.781,87.2725"/>
    <path fill="#FFF" d="M56.6372,113.1201 C57.2902,105.9841 57.9462,91.6191 53.3022,86.9081 C53.3012,86.9081 53.3022,86.9081 53.3022,86.9081 L80.0222,86.5631 C80.0222,86.5631 72.7112,107.1211 60.0852,115.2231 C58.5122,116.2321 56.4672,114.9821 56.6372,113.1201"/>
    <path fill="#FFF" d="M87.8462 88.9551L83.7812 97.7031C83.3422 98.6461 81.9872 98.6061 81.6052 97.6381L78.1552 88.8911C77.8492 88.1131 78.4222 87.2721 79.2572 87.2721L86.7722 87.2721C87.6382 87.2721 88.2112 88.1711 87.8462 88.9551M130.3442 113.1201C129.6912 105.9841 129.0352 91.6191 133.6802 86.9081L106.9592 86.5631C106.9592 86.5631 114.2702 107.1211 126.8962 115.2231 128.4692 116.2321 130.5142 114.9821 130.3442 113.1201"/>
    <path fill="#FFF" d="M99.1353,88.9551 L103.2003,97.7031 C103.6393,98.6461 104.9943,98.6061 105.3763,97.6381 L108.8263,88.8911 C109.1323,88.1131 108.5593,87.2721 107.7243,87.2721 L100.2093,87.2721 C99.3433,87.2721 98.7703,88.1711 99.1353,88.9551"/>
    <path stroke="#FFF" stroke-linecap="round" stroke-linejoin="round" stroke-width="4" d="M108.5635,120.0605 L79.6265,120.0605"/>
    <path fill="#FFF" d="M100.2725,110.875 C100.5045,113.411 100.7375,118.516 99.0865,120.19 L108.5835,120.313 C108.5835,120.313 105.9845,113.007 101.4975,110.128 C100.9385,109.769 100.2115,110.213 100.2725,110.875"/>
    <path fill="#FFF" d="M96.3062 119.4629L97.7512 116.3549C97.9072 116.0189 98.3892 116.0329 98.5242 116.3769L99.7502 119.4849C99.8592 119.7619 99.6562 120.0609 99.3592 120.0609L96.6882 120.0609C96.3802 120.0609 96.1772 119.7409 96.3062 119.4629M88.3286 110.875C88.0966 113.411 87.8636 118.516 89.5146 120.19L80.0176 120.313C80.0176 120.313 82.6166 113.007 87.1026 110.128 87.6616 109.769 88.3896 110.214 88.3286 110.875"/>
    <path fill="#FFF" d="M92.2944,119.4629 L90.8494,116.3549 C90.6934,116.0189 90.2124,116.0329 90.0764,116.3769 L88.8504,119.4849 C88.7414,119.7619 88.9454,120.0609 89.2424,120.0609 L91.9124,120.0609 C92.2204,120.0609 92.4244,119.7409 92.2944,119.4629"/>
  </g>
</svg>
