<svg xmlns="http://www.w3.org/2000/svg" width="188" height="188" viewBox="0 0 188 188">
  <g fill="none" fill-rule="evenodd" transform="translate(19 19)">
    <path fill="#000" d="M150,75 C150,116.421 116.421,150 75,150 C33.579,150 0,116.421 0,75 C0,33.579 33.579,0 75,0 C116.421,0 150,33.579 150,75"/>
    <path fill="#FFF" d="M110.2192,34.293 C110.2192,40.529 105.1632,45.586 98.9262,45.586 C92.6892,45.586 87.6332,40.529 87.6332,34.293 C87.6332,28.056 92.6892,23 98.9262,23 C105.1632,23 110.2192,28.056 110.2192,34.293"/>
    <path fill="#000" d="M101.0879,32.1416 C101.0879,33.3246 100.1299,34.2836 98.9469,34.2836 C97.7639,34.2836 96.8049,33.3246 96.8049,32.1416 C96.8049,30.9586 97.7639,29.9996 98.9469,29.9996 C100.1299,29.9996 101.0879,30.9586 101.0879,32.1416"/>
    <path fill="#FFF" d="M100.7476,62.707 C100.7476,68.944 95.6916,74 89.4556,74 C83.2186,74 78.1626,68.944 78.1626,62.707 C78.1626,56.471 83.2186,51.414 89.4556,51.414 C95.6916,51.414 100.7476,56.471 100.7476,62.707"/>
    <path fill="#000" d="M91,60.375 C91,61.388 90.179,62.208 89.167,62.208 C88.154,62.208 87.334,61.388 87.334,60.375 C87.334,59.363 88.154,58.542 89.167,58.542 C90.179,58.542 91,59.363 91,60.375"/>
    <path fill="#FFF" d="M138.416,54.1035 C138.416,64.9775 129.601,73.7925 118.727,73.7925 C107.853,73.7925 99.038,64.9775 99.038,54.1035 C99.038,43.2295 107.853,34.4145 118.727,34.4145 C129.601,34.4145 138.416,43.2295 138.416,54.1035"/>
    <path fill="#000" d="M123.9126,52.8184 C123.9126,55.0274 122.1216,56.8174 119.9136,56.8174 C117.7046,56.8174 115.9136,55.0274 115.9136,52.8184 C115.9136,50.6094 117.7046,48.8194 119.9136,48.8194 C122.1216,48.8194 123.9126,50.6094 123.9126,52.8184"/>
    <path fill="#FFF" d="M85.2305,51.4316 C85.2305,62.3056 76.4155,71.1206 65.5415,71.1206 C54.6675,71.1206 45.8525,62.3056 45.8525,51.4316 C45.8525,40.5576 54.6675,31.7436 65.5415,31.7436 C76.4155,31.7436 85.2305,40.5576 85.2305,51.4316"/>
    <path fill="#000" d="M68.1558,50.6709 C68.1558,53.0619 66.2178,54.9999 63.8258,54.9999 C61.4348,54.9999 59.4968,53.0619 59.4968,50.6709 C59.4968,48.2789 61.4348,46.3409 63.8258,46.3409 C66.2178,46.3409 68.1558,48.2789 68.1558,50.6709"/>
    <path stroke="#FFF" stroke-linecap="round" stroke-linejoin="round" stroke-width="5.181" d="M45,89.624 C45,73.58 68.268,81.5 94.5,81.5 C120.732,81.5 139.994,73.58 139.994,89.624 C139.994,105.667 118.729,136 92.497,136 C66.265,136 45,105.667 45,89.624 Z"/>
    <path fill="#FFF" d="M134.3433 80.9209C132.8103 87.9979 127.9093 93.6859 123.3983 93.6249 118.8863 93.5659 116.4723 87.7789 118.0063 80.7029M50.5449 80.9209C52.0779 87.9979 56.9789 93.6859 61.4899 93.6249 66.0019 93.5659 68.4159 87.7789 66.8819 80.7029M112.3853 81.2393C112.8113 88.5343 109.6313 95.0283 105.2823 95.7433 100.9323 96.4593 97.0613 91.1253 96.6353 83.8303M109.311 131.2383C107.711 124.4173 109.71 116.7123 113.777 114.0273 117.843 111.3423 122.437 114.6953 124.037 121.5163M72.6084 81.2393C72.1824 88.5343 75.3624 95.0283 79.7124 95.7433 84.0614 96.4593 87.9324 91.1253 88.3584 83.8303M75.6826 131.2383C77.2826 124.4173 75.2836 116.7123 71.2166 114.0273 67.1506 111.3423 62.5566 114.6953 60.9566 121.5163M27.6602 65.2627C27.6602 65.2627 13.6332 60.6547 14.8622 67.5447 14.8622 67.5447 16.0912 74.4367 27.6602 65.2627M26.9082 58.6279C26.9082 58.6279 19.0722 46.0999 15.6122 52.1879 15.6122 52.1879 12.1532 58.2739 26.9082 58.6279M75.9082 21.6279C75.9082 21.6279 68.0722 9.0999 64.6122 15.1879 64.6122 15.1879 61.1532 21.2739 75.9082 21.6279M75.7754 14.8789C75.7754 14.8789 74.6284.1369 68.7434 3.9319 68.7434 3.9319 62.8584 7.7279 75.7754 14.8789M116.9385 30.1426C116.9385 30.1426 131.6125 28.3976 127.5825 22.6716 127.5825 22.6716 123.5515 16.9476 116.9385 30.1426"/>
  </g>
</svg>
