<svg xmlns="http://www.w3.org/2000/svg" width="188" height="188" viewBox="0 0 188 188">
  <g fill="none" fill-rule="evenodd" transform="translate(19 19)">
    <path fill="#000" d="M150,75 C150,116.421 116.421,150 75,150 C33.579,150 0,116.421 0,75 C0,33.579 33.579,0 75,0 C116.421,0 150,33.579 150,75"/>
    <path fill="#FFF" d="M90.7974 10.2676L83.3904 35.3446C82.5644 38.1416 84.6344 40.9556 87.5504 40.9996L105.1204 41.2646C108.2684 41.3126 110.4484 38.1396 109.2774 35.2166L99.1144 9.8756C97.5594 5.9966 91.9814 6.2586 90.7974 10.2676M47.1528 84.2051L50.7348 112.4631 75.3838 102.0931 53.8018 80.9071C51.1438 78.2971 46.6838 80.5091 47.1528 84.2051M125.9507 96.6777L117.9287 105.2907 130.0847 110.7157 129.3947 98.0097C129.3097 96.4447 126.9997 95.5507 125.9507 96.6777"/>
    <polyline stroke="#FFF" stroke-linecap="round" stroke-linejoin="round" stroke-width="4" points="51 112 77 101 86 109 96 103 107 112 118 105 130 109"/>
    <path fill="#FFF" d="M85.3979,47.3281 C91.7559,55.6901 90.8259,67.0951 83.3209,72.8011 C75.8169,78.5061 64.5789,76.3521 58.2209,67.9901 C51.8629,59.6281 52.7929,48.2241 60.2979,42.5181 C67.8019,36.8121 79.0399,38.9661 85.3979,47.3281"/>
    <path fill="#000" d="M75.1968,57.7754 C74.8878,59.6384 73.2818,60.9214 71.6098,60.6394 C69.9378,60.3584 68.8328,58.6194 69.1418,56.7554 C69.4518,54.8914 71.0578,53.6094 72.7298,53.8904 C74.4018,54.1714 75.5058,55.9114 75.1968,57.7754"/>
    <path fill="#FFF" d="M139.543,47.3281 C145.901,55.6901 144.971,67.0951 137.466,72.8011 C129.962,78.5061 118.724,76.3521 112.366,67.9901 C106.008,59.6281 106.938,48.2241 114.443,42.5181 C121.947,36.8121 133.185,38.9661 139.543,47.3281"/>
    <path fill="#000" d="M129.3418,57.7754 C129.0328,59.6384 127.4258,60.9214 125.7548,60.6394 C124.0828,60.3584 122.9778,58.6194 123.2868,56.7554 C123.5968,54.8914 125.2028,53.6094 126.8748,53.8904 C128.5468,54.1714 129.6508,55.9114 129.3418,57.7754"/>
  </g>
</svg>
