<svg xmlns="http://www.w3.org/2000/svg" xmlns:xlink="http://www.w3.org/1999/xlink" width="188" height="188" viewBox="0 0 188 188">
  <defs>
    <path id="type-01-a" d="M0.92,14.633 C0.92,22.324 25.176,16 55,16 L55,16 C84.825,16 108.924,22.324 108.924,14.633 L108.924,14.633 C108.924,6.942 84.746,0.708 54.922,0.708 L54.922,0.708 C25.098,0.708 0.92,6.942 0.92,14.633"/>
    <path id="type-01-c" d="M0.92,14.633 C0.92,22.324 25.176,16 55,16 L55,16 C84.825,16 108.924,22.324 108.924,14.633 L108.924,14.633 C108.924,6.942 84.746,0.708 54.922,0.708 L54.922,0.708 C25.098,0.708 0.92,6.942 0.92,14.633"/>
    <path id="type-01-e" d="M0.92,14.633 C0.92,22.324 25.176,16 55,16 L55,16 C84.825,16 108.924,22.324 108.924,14.633 L108.924,14.633 C108.924,6.942 84.746,0.708 54.922,0.708 L54.922,0.708 C25.098,0.708 0.92,6.942 0.92,14.633"/>
    <path id="type-01-g" d="M0.92,14.633 C0.92,22.324 25.176,16 55,16 L55,16 C84.825,16 108.924,22.324 108.924,14.633 L108.924,14.633 C108.924,6.942 84.746,0.708 54.922,0.708 L54.922,0.708 C25.098,0.708 0.92,6.942 0.92,14.633"/>
    <path id="type-01-i" d="M0.92,14.633 C0.92,22.324 25.176,16 55,16 L55,16 C84.825,16 108.924,22.324 108.924,14.633 L108.924,14.633 C108.924,6.942 84.746,0.708 54.922,0.708 L54.922,0.708 C25.098,0.708 0.92,6.942 0.92,14.633"/>
    <path id="type-01-k" d="M0.92,14.633 C0.92,22.324 25.176,16 55,16 L55,16 C84.825,16 108.924,22.324 108.924,14.633 L108.924,14.633 C108.924,6.942 84.746,0.708 54.922,0.708 L54.922,0.708 C25.098,0.708 0.92,6.942 0.92,14.633"/>
    <path id="type-01-m" d="M0.92,14.633 C0.92,22.324 25.176,16 55,16 L55,16 C84.825,16 108.924,22.324 108.924,14.633 L108.924,14.633 C108.924,6.942 84.746,0.708 54.922,0.708 L54.922,0.708 C25.098,0.708 0.92,6.942 0.92,14.633"/>
    <path id="type-01-o" d="M0.92,14.633 C0.92,22.324 25.176,16 55,16 L55,16 C84.825,16 108.924,22.324 108.924,14.633 L108.924,14.633 C108.924,6.942 84.746,0.708 54.922,0.708 L54.922,0.708 C25.098,0.708 0.92,6.942 0.92,14.633"/>
    <path id="type-01-q" d="M0.92,14.633 C0.92,22.324 25.176,16 55,16 L55,16 C84.825,16 108.924,22.324 108.924,14.633 L108.924,14.633 C108.924,6.942 84.746,0.708 54.922,0.708 L54.922,0.708 C25.098,0.708 0.92,6.942 0.92,14.633"/>
    <path id="type-01-s" d="M0.92,14.633 C0.92,22.324 25.176,16 55,16 L55,16 C84.825,16 108.924,22.324 108.924,14.633 L108.924,14.633 C108.924,6.942 84.746,0.708 54.922,0.708 L54.922,0.708 C25.098,0.708 0.92,6.942 0.92,14.633"/>
  </defs>
  <g fill="none" fill-rule="evenodd" transform="translate(19 19)">
    <path fill="#000" d="M150,75 C150,116.421 116.421,150 75,150 C33.579,150 0,116.421 0,75 C0,33.579 33.579,0 75,0 C116.421,0 150,33.579 150,75"/>
    <g transform="translate(32 84)">
      <mask id="type-01-b" fill="#fff">
        <use xlink:href="#type-01-a"/>
      </mask>
      <path fill="#FFF" d="M25.1812,3.9678 C25.9542,7.8648 23.3542,11.6398 19.3722,12.3968 C15.3912,13.1548 11.5352,10.6088 10.7622,6.7108" mask="url(#type-01-b)"/>
      <mask id="type-01-d" fill="#fff">
        <use xlink:href="#type-01-c"/>
      </mask>
      <path fill="#FFF" d="M53.561,0.0674 C53.731,4.7634 49.981,14.5094 45.185,14.6764 C40.388,14.8444 36.362,5.3714 36.192,0.6744" mask="url(#type-01-d)"/>
      <mask id="type-01-f" fill="#fff">
        <use xlink:href="#type-01-e"/>
      </mask>
      <path fill="#FFF" d="M85.1216,3.9678 C84.3476,7.8648 86.9486,11.6398 90.9296,12.3968 C94.9116,13.1548 98.7666,10.6088 99.5406,6.7108" mask="url(#type-01-f)"/>
      <mask id="type-01-h" fill="#fff">
        <use xlink:href="#type-01-g"/>
      </mask>
      <path fill="#FFF" d="M56.2837,0.0674 C56.1137,4.7634 59.8637,14.5094 64.6597,14.6764 C69.4557,14.8444 73.4827,5.3714 73.6527,0.6744" mask="url(#type-01-h)"/>
      <mask id="type-01-j" fill="#fff">
        <use xlink:href="#type-01-i"/>
      </mask>
      <path fill="#FFF" d="M-4.8584,18.5146 C-2.6294,13.2496 3.4456,10.7896 8.7096,13.0186 C13.9746,15.2466 16.4346,21.3226 14.2056,26.5856" mask="url(#type-01-j)"/>
      <mask id="type-01-l" fill="#fff">
        <use xlink:href="#type-01-k"/>
      </mask>
      <path fill="#FFF" d="M13.4766,25.3115 C14.1666,21.1655 18.0886,18.3635 22.2346,19.0535 C26.3816,19.7445 29.1826,23.6655 28.4926,27.8115" mask="url(#type-01-l)"/>
      <mask id="type-01-n" fill="#fff">
        <use xlink:href="#type-01-m"/>
      </mask>
      <path fill="#FFF" d="M27.667,27.0674 C28.079,22.8844 31.804,19.8274 35.987,20.2384 C40.17,20.6504 43.228,24.3754 42.816,28.5584" mask="url(#type-01-n)"/>
      <mask id="type-01-p" fill="#fff">
        <use xlink:href="#type-01-o"/>
      </mask>
      <path fill="#FFF" d="M114.7026,18.5146 C112.4736,13.2496 106.3996,10.7896 101.1346,13.0186 C95.8706,15.2466 93.4096,21.3226 95.6386,26.5856" mask="url(#type-01-p)"/>
      <mask id="type-01-r" fill="#fff">
        <use xlink:href="#type-01-q"/>
      </mask>
      <path fill="#FFF" d="M96.3677,25.3115 C95.6777,21.1655 91.7567,18.3635 87.6097,19.0535 C83.4637,19.7445 80.6617,23.6655 81.3517,27.8115" mask="url(#type-01-r)"/>
      <mask id="type-01-t" fill="#fff">
        <use xlink:href="#type-01-s"/>
      </mask>
      <path fill="#FFF" d="M82.1777,27.0674 C81.7657,22.8844 78.0407,19.8274 73.8577,20.2384 C69.6747,20.6504 66.6167,24.3754 67.0287,28.5584" mask="url(#type-01-t)"/>
    </g>
    <g transform="translate(32 42)">
      <path stroke="#FFF" stroke-width="4" d="M108.9238,56.6338 C108.9238,64.3238 84.8238,57.9998 54.9998,57.9998 C25.1758,57.9998 0.9208,64.3238 0.9208,56.6338 C0.9208,48.9428 25.0978,42.7078 54.9228,42.7078 C84.7468,42.7078 108.9238,48.9428 108.9238,56.6338 Z"/>
      <path fill="#FFF" d="M43.7148,16.0459 C43.7148,24.9079 36.6258,32.0919 27.8818,32.0919 C19.1358,32.0919 12.0478,24.9079 12.0478,16.0459 C12.0478,7.1839 19.1358,-0.0001 27.8818,-0.0001 C36.6258,-0.0001 43.7148,7.1839 43.7148,16.0459"/>
      <path fill="#000" d="M36.3096,16.3594 C36.3096,18.7674 34.3836,20.7194 32.0076,20.7194 C29.6316,20.7194 27.7056,18.7674 27.7056,16.3594 C27.7056,13.9524 29.6316,12.0004 32.0076,12.0004 C34.3836,12.0004 36.3096,13.9524 36.3096,16.3594"/>
      <path fill="#FFF" d="M66.1294,16.0459 C66.1294,24.9079 73.2184,32.0919 81.9634,32.0919 C90.7084,32.0919 97.7964,24.9079 97.7964,16.0459 C97.7964,7.1839 90.7084,-0.0001 81.9634,-0.0001 C73.2184,-0.0001 66.1294,7.1839 66.1294,16.0459"/>
      <path fill="#000" d="M76.1201,16.3594 C76.1201,18.7674 78.0461,20.7194 80.4221,20.7194 C82.7981,20.7194 84.7241,18.7674 84.7241,16.3594 C84.7241,13.9524 82.7981,12.0004 80.4221,12.0004 C78.0461,12.0004 76.1201,13.9524 76.1201,16.3594"/>
    </g>
  </g>
</svg>
