<svg xmlns="http://www.w3.org/2000/svg" xmlns:xlink="http://www.w3.org/1999/xlink" width="188" height="188" viewBox="0 0 188 188">
  <defs>
    <path id="type-06-a" d="M0.193,14.265 C0.193,22.063 18.945,28.385 42.078,28.385 L42.078,28.385 C65.211,28.385 83.963,22.063 83.963,14.265 L83.963,14.265 C83.963,6.468 65.211,0.145 42.078,0.145 L42.078,0.145 C18.945,0.145 0.193,6.468 0.193,14.265"/>
    <path id="type-06-c" d="M0.193,14.265 C0.193,22.063 18.945,28.385 42.078,28.385 L42.078,28.385 C65.211,28.385 83.963,22.063 83.963,14.265 L83.963,14.265 C83.963,6.468 65.211,0.145 42.078,0.145 L42.078,0.145 C18.945,0.145 0.193,6.468 0.193,14.265"/>
    <path id="type-06-e" d="M0.193,14.265 C0.193,22.063 18.945,28.385 42.078,28.385 L42.078,28.385 C65.211,28.385 83.963,22.063 83.963,14.265 L83.963,14.265 C83.963,6.468 65.211,0.145 42.078,0.145 L42.078,0.145 C18.945,0.145 0.193,6.468 0.193,14.265"/>
    <path id="type-06-g" d="M0.193,14.265 C0.193,22.063 18.945,28.385 42.078,28.385 L42.078,28.385 C65.211,28.385 83.963,22.063 83.963,14.265 L83.963,14.265 C83.963,6.468 65.211,0.145 42.078,0.145 L42.078,0.145 C18.945,0.145 0.193,6.468 0.193,14.265"/>
    <path id="type-06-i" d="M0.193,14.265 C0.193,22.063 18.945,28.385 42.078,28.385 L42.078,28.385 C65.211,28.385 83.963,22.063 83.963,14.265 L83.963,14.265 C83.963,6.468 65.211,0.145 42.078,0.145 L42.078,0.145 C18.945,0.145 0.193,6.468 0.193,14.265"/>
    <path id="type-06-k" d="M0.193,14.265 C0.193,22.063 18.945,28.385 42.078,28.385 L42.078,28.385 C65.211,28.385 83.963,22.063 83.963,14.265 L83.963,14.265 C83.963,6.468 65.211,0.145 42.078,0.145 L42.078,0.145 C18.945,0.145 0.193,6.468 0.193,14.265"/>
    <path id="type-06-m" d="M0.193,14.265 C0.193,22.063 18.945,28.385 42.078,28.385 L42.078,28.385 C65.211,28.385 83.963,22.063 83.963,14.265 L83.963,14.265 C83.963,6.468 65.211,0.145 42.078,0.145 L42.078,0.145 C18.945,0.145 0.193,6.468 0.193,14.265"/>
    <path id="type-06-o" d="M0.193,14.265 C0.193,22.063 18.945,28.385 42.078,28.385 L42.078,28.385 C65.211,28.385 83.963,22.063 83.963,14.265 L83.963,14.265 C83.963,6.468 65.211,0.145 42.078,0.145 L42.078,0.145 C18.945,0.145 0.193,6.468 0.193,14.265"/>
    <path id="type-06-q" d="M0.193,14.265 C0.193,22.063 18.945,28.385 42.078,28.385 L42.078,28.385 C65.211,28.385 83.963,22.063 83.963,14.265 L83.963,14.265 C83.963,6.468 65.211,0.145 42.078,0.145 L42.078,0.145 C18.945,0.145 0.193,6.468 0.193,14.265"/>
    <path id="type-06-s" d="M0.193,14.265 C0.193,22.063 18.945,28.385 42.078,28.385 L42.078,28.385 C65.211,28.385 83.963,22.063 83.963,14.265 L83.963,14.265 C83.963,6.468 65.211,0.145 42.078,0.145 L42.078,0.145 C18.945,0.145 0.193,6.468 0.193,14.265"/>
    <path id="type-06-u" d="M0.193,14.265 C0.193,22.063 18.945,28.385 42.078,28.385 L42.078,28.385 C65.211,28.385 83.963,22.063 83.963,14.265 L83.963,14.265 C83.963,6.468 65.211,0.145 42.078,0.145 L42.078,0.145 C18.945,0.145 0.193,6.468 0.193,14.265"/>
    <path id="type-06-w" d="M0.193,14.265 C0.193,22.063 18.945,28.385 42.078,28.385 L42.078,28.385 C65.211,28.385 83.963,22.063 83.963,14.265 L83.963,14.265 C83.963,6.468 65.211,0.145 42.078,0.145 L42.078,0.145 C18.945,0.145 0.193,6.468 0.193,14.265"/>
  </defs>
  <g fill="none" fill-rule="evenodd" transform="translate(19 19)">
    <path fill="#000" d="M150,75 C150,116.421 116.421,150 75,150 C33.579,150 0,116.421 0,75 C0,33.579 33.579,0 75,0 C116.421,0 150,33.579 150,75"/>
    <path fill="#FFF" d="M74.7393,57.9092 C74.7393,70.0092 68.2463,79.8192 60.2373,79.8192 C52.2283,79.8192 45.7353,70.0092 45.7353,57.9092 C45.7353,45.8092 52.2283,36.0002 60.2373,36.0002 C68.2463,36.0002 74.7393,45.8092 74.7393,57.9092"/>
    <path fill="#000" d="M70.749,59.9014 C70.749,65.3414 67.83,69.7524 64.228,69.7524 C60.627,69.7524 57.708,65.3414 57.708,59.9014 C57.708,54.4614 60.627,50.0504 64.228,50.0504 C67.83,50.0504 70.749,54.4614 70.749,59.9014"/>
    <path fill="#FFF" d="M78.5762,40.9092 C78.5762,53.0092 85.0692,62.8192 93.0782,62.8192 C101.0872,62.8192 107.5802,53.0092 107.5802,40.9092 C107.5802,28.8092 101.0872,19.0002 93.0782,19.0002 C85.0692,19.0002 78.5762,28.8092 78.5762,40.9092"/>
    <path fill="#000" d="M86.5664,42.9014 C86.5664,48.3414 89.4854,52.7524 93.0864,52.7524 C96.6874,52.7524 99.6074,48.3414 99.6074,42.9014 C99.6074,37.4614 96.6874,33.0504 93.0864,33.0504 C89.4854,33.0504 86.5664,37.4614 86.5664,42.9014"/>
    <path fill="#FFF" d="M111.417,57.9092 C111.417,70.0092 117.91,79.8192 125.919,79.8192 C133.928,79.8192 140.421,70.0092 140.421,57.9092 C140.421,45.8092 133.928,36.0002 125.919,36.0002 C117.91,36.0002 111.417,45.8092 111.417,57.9092"/>
    <path fill="#000" d="M115.4072,59.9014 C115.4072,65.3414 118.3262,69.7524 121.9272,69.7524 C125.5282,69.7524 128.4482,65.3414 128.4482,59.9014 C128.4482,54.4614 125.5282,50.0504 121.9272,50.0504 C118.3262,50.0504 115.4072,54.4614 115.4072,59.9014"/>
    <g transform="translate(51 84)">
      <mask id="type-06-b" fill="#fff">
        <use xlink:href="#type-06-a"/>
      </mask>
      <path fill="#FFF" d="M-4.2896,18.2007 C-2.5606,12.8627 2.1504,10.3677 6.2334,12.6277 C10.3174,14.8877 12.2264,21.0467 10.4974,26.3847" mask="url(#type-06-b)"/>
      <mask id="type-06-d" fill="#fff">
        <use xlink:href="#type-06-c"/>
      </mask>
      <path fill="#FFF" d="M9.9316,25.0923 C10.4676,20.8883 13.5086,18.0473 16.7246,18.7473 C19.9406,19.4473 22.1136,23.4233 21.5776,27.6273" mask="url(#type-06-d)"/>
      <mask id="type-06-f" fill="#fff">
        <use xlink:href="#type-06-e"/>
      </mask>
      <path fill="#FFF" d="M20.938,26.873 C21.257,22.631 24.146,19.531 27.391,19.948 C30.636,20.366 33.007,24.143 32.688,28.384" mask="url(#type-06-f)"/>
      <mask id="type-06-h" fill="#fff">
        <use xlink:href="#type-06-g"/>
      </mask>
      <path fill="#FFF" d="M88.4458,18.2007 C86.7168,12.8627 82.0058,10.3677 77.9218,12.6277 C73.8388,14.8877 71.9298,21.0467 73.6588,26.3847" mask="url(#type-06-h)"/>
      <mask id="type-06-j" fill="#fff">
        <use xlink:href="#type-06-i"/>
      </mask>
      <path fill="#FFF" d="M74.2246,25.0923 C73.6886,20.8883 70.6476,18.0473 67.4316,18.7473 C64.2156,19.4473 62.0426,23.4233 62.5776,27.6273" mask="url(#type-06-j)"/>
      <mask id="type-06-l" fill="#fff">
        <use xlink:href="#type-06-k"/>
      </mask>
      <path fill="#FFF" d="M63.2183,26.873 C62.8993,22.631 60.0103,19.531 56.7643,19.948 C53.5203,20.366 51.1483,24.143 51.4683,28.384" mask="url(#type-06-l)"/>
      <mask id="type-06-n" fill="#fff">
        <use xlink:href="#type-06-m"/>
      </mask>
      <path fill="#FFF" d="M88.4458,10.5933 C86.7168,15.9313 82.0058,18.4263 77.9218,16.1663 C73.8388,13.9063 71.9298,7.7473 73.6588,2.4093" mask="url(#type-06-n)"/>
      <mask id="type-06-p" fill="#fff">
        <use xlink:href="#type-06-o"/>
      </mask>
      <path fill="#FFF" d="M74.2246,3.7017 C73.6886,7.9067 70.6476,10.7467 67.4316,10.0467 C64.2156,9.3467 62.0426,5.3707 62.5786,1.1667" mask="url(#type-06-p)"/>
      <mask id="type-06-r" fill="#fff">
        <use xlink:href="#type-06-q"/>
      </mask>
      <path fill="#FFF" d="M63.2183,1.9214 C62.8993,6.1634 60.0103,9.2634 56.7653,8.8454 C53.5203,8.4284 51.1493,4.6514 51.4683,0.4094" mask="url(#type-06-r)"/>
      <mask id="type-06-t" fill="#fff">
        <use xlink:href="#type-06-s"/>
      </mask>
      <path fill="#FFF" d="M-4.2896,10.5933 C-2.5606,15.9313 2.1504,18.4263 6.2334,16.1663 C10.3174,13.9063 12.2264,7.7473 10.4974,2.4093" mask="url(#type-06-t)"/>
      <mask id="type-06-v" fill="#fff">
        <use xlink:href="#type-06-u"/>
      </mask>
      <path fill="#FFF" d="M9.9316,3.7017 C10.4676,7.9057 13.5086,10.7467 16.7246,10.0467 C19.9406,9.3467 22.1136,5.3707 21.5786,1.1667" mask="url(#type-06-v)"/>
      <mask id="type-06-x" fill="#fff">
        <use xlink:href="#type-06-w"/>
      </mask>
      <path fill="#FFF" d="M20.938,1.9209 C21.257,6.1629 24.146,9.2629 27.391,8.8459 C30.636,8.4279 33.007,4.6509 32.688,0.4099" mask="url(#type-06-x)"/>
    </g>
    <path stroke="#FFF" stroke-linecap="round" stroke-linejoin="round" stroke-width="4" d="M134.9634,98.2651 C134.9634,106.0631 116.2104,112.3841 93.0784,112.3841 C69.9454,112.3841 51.1924,106.0631 51.1924,98.2651 C51.1924,90.4671 69.9454,84.1451 93.0784,84.1451 C116.2104,84.1451 134.9634,90.4671 134.9634,98.2651 Z"/>
  </g>
</svg>
