<svg xmlns="http://www.w3.org/2000/svg" width="188" height="188" viewBox="0 0 188 188">
  <g fill="none" fill-rule="evenodd" transform="translate(19 19)">
    <path fill="#000" d="M150,75 C150,116.421 116.421,150 75,150 C33.579,150 0,116.421 0,75 C0,33.579 33.579,0 75,0 C116.421,0 150,33.579 150,75"/>
    <path fill="#FFF" d="M86.7026,63.6592 C86.7026,72.5842 80.2096,79.8192 72.2006,79.8192 C64.1916,79.8192 57.6986,72.5842 57.6986,63.6592 C57.6986,54.7352 64.1916,47.5002 72.2006,47.5002 C80.2096,47.5002 86.7026,54.7352 86.7026,63.6592"/>
    <path fill="#000" d="M82.7124,65.1284 C82.7124,69.1414 79.7934,72.3944 76.1914,72.3944 C72.5904,72.3944 69.6714,69.1414 69.6714,65.1284 C69.6714,61.1164 72.5904,57.8634 76.1914,57.8634 C79.7934,57.8634 82.7124,61.1164 82.7124,65.1284"/>
    <path fill="#FFF" d="M101.3799,63.6592 C101.3799,72.5842 107.8729,79.8192 115.8819,79.8192 C123.8919,79.8192 130.3839,72.5842 130.3839,63.6592 C130.3839,54.7352 123.8919,47.5002 115.8819,47.5002 C107.8729,47.5002 101.3799,54.7352 101.3799,63.6592"/>
    <path fill="#000" d="M105.3706,65.1284 C105.3706,69.1414 108.2896,72.3944 111.8906,72.3944 C115.4916,72.3944 118.4116,69.1414 118.4116,65.1284 C118.4116,61.1164 115.4916,57.8634 111.8906,57.8634 C108.2896,57.8634 105.3706,61.1164 105.3706,65.1284"/>
    <path fill="#FFF" d="M90.7974 10.2676L83.3904 35.3446C82.5644 38.1426 84.6344 40.9556 87.5504 40.9996L105.1204 41.2646C108.2684 41.3116 110.4484 38.1396 109.2774 35.2176L99.1144 9.8756C97.5594 5.9966 91.9814 6.2596 90.7974 10.2676M47.1528 77.2046L50.7348 105.4626 75.3838 95.0926 53.8018 73.9066C51.1438 71.2966 46.6838 73.5086 47.1528 77.2046M125.9507 89.6777L117.9287 98.2907 130.0847 103.7157 129.3947 91.0097C129.3097 89.4437 126.9997 88.5507 125.9507 89.6777"/>
    <polyline stroke="#FFF" stroke-linecap="round" stroke-linejoin="round" stroke-width="4" points="51 105 77 94 86 102 96 96 107 105 118 98 130 102"/>
  </g>
</svg>
