<svg xmlns="http://www.w3.org/2000/svg" xmlns:xlink="http://www.w3.org/1999/xlink" width="300" height="300" viewBox="0 0 300 300">
  <defs>
    <polygon id="type-07-a" points="0 .832 111.725 .832 111.725 140.464 0 140.464"/>
  </defs>
  <g fill="none" fill-rule="evenodd" transform="translate(14 -6)">
    <path fill="#000" d="M250.1475,311.168 L250.1475,130.456 C250.1475,78.043 186.5125,50.168 132.6855,50.168 C78.8575,50.168 15.2225,78.043 15.2225,130.456 L15.2225,311.168 L250.1475,311.168 Z"/>
    <path fill="#000" d="M244.2247,140.6319 C244.2247,140.6319 310.8817,-22.8951 251.1957,3.9849 C191.5097,30.8649 164.3047,63.5739 164.3047,63.5739"/>
    <path fill="#000" d="M180.9371,80.0948 C180.9371,80.0948 196.4341,7.2088 173.6471,22.8218 C150.8611,38.4338 142.0001,54.0468 142.0001,54.0468"/>
    <g transform="translate(0 .168)">
      <mask id="type-07-b" fill="#fff">
        <use xlink:href="#type-07-a"/>
      </mask>
      <path fill="#000" d="M31.8038,140.4639 C31.8038,140.4639 -34.8532,-23.0631 24.8328,3.8169 C84.5198,30.6969 111.7248,63.4059 111.7248,63.4059" mask="url(#type-07-b)"/>
    </g>
    <path fill="#000" d="M95.0919,80.0948 C95.0919,80.0948 79.5949,7.2088 102.3819,22.8218 C125.1679,38.4338 134.0289,54.0468 134.0289,54.0468"/>
  </g>
</svg>
