<svg xmlns="http://www.w3.org/2000/svg" xmlns:xlink="http://www.w3.org/1999/xlink" width="300" height="300" viewBox="0 0 300 300">
  <defs>
    <polygon id="type-10-a" points="0 0 315.354 0 315.354 319.96 0 319.96"/>
  </defs>
  <g fill="none" fill-rule="evenodd" transform="translate(-48 -19)">
    <mask id="type-10-b" fill="#fff">
      <use xlink:href="#type-10-a"/>
    </mask>
    <path fill="#000" d="M0,319.96 L12.539,20.135 C14.238,3.676 32.576,-5.33 46.639,3.389 L75.9,21.53 L186.481,36.988 C252.292,46.188 303.818,98.273 312.306,164.179 L315.114,185.981 C316.914,199.963 308.442,213.228 294.999,217.473 L257.735,229.24 C243.283,233.804 238.042,251.545 247.696,263.229 L283.743,319.96" mask="url(#type-10-b)"/>
    <path fill="#000" d="M122.4551,37.0489 L148.9791,10.5259 C161.2841,-1.7791 182.1201,1.4449 189.9141,17.0019 C194.0181,25.1949 197.4351,36.0029 198.8531,50.1799" mask="url(#type-10-b)"/>
  </g>
</svg>
