<svg xmlns="http://www.w3.org/2000/svg" xmlns:xlink="http://www.w3.org/1999/xlink" width="300" height="300" viewBox="0 0 300 300">
  <defs>
    <polygon id="type-08-a" points="0 .653 65.971 .653 65.971 244 0 244"/>
  </defs>
  <g fill="none" fill-rule="evenodd" transform="translate(23 1)">
    <path fill="#FFF" d="M195.289745,31.9930359 C195.289745,31.9930359 223.519134,-1.34768857 231.889202,1.13173838 C240.25838,3.61026437 221.69909,57.7639401 211.847342,56.9918221 C201.995594,56.219704 190.013931,42.063005 195.289745,31.9930359"/>
    <path stroke="#000" stroke-linecap="round" stroke-linejoin="round" stroke-width="8.43" d="M195.289745,31.9930359 C195.289745,31.9930359 223.519134,-1.34768857 231.889202,1.13173838 C240.25838,3.61026437 221.69909,57.7639401 211.847342,56.9918221 C201.995594,56.219704 190.013931,42.063005 195.289745,31.9930359 Z"/>
    <path fill="#000" d="M245,299 L245,110.463185 C245,47.4904767 183.781718,14 132.000448,14 C80.2182821,14 19,47.4904767 19,110.463185 L19,299 L245,299 Z"/>
    <g transform="translate(0 48)">
      <mask id="type-08-b" fill="#fff">
        <use xlink:href="#type-08-a"/>
      </mask>
      <path fill="#000" d="M65.9711919,43.1853985 C65.9711919,39.3020309 64.4068135,34.6633397 61.7641378,31.9901044 C61.1041378,31.3226926 60.3924081,30.7001338 59.642327,30.1367809 C60.3620838,29.3348103 61.0711378,28.5202809 61.7641378,27.6922956 C64.3256514,24.6270456 65.9711919,20.7284279 65.9711919,16.4970015 C65.9711919,12.6136338 64.4068135,7.97494265 61.7641378,5.30170735 C59.0260297,2.53158971 55.4325973,0.475530882 51.6063811,0.664810294 C47.8880838,0.847810294 44.0449216,2.19608971 41.4486243,5.30170735 C38.8335973,8.43064853 36.0071919,11.3218691 33.0095432,13.9960015 C28.6018135,17.5375897 23.8837054,20.5705456 18.9167595,23.0527074 C16.181327,24.236825 13.3950568,25.2639574 10.555273,26.1089868 C7.07778649,27.1441926 3.78581351,29.9663397 1.97081351,33.3850309 C0.1683,36.7786044 -0.595159459,41.7806044 0.522381081,45.5850309 C1.59354324,49.2351632 3.61278649,52.7444574 6.67375946,54.7431044 C4.75084054,56.1156044 3.08211081,57.9796926 1.97081351,60.074325 C0.1683,63.4678985 -0.595159459,68.4690015 0.522381081,72.2734279 C1.59354324,75.9235603 3.61278649,79.4328544 6.67375946,81.4315015 C4.75084054,82.8040015 3.08211081,84.6689868 1.97081351,86.7627221 C0.1683,90.1562956 -0.595159459,95.1582956 0.522381081,98.9627221 C1.59354324,102.612854 3.61278649,106.122149 6.67375946,108.120796 C4.75084054,109.493296 3.08211081,111.358281 1.97081351,113.452016 C0.1683,116.84559 -0.595159459,121.846693 0.522381081,125.651119 C1.59354324,129.302149 3.61278649,132.810546 6.67375946,134.809193 C4.75084054,136.181693 3.08211081,138.046678 1.97081351,140.140413 C0.1683,143.533987 -0.595159459,148.53509 0.522381081,152.339516 C1.59354324,155.990546 3.61278649,159.49984 6.67375946,161.49759 C4.75084054,162.87009 3.08211081,164.735075 1.97081351,166.829707 C0.1683,170.223281 -0.595159459,175.224384 0.522381081,179.02881 C1.59354324,182.678046 3.61278649,186.188237 6.67375946,188.186884 C4.75084054,189.558487 3.08211081,191.424369 1.97081351,193.517207 C0.1683,196.911678 -0.595159459,201.912781 0.522381081,205.717207 C1.59354324,209.36734 3.61278649,212.877531 6.67375946,214.875281 C4.75084054,216.247781 3.08211081,218.111869 1.97081351,220.206501 C0.1683,223.600972 -0.595159459,228.602075 0.522381081,232.406501 C1.64705676,236.23784 3.80097568,239.933722 7.12416486,241.868678 C10.5543811,243.865531 14.3761378,244.600222 18.1925432,243.463649 C34.6934351,238.554943 50.1731108,228.381399 61.7641378,214.512869 C64.3256514,211.448516 65.9711919,207.549899 65.9711919,203.317575 C65.9711919,199.434207 64.4068135,194.796413 61.7641378,192.123178 C61.1041378,191.455766 60.3924081,190.83231 59.642327,190.268957 C60.3620838,189.466987 61.0711378,188.653354 61.7641378,187.824472 C64.3256514,184.760119 65.9711919,180.861501 65.9711919,176.629178 C65.9711919,172.74581 64.4068135,168.107119 61.7641378,165.433884 C61.1041378,164.766472 60.3924081,164.143913 59.642327,163.58056 C60.3620838,162.77859 61.0711378,161.964957 61.7641378,161.136075 C64.3256514,158.070825 65.9711919,154.172207 65.9711919,149.939884 C65.9711919,146.056516 64.4068135,141.418722 61.7641378,138.745487 C61.1041378,138.078075 60.3933,137.454619 59.642327,136.891266 C60.3620838,136.090193 61.0711378,135.275663 61.7641378,134.446781 C64.3256514,131.382428 65.9711919,127.48381 65.9711919,123.251487 C65.9711919,119.368119 64.4068135,114.729428 61.7641378,112.056193 C61.1041378,111.389678 60.3924081,110.766222 59.642327,110.202869 C60.3620838,109.400899 61.0711378,108.587266 61.7641378,107.757487 C64.3256514,104.693134 65.9711919,100.795413 65.9711919,96.5630897 C65.9711919,92.6797221 64.4068135,88.0410309 61.7641378,85.3677956 C61.1041378,84.7003838 60.3924081,84.0769279 59.642327,83.5144721 C60.3620838,82.7125015 61.0711378,81.8979721 61.7641378,81.0690897 C64.3256514,78.0047368 65.9711919,74.1061191 65.9711919,69.8737956 C65.9711919,65.9904279 64.4068135,61.3526338 61.7641378,58.6785015 C61.1041378,58.0110897 60.3924081,57.3885309 59.642327,56.826075 C60.3620838,56.0232074 61.0711378,55.209575 61.7641378,54.3797956 C64.3256514,51.3154426 65.9711919,47.4177221 65.9711919,43.1853985" mask="url(#type-08-b)"/>
    </g>
    <path fill="#FFF" d="M70.6851395,99.0088736 C72.7023359,96.5983463 74,93.5317098 74,90.2026296 C74,87.148576 72.7667717,83.4995302 70.6851395,81.3963856 C69.1807441,79.876549 67.3443257,78.6461196 65.3503977,78.0816859 C67.2029251,76.2248069 68.9901217,74.2933292 70.6851395,72.2692772 C72.7023359,69.8578511 74,66.7921134 74,63.4630332 C74,60.4080808 72.7667717,56.7599338 70.6851395,54.6567892 C68.5283323,52.4781471 65.6967398,50.8603435 62.6834743,51.0095409 C59.7534383,51.1533457 56.7267487,52.2139058 54.6818092,54.6567892 C51.9737185,57.8914975 49.0409977,60.8745475 45.9257089,63.6239148 C41.2899159,67.3835105 36.3077808,70.5813688 31.0500039,73.1671582 C28.195143,74.4182596 25.2847957,75.4994916 22.3153823,76.3811946 C19.5759687,77.195489 16.9824304,79.4145762 15.5523151,82.104624 C14.1329391,84.7739999 13.5315389,88.7079589 14.4112657,91.7008955 C15.297257,94.714504 16.9940647,97.6220565 19.6117663,99.1436906 C22.3144874,100.714758 25.325068,101.292673 28.3320689,100.398387 C30.0414057,99.8905766 31.7364235,99.3126612 33.4189121,98.6907056 C32.6358389,99.1104357 31.8465012,99.5157854 31.0500039,99.9076534 C28.195143,101.158755 25.2847957,102.239088 22.3153823,103.12169 C19.5759687,103.935085 16.9824304,106.155071 15.5523151,108.84422 C14.1329391,111.514495 13.5315389,115.448454 14.4112657,118.440492 C15.297257,121.4541 16.9940647,124.361653 19.6117663,125.883287 C22.3144874,127.455253 25.325068,128.032269 28.3320689,127.138882 C30.0414057,126.631072 31.7364235,126.053156 33.4189121,125.431201 C32.6358389,125.850931 31.8465012,126.255382 31.0500039,126.64725 C28.195143,127.898351 25.2847957,128.979583 22.3153823,129.861286 C19.5759687,130.674682 16.9824304,132.894668 15.5523151,135.584716 C14.1329391,138.254092 13.5315389,142.18805 14.4112657,145.180987 C15.297257,148.194596 16.9940647,151.101249 19.6117663,152.623782 C22.3144874,154.194849 25.325068,154.771866 28.3320689,153.878479 C30.0414057,153.370668 31.7364235,152.792753 33.4189121,152.170797 C32.6358389,152.590527 31.8473961,152.994978 31.0517938,153.385947 C28.1960379,154.637948 25.2847957,155.71918 22.3153823,156.601781 C19.5759687,157.415177 16.9824304,159.635163 15.5523151,162.324312 C14.1329391,164.994587 13.5315389,168.927647 14.4112657,171.921482 C15.297257,174.934192 16.9940647,177.840846 19.6117663,179.363379 C22.3144874,180.935344 25.325068,181.511462 28.3320689,180.618974 C30.0414057,180.111163 31.7364235,179.532349 33.4189121,178.911292 C32.6358389,179.331023 31.8473961,179.735473 31.0517938,180.126443 C28.1960379,181.377544 25.2847957,182.458776 22.3153823,183.341378 C19.5759687,184.155672 16.9824304,186.374759 15.5523151,189.064807 C14.1329391,191.733284 13.5315389,195.667243 14.4112657,198.661079 C15.297257,201.673788 16.9940647,204.581341 19.6117663,206.103874 C22.3144874,207.674941 25.325068,208.251957 28.3320689,207.35857 C30.0414057,206.85076 31.7364235,206.272844 33.4189121,205.650889 C32.6358389,206.070619 31.8465012,206.475969 31.0500039,206.866938 C28.195143,208.118039 25.2847957,209.199271 22.3153823,210.081873 C19.5759687,210.895269 16.9824304,213.115255 15.5523151,215.804404 C14.1329391,218.47378 13.5315389,222.407739 14.4112657,225.400675 C15.297257,228.414284 16.9940647,231.320937 19.6117663,232.84347 C22.3144874,234.415436 25.325068,234.991554 28.3320689,234.098167 C30.0414057,233.591255 31.7364235,233.012441 33.4189121,232.391384 C32.6358389,232.811114 31.8465012,233.215565 31.0500039,233.606534 C28.195143,234.858534 25.2847957,235.938868 22.3153823,236.821469 C19.5759687,237.634865 16.9824304,239.854851 15.5523151,242.544899 C14.1329391,245.213376 13.5315389,249.147335 14.4112657,252.140272 C15.297257,255.15388 16.9940647,258.061433 19.6117663,259.583965 C22.3144874,261.155032 25.325068,261.732049 28.3320689,260.838662 C30.0414057,260.330851 31.7364235,259.752936 33.4189121,259.13098 C32.6358389,259.550711 31.8465012,259.95606 31.0500039,260.347029 C28.195143,261.598131 25.2847957,262.679363 22.3153823,263.561066 C19.5759687,264.37536 16.9824304,266.594448 15.5523151,269.284495 C14.1329391,271.953871 13.5315389,275.88783 14.4112657,278.879868 C15.297257,281.894375 16.9940647,284.801029 19.6117663,286.323562 C22.3144874,287.895528 25.325068,288.471645 28.3320689,287.578258 C44.4016249,282.804839 59.3990418,272.931744 70.6851395,259.44825 C72.7023359,257.038621 74,253.971985 74,250.642006 C74,247.587952 72.7667717,243.938906 70.6851395,241.83666 C69.1807441,240.316824 67.3443257,239.086394 65.3503977,238.521062 C67.2029251,236.665082 68.9901217,234.732705 70.6851395,232.708653 C72.7023359,230.298126 74,227.232388 74,223.902409 C74,220.848356 72.7667717,217.19931 70.6851395,215.097064 C69.1807441,213.576329 67.3443257,212.345899 65.3503977,211.781466 C67.2029251,209.925485 68.9901217,207.99221 70.6851395,205.968158 C72.7023359,203.55853 74,200.491893 74,197.162813 C74,194.10786 72.7667717,190.459713 70.6851395,188.356569 C69.1807441,186.836732 67.3443257,185.606303 65.3503977,185.04097 C67.2029251,183.18499 68.9901217,181.252614 70.6851395,179.228562 C72.7023359,176.818034 74,173.752297 74,170.423216 C74,167.368264 72.7667717,163.720117 70.6851395,161.616972 C69.1807441,160.096237 67.3443257,158.865808 65.3503977,158.301374 C67.2029251,156.445394 68.9901217,154.513017 70.6851395,152.488965 C72.7023359,150.078438 74,147.011801 74,143.682721 C74,140.628668 72.7667717,136.979622 70.6851395,134.876477 C69.1807441,133.356641 67.3443257,132.126211 65.3503977,131.561777 C67.2029251,129.704899 68.9901217,127.772522 70.6851395,125.74847 C72.7023359,123.337943 74,120.272205 74,116.943125 C74,113.888172 72.7667717,110.240025 70.6851395,108.136881 C69.1807441,106.617044 67.3443257,105.386615 65.3503977,104.821282 C67.2029251,102.965302 68.9901217,101.032926 70.6851395,99.0088736"/>
    <path fill="#000" d="M83.6851395,99.0088736 C85.7023359,96.5983463 87,93.5317098 87,90.2026296 C87,87.148576 85.7667717,83.4995302 83.6851395,81.3963856 C82.1807441,79.876549 80.3443257,78.6461196 78.3503977,78.0816859 C80.2029251,76.2248069 81.9901217,74.2933292 83.6851395,72.2692772 C85.7023359,69.8578511 87,66.7921134 87,63.4630332 C87,60.4080808 85.7667717,56.7599338 83.6851395,54.6567892 C81.5283323,52.4781471 78.6967398,50.8603435 75.6834743,51.0095409 C72.7534383,51.1533457 69.7267487,52.2139058 67.6818092,54.6567892 C64.9737185,57.8914975 62.0409977,60.8745475 58.9257089,63.6239148 C54.2899159,67.3835105 49.3077808,70.5813688 44.0508989,73.1671582 C41.195143,74.4182596 38.2847957,75.4994916 35.3153823,76.3811946 C32.5759687,77.195489 29.9824304,79.4145762 28.5523151,82.104624 C27.1329391,84.7739999 26.5315389,88.7079589 27.4112657,91.7008955 C28.297257,94.714504 29.9940647,97.6220565 32.6117663,99.1436906 C35.3144874,100.714758 38.325068,101.292673 41.3320689,100.398387 C43.0414057,99.8905766 44.7364235,99.3126612 46.4189121,98.6907056 C45.6358389,99.1104357 44.8465012,99.5157854 44.0508989,99.9076534 C41.195143,101.158755 38.2847957,102.239088 35.3153823,103.12169 C32.5759687,103.935085 29.9824304,106.155071 28.5523151,108.84422 C27.1329391,111.514495 26.5315389,115.448454 27.4112657,118.440492 C28.297257,121.4541 29.9940647,124.361653 32.6117663,125.883287 C35.3144874,127.455253 38.325068,128.032269 41.3320689,127.138882 C43.0414057,126.631072 44.7364235,126.053156 46.4189121,125.431201 C45.6358389,125.850931 44.8465012,126.255382 44.0508989,126.64725 C41.195143,127.898351 38.2847957,128.979583 35.3153823,129.861286 C32.5759687,130.674682 29.9824304,132.894668 28.5523151,135.584716 C27.1329391,138.254092 26.5315389,142.18805 27.4112657,145.180987 C28.297257,148.194596 29.9940647,151.101249 32.6117663,152.623782 C35.3144874,154.194849 38.325068,154.771866 41.3320689,153.878479 C43.0414057,153.370668 44.7364235,152.792753 46.4189121,152.170797 C45.6358389,152.590527 44.8473961,152.994978 44.0517938,153.385947 C41.1960379,154.637948 38.2847957,155.71918 35.3153823,156.601781 C32.5759687,157.415177 29.9824304,159.635163 28.5523151,162.324312 C27.1329391,164.994587 26.5315389,168.927647 27.4112657,171.921482 C28.297257,174.934192 29.9940647,177.840846 32.6117663,179.363379 C35.3144874,180.935344 38.325068,181.511462 41.3320689,180.618974 C43.0414057,180.111163 44.7364235,179.532349 46.4189121,178.911292 C45.6358389,179.331023 44.8473961,179.735473 44.0517938,180.126443 C41.1960379,181.377544 38.2847957,182.458776 35.3153823,183.341378 C32.5759687,184.155672 29.9824304,186.374759 28.5523151,189.064807 C27.1329391,191.733284 26.5315389,195.667243 27.4112657,198.661079 C28.297257,201.673788 29.9940647,204.581341 32.6117663,206.103874 C35.3144874,207.674941 38.325068,208.251957 41.3320689,207.35857 C43.0414057,206.85076 44.7364235,206.272844 46.4189121,205.650889 C45.6358389,206.070619 44.8465012,206.475969 44.0508989,206.866938 C41.195143,208.118039 38.2847957,209.199271 35.3153823,210.081873 C32.5759687,210.895269 29.9824304,213.115255 28.5523151,215.804404 C27.1329391,218.47378 26.5315389,222.407739 27.4112657,225.400675 C28.297257,228.414284 29.9940647,231.320937 32.6117663,232.84347 C35.3144874,234.415436 38.325068,234.991554 41.3320689,234.098167 C43.0414057,233.591255 44.7364235,233.012441 46.4189121,232.391384 C45.6358389,232.811114 44.8465012,233.215565 44.0508989,233.606534 C41.195143,234.858534 38.2847957,235.938868 35.3153823,236.821469 C32.5759687,237.634865 29.9824304,239.854851 28.5523151,242.544899 C27.1329391,245.213376 26.5315389,249.147335 27.4112657,252.140272 C28.297257,255.15388 29.9940647,258.061433 32.6117663,259.583965 C35.3144874,261.155032 38.325068,261.732049 41.3320689,260.838662 C43.0414057,260.330851 44.7364235,259.752936 46.4189121,259.13098 C45.6358389,259.550711 44.8465012,259.95606 44.0508989,260.347029 C41.195143,261.598131 38.2847957,262.679363 35.3153823,263.561066 C32.5759687,264.37536 29.9824304,266.594448 28.5523151,269.284495 C27.1329391,271.953871 26.5315389,275.88783 27.4112657,278.879868 C28.297257,281.894375 29.9940647,284.801029 32.6117663,286.323562 C35.3144874,287.895528 38.325068,288.471645 41.3320689,287.578258 C57.4016249,282.804839 72.3990418,272.931744 83.6851395,259.44825 C85.7023359,257.038621 87,253.971985 87,250.642006 C87,247.587952 85.7667717,243.938906 83.6851395,241.83666 C82.1807441,240.316824 80.3443257,239.086394 78.3503977,238.521062 C80.2029251,236.665082 81.9901217,234.732705 83.6851395,232.708653 C85.7023359,230.298126 87,227.232388 87,223.902409 C87,220.848356 85.7667717,217.19931 83.6851395,215.097064 C82.1807441,213.576329 80.3443257,212.345899 78.3503977,211.781466 C80.2029251,209.925485 81.9901217,207.99221 83.6851395,205.968158 C85.7023359,203.55853 87,200.491893 87,197.162813 C87,194.10786 85.7667717,190.459713 83.6851395,188.356569 C82.1807441,186.836732 80.3443257,185.606303 78.3503977,185.04097 C80.2029251,183.18499 81.9901217,181.252614 83.6851395,179.228562 C85.7023359,176.818034 87,173.752297 87,170.423216 C87,167.368264 85.7667717,163.720117 83.6851395,161.616972 C82.1807441,160.096237 80.3443257,158.865808 78.3503977,158.301374 C80.2029251,156.445394 81.9901217,154.513017 83.6851395,152.488965 C85.7023359,150.078438 87,147.011801 87,143.682721 C87,140.628668 85.7667717,136.979622 83.6851395,134.876477 C82.1807441,133.356641 80.3443257,132.126211 78.3503977,131.561777 C80.2029251,129.704899 81.9901217,127.772522 83.6851395,125.74847 C85.7023359,123.337943 87,120.272205 87,116.943125 C87,113.888172 85.7667717,110.240025 83.6851395,108.136881 C82.1807441,106.617044 80.3443257,105.386615 78.3503977,104.821282 C80.2029251,102.965302 81.9901217,101.032926 83.6851395,99.0088736"/>
    <path fill="#FFF" d="M89.0783576,33.5039552 C89.0783576,33.5039552 63.2375917,-1.73966404 54.6246023,0.0671727549 C46.0107141,1.87490535 60.5178896,57 70.4907301,57 C80.4644694,57 93.6117938,43.897074 89.0783576,33.5039552"/>
    <path stroke="#000" stroke-linecap="round" stroke-linejoin="round" stroke-width="8.43" d="M89.0783576,33.5039552 C89.0783576,33.5039552 63.2375917,-1.73966404 54.6246023,0.0671727549 C46.0107141,1.87490535 60.5178896,57 70.4907301,57 C80.4644694,57 93.6117938,43.897074 89.0783576,33.5039552 Z"/>
  </g>
</svg>
