<svg xmlns="http://www.w3.org/2000/svg" width="300" height="300" viewBox="0 0 300 300">
  <g fill="none" fill-rule="evenodd" transform="translate(28 23)">
    <path fill="#000" d="M0.756756757,276 C0.756756757,197.575657 64.3324133,134 142.756757,134 C221.1811,134 284.756757,197.575657 284.756757,276"/>
    <g transform="translate(47.757 37)">
      <path fill="#FFF" d="M22.7189784,0.517956522 C22.7189784,0.517956522 37.306573,34.8220435 27.5097351,37.2366957 C17.7120595,39.6521739 0.363789189,27.7061304 0.363789189,27.7061304"/>
      <path stroke="#000" stroke-linecap="round" stroke-linejoin="round" stroke-width="8.418" d="M22.7189784,0.517956522 C22.7189784,0.517956522 37.306573,34.8220435 27.5097351,37.2366957 C17.7120595,39.6521739 0.363789189,27.7061304 0.363789189,27.7061304"/>
    </g>
    <g transform="translate(64.757 102)">
      <path fill="#FFF" d="M0.711095652,5.40422162 C0.711095652,5.40422162 36.2287043,-5.80521081 37.7131826,4.18014054 C39.1976609,14.1663297 25.6787478,30.2821405 25.6787478,30.2821405"/>
      <path stroke="#000" stroke-linecap="round" stroke-linejoin="round" stroke-width="8.418" d="M0.711095652,5.40422162 C0.711095652,5.40422162 36.2287043,-5.80521081 37.7131826,4.18014054 C39.1976609,14.1663297 25.6787478,30.2821405 25.6787478,30.2821405"/>
    </g>
    <g transform="translate(69.757 9)">
      <path fill="#FFF" d="M29.4412865,0.134435556 C29.4412865,0.134435556 34.2831514,37.8439467 24.1872054,37.6066578 C14.0912595,37.3693689 0.575259459,20.95928 0.575259459,20.95928"/>
      <path stroke="#000" stroke-linecap="round" stroke-linejoin="round" stroke-width="8.418" d="M29.4412865,0.134435556 C29.4412865,0.134435556 34.2831514,37.8439467 24.1872054,37.6066578 C14.0912595,37.3693689 0.575259459,20.95928 0.575259459,20.95928"/>
    </g>
    <g transform="translate(205.757 37)">
      <path fill="#FFF" d="M8.42789459,0.517956522 C8.42789459,0.517956522 -6.1597,34.8220435 3.63797568,37.2366957 C13.4348135,39.6521739 30.7830838,27.7061304 30.7830838,27.7061304"/>
      <path stroke="#000" stroke-linecap="round" stroke-linejoin="round" stroke-width="8.418" d="M8.42789459,0.517956522 C8.42789459,0.517956522 -6.1597,34.8220435 3.63797568,37.2366957 C13.4348135,39.6521739 30.7830838,27.7061304 30.7830838,27.7061304"/>
    </g>
    <g transform="translate(181.757 102)">
      <path fill="#FFF" d="M37.4340478,5.40422162 C37.4340478,5.40422162 1.91643913,-5.80521081 0.43196087,4.18014054 C-1.05251739,14.1663297 12.4663957,30.2821405 12.4663957,30.2821405"/>
      <path stroke="#000" stroke-linecap="round" stroke-linejoin="round" stroke-width="8.418" d="M37.4340478,5.40422162 C37.4340478,5.40422162 1.91643913,-5.80521081 0.43196087,4.18014054 C-1.05251739,14.1663297 12.4663957,30.2821405 12.4663957,30.2821405"/>
    </g>
    <g transform="translate(182.757 9)">
      <path fill="#FFF" d="M1.7055027,0.134435556 C1.7055027,0.134435556 -3.13636216,37.8439467 6.95958378,37.6066578 C17.0555297,37.3693689 30.5715297,20.95928 30.5715297,20.95928"/>
      <path stroke="#000" stroke-linecap="round" stroke-linejoin="round" stroke-width="8.418" d="M1.7055027,0.134435556 C1.7055027,0.134435556 -3.13636216,37.8439467 6.95958378,37.6066578 C17.0555297,37.3693689 30.5715297,20.95928 30.5715297,20.95928"/>
    </g>
    <path stroke="#000" stroke-linecap="round" stroke-linejoin="round" stroke-width="61.05" d="M89.5961837 177C89.5961837 177 102.857115 150.5516 46.7531749 119.016968-9.35076505 87.4831704 48.7933182 0 97.7567568 0M195.91733 177C195.91733 177 182.656399 150.5516 238.760339 119.016968 294.864279 87.4831704 236.720195 0 187.756757 0"/>
  </g>
</svg>
