<svg xmlns="http://www.w3.org/2000/svg" width="300" height="300" viewBox="0 0 300 300">
  <g fill="none" fill-rule="evenodd" transform="translate(-56 -76)">
    <path fill="#FFF" d="M326.224407,150 C326.224407,150 338.836159,130.11593 342.84449,94.1217273 C346.854,58.1263477 272,121.022943 272,121.022943 L326.224407,150 Z"/>
    <path stroke="#000" stroke-width="11.042" d="M326.224407,150 C326.224407,150 338.836159,130.11593 342.84449,94.1217273 C346.854,58.1263477 272,121.022943 272,121.022943 L326.224407,150 Z"/>
    <path fill="#FFF" d="M315,144.07076 C315,144.07076 351.009501,123.701115 346.630737,138.222535 C342.251972,152.745122 335.487592,160 335.487592,160 L315,144.07076 Z"/>
    <path stroke="#000" stroke-width="11.042" d="M315,144.07076 C315,144.07076 351.009501,123.701115 346.630737,138.222535 C342.251972,152.745122 335.487592,160 335.487592,160 L315,144.07076 Z"/>
    <path fill="#000" d="M351,376 L351,198.968393 C351,131.095918 268.654092,95 199.000586,95 C129.34708,95 47,131.095918 47,198.968393 L47,376 L351,376 Z"/>
    <path fill="#FFF" d="M60.0761418,243 C60.0761418,243 36.7056416,240.536215 6.05844425,221.450935 C-24.5875781,202.366822 71,183 71,183 L60.0761418,243 Z"/>
    <path stroke="#000" stroke-width="11.042" d="M60.0761418,243 C60.0761418,243 36.7056416,240.536215 6.05844425,221.450935 C-24.5875781,202.366822 71,183 71,183 L60.0761418,243 Z"/>
    <path fill="#FFF" d="M62,231 C62,231 24.0802633,246.268596 38.1172757,251.977221 C52.1542881,257.687025 61.9615584,256.971236 61.9615584,256.971236 L62,231 Z"/>
    <path stroke="#000" stroke-width="11.042" d="M62,231 C62,231 24.0802633,246.268596 38.1172757,251.977221 C52.1542881,257.687025 61.9615584,256.971236 61.9615584,256.971236 L62,231 Z"/>
    <path fill="#FFF" d="M135.236284,136 C135.236284,136 131.007766,86.7911811 158.326975,15.8867616 C185.64501,-55.017658 264,134.398098 264,134.398098 L135.236284,136 Z"/>
    <path stroke="#000" stroke-width="11.042" d="M135.236284,136 C135.236284,136 131.007766,86.7911811 158.326975,15.8867616 C185.64501,-55.017658 264,134.398098 264,134.398098 L135.236284,136 Z"/>
    <path fill="#FFF" d="M163,135.817862 C163,135.817862 116.006657,63.6118449 109.895606,94.8306201 C103.784555,126.049395 109.244991,146 109.244991,146 L163,135.817862 Z"/>
    <path stroke="#000" stroke-width="11.042" d="M163,135.817862 C163,135.817862 116.006657,63.6118449 109.895606,94.8306201 C103.784555,126.049395 109.244991,146 109.244991,146 L163,135.817862 Z"/>
  </g>
</svg>
