<svg xmlns="http://www.w3.org/2000/svg" xmlns:xlink="http://www.w3.org/1999/xlink" width="300" height="300" viewBox="0 0 300 300">
  <defs>
    <polygon id="type-11-a" points="0 .385 253.975 .385 253.975 298 0 298"/>
  </defs>
  <g fill="none" fill-rule="evenodd" transform="translate(11 -103)">
    <g transform="translate(0 104)">
      <mask id="type-11-b" fill="#fff">
        <use xlink:href="#type-11-a"/>
      </mask>
      <path fill="#000" d="M253.9752,298 L253.9752,113.932 C253.9752,51.222 197.1212,0.385 126.9872,0.385 C56.8542,0.385 0.0002,51.222 0.0002,113.932 L0.0002,298 L253.9752,298 Z" mask="url(#type-11-b)"/>
    </g>
    <path fill="#000" d="M27.9874 258C28.7674 247.766 28.3304 96.476 28.1004 30.445 28.0424 13.645 43.5994 0 62.8104 0L83.4894 0C94.2584 0 102.9874 7.635 102.9874 17.052L102.9874 225.641M193.9879 258C193.2079 247.766 193.6449 96.476 193.8749 30.445 193.9329 13.645 178.3759 0 159.1649 0L138.4859 0C127.7169 0 118.9879 7.635 118.9879 17.052L118.9879 225.641"/>
  </g>
</svg>
