<svg xmlns="http://www.w3.org/2000/svg" width="300" height="300" viewBox="0 0 300 300">
  <g fill="none" fill-rule="evenodd" transform="translate(-30 -49)">
    <path fill="#000" d="M7.4933,348.756 L7.4933,179.004 C7.4933,148.39 18.4443,118.785 38.3683,95.541 C62.7333,67.115 98.3023,50.756 135.7413,50.756 L152.0973,50.756 C189.5353,50.756 225.1053,67.115 249.4703,95.541 C269.3933,118.785 280.3453,148.39 280.3453,179.004 L280.3453,348.756"/>
    <path fill="#FFF" d="M234.1251,170.1984 C234.1251,170.1984 284.7951,118.0474 286.0511,87.2344 C287.1011,61.4684 275.1901,67.9574 265.5971,77.1314 C260.9041,81.6184 253.5821,79.3024 252.8841,73.1694 C251.1661,58.0694 246.8551,38.0354 236.0491,35.1714 C223.5001,31.8454 210.5211,51.0014 210.5211,51.0014 C210.5211,51.0014 283.6331,98.0324 234.1251,170.1984"/>
    <path stroke="#000" stroke-width="10.448" d="M234.1251,170.1984 C234.1251,170.1984 284.7951,118.0474 286.0511,87.2344 C287.1011,61.4684 275.1901,67.9574 265.5971,77.1314 C260.9041,81.6184 253.5821,79.3024 252.8841,73.1694 C251.1661,58.0694 246.8551,38.0354 236.0491,35.1714 C223.5001,31.8454 210.5211,51.0014 210.5211,51.0014 C210.5211,51.0014 283.6331,98.0324 234.1251,170.1984 Z"/>
    <path fill="#FFF" d="M234.7423,173.756 C234.7423,173.756 239.1503,55.877 207.1943,17.387 C180.4713,-14.802 173.1683,5.954 171.5733,27.429 C170.7923,37.934 159.4543,43.098 151.9513,36.465 C133.4793,20.138 106.5243,0.68 90.3913,8.967 C71.6593,18.589 76.8253,55.77 76.8253,55.77 C76.8253,55.77 216.0103,33.024 234.7423,173.756"/>
    <path stroke="#000" stroke-width="11.513" d="M234.7423,173.756 C234.7423,173.756 239.1503,55.877 207.1943,17.387 C180.4713,-14.802 173.1683,5.954 171.5733,27.429 C170.7923,37.934 159.4543,43.098 151.9513,36.465 C133.4793,20.138 106.5243,0.68 90.3913,8.967 C71.6593,18.589 76.8253,55.77 76.8253,55.77 C76.8253,55.77 216.0103,33.024 234.7423,173.756 Z"/>
    <path fill="#FFF" d="M192.0636,168.4249 C192.0636,168.4249 140.7076,74.4979 97.9086,59.3509 C62.1186,46.6829 66.0736,66.2559 74.8126,83.7359 C79.0866,92.2859 72.6496,101.5799 63.7176,99.8989 C41.7306,95.7579 11.6766,93.1219 2.9546,107.0789 C-7.1734,123.2869 14.1356,149.8649 14.1356,149.8649 C14.1356,149.8649 112.0476,67.4409 192.0636,168.4249"/>
    <path stroke="#000" stroke-width="10.448" d="M192.0636,168.4249 C192.0636,168.4249 140.7076,74.4979 97.9086,59.3509 C62.1186,46.6829 66.0736,66.2559 74.8126,83.7359 C79.0866,92.2859 72.6496,101.5799 63.7176,99.8989 C41.7306,95.7579 11.6766,93.1219 2.9546,107.0789 C-7.1734,123.2869 14.1356,149.8649 14.1356,149.8649 C14.1356,149.8649 112.0476,67.4409 192.0636,168.4249 Z"/>
  </g>
</svg>
