<svg xmlns="http://www.w3.org/2000/svg" xmlns:xlink="http://www.w3.org/1999/xlink" width="300" height="300" viewBox="0 0 300 300">
  <defs>
    <polygon id="type-02-a" points=".602 .408 242.658 .408 242.658 293 .602 293"/>
  </defs>
  <g fill="none" fill-rule="evenodd" transform="translate(20)">
    <g transform="translate(6 6)">
      <mask id="type-02-b" fill="#fff">
        <use xlink:href="#type-02-a"/>
      </mask>
      <path fill="#000" d="M242.658103,293 L242.658103,83.1253506 C242.658103,29.1258079 177.090985,0.408234756 121.629808,0.408234756 C66.168632,0.408234756 0.601514338,29.1258079 0.601514338,83.1253506 L0.601514338,293 L242.658103,293 Z" mask="url(#type-02-b)"/>
    </g>
    <g transform="translate(170 8)">
      <path fill="#000" d="M0.919259259,9.34652174 L2.90722222,6.38565217 C8.09796296,0.256086957 16.3109259,-1.72043478 21.2516667,1.97086957 C26.1933333,5.66130435 25.9914815,13.6221739 20.8007407,19.7508696"/>
      <path stroke="#FFF" stroke-linecap="round" stroke-linejoin="round" stroke-width="4.659" d="M0.919259259,9.34652174 L2.90722222,6.38565217 C8.09796296,0.256086957 16.3109259,-1.72043478 21.2516667,1.97086957 C26.1933333,5.66130435 25.9914815,13.6221739 20.8007407,19.7508696"/>
    </g>
    <g transform="translate(65 8)">
      <path fill="#000" d="M5.24788,21.953624 L3.15788,19.093624 C-0.79156,12.222584 0.22308,4.228664 5.42476,1.238424 C10.62732,-1.751816 18.04572,1.393304 21.99604,8.264344"/>
      <path stroke="#FFF" stroke-linecap="round" stroke-linejoin="round" stroke-width="4.659" d="M5.24788,21.953624 L3.15788,19.093624 C-0.79156,12.222584 0.22308,4.228664 5.42476,1.238424 C10.62732,-1.751816 18.04572,1.393304 21.99604,8.264344"/>
    </g>
    <g transform="translate(0 57)">
      <path fill="#000" d="M9.70965217,24.4000926 L6.72269565,22.4556481 C0.526173913,17.3575 -1.55817391,9.17416667 2.06791304,4.1787963 C5.694,-0.816574074 13.6566087,-0.733240741 19.8531304,4.36583333"/>
      <path stroke="#FFF" stroke-linecap="round" stroke-linejoin="round" stroke-width="4.659" d="M9.70965217,24.4000926 L6.72269565,22.4556481 C0.526173913,17.3575 -1.55817391,9.17416667 2.06791304,4.1787963 C5.694,-0.816574074 13.6566087,-0.733240741 19.8531304,4.36583333"/>
    </g>
    <g transform="translate(8 78)">
      <path fill="#000" d="M9.9686125,24.4615741 L6.9629875,22.5171296 C0.7277375,17.4189815 -1.3696375,9.23564815 2.2791125,4.24027778 C5.9278625,-0.755092593 13.9402375,-0.671759259 20.1754875,4.42731481"/>
      <path stroke="#FFF" stroke-linecap="round" stroke-linejoin="round" stroke-width="4.659" d="M9.9686125,24.4615741 L6.9629875,22.5171296 C0.7277375,17.4189815 -1.3696375,9.23564815 2.2791125,4.24027778 C5.9278625,-0.755092593 13.9402375,-0.671759259 20.1754875,4.42731481"/>
    </g>
    <g transform="translate(86)">
      <path fill="#000" d="M0.878981481,15.49377 L1.35305556,11.90007 C3.30768519,4.02057 9.86787037,-1.20033 16.0049074,0.23877 C22.1428704,1.67697 25.5326852,9.23157 23.5780556,17.11107"/>
      <path stroke="#FFF" stroke-linecap="round" stroke-linejoin="round" stroke-width="4.659" d="M0.878981481,15.49377 L1.35305556,11.90007 C3.30768519,4.02057 9.86787037,-1.20033 16.0049074,0.23877 C22.1428704,1.67697 25.5326852,9.23157 23.5780556,17.11107"/>
    </g>
    <g transform="translate(201 186)">
      <path fill="#000" d="M0.896203704,16.0317 L1.37027778,12.438 C3.32490741,4.5585 9.88509259,-0.6624 16.0221296,0.7767 C22.1600926,2.2158 25.5499074,9.7695 23.5952778,17.649"/>
      <path stroke="#FFF" stroke-linecap="round" stroke-linejoin="round" stroke-width="4.659" d="M0.896203704,16.0317 L1.37027778,12.438 C3.32490741,4.5585 9.88509259,-0.6624 16.0221296,0.7767 C22.1600926,2.2158 25.5499074,9.7695 23.5952778,17.649"/>
    </g>
    <g transform="translate(216 169)">
      <path fill="#000" d="M0.1056,15.62391 L0.578215385,12.03021 C2.52683077,4.15071 9.06683077,-1.07019 15.1849846,0.36891 C21.3040615,1.80711 24.6834462,9.36171 22.7348308,17.24121"/>
      <path stroke="#FFF" stroke-linecap="round" stroke-linejoin="round" stroke-width="4.659" d="M0.1056,15.62391 L0.578215385,12.03021 C2.52683077,4.15071 9.06683077,-1.07019 15.1849846,0.36891 C21.3040615,1.80711 24.6834462,9.36171 22.7348308,17.24121"/>
    </g>
    <g transform="translate(10 142)">
      <path fill="#000" d="M16.58592,23.8476923 L12.98412,23.4433846 C5.07132,21.6415385 -0.26568,15.2012308 1.06452,9.05630769 C2.39382,2.91230769 9.88722,-0.609230769 17.80002,1.19261538"/>
      <path stroke="#FFF" stroke-linecap="round" stroke-linejoin="round" stroke-width="4.659" d="M16.58592,23.8476923 L12.98412,23.4433846 C5.07132,21.6415385 -0.26568,15.2012308 1.06452,9.05630769 C2.39382,2.91230769 9.88722,-0.609230769 17.80002,1.19261538"/>
    </g>
    <g transform="translate(22 120)">
      <path fill="#000" d="M5.822344,23.268 L3.530824,20.4341538 C-0.904376,13.5443077 -0.468776,5.10461538 4.503224,1.58215385 C9.476104,-1.94030769 17.103064,0.788307692 21.538264,7.67815385"/>
      <path stroke="#FFF" stroke-linecap="round" stroke-linejoin="round" stroke-width="4.659" d="M5.822344,23.268 L3.530824,20.4341538 C-0.904376,13.5443077 -0.468776,5.10461538 4.503224,1.58215385 C9.476104,-1.94030769 17.103064,0.788307692 21.538264,7.67815385"/>
    </g>
    <g transform="translate(216 203)">
      <path fill="#000" d="M0.164123077,5.916328 L2.91581538,3.535048 C9.64412308,-1.121032 18.0948923,-0.958232 21.7918154,3.897608 C25.4896615,8.753448 23.0315077,16.464008 16.3032,21.120088"/>
      <path stroke="#FFF" stroke-linecap="round" stroke-linejoin="round" stroke-width="4.659" d="M0.164123077,5.916328 L2.91581538,3.535048 C9.64412308,-1.121032 18.0948923,-0.958232 21.7918154,3.897608 C25.4896615,8.753448 23.0315077,16.464008 16.3032,21.120088"/>
    </g>
  </g>
</svg>
