<svg xmlns="http://www.w3.org/2000/svg" xmlns:xlink="http://www.w3.org/1999/xlink" width="300" height="300" viewBox="0 0 300 300">
  <defs>
    <polygon id="type-25-a" points=".805 .87 302.486 .87 302.486 279 .805 279"/>
  </defs>
  <g fill="none" fill-rule="evenodd" transform="translate(-6 -30)">
    <path fill="#FFF" d="M239.8202,83.6364 C239.8202,83.6364 197.0002,-0.2976 178.0842,0.6154 C159.1682,1.5274 171.1042,123.9634 192.2902,127.3674 C213.4762,130.7724 245.8902,107.3324 239.8202,83.6364"/>
    <path stroke="#000" stroke-width="11.215" d="M239.8202,83.6364 C239.8202,83.6364 197.0002,-0.2976 178.0842,0.6154 C159.1682,1.5274 171.1042,123.9634 192.2902,127.3674 C213.4762,130.7724 245.8902,107.3324 239.8202,83.6364 Z"/>
    <g transform="translate(3 50.068)">
      <mask id="type-25-b" fill="#fff">
        <use xlink:href="#type-25-a"/>
      </mask>
      <path fill="#000" d="M0.8046,279 L62.0036,30.189 C66.2396,12.973 81.6786,0.87 99.4086,0.87 L212.8876,0.87 C231.1156,0.87 246.8476,13.646 250.5876,31.484 L302.4866,279" mask="url(#type-25-b)"/>
    </g>
    <path fill="#FFF" d="M133.2782,83.6364 C133.2782,83.6364 90.4582,-0.2976 71.5422,0.6154 C52.6262,1.5274 64.5622,123.9634 85.7492,127.3674 C106.9342,130.7724 139.3482,107.3324 133.2782,83.6364"/>
    <path stroke="#000" stroke-width="11.215" d="M133.2782,83.6364 C133.2782,83.6364 90.4582,-0.2976 71.5422,0.6154 C52.6262,1.5274 64.5622,123.9634 85.7492,127.3674 C106.9342,130.7724 139.3482,107.3324 133.2782,83.6364 Z"/>
    <g transform="translate(31 120.068)">
      <path fill="#FFF" d="M41.2831,4.1182 C41.2831,4.1182 0.9121,-4.8688 0.1711,6.1772 C-0.5709,17.2222 15.8681,33.5902 15.8681,33.5902"/>
      <path stroke="#000" stroke-linecap="round" stroke-linejoin="round" stroke-width="7.732" d="M41.2831,4.1182 C41.2831,4.1182 0.9121,-4.8688 0.1711,6.1772 C-0.5709,17.2222 15.8681,33.5902 15.8681,33.5902"/>
    </g>
    <g transform="translate(31 148.068)">
      <path fill="#FFF" d="M41.2831,4.1553 C41.2831,4.1553 0.9121,-4.8317 0.1711,6.2143 C-0.5709,17.2603 15.8681,33.6273 15.8681,33.6273"/>
      <path stroke="#000" stroke-linecap="round" stroke-linejoin="round" stroke-width="7.732" d="M41.2831,4.1553 C41.2831,4.1553 0.9121,-4.8317 0.1711,6.2143 C-0.5709,17.2603 15.8681,33.6273 15.8681,33.6273"/>
    </g>
    <g transform="translate(10 210.068)">
      <path fill="#FFF" d="M42.0956,3.8379 C42.0956,3.8379 1.7256,-5.1501 0.9836,5.8969 C0.2426,16.9419 16.6816,33.3099 16.6816,33.3099"/>
      <path stroke="#000" stroke-linecap="round" stroke-linejoin="round" stroke-width="7.732" d="M42.0956,3.8379 C42.0956,3.8379 1.7256,-5.1501 0.9836,5.8969 C0.2426,16.9419 16.6816,33.3099 16.6816,33.3099"/>
    </g>
    <g transform="translate(0 242.068)">
      <path fill="#FFF" d="M42.0019,4.3613 C42.0019,4.3613 1.6319,-4.6267 0.8909,6.4203 C0.1489,17.4653 16.5879,33.8333 16.5879,33.8333"/>
      <path stroke="#000" stroke-linecap="round" stroke-linejoin="round" stroke-width="7.732" d="M42.0019,4.3613 C42.0019,4.3613 1.6319,-4.6267 0.8909,6.4203 C0.1489,17.4653 16.5879,33.8333 16.5879,33.8333"/>
    </g>
    <g transform="translate(0 272.068)">
      <path fill="#FFF" d="M42.0019,3.5195 C42.0019,3.5195 1.6319,-5.4675 0.8909,5.5785 C0.1489,16.6245 16.5879,32.9915 16.5879,32.9915"/>
      <path stroke="#000" stroke-linecap="round" stroke-linejoin="round" stroke-width="7.732" d="M42.0019,3.5195 C42.0019,3.5195 1.6319,-5.4675 0.8909,5.5785 C0.1489,16.6245 16.5879,32.9915 16.5879,32.9915"/>
    </g>
  </g>
</svg>
