<svg xmlns="http://www.w3.org/2000/svg" xmlns:xlink="http://www.w3.org/1999/xlink" width="188" height="188" viewBox="0 0 188 188">
  <defs>
    <path id="type-06-a" d="M0.193,14.264 C0.193,22.063 18.945,28.385 42.078,28.385 L42.078,28.385 C65.211,28.385 83.963,22.063 83.963,14.264 L83.963,14.264 C83.963,6.467 65.211,0.145 42.078,0.145 L42.078,0.145 C18.945,0.145 0.193,6.467 0.193,14.264"/>
    <path id="type-06-c" d="M0.193,14.264 C0.193,22.063 18.945,28.385 42.078,28.385 L42.078,28.385 C65.211,28.385 83.963,22.063 83.963,14.264 L83.963,14.264 C83.963,6.467 65.211,0.145 42.078,0.145 L42.078,0.145 C18.945,0.145 0.193,6.467 0.193,14.264"/>
    <path id="type-06-e" d="M0.193,14.264 C0.193,22.063 18.945,28.385 42.078,28.385 L42.078,28.385 C65.211,28.385 83.963,22.063 83.963,14.264 L83.963,14.264 C83.963,6.467 65.211,0.145 42.078,0.145 L42.078,0.145 C18.945,0.145 0.193,6.467 0.193,14.264"/>
    <path id="type-06-g" d="M0.193,14.264 C0.193,22.063 18.945,28.385 42.078,28.385 L42.078,28.385 C65.211,28.385 83.963,22.063 83.963,14.264 L83.963,14.264 C83.963,6.467 65.211,0.145 42.078,0.145 L42.078,0.145 C18.945,0.145 0.193,6.467 0.193,14.264"/>
    <path id="type-06-i" d="M0.193,14.264 C0.193,22.063 18.945,28.385 42.078,28.385 L42.078,28.385 C65.211,28.385 83.963,22.063 83.963,14.264 L83.963,14.264 C83.963,6.467 65.211,0.145 42.078,0.145 L42.078,0.145 C18.945,0.145 0.193,6.467 0.193,14.264"/>
    <path id="type-06-k" d="M0.193,14.264 C0.193,22.063 18.945,28.385 42.078,28.385 L42.078,28.385 C65.211,28.385 83.963,22.063 83.963,14.264 L83.963,14.264 C83.963,6.467 65.211,0.145 42.078,0.145 L42.078,0.145 C18.945,0.145 0.193,6.467 0.193,14.264"/>
    <path id="type-06-m" d="M0.193,14.264 C0.193,22.063 18.945,28.385 42.078,28.385 L42.078,28.385 C65.211,28.385 83.963,22.063 83.963,14.264 L83.963,14.264 C83.963,6.467 65.211,0.145 42.078,0.145 L42.078,0.145 C18.945,0.145 0.193,6.467 0.193,14.264"/>
    <path id="type-06-o" d="M0.193,14.264 C0.193,22.063 18.945,28.385 42.078,28.385 L42.078,28.385 C65.211,28.385 83.963,22.063 83.963,14.264 L83.963,14.264 C83.963,6.467 65.211,0.145 42.078,0.145 L42.078,0.145 C18.945,0.145 0.193,6.467 0.193,14.264"/>
    <path id="type-06-q" d="M0.193,14.264 C0.193,22.063 18.945,28.385 42.078,28.385 L42.078,28.385 C65.211,28.385 83.963,22.063 83.963,14.264 L83.963,14.264 C83.963,6.467 65.211,0.145 42.078,0.145 L42.078,0.145 C18.945,0.145 0.193,6.467 0.193,14.264"/>
    <path id="type-06-s" d="M0.193,14.264 C0.193,22.063 18.945,28.385 42.078,28.385 L42.078,28.385 C65.211,28.385 83.963,22.063 83.963,14.264 L83.963,14.264 C83.963,6.467 65.211,0.145 42.078,0.145 L42.078,0.145 C18.945,0.145 0.193,6.467 0.193,14.264"/>
    <path id="type-06-u" d="M0.193,14.264 C0.193,22.063 18.945,28.385 42.078,28.385 L42.078,28.385 C65.211,28.385 83.963,22.063 83.963,14.264 L83.963,14.264 C83.963,6.467 65.211,0.145 42.078,0.145 L42.078,0.145 C18.945,0.145 0.193,6.467 0.193,14.264"/>
    <path id="type-06-w" d="M0.193,14.264 C0.193,22.063 18.945,28.385 42.078,28.385 L42.078,28.385 C65.211,28.385 83.963,22.063 83.963,14.264 L83.963,14.264 C83.963,6.467 65.211,0.145 42.078,0.145 L42.078,0.145 C18.945,0.145 0.193,6.467 0.193,14.264"/>
  </defs>
  <g fill="none" fill-rule="evenodd" transform="translate(19 19)">
    <path fill="#000" d="M150,75 C150,116.421 116.421,150 75,150 C33.579,150 0,116.421 0,75 C0,33.579 33.579,0 75,0 C116.421,0 150,33.579 150,75"/>
    <path fill="#FFF" d="M74.7393,57.9092 C74.7393,70.0102 68.2463,79.8182 60.2373,79.8182 C52.2283,79.8182 45.7353,70.0102 45.7353,57.9092 C45.7353,45.8092 52.2283,36.0002 60.2373,36.0002 C68.2463,36.0002 74.7393,45.8092 74.7393,57.9092"/>
    <path fill="#000" d="M67.2285,59.9014 C67.2285,62.4044 65.8855,64.4334 64.2285,64.4334 C62.5715,64.4334 61.2285,62.4044 61.2285,59.9014 C61.2285,57.3984 62.5715,55.3694 64.2285,55.3694 C65.8855,55.3694 67.2285,57.3984 67.2285,59.9014"/>
    <path fill="#FFF" d="M78.5762,40.9092 C78.5762,53.0102 85.0692,62.8182 93.0782,62.8182 C101.0872,62.8182 107.5802,53.0102 107.5802,40.9092 C107.5802,28.8092 101.0872,19.0002 93.0782,19.0002 C85.0692,19.0002 78.5762,28.8092 78.5762,40.9092"/>
    <path fill="#000" d="M90.0864,42.9014 C90.0864,45.4044 91.4294,47.4334 93.0864,47.4334 C94.7434,47.4334 96.0864,45.4044 96.0864,42.9014 C96.0864,40.3984 94.7434,38.3694 93.0864,38.3694 C91.4294,38.3694 90.0864,40.3984 90.0864,42.9014"/>
    <path fill="#FFF" d="M111.417,57.9092 C111.417,70.0102 117.91,79.8182 125.919,79.8182 C133.928,79.8182 140.421,70.0102 140.421,57.9092 C140.421,45.8092 133.928,36.0002 125.919,36.0002 C117.91,36.0002 111.417,45.8092 111.417,57.9092"/>
    <path fill="#000" d="M118.9272,59.9014 C118.9272,62.4044 120.2702,64.4334 121.9272,64.4334 C123.5842,64.4334 124.9272,62.4044 124.9272,59.9014 C124.9272,57.3984 123.5842,55.3694 121.9272,55.3694 C120.2702,55.3694 118.9272,57.3984 118.9272,59.9014"/>
    <g transform="translate(51 84)">
      <mask id="type-06-b" fill="#fff">
        <use xlink:href="#type-06-a"/>
      </mask>
      <path fill="#FFF" d="M-4.2896,18.2002 C-2.5606,12.8622 2.1504,10.3672 6.2334,12.6282 C10.3174,14.8872 12.2264,21.0472 10.4974,26.3852" mask="url(#type-06-b)"/>
      <mask id="type-06-d" fill="#fff">
        <use xlink:href="#type-06-c"/>
      </mask>
      <path fill="#FFF" d="M9.9316,25.0928 C10.4676,20.8878 13.5086,18.0468 16.7246,18.7468 C19.9406,19.4468 22.1136,23.4228 21.5776,27.6278" mask="url(#type-06-d)"/>
      <mask id="type-06-f" fill="#fff">
        <use xlink:href="#type-06-e"/>
      </mask>
      <path fill="#FFF" d="M20.938,26.873 C21.257,22.631 24.146,19.531 27.391,19.948 C30.636,20.365 33.007,24.143 32.688,28.385" mask="url(#type-06-f)"/>
      <mask id="type-06-h" fill="#fff">
        <use xlink:href="#type-06-g"/>
      </mask>
      <path fill="#FFF" d="M88.4458,18.2002 C86.7168,12.8622 82.0058,10.3672 77.9218,12.6282 C73.8388,14.8872 71.9298,21.0472 73.6588,26.3852" mask="url(#type-06-h)"/>
      <mask id="type-06-j" fill="#fff">
        <use xlink:href="#type-06-i"/>
      </mask>
      <path fill="#FFF" d="M74.2246,25.0928 C73.6886,20.8878 70.6476,18.0468 67.4316,18.7468 C64.2156,19.4468 62.0426,23.4228 62.5776,27.6278" mask="url(#type-06-j)"/>
      <mask id="type-06-l" fill="#fff">
        <use xlink:href="#type-06-k"/>
      </mask>
      <path fill="#FFF" d="M63.2183,26.873 C62.8993,22.631 60.0103,19.531 56.7643,19.948 C53.5203,20.365 51.1483,24.143 51.4683,28.385" mask="url(#type-06-l)"/>
      <mask id="type-06-n" fill="#fff">
        <use xlink:href="#type-06-m"/>
      </mask>
      <path fill="#FFF" d="M88.4458,10.5937 C86.7168,15.9317 82.0058,18.4267 77.9218,16.1657 C73.8388,13.9067 71.9298,7.7467 73.6588,2.4087" mask="url(#type-06-n)"/>
      <mask id="type-06-p" fill="#fff">
        <use xlink:href="#type-06-o"/>
      </mask>
      <path fill="#FFF" d="M74.2246,3.7021 C73.6886,7.9061 70.6476,10.7471 67.4316,10.0471 C64.2156,9.3471 62.0426,5.3711 62.5786,1.1661" mask="url(#type-06-p)"/>
      <mask id="type-06-r" fill="#fff">
        <use xlink:href="#type-06-q"/>
      </mask>
      <path fill="#FFF" d="M63.2183,1.9209 C62.8993,6.1629 60.0103,9.2629 56.7653,8.8459 C53.5203,8.4289 51.1493,4.6509 51.4683,0.4099" mask="url(#type-06-r)"/>
      <mask id="type-06-t" fill="#fff">
        <use xlink:href="#type-06-s"/>
      </mask>
      <path fill="#FFF" d="M-4.2896,10.5937 C-2.5606,15.9317 2.1504,18.4267 6.2334,16.1657 C10.3174,13.9067 12.2264,7.7467 10.4974,2.4087" mask="url(#type-06-t)"/>
      <mask id="type-06-v" fill="#fff">
        <use xlink:href="#type-06-u"/>
      </mask>
      <path fill="#FFF" d="M9.9316,3.7021 C10.4676,7.9061 13.5086,10.7471 16.7246,10.0471 C19.9406,9.3471 22.1136,5.3711 21.5786,1.1661" mask="url(#type-06-v)"/>
      <mask id="type-06-x" fill="#fff">
        <use xlink:href="#type-06-w"/>
      </mask>
      <path fill="#FFF" d="M20.938,1.9209 C21.257,6.1629 24.146,9.2629 27.391,8.8459 C30.636,8.4289 33.007,4.6509 32.688,0.4099" mask="url(#type-06-x)"/>
    </g>
    <g transform="translate(31 79)">
      <path stroke="#FFF" stroke-linecap="round" stroke-linejoin="round" stroke-width="4" d="M103.9634,19.2646 C103.9634,27.0626 85.2104,33.3846 62.0784,33.3846 C38.9454,33.3846 20.1924,27.0626 20.1924,19.2646 C20.1924,11.4666 38.9454,5.1456 62.0784,5.1456 C85.2104,5.1456 103.9634,11.4666 103.9634,19.2646 Z"/>
      <path fill="#FFF" d="M12.5054 19.2129C12.5054 19.2129 4.6694 6.6849 1.2094 12.7719 1.2094 12.7719-2.2506 18.8589 12.5054 19.2129M12.3721 12.4629C12.3721 12.4629 11.2251-2.2791 5.3401 1.5169 5.3401 1.5169-.5449 5.3119 12.3721 12.4629"/>
    </g>
  </g>
</svg>
