<svg xmlns="http://www.w3.org/2000/svg" width="188" height="188" viewBox="0 0 188 188">
  <g fill="none" fill-rule="evenodd" transform="translate(19 19)">
    <path fill="#000" d="M150,75 C150,116.421 116.421,150 75,150 C33.579,150 0,116.421 0,75 C0,33.579 33.579,0 75,0 C116.421,0 150,33.579 150,75"/>
    <path stroke="#FFF" stroke-linecap="round" stroke-linejoin="round" stroke-width="4" d="M61.1895,87.3066 L132.1855,87.3066"/>
    <path fill="#FFF" d="M65.6367 87.0684C65.6367 81.4114 68.6587 76.8244 72.3867 76.8244 76.1147 76.8244 79.1367 81.4114 79.1367 87.0684M79.1372 87.0684C79.1372 82.7264 81.6262 79.2074 84.6962 79.2074 87.7662 79.2074 90.2552 82.7264 90.2552 87.0684M127.103 87.0684C127.103 81.4114 124.081 76.8244 120.353 76.8244 116.624 76.8244 113.603 81.4114 113.603 87.0684M113.6025 87.0684C113.6025 82.7264 111.1135 79.2074 108.0435 79.2074 104.9735 79.2074 102.4845 82.7264 102.4845 87.0684M52.8892 35.6699C47.0382 46.5159 50.1862 59.5649 59.9192 64.8149 69.6522 70.0659 82.2852 65.5299 88.1362 54.6849 93.9862 43.8389 90.8392 30.7909 81.1062 25.5399 71.3722 20.2889 58.7402 24.8249 52.8892 35.6699"/>
    <path fill="#000" d="M66.4302,43.0684 C65.2112,45.3274 65.8672,48.0464 67.8942,49.1394 C69.9222,50.2334 72.5542,49.2884 73.7722,47.0294 C74.9912,44.7694 74.3362,42.0514 72.3082,40.9584 C70.2812,39.8644 67.6492,40.8084 66.4302,43.0684"/>
    <path fill="#FFF" d="M96.8892,35.6699 C91.0382,46.5159 94.1862,59.5649 103.9192,64.8149 C113.6522,70.0659 126.2852,65.5299 132.1362,54.6849 C137.9862,43.8389 134.8392,30.7909 125.1062,25.5399 C115.3722,20.2889 102.7402,24.8249 96.8892,35.6699"/>
    <path fill="#000" d="M110.4302,43.0684 C109.2112,45.3274 109.8672,48.0464 111.8942,49.1394 C113.9222,50.2334 116.5542,49.2884 117.7722,47.0294 C118.9912,44.7694 118.3362,42.0514 116.3082,40.9584 C114.2812,39.8644 111.6492,40.8084 110.4302,43.0684"/>
  </g>
</svg>
