<svg xmlns="http://www.w3.org/2000/svg" width="188" height="188" viewBox="0 0 188 188">
  <g fill="none" fill-rule="evenodd" transform="translate(19 19)">
    <path fill="#000" d="M150,75 C150,116.421 116.421,150 75,150 C33.579,150 0,116.421 0,75 C0,33.579 33.579,0 75,0 C116.421,0 150,33.579 150,75"/>
    <path fill="#FFF" d="M110.2192 34.293C110.2192 40.529 105.1632 45.586 98.9262 45.586 92.6892 45.586 87.6332 40.529 87.6332 34.293 87.6332 28.056 92.6892 23 98.9262 23 105.1632 23 110.2192 28.056 110.2192 34.293M100.7476 62.707C100.7476 68.944 95.6916 74 89.4556 74 83.2186 74 78.1626 68.944 78.1626 62.707 78.1626 56.471 83.2186 51.414 89.4556 51.414 95.6916 51.414 100.7476 56.471 100.7476 62.707"/>
    <path fill="#FFF" d="M138.416 54.1035C138.416 64.9775 129.601 73.7925 118.727 73.7925 107.853 73.7925 99.038 64.9775 99.038 54.1035 99.038 43.2295 107.853 34.4145 118.727 34.4145 129.601 34.4145 138.416 43.2295 138.416 54.1035M85.2305 51.4316C85.2305 62.3056 76.4155 71.1206 65.5415 71.1206 54.6675 71.1206 45.8525 62.3056 45.8525 51.4316 45.8525 40.5576 54.6675 31.7436 65.5415 31.7436 76.4155 31.7436 85.2305 40.5576 85.2305 51.4316"/>
    <path stroke="#FFF" stroke-linecap="round" stroke-linejoin="round" stroke-width="4" d="M45,87.1035 C45,77.5395 66.265,89.4325 92.497,89.4325 C118.729,89.4325 139.994,77.5395 139.994,87.1035 C139.994,96.6665 118.729,114.7505 92.497,114.7505 C66.265,114.7505 45,96.6665 45,87.1035 Z"/>
    <path fill="#FFF" d="M131.9614 83.9404C132.7944 88.2304 129.9924 92.3824 125.7024 93.2164 121.4134 94.0494 117.2594 91.2484 116.4264 86.9584M112.3853 88.0664C112.8113 92.4154 109.6313 96.2874 105.2823 96.7124 100.9323 97.1394 97.0613 93.9604 96.6353 89.6104M109.311 111.9121C107.711 107.8461 109.71 103.2521 113.777 101.6511 117.843 100.0511 122.437 102.0501 124.037 106.1161M53.0322 83.9404C52.1992 88.2304 55.0012 92.3824 59.2912 93.2164 63.5802 94.0494 67.7342 91.2484 68.5672 86.9584M72.6084 88.0664C72.1824 92.4154 75.3624 96.2874 79.7124 96.7124 84.0614 97.1394 87.9324 93.9604 88.3584 89.6104M75.6826 111.9121C77.2826 107.8461 75.2836 103.2521 71.2166 101.6511 67.1506 100.0511 62.5566 102.0501 60.9566 106.1161"/>
    <path fill="#000" d="M64.5908 64.8428C63.8968 64.8428 63.2898 64.6178 62.7728 64.1668 62.2558 63.7178 61.9968 63.0898 61.9968 62.2808 61.9968 61.5658 62.2468 60.9618 62.7468 60.4728 63.2478 59.9838 63.8618 59.7388 64.5908 59.7388 65.3078 59.7388 65.9098 59.9838 66.3998 60.4728 66.8888 60.9618 67.1338 61.5658 67.1338 62.2808 67.1338 63.0778 66.8778 63.7038 66.3658 64.1598 65.8538 64.6138 65.2618 64.8428 64.5908 64.8428M56.2608 46.1348C56.2608 45.0538 56.6078 43.9578 57.3018 42.8488 57.9968 41.7398 59.0088 40.8218 60.3408 40.0928 61.6718 39.3648 63.2248 38.9998 65.0008 38.9998 66.6498 38.9998 68.1068 39.3058 69.3698 39.9138 70.6328 40.5228 71.6088 41.3488 72.2978 42.3968 72.9858 43.4438 73.3298 44.5818 73.3298 45.8108 73.3298 46.7788 73.1338 47.6258 72.7408 48.3538 72.3488 49.0818 71.8818 49.7098 71.3418 50.2398 70.7998 50.7698 69.8308 51.6588 68.4308 52.9118 68.0448 53.2648 67.7338 53.5748 67.5008 53.8418 67.2668 54.1088 67.0938 54.3538 66.9808 54.5748 66.8658 54.7978 66.7778 55.0188 66.7158 55.2408 66.6538 55.4628 66.5598 55.8538 66.4338 56.4098 66.2178 57.5938 65.5408 58.1858 64.4038 58.1858 63.8108 58.1858 63.3128 57.9918 62.9098 57.6048 62.5058 57.2188 62.3028 56.6438 62.3028 55.8818 62.3028 54.9258 62.4508 54.0978 62.7468 53.3978 63.0428 52.6968 63.4358 52.0838 63.9248 51.5538 64.4138 51.0258 65.0738 50.3968 65.9048 49.6678 66.6328 49.0308 67.1588 48.5508 67.4838 48.2258 67.8088 47.9018 68.0808 47.5398 68.3028 47.1418 68.5248 46.7428 68.6358 46.3118 68.6358 45.8458 68.6358 44.9348 68.2968 44.1658 67.6208 43.5398 66.9438 42.9138 66.0698 42.6018 65.0008 42.6018 63.7478 42.6018 62.8268 42.9168 62.2348 43.5488 61.6428 44.1808 61.1428 45.1108 60.7338 46.3398 60.3468 47.6258 59.6118 48.2678 58.5308 48.2678 57.8938 48.2678 57.3568 48.0438 56.9188 47.5948 56.4798 47.1458 56.2608 46.6568 56.2608 46.1348M99.4893 42C99.0723 42 98.7083 41.863 98.3973 41.595 98.0853 41.325 97.9303 40.947 97.9303 40.462 97.9303 40.03 98.0803 39.668 98.3813 39.374 98.6823 39.081 99.0513 38.933 99.4893 38.933 99.9203 38.933 100.2823 39.081 100.5763 39.374 100.8703 39.668 101.0173 40.03 101.0173 40.462 101.0173 40.94 100.8633 41.316 100.5563 41.589 100.2483 41.862 99.8923 42 99.4893 42M94.4843 30.76C94.4843 30.11 94.6933 29.451 95.1103 28.784 95.5273 28.118 96.1353 27.565 96.9353 27.129 97.7363 26.692 98.6693 26.473 99.7353 26.473 100.7273 26.473 101.6023 26.655 102.3613 27.021 103.1193 27.386 103.7063 27.885 104.1193 28.514 104.5333 29.142 104.7393 29.825 104.7393 30.564 104.7393 31.146 104.6223 31.655 104.3863 32.092 104.1503 32.53 103.8693 32.907 103.5453 33.227 103.2203 33.544 102.6383 34.079 101.7963 34.83 101.5643 35.043 101.3783 35.229 101.2383 35.39 101.0973 35.55 100.9933 35.697 100.9253 35.83 100.8563 35.965 100.8033 36.098 100.7653 36.23 100.7283 36.363 100.6723 36.598 100.5963 36.933 100.4673 37.645 100.0593 38 99.3773 38 99.0213 38 98.7213 37.884 98.4793 37.651 98.2363 37.418 98.1143 37.073 98.1143 36.615 98.1143 36.04 98.2033 35.543 98.3813 35.124 98.5593 34.702 98.7953 34.333 99.0893 34.016 99.3833 33.697 99.7803 33.319 100.2793 32.883 100.7163 32.5 101.0323 32.21 101.2273 32.017 101.4233 31.821 101.5863 31.604 101.7193 31.363 101.8533 31.125 101.9203 30.864 101.9203 30.585 101.9203 30.038 101.7163 29.577 101.3093 29.2 100.9033 28.824 100.3783 28.636 99.7353 28.636 98.9833 28.636 98.4293 28.826 98.0743 29.205 97.7183 29.585 97.4173 30.143 97.1713 30.882 96.9393 31.655 96.4983 32.04 95.8483 32.04 95.4663 32.04 95.1423 31.905 94.8793 31.637 94.6163 31.365 94.4843 31.073 94.4843 30.76M88.4814 71.4727C88.0394 71.4727 87.6524 71.3277 87.3234 71.0417 86.9924 70.7567 86.8274 70.3557 86.8274 69.8407 86.8274 69.3827 86.9864 68.9977 87.3064 68.6867 87.6254 68.3757 88.0174 68.2177 88.4814 68.2177 88.9384 68.2177 89.3234 68.3757 89.6354 68.6867 89.9464 68.9977 90.1024 69.3827 90.1024 69.8407 90.1024 70.3477 89.9394 70.7467 89.6134 71.0367 89.2864 71.3267 88.9094 71.4727 88.4814 71.4727M83.1714 59.5477C83.1714 58.8597 83.3934 58.1597 83.8354 57.4517 84.2784 56.7447 84.9234 56.1597 85.7734 55.6967 86.6214 55.2327 87.6114 54.9997 88.7424 54.9997 89.7944 54.9997 90.7234 55.1947 91.5284 55.5817 92.3334 55.9687 92.9554 56.4977 93.3934 57.1647 93.8334 57.8307 94.0524 58.5567 94.0524 59.3407 94.0524 59.9577 93.9274 60.4977 93.6764 60.9617 93.4264 61.4267 93.1284 61.8267 92.7844 62.1647 92.4404 62.5017 91.8224 63.0697 90.9294 63.8667 90.6834 64.0917 90.4854 64.2887 90.3364 64.4597 90.1874 64.6297 90.0774 64.7857 90.0054 64.9267 89.9324 65.0697 89.8764 65.2107 89.8354 65.3517 89.7964 65.4937 89.7364 65.7427 89.6564 66.0967 89.5194 66.8517 89.0864 67.2297 88.3624 67.2297 87.9854 67.2297 87.6674 67.1067 87.4104 66.8597 87.1524 66.6117 87.0234 66.2447 87.0234 65.7597 87.0234 65.1507 87.1184 64.6227 87.3064 64.1777 87.4954 63.7307 87.7454 63.3387 88.0574 63.0017 88.3694 62.6647 88.7904 62.2637 89.3194 61.8007 89.7834 61.3937 90.1194 61.0857 90.3254 60.8807 90.5324 60.6737 90.7074 60.4437 90.8474 60.1887 90.9894 59.9357 91.0604 59.6597 91.0604 59.3627 91.0604 58.7827 90.8444 58.2927 90.4134 57.8937 89.9814 57.4937 89.4244 57.2947 88.7424 57.2947 87.9444 57.2947 87.3564 57.4957 86.9804 57.8997 86.6034 58.3017 86.2834 58.8937 86.0234 59.6777 85.7764 60.4977 85.3084 60.9067 84.6194 60.9067 84.2134 60.9067 83.8704 60.7637 83.5914 60.4787 83.3124 60.1907 83.1714 59.8807 83.1714 59.5477M120.1021 65C119.4541 65 118.8881 64.789 118.4041 64.37 117.9221 63.95 117.6801 63.363 117.6801 62.61 117.6801 61.94 117.9141 61.378 118.3811 60.921 118.8481 60.464 119.4221 60.236 120.1021 60.236 120.7701 60.236 121.3341 60.464 121.7901 60.921 122.2471 61.378 122.4761 61.94 122.4761 62.61 122.4761 63.353 122.2361 63.938 121.7591 64.362 121.2801 64.786 120.7281 65 120.1021 65M112.3271 47.538C112.3271 46.529 112.6501 45.506 113.2991 44.472 113.9461 43.435 114.8921 42.577 116.1351 41.897 117.3771 41.218 118.8271 40.878 120.4841 40.878 122.0241 40.878 123.3841 41.162 124.5621 41.73 125.7421 42.3 126.6521 43.071 127.2951 44.049 127.9381 45.026 128.2591 46.088 128.2591 47.234 128.2591 48.139 128.0761 48.93 127.7091 49.609 127.3431 50.289 126.9081 50.876 126.4031 51.369 125.8981 51.862 124.9931 52.694 123.6861 53.863 123.3251 54.192 123.0361 54.481 122.8181 54.731 122.6001 54.98 122.4381 55.21 122.3321 55.416 122.2261 55.623 122.1431 55.831 122.0851 56.038 122.0261 56.244 121.9391 56.608 121.8221 57.129 121.6211 58.234 120.9891 58.786 119.9271 58.786 119.3741 58.786 118.9091 58.605 118.5321 58.245 118.1551 57.884 117.9671 57.347 117.9671 56.636 117.9671 55.743 118.1041 54.971 118.3811 54.317 118.6571 53.663 119.0231 53.09 119.4801 52.597 119.9361 52.102 120.5531 51.516 121.3291 50.835 122.0081 50.241 122.4991 49.792 122.8021 49.489 123.1051 49.187 123.3601 48.85 123.5671 48.479 123.7741 48.105 123.8771 47.702 123.8771 47.268 123.8771 46.418 123.5611 45.7 122.9301 45.116 122.2971 44.531 121.4821 44.239 120.4841 44.239 119.3151 44.239 118.4551 44.534 117.9031 45.124 117.3511 45.714 116.8831 46.582 116.5011 47.729 116.1401 48.93 115.4551 49.53 114.4461 49.53 113.8511 49.53 113.3491 49.319 112.9401 48.899 112.5311 48.479 112.3271 48.025 112.3271 47.538"/>
  </g>
</svg>
