<svg xmlns="http://www.w3.org/2000/svg" width="188" height="188" viewBox="0 0 188 188">
  <g fill="none" fill-rule="evenodd" transform="translate(19 19)">
    <path fill="#000" d="M150,75 C150,116.421 116.421,150 75,150 C33.579,150 0,116.421 0,75 C0,33.579 33.579,0 75,0 C116.421,0 150,33.579 150,75"/>
    <path stroke="#FFF" stroke-linecap="round" stroke-linejoin="round" stroke-width="4" d="M61.1895,87.3066 L132.1855,87.3066"/>
    <path fill="#FFF" d="M65.6367 87.0684C65.6367 81.4114 68.6587 76.8244 72.3867 76.8244 76.1147 76.8244 79.1367 81.4114 79.1367 87.0684M79.1372 87.0684C79.1372 82.7264 81.6262 79.2074 84.6962 79.2074 87.7662 79.2074 90.2552 82.7264 90.2552 87.0684M127.103 87.0684C127.103 81.4114 124.081 76.8244 120.353 76.8244 116.624 76.8244 113.603 81.4114 113.603 87.0684M113.6025 87.0684C113.6025 82.7264 111.1135 79.2074 108.0435 79.2074 104.9735 79.2074 102.4845 82.7264 102.4845 87.0684M94.5093 45.7734C94.5093 54.6354 87.4203 61.8194 78.6753 61.8194 69.9303 61.8194 62.8423 54.6354 62.8423 45.7734 62.8423 36.9114 69.9303 29.7274 78.6753 29.7274 87.4203 29.7274 94.5093 36.9114 94.5093 45.7734M129.5093 45.7734C129.5093 54.6354 122.4203 61.8194 113.6753 61.8194 104.9303 61.8194 97.8423 54.6354 97.8423 45.7734 97.8423 36.9114 104.9303 29.7274 113.6753 29.7274 122.4203 29.7274 129.5093 36.9114 129.5093 45.7734"/>
    <path fill="#000" d="M76.8179 50.835C76.8179 53.243 74.8919 55.194 72.5159 55.194 70.1399 55.194 68.2139 53.243 68.2139 50.835 68.2139 48.427 70.1399 46.476 72.5159 46.476 74.8919 46.476 76.8179 48.427 76.8179 50.835M121.8179 37.835C121.8179 40.243 119.8919 42.194 117.5159 42.194 115.1399 42.194 113.2139 40.243 113.2139 37.835 113.2139 35.427 115.1399 33.476 117.5159 33.476 119.8919 33.476 121.8179 35.427 121.8179 37.835"/>
  </g>
</svg>
