<svg xmlns="http://www.w3.org/2000/svg" xmlns:xlink="http://www.w3.org/1999/xlink" width="188" height="188" viewBox="0 0 188 188">
  <defs>
    <path id="type-01-a" d="M0.92,14.634 C0.92,22.324 25.098,28.559 54.922,28.559 L54.922,28.559 C84.746,28.559 108.924,22.324 108.924,14.634 L108.924,14.634 C108.924,6.943 84.746,0.708 54.922,0.708 L54.922,0.708 C25.098,0.708 0.92,6.943 0.92,14.634"/>
    <path id="type-01-c" d="M0.92,14.634 C0.92,22.324 25.098,28.559 54.922,28.559 L54.922,28.559 C84.746,28.559 108.924,22.324 108.924,14.634 L108.924,14.634 C108.924,6.943 84.746,0.708 54.922,0.708 L54.922,0.708 C25.098,0.708 0.92,6.943 0.92,14.634"/>
    <path id="type-01-e" d="M0.92,14.634 C0.92,22.324 25.098,28.559 54.922,28.559 L54.922,28.559 C84.746,28.559 108.924,22.324 108.924,14.634 L108.924,14.634 C108.924,6.943 84.746,0.708 54.922,0.708 L54.922,0.708 C25.098,0.708 0.92,6.943 0.92,14.634"/>
    <path id="type-01-g" d="M0.92,14.634 C0.92,22.324 25.098,28.559 54.922,28.559 L54.922,28.559 C84.746,28.559 108.924,22.324 108.924,14.634 L108.924,14.634 C108.924,6.943 84.746,0.708 54.922,0.708 L54.922,0.708 C25.098,0.708 0.92,6.943 0.92,14.634"/>
    <path id="type-01-i" d="M0.92,14.634 C0.92,22.324 25.098,28.559 54.922,28.559 L54.922,28.559 C84.746,28.559 108.924,22.324 108.924,14.634 L108.924,14.634 C108.924,6.943 84.746,0.708 54.922,0.708 L54.922,0.708 C25.098,0.708 0.92,6.943 0.92,14.634"/>
    <path id="type-01-k" d="M0.92,14.634 C0.92,22.324 25.098,28.559 54.922,28.559 L54.922,28.559 C84.746,28.559 108.924,22.324 108.924,14.634 L108.924,14.634 C108.924,6.943 84.746,0.708 54.922,0.708 L54.922,0.708 C25.098,0.708 0.92,6.943 0.92,14.634"/>
    <path id="type-01-m" d="M0.92,14.634 C0.92,22.324 25.098,28.559 54.922,28.559 L54.922,28.559 C84.746,28.559 108.924,22.324 108.924,14.634 L108.924,14.634 C108.924,6.943 84.746,0.708 54.922,0.708 L54.922,0.708 C25.098,0.708 0.92,6.943 0.92,14.634"/>
    <path id="type-01-o" d="M0.92,14.634 C0.92,22.324 25.098,28.559 54.922,28.559 L54.922,28.559 C84.746,28.559 108.924,22.324 108.924,14.634 L108.924,14.634 C108.924,6.943 84.746,0.708 54.922,0.708 L54.922,0.708 C25.098,0.708 0.92,6.943 0.92,14.634"/>
    <path id="type-01-q" d="M0.92,14.634 C0.92,22.324 25.098,28.559 54.922,28.559 L54.922,28.559 C84.746,28.559 108.924,22.324 108.924,14.634 L108.924,14.634 C108.924,6.943 84.746,0.708 54.922,0.708 L54.922,0.708 C25.098,0.708 0.92,6.943 0.92,14.634"/>
    <path id="type-01-s" d="M0.92,14.634 C0.92,22.324 25.098,28.559 54.922,28.559 L54.922,28.559 C84.746,28.559 108.924,22.324 108.924,14.634 L108.924,14.634 C108.924,6.943 84.746,0.708 54.922,0.708 L54.922,0.708 C25.098,0.708 0.92,6.943 0.92,14.634"/>
  </defs>
  <g fill="none" fill-rule="evenodd" transform="translate(19 19)">
    <path fill="#000" d="M150,75 C150,116.421 116.421,150 75,150 C33.579,150 0,116.421 0,75 C0,33.579 33.579,0 75,0 C116.421,0 150,33.579 150,75"/>
    <g transform="translate(32 78)">
      <mask id="type-01-b" fill="#fff">
        <use xlink:href="#type-01-a"/>
      </mask>
      <path fill="#FFF" d="M25.1812,3.9678 C25.9542,7.8648 23.3542,11.6398 19.3722,12.3968 C15.3912,13.1548 11.5352,10.6088 10.7622,6.7108" mask="url(#type-01-b)"/>
      <mask id="type-01-d" fill="#fff">
        <use xlink:href="#type-01-c"/>
      </mask>
      <path fill="#FFF" d="M53.561,0.0674 C53.731,4.7634 49.981,14.5094 45.185,14.6764 C40.388,14.8444 36.362,5.3714 36.192,0.6744" mask="url(#type-01-d)"/>
      <mask id="type-01-f" fill="#fff">
        <use xlink:href="#type-01-e"/>
      </mask>
      <path fill="#FFF" d="M85.1216,3.9678 C84.3476,7.8648 86.9486,11.6398 90.9296,12.3968 C94.9116,13.1548 98.7666,10.6088 99.5406,6.7108" mask="url(#type-01-f)"/>
      <mask id="type-01-h" fill="#fff">
        <use xlink:href="#type-01-g"/>
      </mask>
      <path fill="#FFF" d="M56.2837,0.0674 C56.1137,4.7634 59.8637,14.5094 64.6597,14.6764 C69.4557,14.8444 73.4827,5.3714 73.6527,0.6744" mask="url(#type-01-h)"/>
      <mask id="type-01-j" fill="#fff">
        <use xlink:href="#type-01-i"/>
      </mask>
      <path fill="#FFF" d="M-4.8584,18.5146 C-2.6294,13.2496 3.4456,10.7896 8.7096,13.0186 C13.9746,15.2466 16.4346,21.3226 14.2056,26.5856" mask="url(#type-01-j)"/>
      <mask id="type-01-l" fill="#fff">
        <use xlink:href="#type-01-k"/>
      </mask>
      <path fill="#FFF" d="M13.4766,25.3115 C14.1666,21.1655 18.0886,18.3635 22.2346,19.0535 C26.3816,19.7445 29.1826,23.6655 28.4926,27.8115" mask="url(#type-01-l)"/>
      <mask id="type-01-n" fill="#fff">
        <use xlink:href="#type-01-m"/>
      </mask>
      <path fill="#FFF" d="M27.667,27.0674 C28.079,22.8844 31.804,19.8274 35.987,20.2384 C40.17,20.6504 43.228,24.3754 42.816,28.5584" mask="url(#type-01-n)"/>
      <mask id="type-01-p" fill="#fff">
        <use xlink:href="#type-01-o"/>
      </mask>
      <path fill="#FFF" d="M114.7026,18.5146 C112.4736,13.2496 106.3996,10.7896 101.1346,13.0186 C95.8706,15.2466 93.4096,21.3226 95.6386,26.5856" mask="url(#type-01-p)"/>
      <mask id="type-01-r" fill="#fff">
        <use xlink:href="#type-01-q"/>
      </mask>
      <path fill="#FFF" d="M96.3677,25.3115 C95.6777,21.1655 91.7567,18.3635 87.6097,19.0535 C83.4637,19.7445 80.6617,23.6655 81.3517,27.8115" mask="url(#type-01-r)"/>
      <mask id="type-01-t" fill="#fff">
        <use xlink:href="#type-01-s"/>
      </mask>
      <path fill="#FFF" d="M82.1777,27.0674 C81.7657,22.8844 78.0407,19.8274 73.8577,20.2384 C69.6747,20.6504 66.6167,24.3754 67.0287,28.5584" mask="url(#type-01-t)"/>
    </g>
    <g transform="translate(32 31)">
      <path stroke="#FFF" stroke-width="4" d="M108.9238,61.6338 C108.9238,69.3238 84.7468,75.5588 54.9228,75.5588 C25.0978,75.5588 0.9208,69.3238 0.9208,61.6338 C0.9208,53.9428 25.0978,47.7078 54.9228,47.7078 C84.7468,47.7078 108.9238,53.9428 108.9238,61.6338 Z"/>
      <path fill="#FFF" d="M65.3145,30.1533 C71.3795,39.4803 83.0825,42.6293 91.4525,37.1853 C99.8235,31.7423 101.6915,19.7673 95.6265,10.4413 C89.5605,1.1143 77.8575,-2.0347 69.4875,3.4093 C61.1175,8.8523 59.2485,20.8273 65.3145,30.1533"/>
      <path fill="#000" d="M81.689,30.6406 C84.416,34.8336 89.678,36.2486 93.441,33.8016 C97.205,31.3546 98.044,25.9706 95.317,21.7776 C92.59,17.5836 87.329,16.1686 83.565,18.6166 C79.802,21.0636 78.962,26.4476 81.689,30.6406"/>
      <path fill="#FFF" d="M13.4468,11.7139 C8.1648,21.5059 11.0058,33.2859 19.7938,38.0269 C28.5808,42.7679 39.9868,38.6729 45.2688,28.8809 C50.5508,19.0889 47.7098,7.3089 38.9228,2.5679 C30.1348,-2.1731 18.7288,1.9219 13.4468,11.7139"/>
      <path fill="#000" d="M19.2539,24.0879 C16.8789,28.4899 18.1559,33.7869 22.1079,35.9189 C26.0579,38.0499 31.1869,36.2089 33.5619,31.8069 C35.9369,27.4039 34.6589,22.1079 30.7079,19.9759 C26.7569,17.8449 21.6289,19.6859 19.2539,24.0879"/>
    </g>
  </g>
</svg>
