<svg xmlns="http://www.w3.org/2000/svg" width="188" height="188" viewBox="0 0 188 188">
  <g fill="none" fill-rule="evenodd" transform="translate(19 19)">
    <path fill="#000" d="M150,75 C150,116.421 116.421,150 75,150 C33.579,150 0,116.421 0,75 C0,33.579 33.579,0 75,0 C116.421,0 150,33.579 150,75"/>
    <path fill="#FFF" d="M90.7974 10.2676L83.3904 35.3446C82.5644 38.1416 84.6344 40.9556 87.5504 40.9996L105.1204 41.2646C108.2684 41.3126 110.4484 38.1396 109.2774 35.2166L99.1144 9.8756C97.5594 5.9966 91.9814 6.2586 90.7974 10.2676M109.6074 72.7109C109.6074 72.7109 102.6074 85.7109 109.6074 85.7109 109.6074 85.7109 116.6074 85.7109 109.6074 72.7109M71.1763 69.7695C70.2373 68.5105 69.6723 66.8935 69.6723 65.1285 69.6723 61.1165 72.5913 57.8635 76.1923 57.8635 79.7933 57.8635 82.7123 61.1165 82.7123 65.1285 82.7123 67.9565 81.2593 70.4015 79.1423 71.6015 80.8103 72.1465 82.3523 72.7635 83.7293 73.4335 85.5873 70.7175 86.7023 67.3375 86.7023 63.6595 86.7023 54.7345 80.2103 47.4995 72.2003 47.4995 64.1913 47.4995 57.6983 54.7345 57.6983 63.6595 57.6983 65.9115 58.1133 68.0535 58.8603 70.0005 62.0803 69.2205 66.4203 69.0965 71.1763 69.7695"/>
    <path fill="#000" d="M82.7124,65.1289 C82.7124,61.1159 79.7934,57.8629 76.1914,57.8629 C72.5904,57.8629 69.6714,61.1159 69.6714,65.1289 C69.6714,66.8939 70.2374,68.5109 71.1764,69.7699 C71.9074,69.8719 72.6464,69.9889 73.3944,70.1309 C75.4274,70.5159 77.3554,71.0179 79.1424,71.6019 C81.2594,70.4009 82.7124,67.9559 82.7124,65.1289"/>
    <path fill="#FFF" d="M116.9067,69.7695 C117.8457,68.5105 118.4107,66.8935 118.4107,65.1285 C118.4107,61.1165 115.4917,57.8635 111.8907,57.8635 C108.2897,57.8635 105.3697,61.1165 105.3697,65.1285 C105.3697,67.9565 106.8237,70.4015 108.9397,71.6015 C107.2717,72.1465 105.7307,72.7635 104.3527,73.4335 C102.4957,70.7175 101.3797,67.3375 101.3797,63.6595 C101.3797,54.7345 107.8727,47.4995 115.8827,47.4995 C123.8907,47.4995 130.3847,54.7345 130.3847,63.6595 C130.3847,65.9115 129.9687,68.0535 129.2217,70.0005 C126.0027,69.2205 121.6627,69.0965 116.9067,69.7695"/>
    <path fill="#000" d="M105.3701,65.1289 C105.3701,61.1159 108.2891,57.8629 111.8911,57.8629 C115.4921,57.8629 118.4111,61.1159 118.4111,65.1289 C118.4111,66.8939 117.8461,68.5109 116.9071,69.7699 C116.1751,69.8719 115.4361,69.9889 114.6881,70.1309 C112.6551,70.5159 110.7271,71.0179 108.9401,71.6019 C106.8231,70.4009 105.3701,67.9559 105.3701,65.1289"/>
    <path fill="#FFF" d="M47.1528 77.2051L50.7348 105.4631 75.3838 95.0931 53.8018 73.9071C51.1438 71.2971 46.6838 73.5091 47.1528 77.2051M125.9507 89.6777L117.9287 98.2907 130.0847 103.7157 129.3947 91.0097C129.3097 89.4447 126.9997 88.5507 125.9507 89.6777"/>
    <polyline stroke="#FFF" stroke-linecap="round" stroke-linejoin="round" stroke-width="4" points="51 105 77 94 86 102 96 96 107 105 118 98 130 102"/>
  </g>
</svg>
