<svg xmlns="http://www.w3.org/2000/svg" xmlns:xlink="http://www.w3.org/1999/xlink" width="188" height="188" viewBox="0 0 188 188">
  <defs>
    <path id="type-06-a" d="M0.199,10.264 C0.199,15.642 13.128,20 29.078,20 L29.078,20 C45.027,20 57.957,15.642 57.957,10.264 L57.957,10.264 C57.957,4.889 45.027,0.53 29.078,0.53 L29.078,0.53 C13.128,0.53 0.199,4.889 0.199,10.264"/>
    <path id="type-06-c" d="M0.199,10.264 C0.199,15.642 13.128,20 29.078,20 L29.078,20 C45.027,20 57.957,15.642 57.957,10.264 L57.957,10.264 C57.957,4.889 45.027,0.53 29.078,0.53 L29.078,0.53 C13.128,0.53 0.199,4.889 0.199,10.264"/>
    <path id="type-06-e" d="M0.199,10.264 C0.199,15.642 13.128,20 29.078,20 L29.078,20 C45.027,20 57.957,15.642 57.957,10.264 L57.957,10.264 C57.957,4.889 45.027,0.53 29.078,0.53 L29.078,0.53 C13.128,0.53 0.199,4.889 0.199,10.264"/>
    <path id="type-06-g" d="M0.199,10.264 C0.199,15.642 13.128,20 29.078,20 L29.078,20 C45.027,20 57.957,15.642 57.957,10.264 L57.957,10.264 C57.957,4.889 45.027,0.53 29.078,0.53 L29.078,0.53 C13.128,0.53 0.199,4.889 0.199,10.264"/>
    <path id="type-06-i" d="M0.199,10.264 C0.199,15.642 13.128,20 29.078,20 L29.078,20 C45.027,20 57.957,15.642 57.957,10.264 L57.957,10.264 C57.957,4.889 45.027,0.53 29.078,0.53 L29.078,0.53 C13.128,0.53 0.199,4.889 0.199,10.264"/>
    <path id="type-06-k" d="M0.199,10.264 C0.199,15.642 13.128,20 29.078,20 L29.078,20 C45.027,20 57.957,15.642 57.957,10.264 L57.957,10.264 C57.957,4.889 45.027,0.53 29.078,0.53 L29.078,0.53 C13.128,0.53 0.199,4.889 0.199,10.264"/>
    <path id="type-06-m" d="M0.199,10.264 C0.199,15.642 13.128,20 29.078,20 L29.078,20 C45.027,20 57.957,15.642 57.957,10.264 L57.957,10.264 C57.957,4.889 45.027,0.53 29.078,0.53 L29.078,0.53 C13.128,0.53 0.199,4.889 0.199,10.264"/>
    <path id="type-06-o" d="M0.199,10.264 C0.199,15.642 13.128,20 29.078,20 L29.078,20 C45.027,20 57.957,15.642 57.957,10.264 L57.957,10.264 C57.957,4.889 45.027,0.53 29.078,0.53 L29.078,0.53 C13.128,0.53 0.199,4.889 0.199,10.264"/>
    <path id="type-06-q" d="M0.199,10.264 C0.199,15.642 13.128,20 29.078,20 L29.078,20 C45.027,20 57.957,15.642 57.957,10.264 L57.957,10.264 C57.957,4.889 45.027,0.53 29.078,0.53 L29.078,0.53 C13.128,0.53 0.199,4.889 0.199,10.264"/>
    <path id="type-06-s" d="M0.199,10.264 C0.199,15.642 13.128,20 29.078,20 L29.078,20 C45.027,20 57.957,15.642 57.957,10.264 L57.957,10.264 C57.957,4.889 45.027,0.53 29.078,0.53 L29.078,0.53 C13.128,0.53 0.199,4.889 0.199,10.264"/>
    <path id="type-06-u" d="M0.199,10.264 C0.199,15.642 13.128,20 29.078,20 L29.078,20 C45.027,20 57.957,15.642 57.957,10.264 L57.957,10.264 C57.957,4.889 45.027,0.53 29.078,0.53 L29.078,0.53 C13.128,0.53 0.199,4.889 0.199,10.264"/>
    <path id="type-06-w" d="M0.199,10.264 C0.199,15.642 13.128,20 29.078,20 L29.078,20 C45.027,20 57.957,15.642 57.957,10.264 L57.957,10.264 C57.957,4.889 45.027,0.53 29.078,0.53 L29.078,0.53 C13.128,0.53 0.199,4.889 0.199,10.264"/>
  </defs>
  <g fill="none" fill-rule="evenodd" transform="translate(19 19)">
    <path fill="#000" d="M150,75 C150,116.421 116.421,150 75,150 C33.579,150 0,116.421 0,75 C0,33.579 33.579,0 75,0 C116.421,0 150,33.579 150,75"/>
    <g transform="translate(64 88)">
      <mask id="type-06-b" fill="#fff">
        <use xlink:href="#type-06-a"/>
      </mask>
      <path fill="#FFF" d="M-2.8916,12.9785 C-1.6996,9.2975 1.5484,7.5785 4.3644,9.1355 C7.1794,10.6945 8.4954,14.9415 7.3034,18.6215" mask="url(#type-06-b)"/>
      <mask id="type-06-d" fill="#fff">
        <use xlink:href="#type-06-c"/>
      </mask>
      <path fill="#FFF" d="M6.9136,17.7305 C7.2826,14.8315 9.3796,12.8735 11.5976,13.3555 C13.8146,13.8375 15.3126,16.5795 14.9436,19.4785" mask="url(#type-06-d)"/>
      <mask id="type-06-f" fill="#fff">
        <use xlink:href="#type-06-e"/>
      </mask>
      <path fill="#FFF" d="M14.5024,18.958 C14.7224,16.033 16.7144,13.896 18.9514,14.184 C21.1894,14.472 22.8244,17.075 22.6044,20" mask="url(#type-06-f)"/>
      <mask id="type-06-h" fill="#fff">
        <use xlink:href="#type-06-g"/>
      </mask>
      <path fill="#FFF" d="M61.0474,12.9785 C59.8554,9.2975 56.6074,7.5785 53.7914,9.1355 C50.9764,10.6945 49.6604,14.9415 50.8524,18.6215" mask="url(#type-06-h)"/>
      <mask id="type-06-j" fill="#fff">
        <use xlink:href="#type-06-i"/>
      </mask>
      <path fill="#FFF" d="M51.2422,17.7305 C50.8732,14.8315 48.7762,12.8735 46.5582,13.3555 C44.3412,13.8375 42.8432,16.5795 43.2122,19.4785" mask="url(#type-06-j)"/>
      <mask id="type-06-l" fill="#fff">
        <use xlink:href="#type-06-k"/>
      </mask>
      <path fill="#FFF" d="M43.6538,18.958 C43.4338,16.033 41.4418,13.896 39.2038,14.184 C36.9668,14.472 35.3318,17.075 35.5518,20" mask="url(#type-06-l)"/>
      <mask id="type-06-n" fill="#fff">
        <use xlink:href="#type-06-m"/>
      </mask>
      <path fill="#FFF" d="M61.0474,7.7334 C59.8554,11.4144 56.6074,13.1334 53.7914,11.5764 C50.9764,10.0174 49.6604,5.7714 50.8524,2.0904" mask="url(#type-06-n)"/>
      <mask id="type-06-p" fill="#fff">
        <use xlink:href="#type-06-o"/>
      </mask>
      <path fill="#FFF" d="M51.2422,2.9814 C50.8732,5.8804 48.7762,7.8384 46.5582,7.3564 C44.3412,6.8744 42.8432,4.1324 43.2122,1.2334" mask="url(#type-06-p)"/>
      <mask id="type-06-r" fill="#fff">
        <use xlink:href="#type-06-q"/>
      </mask>
      <path fill="#FFF" d="M43.6538,1.7539 C43.4338,4.6789 41.4418,6.8159 39.2048,6.5279 C36.9668,6.2409 35.3318,3.6369 35.5518,0.7119" mask="url(#type-06-r)"/>
      <mask id="type-06-t" fill="#fff">
        <use xlink:href="#type-06-s"/>
      </mask>
      <path fill="#FFF" d="M-2.8916,7.7334 C-1.6996,11.4144 1.5484,13.1334 4.3644,11.5764 C7.1794,10.0174 8.4954,5.7704 7.3034,2.0904" mask="url(#type-06-t)"/>
      <mask id="type-06-v" fill="#fff">
        <use xlink:href="#type-06-u"/>
      </mask>
      <path fill="#FFF" d="M6.9136,2.9814 C7.2836,5.8804 9.3796,7.8384 11.5976,7.3564 C13.8146,6.8744 15.3126,4.1324 14.9436,1.2334" mask="url(#type-06-v)"/>
      <mask id="type-06-x" fill="#fff">
        <use xlink:href="#type-06-w"/>
      </mask>
      <path fill="#FFF" d="M14.5024,1.7539 C14.7224,4.6789 16.7144,6.8159 18.9514,6.5279 C21.1894,6.2409 22.8244,3.6369 22.6044,0.7119" mask="url(#type-06-x)"/>
    </g>
    <g transform="translate(45 26)">
      <path stroke="#FFF" stroke-linecap="round" stroke-linejoin="round" stroke-width="4" d="M76.957,72.2646 C76.957,77.6416 64.027,81.9996 48.078,81.9996 C32.128,81.9996 19.199,77.6416 19.199,72.2646 C19.199,66.8886 32.128,62.5306 48.078,62.5306 C64.027,62.5306 76.957,66.8886 76.957,72.2646 Z"/>
      <path fill="#FFF" d="M19.2285,43.752 C15.6275,43.752 12.7085,39.342 12.7085,33.901 C12.7085,28.461 15.6275,24.051 19.2285,24.051 C22.8295,24.051 25.7495,28.461 25.7495,33.901 C25.7495,39.342 22.8295,43.752 19.2285,43.752 M23.0795,13.484 C16.5835,21.83 7.4535,26.059 0.9545,28.131 C0.8125,29.359 0.7355,30.62 0.7355,31.909 C0.7355,44.01 7.2285,53.818 15.2375,53.818 C23.2465,53.818 29.7395,44.01 29.7395,31.909 C29.7395,24.176 27.0845,17.383 23.0795,13.484"/>
      <path fill="#000" d="M19.2285,24.0508 C15.6275,24.0508 12.7085,28.4608 12.7085,33.9018 C12.7085,39.3418 15.6275,43.7518 19.2285,43.7518 C22.8295,43.7518 25.7495,39.3418 25.7495,33.9018 C25.7495,28.4608 22.8295,24.0508 19.2285,24.0508"/>
      <path fill="#FFF" d="M48.0864,26.752 C44.4854,26.752 41.5664,22.342 41.5664,16.901 C41.5664,11.461 44.4854,7.051 48.0864,7.051 C51.6874,7.051 54.6074,11.461 54.6074,16.901 C54.6074,22.342 51.6874,26.752 48.0864,26.752 M36.9504,0.863 C34.8454,4.666 33.5764,9.564 33.5764,14.909 C33.5764,27.01 40.0684,36.818 48.0784,36.818 C56.0874,36.818 62.5804,27.01 62.5804,14.909 C62.5804,9.247 61.1584,4.087 58.8244,0.198 C53.3324,4.305 45.3044,7.448 36.9504,0.863"/>
      <path fill="#000" d="M48.0864,7.0508 C44.4854,7.0508 41.5664,11.4608 41.5664,16.9018 C41.5664,22.3418 44.4854,26.7518 48.0864,26.7518 C51.6874,26.7518 54.6074,22.3418 54.6074,16.9018 C54.6074,11.4608 51.6874,7.0508 48.0864,7.0508"/>
      <path fill="#FFF" d="M70.4072,33.9014 C70.4072,28.4614 73.3262,24.0504 76.9272,24.0504 C80.5282,24.0504 83.4482,28.4614 83.4482,33.9014 C83.4482,39.3414 80.5282,43.7524 76.9272,43.7524 C73.3262,43.7524 70.4072,39.3414 70.4072,33.9014 M66.4172,31.9094 C66.4172,44.0094 72.9092,53.8184 80.9192,53.8184 C88.9282,53.8184 95.4212,44.0094 95.4212,31.9094 C95.4212,30.6204 95.3432,29.3594 95.2012,28.1304 C88.7022,26.0584 79.5732,21.8304 73.0762,13.4844 C69.0712,17.3824 66.4172,24.1754 66.4172,31.9094"/>
      <path fill="#000" d="M76.9272,24.0508 C80.5282,24.0508 83.4482,28.4608 83.4482,33.9018 C83.4482,39.3418 80.5282,43.7518 76.9272,43.7518 C73.3262,43.7518 70.4072,39.3418 70.4072,33.9018 C70.4072,28.4608 73.3262,24.0508 76.9272,24.0508"/>
    </g>
  </g>
</svg>
