<svg xmlns="http://www.w3.org/2000/svg" width="188" height="188" viewBox="0 0 188 188">
  <g fill="none" fill-rule="evenodd" transform="translate(19 19)">
    <path fill="#000" d="M150,75 C150,116.421 116.421,150 75,150 C33.579,150 0,116.421 0,75 C0,33.579 33.579,0 75,0 C116.421,0 150,33.579 150,75"/>
    <path fill="#FFF" d="M110.2192,34.293 C110.2192,40.529 105.1632,45.586 98.9262,45.586 C92.6892,45.586 87.6332,40.529 87.6332,34.293 C87.6332,28.056 92.6892,23 98.9262,23 C105.1632,23 110.2192,28.056 110.2192,34.293"/>
    <path fill="#000" d="M103.96,36.2051 C103.96,39.0101 101.687,41.2831 98.883,41.2831 C96.079,41.2831 93.805,39.0101 93.805,36.2051 C93.805,33.4011 96.079,31.1281 98.883,31.1281 C101.687,31.1281 103.96,33.4011 103.96,36.2051"/>
    <path fill="#FFF" d="M100.7476,62.707 C100.7476,68.944 95.6916,74 89.4556,74 C83.2186,74 78.1626,68.944 78.1626,62.707 C78.1626,56.471 83.2186,51.414 89.4556,51.414 C95.6916,51.414 100.7476,56.471 100.7476,62.707"/>
    <path fill="#000" d="M94.4888,65.6191 C94.4888,68.4241 92.2158,70.6971 89.4108,70.6971 C86.6068,70.6971 84.3338,68.4241 84.3338,65.6191 C84.3338,62.8151 86.6068,60.5421 89.4108,60.5421 C92.2158,60.5421 94.4888,62.8151 94.4888,65.6191"/>
    <path fill="#FFF" d="M130.3701,73.2744 C123.0671,78.6284 111.9351,75.8614 105.5041,67.0914 C99.0741,58.3234 99.7821,46.8734 107.0841,41.5184 C114.3871,36.1634 125.5191,38.9314 131.9491,47.7004 C138.3801,56.4694 137.6721,67.9194 130.3701,73.2744"/>
    <path fill="#000" d="M123.9985,59.8936 C123.9985,64.7836 120.0355,68.7466 115.1455,68.7466 C110.2565,68.7466 106.2935,64.7836 106.2935,59.8936 C106.2935,55.0046 110.2565,51.0406 115.1455,51.0406 C120.0355,51.0406 123.9985,55.0046 123.9985,59.8936"/>
    <path fill="#FFF" d="M81.5273,42.5674 C87.0273,50.2174 84.3293,61.5654 75.5003,67.9134 C66.6713,74.2604 55.0543,73.2044 49.5543,65.5544 C44.0543,57.9044 46.7523,46.5564 55.5813,40.2094 C64.4103,33.8614 76.0273,34.9184 81.5273,42.5674"/>
    <path fill="#000" d="M74.1558,54.1934 C74.1558,59.0834 70.1928,63.0464 65.3028,63.0464 C60.4138,63.0464 56.4508,59.0834 56.4508,54.1934 C56.4508,49.3044 60.4138,45.3404 65.3028,45.3404 C70.1928,45.3404 74.1558,49.3044 74.1558,54.1934"/>
    <path stroke="#FFF" stroke-linecap="round" stroke-linejoin="round" stroke-width="3.255" d="M135,110.6719 C135,121.4959 114.61,108.0349 89.458,108.0349 C64.306,108.0349 43.916,121.4959 43.916,110.6719 C43.916,99.8479 64.306,79.3819 89.458,79.3819 C114.61,79.3819 135,99.8479 135,110.6719 Z"/>
    <path fill="#FFF" d="M51.6177 114.251C50.8187 109.397 53.5057 104.696 57.6187 103.753 61.7317 102.81 65.7147 105.98 66.5137 110.835M70.3882 109.5811C69.9792 104.6591 73.0292 100.2781 77.1992 99.7961 81.3692 99.3131 85.0812 102.9121 85.4902 107.8341M73.3359 82.5947C74.8699 87.1977 72.9529 92.3957 69.0539 94.2067 65.1549 96.0187 60.7499 93.7557 59.2159 89.1547M127.2983 114.251C128.0973 109.397 125.4103 104.696 121.2973 103.753 117.1843 102.81 113.2013 105.98 112.4023 110.835M108.5278 109.5811C108.9368 104.6591 105.8868 100.2781 101.7168 99.7961 97.5468 99.3131 93.8348 102.9121 93.4258 107.8341"/>
  </g>
</svg>
