<svg xmlns="http://www.w3.org/2000/svg" width="188" height="188" viewBox="0 0 188 188">
  <g fill="none" fill-rule="evenodd" transform="translate(19 19)">
    <path fill="#000" d="M150,75 C150,116.421 116.421,150 75,150 C33.579,150 0,116.421 0,75 C0,33.579 33.579,0 75,0 C116.421,0 150,33.579 150,75"/>
    <path stroke="#FFF" stroke-linecap="round" stroke-linejoin="round" stroke-width="4" d="M53.356,91.2725 L134.781,91.2725"/>
    <path fill="#FFF" d="M56.6372,117.1201 C57.2902,109.9841 57.9462,95.6191 53.3022,90.9081 C53.3012,90.9081 53.3022,90.9081 53.3022,90.9081 L80.0222,90.5631 C80.0222,90.5631 72.7112,111.1211 60.0852,119.2231 C58.5122,120.2321 56.4672,118.9821 56.6372,117.1201"/>
    <path fill="#FFF" d="M87.8462 92.9551L83.7812 101.7031C83.3422 102.6461 81.9872 102.6061 81.6052 101.6381L78.1552 92.8911C77.8492 92.1131 78.4222 91.2721 79.2572 91.2721L86.7722 91.2721C87.6382 91.2721 88.2112 92.1711 87.8462 92.9551M130.3442 117.1201C129.6912 109.9841 129.0352 95.6191 133.6802 90.9081L106.9592 90.5631C106.9592 90.5631 114.2702 111.1211 126.8962 119.2231 128.4692 120.2321 130.5142 118.9821 130.3442 117.1201"/>
    <path fill="#FFF" d="M99.1353 92.9551L103.2003 101.7031C103.6393 102.6461 104.9943 102.6061 105.3763 101.6381L108.8263 92.8911C109.1323 92.1131 108.5593 91.2721 107.7243 91.2721L100.2093 91.2721C99.3433 91.2721 98.7703 92.1711 99.1353 92.9551M76.1919 72.3936C72.5909 72.3936 69.6719 69.1416 69.6719 65.1286 69.6719 61.1166 72.5909 57.8636 76.1919 57.8636 79.7929 57.8636 82.7129 61.1166 82.7129 65.1286 82.7129 69.1416 79.7929 72.3936 76.1919 72.3936M77.1959 48.5046C73.6749 54.8976 67.8489 62.8076 58.5729 69.1416 60.5899 75.3636 65.9209 79.8186 72.2009 79.8186 80.2099 79.8186 86.7029 72.5836 86.7029 63.6596 86.7029 56.6946 82.7399 50.7766 77.1959 48.5046"/>
    <path fill="#000" d="M76.1919,57.8633 C72.5909,57.8633 69.6719,61.1163 69.6719,65.1293 C69.6719,69.1413 72.5909,72.3933 76.1919,72.3933 C79.7929,72.3933 82.7129,69.1413 82.7129,65.1293 C82.7129,61.1163 79.7929,57.8633 76.1919,57.8633"/>
    <path fill="#FFF" d="M105.3701,65.1289 C105.3701,61.1159 108.2891,57.8629 111.8911,57.8629 C115.4921,57.8629 118.4111,61.1159 118.4111,65.1289 C118.4111,69.1419 115.4921,72.3939 111.8911,72.3939 C108.2891,72.3939 105.3701,69.1419 105.3701,65.1289 M101.3801,63.6589 C101.3801,72.5839 107.8731,79.8179 115.8821,79.8179 C122.1621,79.8179 127.4931,75.3629 129.5101,69.1419 C120.2331,62.8079 114.4071,54.8979 110.8861,48.5049 C105.3421,50.7759 101.3801,56.6939 101.3801,63.6589"/>
    <path fill="#000" d="M111.8906,57.8633 C115.4916,57.8633 118.4116,61.1163 118.4116,65.1293 C118.4116,69.1413 115.4916,72.3933 111.8906,72.3933 C108.2896,72.3933 105.3696,69.1413 105.3696,65.1293 C105.3696,61.1163 108.2896,57.8633 111.8906,57.8633"/>
  </g>
</svg>
