<svg xmlns="http://www.w3.org/2000/svg" width="188" height="188" viewBox="0 0 188 188">
  <g fill="none" fill-rule="evenodd" transform="translate(19 19)">
    <path fill="#000" d="M150,75 C150,116.421 116.421,150 75,150 C33.579,150 0,116.421 0,75 C0,33.579 33.579,0 75,0 C116.421,0 150,33.579 150,75"/>
    <path stroke="#FFF" stroke-linecap="round" stroke-linejoin="round" stroke-width="4" d="M61,97 L132.185,87.307"/>
    <path fill="#FFF" d="M66.7456 95.6396C65.8956 90.0456 68.1956 85.0576 71.8806 84.4976 75.5666 83.9386 79.2436 88.0196 80.0926 93.6136M80.0928 93.6133C79.4408 89.3203 81.3728 85.4673 84.4078 85.0063 87.4438 84.5453 90.4328 87.6513 91.0848 91.9433M127.5146 86.4121C126.6656 80.8181 122.9886 76.7371 119.3036 77.2971 115.6176 77.8561 113.3176 82.8451 114.1676 88.4381"/>
    <path fill="#FFF" d="M114.1675 88.4385C113.5155 84.1455 110.5265 81.0395 107.4915 81.5005 104.4565 81.9605 102.5235 85.8145 103.1755 90.1075M105.0264 60.0654C109.8924 67.5464 119.2794 70.0724 125.9934 65.7064 132.7074 61.3394 134.2064 51.7344 129.3404 44.2524 124.4754 36.7714 115.0884 34.2464 108.3734 38.6124 101.6594 42.9794 100.1604 52.5844 105.0264 60.0654"/>
    <path fill="#000" d="M118.1611,60.4561 C120.3491,63.8201 124.5691,64.9551 127.5881,62.9921 C130.6071,61.0291 131.2811,56.7101 129.0931,53.3471 C126.9061,49.9821 122.6851,48.8481 119.6661,50.8101 C116.6471,52.7731 115.9731,57.0921 118.1611,60.4561"/>
    <path fill="#FFF" d="M63.4204,45.2744 C59.1834,53.1284 61.4624,62.5794 68.5114,66.3804 C75.5604,70.1834 84.7104,66.8994 88.9464,59.0454 C93.1844,51.1904 90.9044,41.7404 83.8564,37.9374 C76.8064,34.1344 67.6574,37.4204 63.4204,45.2744"/>
    <path fill="#000" d="M68.0786,55.2002 C66.1736,58.7312 67.1986,62.9802 70.3676,64.6902 C73.5366,66.3992 77.6506,64.9232 79.5556,61.3912 C81.4606,57.8602 80.4356,53.6112 77.2666,51.9012 C74.0976,50.1912 69.9836,51.6692 68.0786,55.2002"/>
  </g>
</svg>
