<svg xmlns="http://www.w3.org/2000/svg" xmlns:xlink="http://www.w3.org/1999/xlink" width="188" height="188" viewBox="0 0 188 188">
  <defs>
    <path id="type-01-a" d="M0.92,11.279 C0.92,17.509 25.098,22.559 54.922,22.559 L54.922,22.559 C84.746,22.559 108.924,17.509 108.924,11.279 L108.924,11.279 C108.924,5.05 84.746,0 54.922,0 L54.922,0 C25.098,0 0.92,5.05 0.92,11.279"/>
    <path id="type-01-c" d="M0.92,11.279 C0.92,17.509 25.098,22.559 54.922,22.559 L54.922,22.559 C84.746,22.559 108.924,17.509 108.924,11.279 L108.924,11.279 C108.924,5.05 84.746,0 54.922,0 L54.922,0 C25.098,0 0.92,5.05 0.92,11.279"/>
    <path id="type-01-e" d="M0.92,11.279 C0.92,17.509 25.098,22.559 54.922,22.559 L54.922,22.559 C84.746,22.559 108.924,17.509 108.924,11.279 L108.924,11.279 C108.924,5.05 84.746,0 54.922,0 L54.922,0 C25.098,0 0.92,5.05 0.92,11.279"/>
    <path id="type-01-g" d="M0.92,11.279 C0.92,17.509 25.098,22.559 54.922,22.559 L54.922,22.559 C84.746,22.559 108.924,17.509 108.924,11.279 L108.924,11.279 C108.924,5.05 84.746,0 54.922,0 L54.922,0 C25.098,0 0.92,5.05 0.92,11.279"/>
    <path id="type-01-i" d="M0.92,11.279 C0.92,17.509 25.098,22.559 54.922,22.559 L54.922,22.559 C84.746,22.559 108.924,17.509 108.924,11.279 L108.924,11.279 C108.924,5.05 84.746,0 54.922,0 L54.922,0 C25.098,0 0.92,5.05 0.92,11.279"/>
    <path id="type-01-k" d="M0.92,11.279 C0.92,17.509 25.098,22.559 54.922,22.559 L54.922,22.559 C84.746,22.559 108.924,17.509 108.924,11.279 L108.924,11.279 C108.924,5.05 84.746,0 54.922,0 L54.922,0 C25.098,0 0.92,5.05 0.92,11.279"/>
    <path id="type-01-m" d="M0.92,11.279 C0.92,17.509 25.098,22.559 54.922,22.559 L54.922,22.559 C84.746,22.559 108.924,17.509 108.924,11.279 L108.924,11.279 C108.924,5.05 84.746,0 54.922,0 L54.922,0 C25.098,0 0.92,5.05 0.92,11.279"/>
    <path id="type-01-o" d="M0.92,11.279 C0.92,17.509 25.098,22.559 54.922,22.559 L54.922,22.559 C84.746,22.559 108.924,17.509 108.924,11.279 L108.924,11.279 C108.924,5.05 84.746,0 54.922,0 L54.922,0 C25.098,0 0.92,5.05 0.92,11.279"/>
    <path id="type-01-q" d="M0.92,11.279 C0.92,17.509 25.098,22.559 54.922,22.559 L54.922,22.559 C84.746,22.559 108.924,17.509 108.924,11.279 L108.924,11.279 C108.924,5.05 84.746,0 54.922,0 L54.922,0 C25.098,0 0.92,5.05 0.92,11.279"/>
    <path id="type-01-s" d="M0.92,11.279 C0.92,17.509 25.098,22.559 54.922,22.559 L54.922,22.559 C84.746,22.559 108.924,17.509 108.924,11.279 L108.924,11.279 C108.924,5.05 84.746,0 54.922,0 L54.922,0 C25.098,0 0.92,5.05 0.92,11.279"/>
  </defs>
  <g fill="none" fill-rule="evenodd" transform="translate(19 19)">
    <path fill="#000" d="M150,75 C150,116.421 116.421,150 75,150 C33.579,150 0,116.421 0,75 C0,33.579 33.579,0 75,0 C116.421,0 150,33.579 150,75"/>
    <g transform="translate(32 84)">
      <mask id="type-01-b" fill="#fff">
        <use xlink:href="#type-01-a"/>
      </mask>
      <path fill="#FFF" d="M25.1812,2.6396 C25.9542,5.7966 23.3542,8.8536 19.3722,9.4676 C15.3912,10.0806 11.5352,8.0186 10.7622,4.8616" mask="url(#type-01-b)"/>
      <mask id="type-01-d" fill="#fff">
        <use xlink:href="#type-01-c"/>
      </mask>
      <path fill="#FFF" d="M53.561,-0.5186 C53.731,3.2854 49.981,11.1784 45.185,11.3144 C40.388,11.4504 36.362,3.7764 36.192,-0.0276" mask="url(#type-01-d)"/>
      <mask id="type-01-f" fill="#fff">
        <use xlink:href="#type-01-e"/>
      </mask>
      <path fill="#FFF" d="M85.1216,2.6396 C84.3476,5.7966 86.9486,8.8536 90.9296,9.4676 C94.9116,10.0806 98.7666,8.0186 99.5406,4.8616" mask="url(#type-01-f)"/>
      <mask id="type-01-h" fill="#fff">
        <use xlink:href="#type-01-g"/>
      </mask>
      <path fill="#FFF" d="M56.2837,-0.5186 C56.1137,3.2854 59.8637,11.1784 64.6597,11.3144 C69.4557,11.4504 73.4827,3.7764 73.6527,-0.0276" mask="url(#type-01-h)"/>
      <mask id="type-01-j" fill="#fff">
        <use xlink:href="#type-01-i"/>
      </mask>
      <path fill="#FFF" d="M-4.8584,14.4229 C-2.6294,10.1589 3.4456,8.1659 8.7096,9.9709 C13.9746,11.7769 16.4346,16.6969 14.2056,20.9609" mask="url(#type-01-j)"/>
      <mask id="type-01-l" fill="#fff">
        <use xlink:href="#type-01-k"/>
      </mask>
      <path fill="#FFF" d="M13.4766,19.9287 C14.1666,16.5707 18.0886,14.3007 22.2346,14.8607 C26.3816,15.4187 29.1826,18.5947 28.4926,21.9537" mask="url(#type-01-l)"/>
      <mask id="type-01-n" fill="#fff">
        <use xlink:href="#type-01-m"/>
      </mask>
      <path fill="#FFF" d="M27.667,21.3506 C28.079,17.9626 31.804,15.4856 35.987,15.8196 C40.17,16.1526 43.228,19.1696 42.816,22.5586" mask="url(#type-01-n)"/>
      <mask id="type-01-p" fill="#fff">
        <use xlink:href="#type-01-o"/>
      </mask>
      <path fill="#FFF" d="M114.7026,14.4229 C112.4736,10.1589 106.3996,8.1659 101.1346,9.9709 C95.8706,11.7769 93.4096,16.6969 95.6386,20.9609" mask="url(#type-01-p)"/>
      <mask id="type-01-r" fill="#fff">
        <use xlink:href="#type-01-q"/>
      </mask>
      <path fill="#FFF" d="M96.3677,19.9287 C95.6777,16.5707 91.7567,14.3007 87.6097,14.8607 C83.4637,15.4187 80.6617,18.5947 81.3517,21.9537" mask="url(#type-01-r)"/>
      <mask id="type-01-t" fill="#fff">
        <use xlink:href="#type-01-s"/>
      </mask>
      <path fill="#FFF" d="M82.1777,21.3506 C81.7657,17.9626 78.0407,15.4856 73.8577,15.8196 C69.6747,16.1526 66.6167,19.1696 67.0287,22.5586" mask="url(#type-01-t)"/>
    </g>
    <g transform="translate(32 40)">
      <path stroke="#FFF" stroke-width="4" d="M108.9238,55.2793 C108.9238,61.5083 84.7468,66.5583 54.9228,66.5583 C25.0978,66.5583 0.9208,61.5083 0.9208,55.2793 C0.9208,49.0503 25.0978,44.0003 54.9228,44.0003 C84.7468,44.0003 108.9238,49.0503 108.9238,55.2793 Z"/>
      <path fill="#FFF" d="M62.6816,16.1592 C62.6816,25.0842 69.1746,32.3182 77.1836,32.3182 C85.1926,32.3182 91.6856,25.0842 91.6856,16.1592 C91.6856,7.2342 85.1926,0.0002 77.1836,0.0002 C69.1746,0.0002 62.6816,7.2342 62.6816,16.1592"/>
      <path fill="#000" d="M70.6719,20.6289 C70.6719,24.6419 73.5909,27.8939 77.1929,27.8939 C80.7939,27.8939 83.7129,24.6419 83.7129,20.6289 C83.7129,16.6159 80.7939,13.3629 77.1929,13.3629 C73.5909,13.3629 70.6719,16.6159 70.6719,20.6289"/>
      <path fill="#FFF" d="M50.6855,16.1602 C50.6855,7.2352 44.1925,0.0002 36.1835,0.0002 C28.1745,0.0002 21.6815,7.2352 21.6815,16.1602 C21.6815,25.0852 28.1745,32.3192 36.1845,32.3192 C44.1935,32.3192 50.6855,25.0852 50.6855,16.1602"/>
      <path fill="#000" d="M42.6958,21.6904 C42.6958,17.6774 39.7768,14.4244 36.1748,14.4244 C32.5738,14.4244 29.6548,17.6774 29.6548,21.6904 C29.6548,25.7034 32.5738,28.9564 36.1748,28.9564 C39.7768,28.9564 42.6958,25.7034 42.6958,21.6904"/>
      <path fill="#000" fill-opacity=".25" d="M21.6816 16.1602C21.6816 25.0852 28.1746 32.3192 36.1836 32.3192 44.1936 32.3192 50.6856 25.0852 50.6856 16.1602M62.6816 16.1602C62.6816 25.0852 69.1746 32.3192 77.1836 32.3192 85.1936 32.3192 91.6856 25.0852 91.6856 16.1602"/>
      <path fill="#FFF" d="M20,27 C20,27 13,40 20,40 C20,40 27,40 20,27"/>
    </g>
  </g>
</svg>
