<svg xmlns="http://www.w3.org/2000/svg" width="115" height="115" viewBox="0 0 115 115">
  <g fill="none" fill-rule="evenodd" transform="translate(-2 6)">
    <path fill="#000" d="M118.3732,108.807 C118.3732,108.807 98.8402,66.571 73.9492,41.108 C67.2442,27.884 58.9512,14.519 52.3442,13.314 C49.0152,12.707 47.7242,14.916 47.6612,18.577 C41.5172,8.882 34.9052,0.755 29.6832,0.057 C24.3822,-0.653 24.4972,5.422 26.5872,13.054 C21.5682,5.958 16.4832,0.618 12.2942,0.057 C0.9262,-1.464 17.1852,43.591 22.5622,57.755 C12.5112,50.655 0.8502,44.205 0.0352,51.811 C-1.0258,61.713 22.5092,82.747 35.1932,93.305 C39.2062,102.506 42.5402,108.807 42.5402,108.807"/>
    <path stroke="#FFF" stroke-linecap="round" stroke-linejoin="round" stroke-width="6" d="M118.3732,108.807 C118.3732,108.807 98.8402,66.571 73.9492,41.108 C67.2442,27.884 58.9512,14.519 52.3442,13.314 C49.0152,12.707 47.7242,14.916 47.6612,18.577 C41.5172,8.882 34.9052,0.755 29.6832,0.057 C24.3822,-0.653 24.4972,5.422 26.5872,13.054 C21.5682,5.958 16.4832,0.618 12.2942,0.057 C0.9262,-1.464 17.1852,43.591 22.5622,57.755 C12.5112,50.655 0.8502,44.205 0.0352,51.811 C-1.0258,61.713 22.5092,82.747 35.1932,93.305 C39.2062,102.506 42.5402,108.807 42.5402,108.807"/>
  </g>
</svg>
