<svg xmlns="http://www.w3.org/2000/svg" width="115" height="115" viewBox="0 0 115 115">
  <g fill="none" fill-rule="evenodd" transform="translate(-12 16)">
    <g transform="translate(0 .768)">
      <path fill="#000" d="M19.1651,98 C19.1651,98 -17.7439,53.559 10.8791,54.312 C10.8791,54.312 18.7881,53.935 24.0611,60.714 C29.3341,67.493 57.2041,-23.273 98.2561,6.104 C139.3081,35.48 112.9441,76.155 112.9441,76.155 C112.9441,76.155 139.6851,58.831 139.3081,71.637 C138.9321,84.441 114.4511,98 114.4511,98"/>
      <path stroke="#FFF" stroke-linecap="round" stroke-linejoin="round" stroke-width="6" d="M19.1651,98 C19.1651,98 -17.7439,53.559 10.8791,54.312 C10.8791,54.312 18.7881,53.935 24.0611,60.714 C29.3341,67.493 57.2041,-23.273 98.2561,6.104 C139.3081,35.48 112.9441,76.155 112.9441,76.155 C112.9441,76.155 139.6851,58.831 139.3081,71.637 C138.9321,84.441 114.4511,98 114.4511,98"/>
    </g>
    <path stroke="#FFF" stroke-linecap="round" stroke-linejoin="round" stroke-width="6" d="M53.438 90.8589C53.438 90.8589 83.568 52.4429 77.542 17.7939M62.5836 92.3715C62.5836 92.3715 99.4236 60.3345 100.0466 25.1705"/>
  </g>
</svg>
