<svg xmlns="http://www.w3.org/2000/svg" width="115" height="115" viewBox="0 0 115 115">
  <g fill="none" fill-rule="evenodd" transform="translate(2 6)">
    <path fill="#000" d="M38.6834,57.0278 C36.5794,50.3828 31.3314,33.2478 29.0034,20.5828 C28.1234,15.7948 34.6834,13.5318 36.9514,17.8398 L57.1414,37.3618 C57.4324,37.9138 57.6024,38.5208 57.6264,39.1438 C57.7394,42.0248 52.3634,59.7218 42.7944,59.9948 C40.9214,60.0478 39.2494,58.8148 38.6834,57.0278"/>
    <path stroke="#FFF" stroke-linecap="round" stroke-linejoin="round" stroke-width="6" d="M38.6834,57.0278 C36.5794,50.3828 31.3314,33.2478 29.0034,20.5828 C28.1234,15.7948 34.6834,13.5318 36.9514,17.8398 L57.1414,37.3618 C57.4324,37.9138 57.6024,38.5208 57.6264,39.1438 C57.7394,42.0248 52.3634,59.7218 42.7944,59.9948 C40.9214,60.0478 39.2494,58.8148 38.6834,57.0278 Z"/>
    <path fill="#000" d="M59.0516,25.398 C59.9946,20.748 61.9796,11.419 64.3246,3.097 C65.6766,-1.703 72.7696,-0.643 72.6686,4.342 L72.2706,24.149 C72.2576,24.808 72.0966,25.456 71.7856,26.037 C70.6716,28.127 67.4996,32.59 61.6226,30.182 C59.7286,29.407 58.6456,27.403 59.0516,25.398"/>
    <path stroke="#FFF" stroke-linecap="round" stroke-linejoin="round" stroke-width="6" d="M59.0516,25.398 C59.9946,20.748 61.9796,11.419 64.3246,3.097 C65.6766,-1.703 72.7696,-0.643 72.6686,4.342 L72.2706,24.149 C72.2576,24.808 72.0966,25.456 71.7856,26.037 C70.6716,28.127 67.4996,32.59 61.6226,30.182 C59.7286,29.407 58.6456,27.403 59.0516,25.398 Z"/>
    <path fill="#000" d="M75.0516,25.2222 C76.7966,20.8072 80.3886,11.9662 84.1586,4.1812 C86.3326,-0.3078 93.1286,1.9772 92.1546,6.8692 L88.2846,26.3072 C88.1556,26.9532 87.8836,27.5632 87.4766,28.0812 C86.0116,29.9452 82.1056,33.7852 76.7426,30.3832 C75.0146,29.2872 74.2996,27.1242 75.0516,25.2222"/>
    <path stroke="#FFF" stroke-linecap="round" stroke-linejoin="round" stroke-width="6" d="M75.0516,25.2222 C76.7966,20.8072 80.3886,11.9662 84.1586,4.1812 C86.3326,-0.3078 93.1286,1.9772 92.1546,6.8692 L88.2846,26.3072 C88.1556,26.9532 87.8836,27.5632 87.4766,28.0812 C86.0116,29.9452 82.1056,33.7852 76.7426,30.3832 C75.0146,29.2872 74.2996,27.1242 75.0516,25.2222 Z"/>
    <path fill="#000" d="M96.5067,39.3472 C99.5487,35.1452 106.3297,25.5892 111.1877,17.3132 C113.4407,13.4752 108.4227,9.5322 105.2127,12.6152 L88.5947,28.5732 C88.1657,28.9852 87.8397,29.4892 87.6387,30.0492 C86.8377,32.2832 85.5447,37.9862 91.9117,40.6322 C93.5587,41.3172 95.4607,40.7912 96.5067,39.3472"/>
    <path stroke="#FFF" stroke-linecap="round" stroke-linejoin="round" stroke-width="6" d="M96.5067,39.3472 C99.5487,35.1452 106.3297,25.5892 111.1877,17.3132 C113.4407,13.4752 108.4227,9.5322 105.2127,12.6152 L88.5947,28.5732 C88.1657,28.9852 87.8397,29.4892 87.6387,30.0492 C86.8377,32.2832 85.5447,37.9862 91.9117,40.6322 C93.5587,41.3172 95.4607,40.7912 96.5067,39.3472 Z"/>
    <g transform="translate(0 21.103)">
      <path fill="#000" d="M-0.0002,87 C-0.0002,87 41.5398,-2.841 80.6638,0.54 C119.7878,3.922 85.4938,87 85.4938,87"/>
      <path stroke="#FFF" stroke-linecap="round" stroke-linejoin="round" stroke-width="6" d="M-0.0002,87 C-0.0002,87 41.5398,-2.841 80.6638,0.54 C119.7878,3.922 85.4938,87 85.4938,87"/>
    </g>
  </g>
</svg>
