<svg xmlns="http://www.w3.org/2000/svg" xmlns:xlink="http://www.w3.org/1999/xlink" width="115" height="115" viewBox="0 0 115 115">
  <defs>
    <polygon id="type-02-a" points=".906 .786 19.92 .786 19.92 35.552 .906 35.552"/>
  </defs>
  <g fill="none" fill-rule="evenodd" transform="translate(8 -2)">
    <g transform="translate(3 31.214)">
      <path fill="#000" d="M96.8824,87 C96.8824,87 55.3434,-2.841 16.2184,0.54 C-22.9056,3.922 21.0494,87 21.0494,87"/>
      <path stroke="#FFF" stroke-linecap="round" stroke-linejoin="round" stroke-width="6" d="M96.8824,87 C96.8824,87 55.3434,-2.841 16.2184,0.54 C-22.9056,3.922 21.0494,87 21.0494,87"/>
    </g>
    <path fill="#FFF" d="M70.2955,68.2218 C68.9695,66.5318 72.8335,33.6868 66.0715,31.7538 C59.3095,29.8228 54.9455,49.9888 54.9455,49.9888"/>
    <path fill="#FFF" d="M58.5201,49.7736 C56.8681,48.3996 53.7311,15.4776 46.7131,15.0116 C39.6961,14.5466 39.6761,35.1796 39.6761,35.1796"/>
    <g transform="translate(13 .214)">
      <mask id="type-02-b" fill="#fff">
        <use xlink:href="#type-02-a"/>
      </mask>
      <path fill="#FFF" d="M19.92,35.5518 C18.268,34.1788 15.131,1.2558 8.114,0.7908 C1.096,0.3248 0.906,31.5398 0.906,31.5398" mask="url(#type-02-b)"/>
    </g>
    <path fill="#FFF" d="M13.9058,31.7541 C12.2538,30.3811 10.2598,1.4701 3.2418,1.0051 C-3.7752,0.5391 2.7968,44.7961 2.7968,44.7961"/>
  </g>
</svg>
