<svg xmlns="http://www.w3.org/2000/svg" width="115" height="115" viewBox="0 0 115 115">
  <g fill="none" fill-rule="evenodd" transform="translate(8 3)">
    <path fill="#000" d="M23.5825,111.745 C23.5825,111.745 -12.3685,71.392 4.5065,70.292 C21.3815,69.191 23.5825,70.292 23.5825,70.292 C23.5825,70.292 6.7075,21.502 23.5825,18.2 C40.4575,14.898 43.3915,35.808 43.3915,35.808 C43.3915,35.808 61.7335,-12.614 80.8095,3.16 C99.8855,18.934 105.7545,84.599 84.8455,111.745"/>
    <path stroke="#FFF" stroke-linecap="round" stroke-linejoin="round" stroke-width="6" d="M23.5825,111.745 C23.5825,111.745 -12.3685,71.392 4.5065,70.292 C21.3815,69.191 23.5825,70.292 23.5825,70.292 C23.5825,70.292 6.7075,21.502 23.5825,18.2 C40.4575,14.898 43.3915,35.808 43.3915,35.808 C43.3915,35.808 61.7335,-12.614 80.8095,3.16 C99.8855,18.934 105.7545,84.599 84.8455,111.745"/>
  </g>
</svg>
