<svg xmlns="http://www.w3.org/2000/svg" width="99" height="130" viewBox="0 0 99 130">
  <g fill="none" fill-rule="evenodd" transform="translate(3 3)">
    <path fill="#000" d="M93.0208,122.6592 L42.7478,57.8542 C42.7478,57.8542 51.1778,24.9402 45.8488,23.0522 C40.5208,21.1622 37.6768,27.9472 37.6768,27.9472 C37.6768,27.9472 32.1858,5.7722 27.3548,5.8112 C22.5248,5.8492 23.0778,14.5402 23.0778,14.5402 C23.0778,14.5402 12.3198,-1.7968 8.9548,0.1632 C8.9548,0.1632 2.2008,1.1822 15.4168,22.8132 C15.4168,22.8132 10.0568,17.0592 1.3708,18.0962 C1.3708,18.0962 -3.9272,20.0702 6.3088,31.5812 C6.3088,31.5812 24.7918,47.3722 20.5918,65.7622 C20.5918,65.7622 16.7818,72.5542 22.6248,78.3042 L45.2038,123.0442"/>
    <path stroke="#FFF" stroke-linecap="round" stroke-linejoin="round" stroke-width="6" d="M93.0208,122.6592 L42.7478,57.8542 C42.7478,57.8542 51.1778,24.9402 45.8488,23.0522 C40.5208,21.1622 37.6768,27.9472 37.6768,27.9472 C37.6768,27.9472 32.1858,5.7722 27.3548,5.8112 C22.5248,5.8492 23.0778,14.5402 23.0778,14.5402 C23.0778,14.5402 12.3198,-1.7968 8.9548,0.1632 C8.9548,0.1632 2.2008,1.1822 15.4168,22.8132 C15.4168,22.8132 10.0568,17.0592 1.3708,18.0962 C1.3708,18.0962 -3.9272,20.0702 6.3088,31.5812 C6.3088,31.5812 24.7918,47.3722 20.5918,65.7622 C20.5918,65.7622 16.7818,72.5542 22.6248,78.3042 L45.2038,123.0442"/>
  </g>
</svg>
