<svg xmlns="http://www.w3.org/2000/svg" xmlns:xlink="http://www.w3.org/1999/xlink" width="188" height="188" viewBox="0 0 188 188">
  <defs>
    <path id="type-06-a" d="M0.193,14.264 C0.193,22.063 18.945,28.385 42.078,28.385 L42.078,28.385 C65.211,28.385 83.963,22.063 83.963,14.264 L83.963,14.264 C83.963,6.467 65.211,0.145 42.078,0.145 L42.078,0.145 C18.945,0.145 0.193,6.467 0.193,14.264"/>
    <path id="type-06-c" d="M0.193,14.264 C0.193,22.063 18.945,28.385 42.078,28.385 L42.078,28.385 C65.211,28.385 83.963,22.063 83.963,14.264 L83.963,14.264 C83.963,6.467 65.211,0.145 42.078,0.145 L42.078,0.145 C18.945,0.145 0.193,6.467 0.193,14.264"/>
    <path id="type-06-e" d="M0.193,14.264 C0.193,22.063 18.945,28.385 42.078,28.385 L42.078,28.385 C65.211,28.385 83.963,22.063 83.963,14.264 L83.963,14.264 C83.963,6.467 65.211,0.145 42.078,0.145 L42.078,0.145 C18.945,0.145 0.193,6.467 0.193,14.264"/>
    <path id="type-06-g" d="M0.193,14.264 C0.193,22.063 18.945,28.385 42.078,28.385 L42.078,28.385 C65.211,28.385 83.963,22.063 83.963,14.264 L83.963,14.264 C83.963,6.467 65.211,0.145 42.078,0.145 L42.078,0.145 C18.945,0.145 0.193,6.467 0.193,14.264"/>
    <path id="type-06-i" d="M0.193,14.264 C0.193,22.063 18.945,28.385 42.078,28.385 L42.078,28.385 C65.211,28.385 83.963,22.063 83.963,14.264 L83.963,14.264 C83.963,6.467 65.211,0.145 42.078,0.145 L42.078,0.145 C18.945,0.145 0.193,6.467 0.193,14.264"/>
    <path id="type-06-k" d="M0.193,14.264 C0.193,22.063 18.945,28.385 42.078,28.385 L42.078,28.385 C65.211,28.385 83.963,22.063 83.963,14.264 L83.963,14.264 C83.963,6.467 65.211,0.145 42.078,0.145 L42.078,0.145 C18.945,0.145 0.193,6.467 0.193,14.264"/>
    <path id="type-06-m" d="M0.193,14.264 C0.193,22.063 18.945,28.385 42.078,28.385 L42.078,28.385 C65.211,28.385 83.963,22.063 83.963,14.264 L83.963,14.264 C83.963,6.467 65.211,0.145 42.078,0.145 L42.078,0.145 C18.945,0.145 0.193,6.467 0.193,14.264"/>
    <path id="type-06-o" d="M0.193,14.264 C0.193,22.063 18.945,28.385 42.078,28.385 L42.078,28.385 C65.211,28.385 83.963,22.063 83.963,14.264 L83.963,14.264 C83.963,6.467 65.211,0.145 42.078,0.145 L42.078,0.145 C18.945,0.145 0.193,6.467 0.193,14.264"/>
    <path id="type-06-q" d="M0.193,14.264 C0.193,22.063 18.945,28.385 42.078,28.385 L42.078,28.385 C65.211,28.385 83.963,22.063 83.963,14.264 L83.963,14.264 C83.963,6.467 65.211,0.145 42.078,0.145 L42.078,0.145 C18.945,0.145 0.193,6.467 0.193,14.264"/>
    <path id="type-06-s" d="M0.193,14.264 C0.193,22.063 18.945,28.385 42.078,28.385 L42.078,28.385 C65.211,28.385 83.963,22.063 83.963,14.264 L83.963,14.264 C83.963,6.467 65.211,0.145 42.078,0.145 L42.078,0.145 C18.945,0.145 0.193,6.467 0.193,14.264"/>
    <path id="type-06-u" d="M0.193,14.264 C0.193,22.063 18.945,28.385 42.078,28.385 L42.078,28.385 C65.211,28.385 83.963,22.063 83.963,14.264 L83.963,14.264 C83.963,6.467 65.211,0.145 42.078,0.145 L42.078,0.145 C18.945,0.145 0.193,6.467 0.193,14.264"/>
    <path id="type-06-w" d="M0.193,14.264 C0.193,22.063 18.945,28.385 42.078,28.385 L42.078,28.385 C65.211,28.385 83.963,22.063 83.963,14.264 L83.963,14.264 C83.963,6.467 65.211,0.145 42.078,0.145 L42.078,0.145 C18.945,0.145 0.193,6.467 0.193,14.264"/>
  </defs>
  <g fill="none" fill-rule="evenodd" transform="translate(19 19)">
    <path fill="#000" d="M150,75 C150,116.421 116.421,150 75,150 C33.579,150 0,116.421 0,75 C0,33.579 33.579,0 75,0 C116.421,0 150,33.579 150,75"/>
    <path fill="#FFF" d="M74.7393,57.9092 C74.7393,70.0102 68.2463,79.8182 60.2373,79.8182 C52.2283,79.8182 45.7353,70.0102 45.7353,57.9092 C45.7353,45.8092 52.2283,36.0002 60.2373,36.0002 C68.2463,36.0002 74.7393,45.8092 74.7393,57.9092"/>
    <path fill="#000" d="M66.749,49.9014 C66.749,55.3414 63.83,59.7524 60.228,59.7524 C56.627,59.7524 53.708,55.3414 53.708,49.9014 C53.708,44.4614 56.627,40.0504 60.228,40.0504 C63.83,40.0504 66.749,44.4614 66.749,49.9014"/>
    <path fill="#FFF" d="M63.4731 48.9014C63.4731 51.6084 62.0201 53.8024 60.2281 53.8024 58.4371 53.8024 56.9841 51.6084 56.9841 48.9014 56.9841 46.1944 58.4371 44.0004 60.2281 44.0004 62.0201 44.0004 63.4731 46.1944 63.4731 48.9014M78.5762 40.9092C78.5762 53.0102 85.0692 62.8182 93.0782 62.8182 101.0872 62.8182 107.5802 53.0102 107.5802 40.9092 107.5802 28.8092 101.0872 19.0002 93.0782 19.0002 85.0692 19.0002 78.5762 28.8092 78.5762 40.9092"/>
    <path fill="#000" d="M86.5664,50.9014 C86.5664,56.3414 89.4854,60.7524 93.0864,60.7524 C96.6874,60.7524 99.6074,56.3414 99.6074,50.9014 C99.6074,45.4614 96.6874,41.0504 93.0864,41.0504 C89.4854,41.0504 86.5664,45.4614 86.5664,50.9014"/>
    <path fill="#FFF" d="M111.417,57.9092 C111.417,70.0102 117.91,79.8182 125.919,79.8182 C133.928,79.8182 140.421,70.0102 140.421,57.9092 C140.421,45.8092 133.928,36.0002 125.919,36.0002 C117.91,36.0002 111.417,45.8092 111.417,57.9092"/>
    <path fill="#000" d="M119.4072,49.9014 C119.4072,55.3414 122.3262,59.7524 125.9272,59.7524 C129.5282,59.7524 132.4482,55.3414 132.4482,49.9014 C132.4482,44.4614 129.5282,40.0504 125.9272,40.0504 C122.3262,40.0504 119.4072,44.4614 119.4072,49.9014"/>
    <g transform="translate(51 84)">
      <mask id="type-06-b" fill="#fff">
        <use xlink:href="#type-06-a"/>
      </mask>
      <path fill="#FFF" d="M-4.2896,18.2002 C-2.5606,12.8622 2.1504,10.3672 6.2334,12.6282 C10.3174,14.8872 12.2264,21.0472 10.4974,26.3852" mask="url(#type-06-b)"/>
      <mask id="type-06-d" fill="#fff">
        <use xlink:href="#type-06-c"/>
      </mask>
      <path fill="#FFF" d="M9.9316,25.0928 C10.4676,20.8878 13.5086,18.0468 16.7246,18.7468 C19.9406,19.4468 22.1136,23.4228 21.5776,27.6278" mask="url(#type-06-d)"/>
      <mask id="type-06-f" fill="#fff">
        <use xlink:href="#type-06-e"/>
      </mask>
      <path fill="#FFF" d="M20.938,26.873 C21.257,22.631 24.146,19.531 27.391,19.948 C30.636,20.365 33.007,24.143 32.688,28.385" mask="url(#type-06-f)"/>
      <mask id="type-06-h" fill="#fff">
        <use xlink:href="#type-06-g"/>
      </mask>
      <path fill="#FFF" d="M88.4458,18.2002 C86.7168,12.8622 82.0058,10.3672 77.9218,12.6282 C73.8388,14.8872 71.9298,21.0472 73.6588,26.3852" mask="url(#type-06-h)"/>
      <mask id="type-06-j" fill="#fff">
        <use xlink:href="#type-06-i"/>
      </mask>
      <path fill="#FFF" d="M74.2246,25.0928 C73.6886,20.8878 70.6476,18.0468 67.4316,18.7468 C64.2156,19.4468 62.0426,23.4228 62.5776,27.6278" mask="url(#type-06-j)"/>
      <mask id="type-06-l" fill="#fff">
        <use xlink:href="#type-06-k"/>
      </mask>
      <path fill="#FFF" d="M63.2183,26.873 C62.8993,22.631 60.0103,19.531 56.7643,19.948 C53.5203,20.365 51.1483,24.143 51.4683,28.385" mask="url(#type-06-l)"/>
      <mask id="type-06-n" fill="#fff">
        <use xlink:href="#type-06-m"/>
      </mask>
      <path fill="#FFF" d="M88.4458,10.5937 C86.7168,15.9317 82.0058,18.4267 77.9218,16.1657 C73.8388,13.9067 71.9298,7.7467 73.6588,2.4087" mask="url(#type-06-n)"/>
      <mask id="type-06-p" fill="#fff">
        <use xlink:href="#type-06-o"/>
      </mask>
      <path fill="#FFF" d="M74.2246,3.7021 C73.6886,7.9061 70.6476,10.7471 67.4316,10.0471 C64.2156,9.3471 62.0426,5.3711 62.5786,1.1661" mask="url(#type-06-p)"/>
      <mask id="type-06-r" fill="#fff">
        <use xlink:href="#type-06-q"/>
      </mask>
      <path fill="#FFF" d="M63.2183,1.9209 C62.8993,6.1629 60.0103,9.2629 56.7653,8.8459 C53.5203,8.4289 51.1493,4.6509 51.4683,0.4099" mask="url(#type-06-r)"/>
      <mask id="type-06-t" fill="#fff">
        <use xlink:href="#type-06-s"/>
      </mask>
      <path fill="#FFF" d="M-4.2896,10.5937 C-2.5606,15.9317 2.1504,18.4267 6.2334,16.1657 C10.3174,13.9067 12.2264,7.7467 10.4974,2.4087" mask="url(#type-06-t)"/>
      <mask id="type-06-v" fill="#fff">
        <use xlink:href="#type-06-u"/>
      </mask>
      <path fill="#FFF" d="M9.9316,3.7021 C10.4676,7.9061 13.5086,10.7471 16.7246,10.0471 C19.9406,9.3471 22.1136,5.3711 21.5786,1.1661" mask="url(#type-06-v)"/>
      <mask id="type-06-x" fill="#fff">
        <use xlink:href="#type-06-w"/>
      </mask>
      <path fill="#FFF" d="M20.938,1.9209 C21.257,6.1629 24.146,9.2629 27.391,8.8459 C30.636,8.4289 33.007,4.6509 32.688,0.4099" mask="url(#type-06-x)"/>
    </g>
    <g transform="translate(51 44)">
      <path stroke="#FFF" stroke-linecap="round" stroke-linejoin="round" stroke-width="4" d="M83.9634,54.2646 C83.9634,62.0626 65.2104,68.3846 42.0784,68.3846 C18.9454,68.3846 0.1924,62.0626 0.1924,54.2646 C0.1924,46.4666 18.9454,40.1456 42.0784,40.1456 C65.2104,40.1456 83.9634,46.4666 83.9634,54.2646 Z"/>
      <path fill="#FFF" d="M45.4731 8.9014C45.4731 11.6084 44.0201 13.8024 42.2281 13.8024 40.4371 13.8024 38.9841 11.6084 38.9841 8.9014 38.9841 6.1944 40.4371 4.0004 42.2281 4.0004 44.0201 4.0004 45.4731 6.1944 45.4731 8.9014M78.4731 4.9014C78.4731 7.6084 77.0201 9.8024 75.2281 9.8024 73.4371 9.8024 71.9841 7.6084 71.9841 4.9014 71.9841 2.1944 73.4371.0004 75.2281.0004 77.0201.0004 78.4731 2.1944 78.4731 4.9014"/>
    </g>
  </g>
</svg>
