<svg xmlns="http://www.w3.org/2000/svg" width="188" height="188" viewBox="0 0 188 188">
  <g fill="none" fill-rule="evenodd" transform="translate(19 19)">
    <path fill="#000" d="M150,75 C150,116.421 116.421,150 75,150 C33.579,150 0,116.421 0,75 C0,33.579 33.579,0 75,0 C116.421,0 150,33.579 150,75"/>
    <path fill="#FFF" d="M70.749,59.9014 C70.749,65.3414 67.83,69.7524 64.228,69.7524 C60.628,69.7524 57.708,65.3414 57.708,59.9014 C57.708,57.3204 58.371,54.9794 59.446,53.2224 L47.557,47.2784 C46.398,50.4274 45.735,54.0504 45.735,57.9094 C45.735,70.0094 52.228,79.8184 60.237,79.8184 C67.596,79.8184 73.671,71.5354 74.609,60.8044 L70.711,58.8554 C70.735,59.1994 70.749,59.5474 70.749,59.9014"/>
    <path fill="#000" d="M64.2285,69.752 C67.8295,69.752 70.7495,65.342 70.7495,59.901 C70.7495,59.548 70.7355,59.199 70.7115,58.856 L59.4455,53.223 C58.3705,54.979 57.7085,57.321 57.7085,59.901 C57.7085,65.342 60.6275,69.752 64.2285,69.752"/>
    <path fill="#FFF" d="M99.6069,42.9014 C99.6069,48.3414 96.6879,52.7524 93.0859,52.7524 C89.4849,52.7524 86.5659,48.3414 86.5659,42.9014 C86.5659,39.2084 87.9139,35.9954 89.9039,34.3084 L80.7099,29.4684 C79.3569,32.7984 78.5759,36.7154 78.5759,40.9094 C78.5759,53.0094 85.0689,62.8184 93.0779,62.8184 C100.4939,62.8184 106.6059,54.4074 107.4709,43.5564 L99.1169,39.1584 C99.4309,40.3134 99.6069,41.5754 99.6069,42.9014"/>
    <path fill="#000" d="M86.5664,42.9014 C86.5664,48.3414 89.4854,52.7524 93.0864,52.7524 C96.6874,52.7524 99.6074,48.3414 99.6074,42.9014 C99.6074,41.5754 99.4314,40.3134 99.1164,39.1584 L89.9034,34.3084 C87.9134,35.9954 86.5664,39.2084 86.5664,42.9014"/>
    <path fill="#FFF" d="M129.6235,36.7241 C128.1585,39.6431 125.6345,44.6351 122.7725,50.1421 C125.9735,50.7701 128.4475,54.8951 128.4475,59.9011 C128.4475,65.3421 125.5285,69.7521 121.9275,69.7521 C119.1025,69.7521 116.7045,67.0331 115.7985,63.2361 C114.8585,64.9431 113.9435,66.5761 113.0765,68.0841 C115.5025,75.0591 120.3415,79.8181 125.9185,79.8181 C133.9285,79.8181 140.4205,70.0091 140.4205,57.9091 C140.4205,47.7441 135.8375,39.1981 129.6235,36.7241"/>
    <path fill="#000" d="M121.9272,69.752 C125.5282,69.752 128.4482,65.342 128.4482,59.901 C128.4482,54.895 125.9732,50.771 122.7732,50.143 C120.5352,54.449 118.0962,59.062 115.7982,63.236 C116.7042,67.033 119.1022,69.752 121.9272,69.752"/>
    <path stroke="#FFF" stroke-linecap="round" stroke-linejoin="round" stroke-width="4" d="M46.3452,106.3105 L138.5302,106.3105"/>
    <path fill="#FFF" d="M52.1196,106.001 C52.1196,98.655 56.0436,92.699 60.8846,92.699 C65.7246,92.699 69.6496,98.655 69.6496,106.001"/>
    <path fill="#FFF" d="M69.6494 106.001C69.6494 100.363 72.8804 95.793 76.8674 95.793 80.8534 95.793 84.0854 100.363 84.0854 106.001M131.9312 106.001C131.9312 98.655 128.0072 92.699 123.1662 92.699 118.3262 92.699 114.4012 98.655 114.4012 106.001"/>
    <path fill="#FFF" d="M114.4014 106.001C114.4014 100.363 111.1704 95.793 107.1834 95.793 103.1964 95.793 99.9654 100.363 99.9654 106.001M99.4014 106.001C99.4014 100.363 96.1704 95.793 92.1834 95.793 88.1964 95.793 84.9654 100.363 84.9654 106.001"/>
  </g>
</svg>
