<svg xmlns="http://www.w3.org/2000/svg" width="188" height="188" viewBox="0 0 188 188">
  <g fill="none" fill-rule="evenodd" transform="translate(19 19)">
    <path fill="#000" d="M150,75 C150,116.421 116.421,150 75,150 C33.579,150 0,116.421 0,75 C0,33.579 33.579,0 75,0 C116.421,0 150,33.579 150,75"/>
    <path stroke="#FFF" stroke-linecap="round" stroke-linejoin="round" stroke-width="4" d="M43,91.4355 L135.185,91.4355"/>
    <path fill="#FFF" d="M48.7744,91.1265 C48.7744,83.7795 52.6984,77.8245 57.5394,77.8245 C62.3794,77.8245 66.3044,83.7795 66.3044,91.1265"/>
    <path fill="#FFF" d="M66.3042 91.1265C66.3042 85.4885 69.5352 80.9185 73.5222 80.9185 77.5092 80.9185 80.7402 85.4885 80.7402 91.1265M128.5859 91.1265C128.5859 83.7795 124.6619 77.8245 119.8209 77.8245 114.9809 77.8245 111.0559 83.7795 111.0559 91.1265"/>
    <path fill="#FFF" d="M111.0562,91.1265 C111.0562,85.4885 107.8252,80.9185 103.8382,80.9185 C99.8512,80.9185 96.6202,85.4885 96.6202,91.1265"/>
    <polyline stroke="#FFF" stroke-linecap="round" stroke-linejoin="round" stroke-width="4" points="44 38 82 54 38 66"/>
    <polyline stroke="#FFF" stroke-linecap="round" stroke-linejoin="round" stroke-width="4" points="135 38 97 54 141 66"/>
  </g>
</svg>
