<svg xmlns="http://www.w3.org/2000/svg" width="188" height="188" viewBox="0 0 188 188">
  <g fill="none" fill-rule="evenodd" transform="translate(19 19)">
    <path fill="#000" d="M150,75 C150,116.421 116.421,150 75,150 C33.579,150 0,116.421 0,75 C0,33.579 33.579,0 75,0 C116.421,0 150,33.579 150,75"/>
    <path stroke="#FFF" stroke-linecap="round" stroke-linejoin="round" stroke-width="4" d="M39,90.0791 C39,79.4901 62.543,92.6581 91.584,92.6581 C120.626,92.6581 144.168,79.4901 144.168,90.0791"/>
    <path fill="#FFF" d="M135.2759 86.5776C136.1989 91.3266 133.0959 95.9246 128.3469 96.8476 123.5979 97.7696 118.9999 94.6676 118.0769 89.9186M113.603 91.1455C114.075 95.9605 110.554 100.2465 105.739 100.7185 100.924 101.1905 96.638 97.6695 96.166 92.8545M47.8926 86.5776C46.9706 91.3266 50.0726 95.9246 54.8216 96.8476 59.5706 97.7696 64.1686 94.6676 65.0916 89.9186M69.5654 91.1455C69.0934 95.9605 72.6144 100.2465 77.4294 100.7185 82.2444 101.1905 86.5304 97.6695 87.0024 92.8545M124.146 64.7461C119.257 64.7461 115.293 60.7831 115.293 55.8931 115.293 51.0051 119.257 47.0411 124.146 47.0411 129.035 47.0411 132.999 51.0051 132.999 55.8931 132.999 60.7831 129.035 64.7461 124.146 64.7461M59.303 63.0461C54.414 63.0461 50.451 59.0831 50.451 54.1941 50.451 49.3051 54.414 45.3411 59.303 45.3411 64.192 45.3411 68.156 49.3051 68.156 54.1941 68.156 59.0831 64.192 63.0461 59.303 63.0461M127.178 36.3411C117.332 43.2431 106.55 46.7631 99.878 48.4231 99.336 50.2231 99.038 52.1271 99.038 54.1031 99.038 55.1561 99.144 56.1821 99.303 57.1891 97.369 53.7451 93.687 51.4141 89.455 51.4141 87.944 51.4141 86.506 51.7161 85.189 52.2541 85.2 51.9791 85.23 51.7091 85.23 51.4321 85.23 49.6431 84.971 47.9191 84.524 46.2721 73.617 43.6631 64.273 38.1211 57.768 33.3431 50.761 36.3581 45.852 43.3201 45.852 51.4321 45.852 62.3061 54.667 71.1211 65.541 71.1211 70.594 71.1211 75.187 69.2021 78.673 66.0731 80.105 70.6661 84.391 74.0001 89.455 74.0001 95.692 74.0001 100.748 68.9441 100.748 62.7071 100.748 62.4801 100.727 62.2591 100.714 62.0351 103.766 68.9561 110.677 73.7931 118.727 73.7931 129.601 73.7931 138.416 64.9771 138.416 54.1031 138.416 46.2591 133.817 39.5061 127.178 36.3411"/>
    <path fill="#000" d="M124.146 47.041C119.257 47.041 115.293 51.005 115.293 55.894 115.293 60.783 119.257 64.746 124.146 64.746 129.035 64.746 132.999 60.783 132.999 55.894 132.999 51.005 129.035 47.041 124.146 47.041M94.4888 62.6196C94.4888 65.4236 92.2158 67.6966 89.4108 67.6966 86.6068 67.6966 84.3338 65.4236 84.3338 62.6196 84.3338 59.8156 86.6068 57.5416 89.4108 57.5416 92.2158 57.5416 94.4888 59.8156 94.4888 62.6196M59.3032 45.3413C54.4142 45.3413 50.4502 49.3043 50.4502 54.1943 50.4502 59.0833 54.4142 63.0463 59.3032 63.0463 64.1922 63.0463 68.1562 59.0833 68.1562 54.1943 68.1562 49.3043 64.1922 45.3413 59.3032 45.3413"/>
    <path fill="#FFF" d="M98.8823,39.2827 C96.0783,39.2827 93.8053,37.0097 93.8053,34.2047 C93.8053,31.4017 96.0783,29.1277 98.8823,29.1277 C101.6863,29.1277 103.9603,31.4017 103.9603,34.2047 C103.9603,37.0097 101.6863,39.2827 98.8823,39.2827 M103.0323,23.7817 C97.6743,28.0467 92.1863,31.2207 87.6753,33.4517 C87.6553,33.7307 87.6333,34.0097 87.6333,34.2927 C87.6333,40.5297 92.6893,45.5857 98.9263,45.5857 C105.1633,45.5857 110.2193,40.5297 110.2193,34.2927 C110.2193,29.5067 107.2363,25.4247 103.0323,23.7817"/>
    <path fill="#000" d="M98.8823,29.1279 C96.0783,29.1279 93.8053,31.4009 93.8053,34.2049 C93.8053,37.0089 96.0783,39.2829 98.8823,39.2829 C101.6863,39.2829 103.9603,37.0089 103.9603,34.2049 C103.9603,31.4009 101.6863,29.1279 98.8823,29.1279"/>
  </g>
</svg>
