<svg xmlns="http://www.w3.org/2000/svg" width="94" height="149" viewBox="0 0 94 149">
  <g fill="none" fill-rule="evenodd" transform="translate(3 2)">
    <path fill="#000" d="M53.0959,64.2868 L87.9169,143.5878"/>
    <g transform="translate(0 .588)">
      <path stroke="#FFF" stroke-linecap="round" stroke-linejoin="round" stroke-width="6" d="M53.0959,63.6988 L87.9169,142.9998"/>
      <path fill="#000" d="M77.2048,37.9058 C77.2048,58.6128 60.4178,75.3998 39.7108,75.3998 C19.0028,75.3998 2.2168,58.6128 2.2168,37.9058 C2.2168,17.1988 19.0028,0.4118 39.7108,0.4118 C60.4178,0.4118 77.2048,17.1988 77.2048,37.9058"/>
      <path stroke="#FFF" stroke-linecap="round" stroke-linejoin="round" stroke-width="6" d="M77.2048,37.9058 C77.2048,58.6128 60.4178,75.3998 39.7108,75.3998 C19.0028,75.3998 2.2168,58.6128 2.2168,37.9058 C2.2168,17.1988 19.0028,0.4118 39.7108,0.4118 C60.4178,0.4118 77.2048,17.1988 77.2048,37.9058 Z"/>
      <path fill="#000" d="M5.1716,58.4077 C56.4336,59.2397 77.9436,27.7477 77.9436,27.7477 L70.1866,12.9707 C42.6876,43.9087 0.0006,42.5227 0.0006,42.5227 L5.1716,58.4077 Z"/>
      <path stroke="#FFF" stroke-linecap="round" stroke-linejoin="round" stroke-width="6" d="M5.1716,58.4077 C56.4336,59.2397 77.9436,27.7477 77.9436,27.7477 L70.1866,12.9707 C42.6876,43.9087 0.0006,42.5227 0.0006,42.5227 L5.1716,58.4077 Z"/>
      <g transform="translate(27 9)">
        <path fill="#000" d="M0.3356,3.9712 C0.3356,3.9712 11.7866,-3.4168 26.1936,3.9712"/>
        <path stroke="#FFF" stroke-linecap="round" stroke-linejoin="round" stroke-width="6" d="M0.3356,3.9712 C0.3356,3.9712 11.7866,-3.4168 26.1936,3.9712"/>
      </g>
    </g>
  </g>
</svg>
