<svg xmlns="http://www.w3.org/2000/svg" width="135" height="126" viewBox="0 0 135 126">
  <g fill="none" fill-rule="evenodd" transform="translate(3 3)">
    <path fill="#000" d="M64.792,76.6747 C52.405,77.0707 42.281,66.9467 42.677,54.5597 C43.035,43.3417 52.172,34.2047 63.39,33.8477 C75.777,33.4517 85.9,43.5747 85.505,55.9627 C85.147,67.1807 76.01,76.3177 64.792,76.6747 M100.703,2.6507 C94.074,-1.9713 84.85,-0.4123 80.3,6.2667 C75.647,13.0977 67.808,17.5817 58.919,17.5817 C55.936,17.5817 53.072,17.0707 50.405,16.1407 C48.285,20.0777 44.126,22.7537 39.341,22.7537 C36.153,22.7537 33.244,21.5637 31.03,19.6067 C28.815,21.5637 25.906,22.7537 22.718,22.7537 C20.707,22.7537 18.807,22.2807 17.123,21.4407 C13.812,19.7887 9.795,20.9987 8.001,24.2357 C0.511,37.7437 -2.243,54.2407 1.994,71.4907 C7.571,94.1997 25.482,111.9897 48.22,117.4467 C90.492,127.5917 128.182,95.8277 128.182,55.2607 C128.182,33.4777 117.313,14.2317 100.703,2.6507"/>
    <path stroke="#FFF" stroke-linecap="round" stroke-linejoin="round" stroke-width="6" d="M64.792,76.6747 C52.405,77.0707 42.281,66.9467 42.677,54.5597 C43.035,43.3417 52.172,34.2047 63.39,33.8477 C75.777,33.4517 85.9,43.5747 85.505,55.9627 C85.147,67.1807 76.01,76.3177 64.792,76.6747 Z M100.703,2.6507 C94.074,-1.9713 84.85,-0.4123 80.3,6.2667 C75.647,13.0977 67.808,17.5817 58.919,17.5817 C55.936,17.5817 53.072,17.0707 50.405,16.1407 C48.285,20.0777 44.126,22.7537 39.341,22.7537 C36.153,22.7537 33.244,21.5637 31.03,19.6067 C28.815,21.5637 25.906,22.7537 22.718,22.7537 C20.707,22.7537 18.807,22.2807 17.123,21.4407 C13.812,19.7887 9.795,20.9987 8.001,24.2357 C0.511,37.7437 -2.243,54.2407 1.994,71.4907 C7.571,94.1997 25.482,111.9897 48.22,117.4467 C90.492,127.5917 128.182,95.8277 128.182,55.2607 C128.182,33.4777 117.313,14.2317 100.703,2.6507 Z"/>
    <g transform="translate(20 37.352)">
      <path fill="#000" d="M0.5015,0.1782 L7.8895,4.2412"/>
      <path stroke="#FFF" stroke-linecap="round" stroke-linejoin="round" stroke-width="6" d="M0.5015,0.1782 L7.8895,4.2412"/>
    </g>
    <g transform="translate(20 54.352)">
      <path fill="#000" d="M0.1221,2.1801 L8.2691,0.0081"/>
      <path stroke="#FFF" stroke-linecap="round" stroke-linejoin="round" stroke-width="6" d="M0.1221,2.1801 L8.2691,0.0081"/>
    </g>
    <g transform="translate(31 66.352)">
      <path fill="#000" d="M0.3902,0.061 L1.5162,8.417"/>
      <path stroke="#FFF" stroke-linecap="round" stroke-linejoin="round" stroke-width="6" d="M0.3902,0.061 L1.5162,8.417"/>
    </g>
    <g transform="translate(63 86.352)">
      <path fill="#000" d="M0.8316,8.6498 L1.8736,0.2828"/>
      <path stroke="#FFF" stroke-linecap="round" stroke-linejoin="round" stroke-width="6" d="M0.8316,8.6498 L1.8736,0.2828"/>
    </g>
    <g transform="translate(77 87.352)">
      <path fill="#000" d="M0.2173,0.9106 L8.3863,3.0006"/>
      <path stroke="#FFF" stroke-linecap="round" stroke-linejoin="round" stroke-width="6" d="M0.2173,0.9106 L8.3863,3.0006"/>
    </g>
    <g transform="translate(94 20.352)">
      <path fill="#000" d="M4.9707,0.9584 L0.2227,7.9134"/>
      <path stroke="#FFF" stroke-linecap="round" stroke-linejoin="round" stroke-width="6" d="M4.9707,0.9584 L0.2227,7.9134"/>
    </g>
    <g transform="translate(104 51.352)">
      <path fill="#000" d="M6.9258,5.6674 L0.4298,0.3074"/>
      <path stroke="#FFF" stroke-linecap="round" stroke-linejoin="round" stroke-width="6" d="M6.9258,5.6674 L0.4298,0.3074"/>
    </g>
    <g transform="translate(91 66.352)">
      <path fill="#000" d="M4.5108,0.6752 L0.0308,7.8062"/>
      <path stroke="#FFF" stroke-linecap="round" stroke-linejoin="round" stroke-width="6" d="M4.5108,0.6752 L0.0308,7.8062"/>
    </g>
  </g>
</svg>
