<svg xmlns="http://www.w3.org/2000/svg" width="125" height="158" viewBox="0 0 125 158">
  <g fill="none" fill-rule="evenodd" transform="translate(3 3)">
    <path fill="#000" d="M-0.0001,100.4382 C-0.0001,64.4932 26.4409,41.7822 59.0579,41.7822 C91.6739,41.7822 118.1149,64.4932 118.1149,100.4382 C118.1149,136.3822 91.6739,151.8622 59.0579,151.8622 C26.4409,151.8622 -0.0001,136.3822 -0.0001,100.4382"/>
    <path stroke="#FFF" stroke-linecap="round" stroke-linejoin="round" stroke-width="6" d="M-0.0001,100.4382 C-0.0001,64.4932 26.4409,41.7822 59.0579,41.7822 C91.6739,41.7822 118.1149,64.4932 118.1149,100.4382 C118.1149,136.3822 91.6739,151.8622 59.0579,151.8622 C26.4409,151.8622 -0.0001,136.3822 -0.0001,100.4382 Z"/>
    <path fill="#000" d="M58.6556,41.7819 C58.6556,41.7819 42.5856,3.2149 20.0876,4.8209 C20.0876,4.8209 12.8556,33.7469 58.6556,41.7819"/>
    <path stroke="#FFF" stroke-linecap="round" stroke-linejoin="round" stroke-width="6" d="M58.6556 41.7819C58.6556 41.7819 42.5856 3.2149 20.0876 4.8209 20.0876 4.8209 12.8556 33.7469 58.6556 41.7819zM59.4594 40.1755C59.4594 40.1755 50.6204 8.0345 81.1534-.0005"/>
  </g>
</svg>
