<svg xmlns="http://www.w3.org/2000/svg" width="188" height="188" viewBox="0 0 188 188">
  <g fill="none" fill-rule="evenodd" transform="translate(19 19)">
    <path fill="#000" d="M150,75 C150,116.421 116.421,150 75,150 C33.579,150 0,116.421 0,75 C0,33.579 33.579,0 75,0 C116.421,0 150,33.579 150,75"/>
    <path stroke="#FFF" stroke-linecap="round" stroke-linejoin="round" stroke-width="4" d="M139.9937,111.0293 C139.9937,120.5933 118.7287,108.7003 92.4967,108.7003 C66.2647,108.7003 44.9997,120.5933 44.9997,111.0293 C44.9997,101.4663 66.2647,83.3823 92.4967,83.3823 C118.7287,83.3823 139.9937,101.4663 139.9937,111.0293 Z"/>
    <path fill="#FFF" d="M53.0322 114.1924C52.1992 109.9024 55.0012 105.7504 59.2912 104.9164 63.5802 104.0834 67.7342 106.8844 68.5672 111.1744M72.6084 110.0664C72.1824 105.7174 75.3624 101.8454 79.7124 101.4204 84.0614 100.9934 87.9324 104.1724 88.3584 108.5224M75.6826 86.2207C77.2826 90.2867 75.2836 94.8807 71.2166 96.4817 67.1506 98.0817 62.5566 96.0827 60.9566 92.0167M131.9614 114.1924C132.7944 109.9024 129.9924 105.7504 125.7034 104.9164 121.4134 104.0834 117.2594 106.8844 116.4264 111.1744M112.3853 110.0664C112.8113 105.7174 109.6313 101.8454 105.2823 101.4204 100.9323 100.9934 97.0613 104.1724 96.6353 108.5224M109.311 86.2207C107.711 90.2867 109.71 94.8807 113.777 96.4817 117.843 98.0817 122.437 96.0827 124.037 92.0167"/>
    <path fill="#000" d="M50.4507,54.1934 C50.4507,59.0834 54.4137,63.0464 59.3037,63.0464 C64.1927,63.0464 68.1557,59.0834 68.1557,54.1934 C68.1557,51.8804 67.2607,49.7794 65.8067,48.2024 C63.2707,47.3464 60.8287,46.3924 58.5147,45.3804 C53.9957,45.7804 50.4507,49.5704 50.4507,54.1934"/>
    <path fill="#FFF" d="M118.7266,34.4141 C115.5906,34.4141 112.6366,35.1671 110.0046,36.4721 C110.1426,35.7661 110.2196,35.0391 110.2196,34.2931 C110.2196,28.0561 105.1636,23.0001 98.9266,23.0001 C92.6896,23.0001 87.6336,28.0561 87.6336,34.2931 C87.6336,40.5291 92.6896,45.5861 98.9266,45.5861 C99.6696,45.5861 100.3956,45.5101 101.0996,45.3721 C99.7916,48.0061 99.0376,50.9631 99.0376,54.1031 C99.0376,55.1521 99.1436,56.1741 99.3016,57.1791 C97.7666,54.4571 95.1326,52.4361 92.0026,51.7141 C90.0026,51.9081 88.0086,51.9821 86.0306,51.9461 C85.7446,52.0371 85.4646,52.1421 85.1886,52.2541 C85.1936,52.1411 85.2036,52.0281 85.2056,51.9141 C78.4266,51.6891 71.8416,50.2401 65.8066,48.2021 C67.2606,49.7791 68.1556,51.8801 68.1556,54.1931 C68.1556,59.0831 64.1926,63.0461 59.3036,63.0461 C54.4136,63.0461 50.4506,59.0831 50.4506,54.1931 C50.4506,49.5701 53.9956,45.7801 58.5146,45.3811 C55.0566,43.8701 51.8856,42.2431 49.0716,40.6591 C47.0416,43.7561 45.8516,47.4531 45.8516,51.4321 C45.8516,62.3071 54.6666,71.1211 65.5406,71.1211 C70.5936,71.1211 75.1866,69.2021 78.6726,66.0731 C80.1046,70.6661 84.3906,74.0001 89.4556,74.0001 C95.6916,74.0001 100.7476,68.9441 100.7476,62.7071 C100.7476,62.4841 100.7316,62.2661 100.7186,62.0461 C103.7736,68.9611 110.6816,73.7931 118.7266,73.7931 C129.6006,73.7931 138.4156,64.9771 138.4156,54.1031 C138.4156,43.2291 129.6006,34.4141 118.7266,34.4141"/>
    <path fill="#000" d="M103.96 34.2051C103.96 37.0101 101.687 39.2831 98.883 39.2831 96.079 39.2831 93.805 37.0101 93.805 34.2051 93.805 31.4011 96.079 29.1281 98.883 29.1281 101.687 29.1281 103.96 31.4011 103.96 34.2051M94.4888 62.6191C94.4888 65.4241 92.2158 67.6971 89.4108 67.6971 86.6068 67.6971 84.3338 65.4241 84.3338 62.6191 84.3338 59.8151 86.6068 57.5421 89.4108 57.5421 92.2158 57.5421 94.4888 59.8151 94.4888 62.6191M132.9985 55.8936C132.9985 60.7836 129.0355 64.7466 124.1455 64.7466 119.2565 64.7466 115.2935 60.7836 115.2935 55.8936 115.2935 51.0046 119.2565 47.0406 124.1455 47.0406 129.0355 47.0406 132.9985 51.0046 132.9985 55.8936"/>
    <path stroke="#FFF" stroke-linecap="round" stroke-linejoin="round" stroke-width="4" d="M26.1206 32.291C26.1206 32.291 31.8606 31.266 32.0356 39.074M32.2563 20.0186C32.2563 20.0186 32.7803 25.8266 24.9863 25.3236M44.3799 31.3721C44.3799 31.3721 38.5969 30.6281 38.8029 38.4351M37.6533 19.4131C37.6533 19.4131 37.4133 25.2391 45.1733 24.3571"/>
  </g>
</svg>
