<svg xmlns="http://www.w3.org/2000/svg" width="188" height="188" viewBox="0 0 188 188">
  <g fill="none" fill-rule="evenodd" transform="translate(19 19)">
    <path fill="#000" d="M150,75 C150,116.421 116.421,150 75,150 C33.579,150 0,116.421 0,75 C0,33.579 33.579,0 75,0 C116.421,0 150,33.579 150,75"/>
    <path fill="#FFF" d="M90.7974 10.2676L83.3904 35.3446C82.5644 38.1416 84.6344 40.9556 87.5504 40.9996L105.1204 41.2646C108.2684 41.3126 110.4484 38.1396 109.2774 35.2166L99.1144 9.8756C97.5594 5.9966 91.9814 6.2586 90.7974 10.2676M47.1523 121.0273L50.7343 92.7693 75.3843 103.1393 53.8023 124.3253C51.1433 126.9353 46.6843 124.7233 47.1523 121.0273M125.9507 108.5547L117.9287 99.9417 130.0847 94.5157 129.3947 107.2227C129.3097 108.7877 126.9997 109.6817 125.9507 108.5547"/>
    <polyline stroke="#FFF" stroke-linecap="round" stroke-linejoin="round" stroke-width="4" points="51 93.232 77 104.232 86 96.232 96 102.232 107 93.232 118 100.232 130 96.232"/>
    <path stroke="#FFF" stroke-linecap="round" stroke-linejoin="round" stroke-width="4" d="M61 53.1455L82.354 74.4995M61 74.5L82.354 53.146M103 53.1455L124.354 74.4995M103 74.5L124.354 53.146"/>
  </g>
</svg>
