<svg xmlns="http://www.w3.org/2000/svg" width="188" height="188" viewBox="0 0 188 188">
  <g fill="none" fill-rule="evenodd" transform="translate(19 19)">
    <path fill="#000" d="M150,75 C150,116.421 116.421,150 75,150 C33.579,150 0,116.421 0,75 C0,33.579 33.579,0 75,0 C116.421,0 150,33.579 150,75"/>
    <path fill="#FFF" d="M101.3799,63.6592 C101.3799,72.5842 107.8729,79.8182 115.8819,79.8182 C123.8919,79.8182 130.3839,72.5842 130.3839,63.6592 C130.3839,54.7342 123.8919,47.5002 115.8819,47.5002 C107.8729,47.5002 101.3799,54.7342 101.3799,63.6592"/>
    <path fill="#000" d="M108.3706,64.1289 C108.3706,68.1419 111.2896,71.3939 114.8906,71.3939 C118.4916,71.3939 121.4116,68.1419 121.4116,64.1289 C121.4116,60.1159 118.4916,56.8629 114.8906,56.8629 C111.2896,56.8629 108.3706,60.1159 108.3706,64.1289"/>
    <path stroke="#FFF" stroke-linecap="round" stroke-linejoin="round" stroke-width="4" d="M53.356,87.2725 L134.781,87.2725"/>
    <path fill="#FFF" d="M56.6372,113.1201 C57.2902,105.9841 57.9462,91.6191 53.3022,86.9081 C53.3012,86.9081 53.3022,86.9081 53.3022,86.9081 L80.0222,86.5631 C80.0222,86.5631 72.7112,107.1211 60.0852,115.2231 C58.5122,116.2321 56.4672,114.9821 56.6372,113.1201"/>
    <path fill="#FFF" d="M87.8462 88.9551L83.7812 97.7031C83.3422 98.6461 81.9872 98.6061 81.6052 97.6381L78.1552 88.8911C77.8492 88.1131 78.4222 87.2721 79.2572 87.2721L86.7722 87.2721C87.6382 87.2721 88.2112 88.1711 87.8462 88.9551M130.3442 113.1201C129.6912 105.9841 129.0352 91.6191 133.6802 86.9081L106.9592 86.5631C106.9592 86.5631 114.2702 107.1211 126.8962 115.2231 128.4692 116.2321 130.5142 114.9821 130.3442 113.1201"/>
    <path fill="#FFF" d="M99.1353,88.9551 L103.2003,97.7031 C103.6393,98.6461 104.9943,98.6061 105.3763,97.6381 L108.8263,88.8911 C109.1323,88.1131 108.5593,87.2721 107.7243,87.2721 L100.2093,87.2721 C99.3433,87.2721 98.7703,88.1711 99.1353,88.9551"/>
    <path stroke="#FFF" stroke-linecap="round" stroke-linejoin="round" stroke-width="4" d="M57.2446,67.1455 C57.2446,59.9655 63.0646,54.1455 70.2446,54.1455 C77.4246,54.1455 83.2446,59.9655 83.2446,67.1455"/>
  </g>
</svg>
