<svg xmlns="http://www.w3.org/2000/svg" width="188" height="188" viewBox="0 0 188 188">
  <g fill="none" fill-rule="evenodd" transform="translate(19 19)">
    <path fill="#000" d="M150,75 C150,116.421 116.421,150 75,150 C33.579,150 0,116.421 0,75 C0,33.579 33.579,0 75,0 C116.421,0 150,33.579 150,75"/>
    <path stroke="#FFF" stroke-linecap="round" stroke-linejoin="round" stroke-width="4" d="M132.1851,46.8242 L61.1891,46.8242"/>
    <path fill="#FFF" d="M127.7383 47.0625C127.7383 52.7205 124.7163 57.3065 120.9883 57.3065 117.2593 57.3065 114.2383 52.7205 114.2383 47.0625M114.2378 47.0625C114.2378 51.4045 111.7488 54.9245 108.6788 54.9245 105.6088 54.9245 103.1198 51.4045 103.1198 47.0625M66.272 47.0625C66.272 52.7205 69.294 57.3065 73.022 57.3065 76.75 57.3065 79.772 52.7205 79.772 47.0625M79.7725 47.0625C79.7725 51.4045 82.2615 54.9245 85.3315 54.9245 88.4015 54.9245 90.8905 51.4045 90.8905 47.0625"/>
    <path stroke="#FFF" stroke-linecap="round" stroke-linejoin="round" stroke-width="4" d="M61.1895,124.3066 L132.1855,124.3066"/>
    <path fill="#FFF" d="M65.6367 124.0684C65.6367 118.4114 68.6587 113.8244 72.3867 113.8244 76.1147 113.8244 79.1367 118.4114 79.1367 124.0684M79.1372 124.0684C79.1372 119.7264 81.6262 116.2074 84.6962 116.2074 87.7662 116.2074 90.2552 119.7264 90.2552 124.0684M127.103 124.0684C127.103 118.4114 124.081 113.8244 120.353 113.8244 116.624 113.8244 113.603 118.4114 113.603 124.0684M113.6025 124.0684C113.6025 119.7264 111.1135 116.2074 108.0435 116.2074 104.9735 116.2074 102.4845 119.7264 102.4845 124.0684"/>
    <path stroke="#FFF" stroke-linecap="round" stroke-linejoin="round" stroke-width="4" d="M65.4063 35C65.4063 27.82 71.2263 22 78.4063 22 85.5863 22 91.4063 27.82 91.4063 35M101.9688 35C101.9688 27.82 107.7888 22 114.9688 22 122.1488 22 127.9688 27.82 127.9688 35M66 47L66 124M127 47L127 124"/>
  </g>
</svg>
