<svg xmlns="http://www.w3.org/2000/svg" xmlns:xlink="http://www.w3.org/1999/xlink" width="188" height="188" viewBox="0 0 188 188">
  <defs>
    <polygon id="type-01-a" points="0 0 150 0 150 150 0 150"/>
    <path id="type-01-c" d="M54.927,0.691 C25.103,0.734 0.936,7.004 0.945996898,14.694 L0.945996898,14.694 C0.957,22.385 25.144,28.584 54.968,28.5412224 L54.968,28.5412224 C84.792,28.498 108.961,22.227 108.949004,14.537 L108.949004,14.537 C108.938,6.873 84.925,0.69 55.244,0.691 L55.244,0.691 C55.14,0.691 55.031,0.691 54.927,0.691"/>
    <path id="type-01-e" d="M54.927,0.691 C25.103,0.734 0.936,7.004 0.945996898,14.694 L0.945996898,14.694 C0.957,22.385 25.144,28.584 54.968,28.5412224 L54.968,28.5412224 C84.792,28.498 108.961,22.227 108.949004,14.537 L108.949004,14.537 C108.938,6.873 84.925,0.69 55.244,0.691 L55.244,0.691 C55.14,0.691 55.031,0.691 54.927,0.691"/>
    <path id="type-01-g" d="M54.927,0.691 C25.103,0.734 0.936,7.004 0.945996898,14.694 L0.945996898,14.694 C0.957,22.385 25.144,28.584 54.968,28.5412224 L54.968,28.5412224 C84.792,28.498 108.961,22.227 108.949004,14.537 L108.949004,14.537 C108.938,6.873 84.925,0.69 55.244,0.691 L55.244,0.691 C55.14,0.691 55.031,0.691 54.927,0.691"/>
    <path id="type-01-i" d="M54.927,0.691 C25.103,0.734 0.936,7.004 0.945996898,14.694 L0.945996898,14.694 C0.957,22.385 25.144,28.584 54.968,28.5412224 L54.968,28.5412224 C84.792,28.498 108.961,22.227 108.949004,14.537 L108.949004,14.537 C108.938,6.873 84.925,0.69 55.244,0.691 L55.244,0.691 C55.14,0.691 55.031,0.691 54.927,0.691"/>
    <path id="type-01-k" d="M54.927,0.691 C25.103,0.734 0.936,7.004 0.945996898,14.694 L0.945996898,14.694 C0.957,22.385 25.144,28.584 54.968,28.5412224 L54.968,28.5412224 C84.792,28.498 108.961,22.227 108.949004,14.537 L108.949004,14.537 C108.938,6.873 84.925,0.69 55.244,0.691 L55.244,0.691 C55.14,0.691 55.031,0.691 54.927,0.691"/>
    <path id="type-01-m" d="M54.927,0.691 C25.103,0.734 0.936,7.004 0.945996898,14.694 L0.945996898,14.694 C0.957,22.385 25.144,28.584 54.968,28.5412224 L54.968,28.5412224 C84.792,28.498 108.961,22.227 108.949004,14.537 L108.949004,14.537 C108.938,6.873 84.925,0.69 55.244,0.691 L55.244,0.691 C55.14,0.691 55.031,0.691 54.927,0.691"/>
    <path id="type-01-o" d="M54.927,0.691 C25.103,0.734 0.936,7.004 0.945996898,14.694 L0.945996898,14.694 C0.957,22.385 25.144,28.584 54.968,28.5412224 L54.968,28.5412224 C84.792,28.498 108.961,22.227 108.949004,14.537 L108.949004,14.537 C108.938,6.873 84.925,0.69 55.244,0.691 L55.244,0.691 C55.14,0.691 55.031,0.691 54.927,0.691"/>
    <path id="type-01-q" d="M54.927,0.691 C25.103,0.734 0.936,7.004 0.945996898,14.694 L0.945996898,14.694 C0.957,22.385 25.144,28.584 54.968,28.5412224 L54.968,28.5412224 C84.792,28.498 108.961,22.227 108.949004,14.537 L108.949004,14.537 C108.938,6.873 84.925,0.69 55.244,0.691 L55.244,0.691 C55.14,0.691 55.031,0.691 54.927,0.691"/>
    <path id="type-01-s" d="M54.927,0.691 C25.103,0.734 0.936,7.004 0.945996898,14.694 L0.945996898,14.694 C0.957,22.385 25.144,28.584 54.968,28.5412224 L54.968,28.5412224 C84.792,28.498 108.961,22.227 108.949004,14.537 L108.949004,14.537 C108.938,6.873 84.925,0.69 55.244,0.691 L55.244,0.691 C55.14,0.691 55.031,0.691 54.927,0.691"/>
    <path id="type-01-u" d="M54.927,0.691 C25.103,0.734 0.936,7.004 0.945996898,14.694 L0.945996898,14.694 C0.957,22.385 25.144,28.584 54.968,28.5412224 L54.968,28.5412224 C84.792,28.498 108.961,22.227 108.949004,14.537 L108.949004,14.537 C108.938,6.873 84.925,0.69 55.244,0.691 L55.244,0.691 C55.14,0.691 55.031,0.691 54.927,0.691"/>
  </defs>
  <g fill="none" fill-rule="evenodd" transform="translate(19 19)">
    <mask id="type-01-b" fill="#fff">
      <use xlink:href="#type-01-a"/>
    </mask>
    <path fill="#000" d="M150.00008,74.8906 C150.06,116.3126 116.53,149.9396 75.109,149.999683 C33.688,150.0606 0.061,116.5306 -8.03993836e-05,75.1096 C-0.06,33.6876 33.47,0.0606 74.891,-0.000480399384 C116.312,-0.0604 149.939,33.4696 150.00008,74.8906" mask="url(#type-01-b)"/>
    <g transform="translate(32 78)">
      <mask id="type-01-d" fill="#fff">
        <use xlink:href="#type-01-c"/>
      </mask>
      <path fill="#FFF" d="M25.1909,3.9932 C25.9709,7.8902 23.3759,11.6682 19.3949,12.4312 C15.4149,13.1942 11.5559,10.6542 10.7759,6.7582" mask="url(#type-01-d)"/>
      <mask id="type-01-f" fill="#fff">
        <use xlink:href="#type-01-e"/>
      </mask>
      <path fill="#FFF" d="M53.5654,0.0527 C53.7424,4.7477 50.0064,14.4987 45.2104,14.6737 C40.4144,14.8487 36.3744,5.3797 36.1974,0.6847" mask="url(#type-01-f)"/>
      <mask id="type-01-h" fill="#fff">
        <use xlink:href="#type-01-g"/>
      </mask>
      <path fill="#FFF" d="M85.1313,3.9062 C84.3633,7.8052 86.9693,11.5752 90.9523,12.3272 C94.9353,13.0782 98.7863,10.5272 99.5543,6.6282" mask="url(#type-01-h)"/>
      <mask id="type-01-j" fill="#fff">
        <use xlink:href="#type-01-i"/>
      </mask>
      <path fill="#FFF" d="M56.2881,0.0488 C56.1241,4.7438 59.8891,14.4858 64.6851,14.6458 C69.4821,14.8068 73.4951,5.3258 73.6581,0.6298" mask="url(#type-01-j)"/>
      <mask id="type-01-l" fill="#fff">
        <use xlink:href="#type-01-k"/>
      </mask>
      <path fill="#FFF" d="M-4.8271,18.584 C-2.6051,13.316 3.4649,10.847 8.7329,13.068 C14.0009,15.29 16.4699,21.36 14.2489,26.628" mask="url(#type-01-l)"/>
      <mask id="type-01-n" fill="#fff">
        <use xlink:href="#type-01-m"/>
      </mask>
      <path fill="#FFF" d="M13.5181,25.3545 C14.2021,21.2075 18.1191,18.3995 22.2671,19.0835 C26.4141,19.7685 29.2221,23.6855 28.5371,27.8335" mask="url(#type-01-n)"/>
      <mask id="type-01-p" fill="#fff">
        <use xlink:href="#type-01-o"/>
      </mask>
      <path fill="#FFF" d="M27.7109,27.0898 C28.1159,22.9058 31.8369,19.8428 36.0209,20.2488 C40.2049,20.6538 43.2679,24.3748 42.8619,28.5588" mask="url(#type-01-p)"/>
      <mask id="type-01-r" fill="#fff">
        <use xlink:href="#type-01-q"/>
      </mask>
      <path fill="#FFF" d="M114.7339,18.4102 C112.4979,13.1492 106.4199,10.6972 101.1579,12.9332 C95.8969,15.1712 93.4449,21.2492 95.6819,26.5102" mask="url(#type-01-r)"/>
      <mask id="type-01-t" fill="#fff">
        <use xlink:href="#type-01-s"/>
      </mask>
      <path fill="#FFF" d="M96.4087,25.2344 C95.7127,21.0884 91.7867,18.2934 87.6417,18.9894 C83.4957,19.6854 80.7007,23.6104 81.3967,27.7554" mask="url(#type-01-t)"/>
      <mask id="type-01-v" fill="#fff">
        <use xlink:href="#type-01-u"/>
      </mask>
      <path fill="#FFF" d="M82.2212,27.0107 C81.8042,22.8277 78.0742,19.7757 73.8912,20.1937 C69.7082,20.6117 66.6572,24.3407 67.0742,28.5237" mask="url(#type-01-v)"/>
    </g>
    <g transform="translate(32 23)">
      <path stroke="#FFF" stroke-width="4" d="M108.949204,69.5371 C108.9602,77.2271 84.7922,83.4981 54.9682,83.5413224 C25.1442,83.5841 0.9572,77.3851 0.946196247,69.6941 C0.9352,62.0041 25.1032,55.7341 54.9282,55.6908672 C84.7522,55.6471 108.9382,61.8471 108.949204,69.5371 Z"/>
      <path fill="#FFF" d="M47.8706331,28.0361 C47.8846,37.4521 43.4566,45.0921 37.9826,45.0991063 C32.5076,45.1071 28.0586,37.4801 28.0445669,28.0641 C28.0306,18.6491 32.4576,11.0101 37.9326,11.002092 C43.4076,10.9931 47.8566,18.6201 47.8706331,28.0361"/>
      <path fill="#000" d="M45.1450135,29.5898 C45.151,33.8228 43.161,37.2588 40.699,37.2618035 C38.238,37.2658 36.237,33.8368 36.2309865,29.6038 C36.225,25.3688 38.215,21.9348 40.677,21.9317965 C43.139,21.9278 45.139,25.3568 45.1450135,29.5898"/>
      <path fill="#FFF" d="M61.9140892,35.0186 C61.9221,40.5666 66.3671,45.0576 71.8421,45.0496107 C77.3171,45.0416 81.7481,40.5386 81.7401108,34.9896 C81.7321,29.4416 77.2881,24.9506 71.8121,24.9575918 C66.3381,24.9656 61.9061,29.4706 61.9140892,35.0186"/>
      <path fill="#000" d="M64.6430966,35.9277 C64.6461,38.4227 66.6451,40.4417 69.1071,40.4387033 C71.5681,40.4347 73.5611,38.4087 73.557106,35.9147 C73.5541,33.4197 71.5551,31.4017 69.0941,31.4046967 C66.6321,31.4077 64.6401,33.4337 64.6430966,35.9277"/>
      <path stroke="#FFF" stroke-linecap="round" stroke-linejoin="round" stroke-width="4" d="M3,22 C3,22 21.971,0 38.412,0 C57.213,0 54.853,31 89,28"/>
    </g>
  </g>
</svg>
