<svg xmlns="http://www.w3.org/2000/svg" xmlns:xlink="http://www.w3.org/1999/xlink" width="188" height="188" viewBox="0 0 188 188">
  <defs>
    <path id="type-06-a" d="M0.193,14.264 C0.193,22.063 18.945,28.385 42.078,28.385 L42.078,28.385 C65.211,28.385 83.963,22.063 83.963,14.264 L83.963,14.264 C83.963,6.467 65.211,0.145 42.078,0.145 L42.078,0.145 C18.945,0.145 0.193,6.467 0.193,14.264"/>
    <path id="type-06-c" d="M0.193,14.264 C0.193,22.063 18.945,28.385 42.078,28.385 L42.078,28.385 C65.211,28.385 83.963,22.063 83.963,14.264 L83.963,14.264 C83.963,6.467 65.211,0.145 42.078,0.145 L42.078,0.145 C18.945,0.145 0.193,6.467 0.193,14.264"/>
    <path id="type-06-e" d="M0.193,14.264 C0.193,22.063 18.945,28.385 42.078,28.385 L42.078,28.385 C65.211,28.385 83.963,22.063 83.963,14.264 L83.963,14.264 C83.963,6.467 65.211,0.145 42.078,0.145 L42.078,0.145 C18.945,0.145 0.193,6.467 0.193,14.264"/>
    <path id="type-06-g" d="M0.193,14.264 C0.193,22.063 18.945,28.385 42.078,28.385 L42.078,28.385 C65.211,28.385 83.963,22.063 83.963,14.264 L83.963,14.264 C83.963,6.467 65.211,0.145 42.078,0.145 L42.078,0.145 C18.945,0.145 0.193,6.467 0.193,14.264"/>
    <path id="type-06-i" d="M0.193,14.264 C0.193,22.063 18.945,28.385 42.078,28.385 L42.078,28.385 C65.211,28.385 83.963,22.063 83.963,14.264 L83.963,14.264 C83.963,6.467 65.211,0.145 42.078,0.145 L42.078,0.145 C18.945,0.145 0.193,6.467 0.193,14.264"/>
    <path id="type-06-k" d="M0.193,14.264 C0.193,22.063 18.945,28.385 42.078,28.385 L42.078,28.385 C65.211,28.385 83.963,22.063 83.963,14.264 L83.963,14.264 C83.963,6.467 65.211,0.145 42.078,0.145 L42.078,0.145 C18.945,0.145 0.193,6.467 0.193,14.264"/>
    <path id="type-06-m" d="M0.193,14.264 C0.193,22.063 18.945,28.385 42.078,28.385 L42.078,28.385 C65.211,28.385 83.963,22.063 83.963,14.264 L83.963,14.264 C83.963,6.467 65.211,0.145 42.078,0.145 L42.078,0.145 C18.945,0.145 0.193,6.467 0.193,14.264"/>
    <path id="type-06-o" d="M0.193,14.264 C0.193,22.063 18.945,28.385 42.078,28.385 L42.078,28.385 C65.211,28.385 83.963,22.063 83.963,14.264 L83.963,14.264 C83.963,6.467 65.211,0.145 42.078,0.145 L42.078,0.145 C18.945,0.145 0.193,6.467 0.193,14.264"/>
    <path id="type-06-q" d="M0.193,14.264 C0.193,22.063 18.945,28.385 42.078,28.385 L42.078,28.385 C65.211,28.385 83.963,22.063 83.963,14.264 L83.963,14.264 C83.963,6.467 65.211,0.145 42.078,0.145 L42.078,0.145 C18.945,0.145 0.193,6.467 0.193,14.264"/>
    <path id="type-06-s" d="M0.193,14.264 C0.193,22.063 18.945,28.385 42.078,28.385 L42.078,28.385 C65.211,28.385 83.963,22.063 83.963,14.264 L83.963,14.264 C83.963,6.467 65.211,0.145 42.078,0.145 L42.078,0.145 C18.945,0.145 0.193,6.467 0.193,14.264"/>
    <path id="type-06-u" d="M0.193,14.264 C0.193,22.063 18.945,28.385 42.078,28.385 L42.078,28.385 C65.211,28.385 83.963,22.063 83.963,14.264 L83.963,14.264 C83.963,6.467 65.211,0.145 42.078,0.145 L42.078,0.145 C18.945,0.145 0.193,6.467 0.193,14.264"/>
    <path id="type-06-w" d="M0.193,14.264 C0.193,22.063 18.945,28.385 42.078,28.385 L42.078,28.385 C65.211,28.385 83.963,22.063 83.963,14.264 L83.963,14.264 C83.963,6.467 65.211,0.145 42.078,0.145 L42.078,0.145 C18.945,0.145 0.193,6.467 0.193,14.264"/>
  </defs>
  <g fill="none" fill-rule="evenodd" transform="translate(19 19)">
    <path fill="#000" d="M150,75 C150,116.421 116.421,150 75,150 C33.579,150 0,116.421 0,75 C0,33.579 33.579,0 75,0 C116.421,0 150,33.579 150,75"/>
    <path fill="#FFF" d="M74.7393 57.9092C74.7393 70.0102 68.2463 79.8182 60.2373 79.8182 52.2283 79.8182 45.7353 70.0102 45.7353 57.9092 45.7353 45.8092 52.2283 36.0002 60.2373 36.0002 68.2463 36.0002 74.7393 45.8092 74.7393 57.9092M78.5762 40.9092C78.5762 53.0102 85.0692 62.8182 93.0782 62.8182 101.0872 62.8182 107.5802 53.0102 107.5802 40.9092 107.5802 28.8092 101.0872 19.0002 93.0782 19.0002 85.0692 19.0002 78.5762 28.8092 78.5762 40.9092M111.417 57.9092C111.417 70.0102 117.91 79.8182 125.919 79.8182 133.928 79.8182 140.421 70.0102 140.421 57.9092 140.421 45.8092 133.928 36.0002 125.919 36.0002 117.91 36.0002 111.417 45.8092 111.417 57.9092"/>
    <g transform="translate(51 84)">
      <mask id="type-06-b" fill="#fff">
        <use xlink:href="#type-06-a"/>
      </mask>
      <path fill="#FFF" d="M-4.2896,18.2002 C-2.5606,12.8622 2.1504,10.3672 6.2334,12.6282 C10.3174,14.8872 12.2264,21.0472 10.4974,26.3852" mask="url(#type-06-b)"/>
      <mask id="type-06-d" fill="#fff">
        <use xlink:href="#type-06-c"/>
      </mask>
      <path fill="#FFF" d="M9.9316,25.0928 C10.4676,20.8878 13.5086,18.0468 16.7246,18.7468 C19.9406,19.4468 22.1136,23.4228 21.5776,27.6278" mask="url(#type-06-d)"/>
      <mask id="type-06-f" fill="#fff">
        <use xlink:href="#type-06-e"/>
      </mask>
      <path fill="#FFF" d="M20.938,26.873 C21.257,22.631 24.146,19.531 27.391,19.948 C30.636,20.365 33.007,24.143 32.688,28.385" mask="url(#type-06-f)"/>
      <mask id="type-06-h" fill="#fff">
        <use xlink:href="#type-06-g"/>
      </mask>
      <path fill="#FFF" d="M88.4458,18.2002 C86.7168,12.8622 82.0058,10.3672 77.9218,12.6282 C73.8388,14.8872 71.9298,21.0472 73.6588,26.3852" mask="url(#type-06-h)"/>
      <mask id="type-06-j" fill="#fff">
        <use xlink:href="#type-06-i"/>
      </mask>
      <path fill="#FFF" d="M74.2246,25.0928 C73.6886,20.8878 70.6476,18.0468 67.4316,18.7468 C64.2156,19.4468 62.0426,23.4228 62.5776,27.6278" mask="url(#type-06-j)"/>
      <mask id="type-06-l" fill="#fff">
        <use xlink:href="#type-06-k"/>
      </mask>
      <path fill="#FFF" d="M63.2183,26.873 C62.8993,22.631 60.0103,19.531 56.7643,19.948 C53.5203,20.365 51.1483,24.143 51.4683,28.385" mask="url(#type-06-l)"/>
      <mask id="type-06-n" fill="#fff">
        <use xlink:href="#type-06-m"/>
      </mask>
      <path fill="#FFF" d="M88.4458,10.5937 C86.7168,15.9317 82.0058,18.4267 77.9218,16.1657 C73.8388,13.9067 71.9298,7.7467 73.6588,2.4087" mask="url(#type-06-n)"/>
      <mask id="type-06-p" fill="#fff">
        <use xlink:href="#type-06-o"/>
      </mask>
      <path fill="#FFF" d="M74.2246,3.7021 C73.6886,7.9061 70.6476,10.7471 67.4316,10.0471 C64.2156,9.3471 62.0426,5.3711 62.5786,1.1661" mask="url(#type-06-p)"/>
      <mask id="type-06-r" fill="#fff">
        <use xlink:href="#type-06-q"/>
      </mask>
      <path fill="#FFF" d="M63.2183,1.9209 C62.8993,6.1629 60.0103,9.2629 56.7653,8.8459 C53.5203,8.4289 51.1493,4.6509 51.4683,0.4099" mask="url(#type-06-r)"/>
      <mask id="type-06-t" fill="#fff">
        <use xlink:href="#type-06-s"/>
      </mask>
      <path fill="#FFF" d="M-4.2896,10.5937 C-2.5606,15.9317 2.1504,18.4267 6.2334,16.1657 C10.3174,13.9067 12.2264,7.7467 10.4974,2.4087" mask="url(#type-06-t)"/>
      <mask id="type-06-v" fill="#fff">
        <use xlink:href="#type-06-u"/>
      </mask>
      <path fill="#FFF" d="M9.9316,3.7021 C10.4676,7.9061 13.5086,10.7471 16.7246,10.0471 C19.9406,9.3471 22.1136,5.3711 21.5786,1.1661" mask="url(#type-06-v)"/>
      <mask id="type-06-x" fill="#fff">
        <use xlink:href="#type-06-w"/>
      </mask>
      <path fill="#FFF" d="M20.938,1.9209 C21.257,6.1629 24.146,9.2629 27.391,8.8459 C30.636,8.4289 33.007,4.6509 32.688,0.4099" mask="url(#type-06-x)"/>
    </g>
    <g transform="translate(48 32)">
      <path stroke="#FFF" stroke-linecap="round" stroke-linejoin="round" stroke-width="4" d="M86.9634,66.2646 C86.9634,74.0626 68.2104,80.3846 45.0784,80.3846 C21.9454,80.3846 3.1924,74.0626 3.1924,66.2646 C3.1924,58.4666 21.9454,52.1456 45.0784,52.1456 C68.2104,52.1456 86.9634,58.4666 86.9634,66.2646 Z"/>
      <path fill="#000" d="M88.7798 30.3398C88.7998 30.3068 88.8208 30.2748 88.8408 30.2398 89.0038 29.9668 89.0788 29.8038 89.0788 29.8038L89.0698 29.7988C89.0998 29.7368 89.1358 29.6788 89.1648 29.6148 90.8248 25.9808 89.2238 21.6878 85.5898 20.0268 84.3498 19.4608 83.0348 19.2818 81.7728 19.4258 81.0548 18.3778 80.0588 17.5008 78.8198 16.9358 75.1838 15.2758 70.8918 16.8758 69.2308 20.5108 69.2018 20.5738 69.1818 20.6398 69.1548 20.7028L69.1448 20.6988C69.1448 20.6988 69.0718 20.8618 68.9718 21.1648 68.9588 21.2018 68.9478 21.2388 68.9358 21.2768 68.8928 21.4128 68.8468 21.5718 68.8008 21.7528 68.7818 21.8258 68.7618 21.8988 68.7458 21.9708 68.1748 24.4028 67.7288 30.0628 73.2228 36.6528 73.8028 37.3728 73.9748 36.9968 74.3508 37.1678 82.9298 37.0048 86.9158 32.9628 88.3798 30.9378 88.4238 30.8778 88.4648 30.8168 88.5078 30.7548 88.6138 30.6008 88.7048 30.4618 88.7798 30.3398M55.8652 8.6123C55.8692 8.5733 55.8752 8.5353 55.8792 8.4963 55.9142 8.1793 55.9142 8.0003 55.9142 8.0003L55.9042 8.0003C55.9062 7.9303 55.9142 7.8633 55.9142 7.7933 55.9142 3.7973 52.6752.5573 48.6782.5573 47.3162.5573 46.0462.9413 44.9572 1.5953 43.8692.9413 42.5982.5573 41.2362.5573 37.2402.5573 34.0002 3.7973 34.0002 7.7933 34.0002 7.8633 34.0082 7.9303 34.0102 8.0003L34.0002 8.0003C34.0002 8.0003 34.0002 8.1793 34.0352 8.4963 34.0392 8.5353 34.0452 8.5733 34.0502 8.6133 34.0672 8.7553 34.0912 8.9183 34.1242 9.1023 34.1372 9.1753 34.1492 9.2503 34.1652 9.3223 34.6552 11.7723 36.6022 17.1053 44.3372 20.8183 45.1642 21.2313 45.1642 20.8183 45.5772 20.8183 53.3122 17.1053 55.2592 11.7723 55.7492 9.3223 55.7652 9.2503 55.7772 9.1753 55.7902 9.1023 55.8232 8.9183 55.8472 8.7543 55.8652 8.6123M21.207 21.6055C21.196 21.5675 21.187 21.5305 21.175 21.4925 21.086 21.1865 21.019 21.0205 21.019 21.0205L21.009 21.0245C20.984 20.9595 20.966 20.8935 20.939 20.8295 19.411 17.1365 15.178 15.3825 11.486 16.9115 10.227 17.4325 9.2 18.2725 8.445 19.2945 7.188 19.1055 5.868 19.2365 4.609 19.7575.916 21.2865-.837 25.5185.691 29.2105.718 29.2765.751 29.3345.78 29.3985L.77 29.4025C.77 29.4025.839 29.5675.992 29.8465 1.011 29.8815 1.031 29.9155 1.05 29.9505 1.121 30.0745 1.206 30.2155 1.307 30.3735 1.347 30.4365 1.386 30.5005 1.429 30.5615 2.818 32.6365 6.657 36.8205 15.224 37.2925 16.146 37.3575 15.988 36.9755 16.37 36.8175 22.097 30.4285 21.856 24.7565 21.372 22.3055 21.358 22.2325 21.341 22.1605 21.325 22.0865 21.285 21.9045 21.245 21.7435 21.207 21.6055"/>
    </g>
  </g>
</svg>
