<svg fill="#000000" x="0px" y="0px" viewBox="0 0 100 100">
  <defs>
    <g id="a">
      <path fill="#000000" stroke="none"
        d=" M 72.55 27.45 Q 63.2 18.1 50 18.1 36.6 18.1 27.45 27.45 18.1 36.8 18.1 50 18.1 63.4 27.45 72.55 36.6 81.9 50 81.9 63.2 81.9 72.55 72.55 81.9 63.4 81.9 50 81.9 36.8 72.55 27.45 M 57.2 40.85 Q 57.2 36.8 61.2 36.8 62.75 36.8 63.95 38.05 65.15 39.2 65.15 40.85 65.15 44.85 61.2 44.85 57.2 44.85 57.2 40.85 M 41.6 38.05 Q 42.8 39.2 42.8 40.85 42.8 44.85 38.8 44.85 34.8 44.85 34.8 40.85 34.8 36.8 38.8 36.8 40.45 36.8 41.6 38.05 M 37.3 65.5 Q 32.05 60.2 32.05 52.75 39.2 51.6 48.65 51.35 57.75 51.2 67.9 52.75 67.9 60.2 62.75 65.5 57.35 70.75 50 70.75 42.45 70.75 37.3 65.5 Z">
      </path>
    </g>
  </defs>
  <g transform="matrix( 1, 0, 0, 1, 0,0) ">
    <use xlink:href="#a"></use>
  </g>
</svg>