<svg fill="#000000" x="0px" y="0px" viewBox="0 0 75 75"
  enable-background="new 0 0 75 75">
  <path
    d="M53.225,13.164c-1.533-0.84-2.325,0.347-2.723,0.891c-0.396,0.544-5.344,8.264-5.344,8.264s-0.546,0.148-0.396-0.643  c0.147-0.793,2.672-11.283,2.672-11.283s0.643-3.512-0.989-3.76c-1.632-0.247-2.128,0.94-2.424,2.029  c-0.298,1.089-3.217,11.38-3.217,11.38s-0.842,1.14-0.89-0.148c-0.049-1.288-0.247-12.371-0.247-12.371s0.198-3.316-2.079-3.118  c-2.276,0.198-2.028,2.327-2.028,2.327l0.197,12.865c0,0-0.891,1.433-1.288,0.198c-0.395-1.238-4.007-11.282-4.007-11.282  s-0.693-1.535-2.375-0.891c-1.682,0.644-1.04,2.523-1.04,2.523l3.217,11.084c0,0,0.296,0.941,0.296,1.879  c0,0.941-0.446,3.217-0.446,3.217l-0.372,0.86c-0.03,0-0.058-0.001-0.089-0.001c0,0,0.031,0.001,0.088,0.005l-0.088,0.202  c-0.241,0.008-0.379,0.025-0.379,0.025c-3.758-6.039-9.103-5.642-9.103-5.642s-1.979,0.594-1.381,1.979  c0.594,1.385,0.989,0.397,3.562,2.869c2.573,2.475,3.464,4.949,3.86,5.839c0.396,0.893,2.079,3.563,3.86,4.65  c1.779,1.092,2.671,1.685,2.671,1.685l-0.872,29.95l12.958-1.131l-1.004-28.225c0,0,3.268-1.88,4.255-8.709l0.247-5.048  c0,0-0.048-0.396,0.295-1.04c0.349-0.642,4.108-7.223,4.108-7.223S54.758,14.006,53.225,13.164z M38.478,33.749  c-0.104-0.248-0.209-0.479-0.319-0.709c-1.746-5.267-7.632-5.803-8.417-5.85l0.001-0.003C38.867,27.122,38.478,33.749,38.478,33.749  z">
  </path>
</svg>