<svg height='300px' width='300px'  fill="#000000" xmlns="http://www.w3.org/2000/svg" xmlns:xlink="http://www.w3.org/1999/xlink" xml:space="preserve" version="1.1" style="shape-rendering:geometricPrecision;text-rendering:geometricPrecision;image-rendering:optimizeQuality;" viewBox="0 0 846.66 846.66" x="0px" y="0px" fill-rule="evenodd" clip-rule="evenodd"><defs><style type="text/css">
   
    .fil0 {fill:#000000}
   
  </style></defs><g><path class="fil0" d="M29.38 765.97l159.13 28.83 77.12 -328.59c67.06,-30.41 71.05,-84.79 87.96,-147.89 0,0 40.46,-38.98 69.74,-66.61 29.28,27.63 69.74,66.61 69.74,66.61 16.91,63.1 20.9,117.48 87.96,147.89l77.12 328.59 159.13 -28.83 -107.92 -337.74c22,-14.52 60.77,-73.82 58.23,-104.78 -2.54,-30.97 28.7,-77.02 37.41,-84.25 8.71,-7.22 41.9,-41.72 1.59,-41.85 -40.31,-0.13 -73.43,47 -81.44,67.56 -8.01,20.56 -9.51,27.87 -18.5,22.22 -8.99,-5.64 -19.48,-31.89 -22.54,-45.46 -3.06,-13.56 1.82,-140.3 2.73,-158.38 1.39,-27.71 -32.55,-38.11 -43.28,-6.39 -3.54,10.44 -9.71,141.99 -13.49,146.16 -3.77,4.18 -10.85,3.49 -13.44,-6.18 -2.59,-9.66 -38.82,-148.65 -40.71,-151.92 -13.8,-23.89 -51.26,-12.12 -46.29,11.4 0,0 44.59,166.42 37.08,168.43 -7.52,2.01 -60.93,-99.61 -75.62,-123.3 -24.4,-39.34 -62.18,-19.35 -43.98,21.57 8.68,19.54 79.76,133.41 75.42,136.01 -4.34,2.6 -7.95,0.4 -7.95,0.4 0,0 -31.68,-32.97 -59.97,-58.54 8.47,-16.15 -5.97,-37.47 -26.24,-28.14 -1.49,0.68 -3.18,1.64 -5.04,2.82 -1.86,-1.18 -3.55,-2.14 -5.04,-2.82 -20.27,-9.33 -34.71,11.99 -26.24,28.14 -28.29,25.57 -59.97,58.54 -59.97,58.54 0,0 -3.61,2.2 -7.95,-0.4 -4.34,-2.6 66.74,-116.47 75.42,-136.01 18.2,-40.92 -19.58,-60.91 -43.98,-21.57 -14.69,23.69 -68.1,125.31 -75.62,123.3 -7.51,-2.01 37.08,-168.43 37.08,-168.43 4.97,-23.52 -32.49,-35.29 -46.29,-11.4 -1.89,3.27 -38.12,142.26 -40.71,151.92 -2.59,9.67 -9.67,10.36 -13.44,6.18 -3.78,-4.17 -9.95,-135.72 -13.49,-146.16 -10.73,-31.72 -44.67,-21.32 -43.28,6.39 0.91,18.08 5.79,144.82 2.73,158.38 -3.06,13.57 -13.55,39.82 -22.54,45.46 -8.99,5.65 -10.49,-1.66 -18.5,-22.22 -8.01,-20.56 -41.13,-67.69 -81.44,-67.56 -40.31,0.13 -7.12,34.63 1.59,41.85 8.71,7.23 39.95,53.28 37.41,84.25 -2.54,30.96 36.23,90.26 58.23,104.78l-107.92 337.74z"></path></g></svg>