<svg fill="#000000" viewBox="0 0 128 128" x="0px" y="0px">
  <path
    d="M95.93463,54.58319c-.01941-.13733-.05225-.27008-.081-.40485-.01953-.08911-.03021-.17993-.05365-.26837l-.00922.00409a6.01411,6.01411,0,0,0-2.9718-3.78693c-.07867-.0423-.16467-.07281-.24573-.11151-.1745-.08337-.345-.1734-.5293-.24023l-26-9.41846a6.01136,6.01136,0,0,0-4.08789,0l-26,9.41846A6.01793,6.01793,0,0,0,32,55.4165V89.08a5.988,5.988,0,0,0,3.67,5.53l26,10.93a6.10545,6.10545,0,0,0,4.65,0l26-10.93.00427-.0022.00092-.00037c.02954-.01239.05524-.03033.08447-.04315A5.97677,5.97677,0,0,0,96,89.08V55.4165l-.00159-.02014A5.75144,5.75144,0,0,0,95.93463,54.58319Zm-58.709,36.33673A1.994,1.994,0,0,1,36,89.07617V56.52142l5.504,2.097L59.71,65.56l.0058-.00256L62,66.42773V101.33l-7.83594-3.29181ZM66,67.14368V65.0498a1.988,1.988,0,0,0-1.1311-1.77991L88.54144,52.76117l2.13922.775A2.00627,2.00627,0,0,1,92,55.4165v.181Z">
  </path>
  <path
    d="M41.3385,43.57111,31.81061,23.1543a2.00016,2.00016,0,0,0-3.625,0l-28,59.99994A2.01821,2.01821,0,0,0,1.99811,86h26L28,85.9975V55.4165a10.02958,10.02958,0,0,1,6.59277-9.40186Z">
  </path>
  <path
    d="M98.99811,26A28.99379,28.99379,0,0,0,74.67944,39.2309l18.72681,6.78375A10.0291,10.0291,0,0,1,100,55.4165v28.558A28.99586,28.99586,0,0,0,98.99811,26Z">
  </path>
</svg>