<svg fill="#000000" viewBox="0 0 100 100" x="0px" y="0px">
  <g stroke="none" stroke-width="1" fill="none" fill-rule="evenodd">
    <g fill="#000000">
      <path d="M48.0074273,43.9445119 L48.0074273,36.2931388 C48.0074273,35.4702393 47.5329253,35.2653979 46.9475974,35.8497379 L43.4378871,39.3535243 C41.5591543,41.229086 38.7408062,38.4154948 40.6195389,36.5399332 L48.7232221,28.5090069 C49.4075479,27.8308251 50.5239404,27.8298371 51.2145277,28.5090069 L59.3804611,36.5399332 C61.2591938,38.4154948 58.4408457,41.229086 56.5621129,39.3535243 L53.0527852,35.8497379 C52.4648295,35.2627105 51.9930709,35.4639153 51.9930709,36.2931388 L51.9930709,55.9043126 C51.9930709,55.9193343 51.9929042,55.9343169 51.9925727,55.9492588 L51.9925727,63.6006319 C51.9925727,64.4235314 52.4670747,64.6283728 53.0524026,64.0440328 L56.5621129,60.5402464 C58.4408457,58.6646847 61.2591938,61.4782759 59.3804611,63.3538376 L51.2767779,71.3847638 C50.5924521,72.0629456 49.4760596,72.0639336 48.7854723,71.3847638 L40.6195389,63.3538376 C38.7408062,61.4782759 41.5591543,58.6646847 43.4378871,60.5402464 L46.9472148,64.0440328 C47.5351705,64.6310602 48.0069291,64.4298554 48.0069291,63.6006319 L48.0069291,43.9894581 C48.0069291,43.9744365 48.0070958,43.9594538 48.0074273,43.9445119 L48.0074273,43.9445119 Z"></path>
    </g>
  </g>
</svg>