<svg fill="#000000" viewBox="0 0 100 100" x="0px" y="0px">
  <g stroke="none" stroke-width="1" fill="none" fill-rule="evenodd">
    <g fill="#000000">
      <path d="M53.5286188,50.7001917 C53.1419136,50.3134865 53.1478061,49.680621 53.5286188,49.2998083 L62.7998083,40.0286188 C63.1865135,39.6419136 63.5,39.7693525 63.5,40.3255584 L63.5,42.5005349 C63.5,43.604809 64.3877296,44.5 65.5,44.5 L65.5,44.5 C66.6045695,44.5 67.5,43.5980496 67.5,42.4914698 L67.5,34.5085302 C67.5,33.3992496 66.5980496,32.5 65.4914698,32.5 L57.5085302,32.5 C56.3992496,32.5 55.5,33.3877296 55.5,34.5 L55.5,34.5 C55.5,35.6045695 56.4008192,36.5 57.4994651,36.5 L59.6744416,36.5 C60.225142,36.5 60.3521939,36.819379 59.9713812,37.2001917 L50.7001917,46.4713812 C50.3134865,46.8580864 49.680621,46.8521939 49.2998083,46.4713812 L40.0286188,37.2001917 C39.6419136,36.8134865 39.7693525,36.5 40.3255584,36.5 L42.5005349,36.5 C43.604809,36.5 44.5,35.6122704 44.5,34.5 L44.5,34.5 C44.5,33.3954305 43.5980496,32.5 42.4914698,32.5 L34.5085302,32.5 C33.3992496,32.5 32.5,33.4019504 32.5,34.5085302 L32.5,42.4914698 C32.5,43.6007504 33.3877296,44.5 34.5,44.5 L34.5,44.5 C35.6045695,44.5 36.5,43.5991808 36.5,42.5005349 L36.5,40.3255584 C36.5,39.774858 36.819379,39.6478061 37.2001917,40.0286188 L46.4713812,49.2998083 C46.8580864,49.6865135 46.8521939,50.319379 46.4713812,50.7001917 L37.2001917,59.9713812 C36.8134865,60.3580864 36.5,60.2306475 36.5,59.6744416 L36.5,57.4994651 C36.5,56.395191 35.6122704,55.5 34.5,55.5 L34.5,55.5 C33.3954305,55.5 32.5,56.4019504 32.5,57.5085302 L32.5,65.4914698 C32.5,66.6007504 33.4019504,67.5 34.5085302,67.5 L42.4914698,67.5 C43.6007504,67.5 44.5,66.6122704 44.5,65.5 L44.5,65.5 C44.5,64.3954305 43.5991808,63.5 42.5005349,63.5 L40.3255584,63.5 C39.774858,63.5 39.6478061,63.180621 40.0286188,62.7998083 L49.2998083,53.5286188 C49.6865135,53.1419136 50.319379,53.1478061 50.7001917,53.5286188 L59.9713812,62.7998083 C60.3580864,63.1865135 60.2306475,63.5 59.6744416,63.5 L57.4994651,63.5 C56.395191,63.5 55.5,64.3877296 55.5,65.5 L55.5,65.5 C55.5,66.6045695 56.4019504,67.5 57.5085302,67.5 L65.4914698,67.5 C66.6007504,67.5 67.5,66.5980496 67.5,65.4914698 L67.5,57.5085302 C67.5,56.3992496 66.6122704,55.5 65.5,55.5 L65.5,55.5 C64.3954305,55.5 63.5,56.4008192 63.5,57.4994651 L63.5,59.6744416 C63.5,60.225142 63.180621,60.3521939 62.7998083,59.9713812 L53.5286188,50.7001917 Z"></path>
    </g>
  </g>
</svg>