<svg fill="#000000" viewBox="0 0 512 512" x="0px" y="0px">
  <path d="M315.73,512H196.29a26.79,26.79,0,0,1-26.87-26.63v-62a180.91,180.91,0,0,1-15.71-9.09l-53.87,31a26.83,26.83,0,0,1-36.53-9.74L3.6,332.48a26.61,26.61,0,0,1,9.79-36.38l54-31q-0.22-4.55-.22-9.05t0.22-9.05l-54-31a26.58,26.58,0,0,1-9.79-36.38l59.71-103a26.81,26.81,0,0,1,36.5-9.75l53.9,31a181.34,181.34,0,0,1,15.71-9.09v-62A26.78,26.78,0,0,1,196.29,0H315.73A26.78,26.78,0,0,1,342.6,26.63v62a180.91,180.91,0,0,1,15.71,9.09l53.87-31a26.83,26.83,0,0,1,36.53,9.74l59.72,103a26.61,26.61,0,0,1-9.79,36.38l-54,31q0.22,4.55.22,9.05t-0.22,9.05l54,31a26.61,26.61,0,0,1,9.79,36.38l-59.71,103a26.81,26.81,0,0,1-36.5,9.75l-53.9-31a181.34,181.34,0,0,1-15.71,9.09v62A26.79,26.79,0,0,1,315.73,512ZM206.66,474.9h98.69V399.36l11.28-4.82A145.87,145.87,0,0,0,346.3,377.4l9.82-7.26,65.6,37.75L470.92,323l-65.64-37.75,1.37-12.07a150.8,150.8,0,0,0,0-34.35l-1.37-12.07L470.91,189l-49.2-84.9-65.58,37.76-9.82-7.26a145.87,145.87,0,0,0-29.66-17.14l-11.28-4.82V37.1H206.66v75.54l-11.28,4.82a145.87,145.87,0,0,0-29.66,17.14l-9.82,7.26-65.6-37.75L41.1,189l65.64,37.75-1.37,12.07a150.87,150.87,0,0,0,0,34.35l1.37,12.07L41.11,323l49.2,84.9,65.58-37.76,9.82,7.26a145.87,145.87,0,0,0,29.66,17.14l11.28,4.82V474.9ZM480,328.23h0ZM256,344.12c-48.77,0-88.45-39.53-88.45-88.12s39.68-88.12,88.45-88.12,88.45,39.53,88.45,88.12S304.78,344.12,256,344.12ZM256,205a51,51,0,1,0,51.21,51A51.17,51.17,0,0,0,256,205Z"></path>
  <path d="M256,344.12c-48.77,0-88.45-39.53-88.45-88.12s39.68-88.12,88.45-88.12,88.45,39.53,88.45,88.12S304.77,344.12,256,344.12ZM256,205a51,51,0,1,0,51.21,51A51.17,51.17,0,0,0,256,205Z"></path>
</svg>