<svg xmlns="http://www.w3.org/2000/svg" width="188" height="188" viewBox="0 0 188 188">
  <g fill="none" fill-rule="evenodd" transform="translate(19 19)">
    <path fill="#000" d="M150,75 C150,116.421 116.421,150 75,150 C33.579,150 0,116.421 0,75 C0,33.579 33.579,0 75,0 C116.421,0 150,33.579 150,75"/>
    <path fill="#FFF" d="M90.7974 10.2676L83.3904 35.3446C82.5644 38.1416 84.6344 40.9556 87.5504 40.9996L105.1204 41.2646C108.2684 41.3126 110.4484 38.1396 109.2774 35.2166L99.1144 9.8756C97.5594 5.9966 91.9814 6.2586 90.7974 10.2676M47.1528 77.2051L50.7348 105.4631 75.3838 95.0931 53.8018 73.9071C51.1438 71.2971 46.6838 73.5091 47.1528 77.2051M125.9507 89.6777L117.9287 98.2907 130.0847 103.7157 129.3947 91.0097C129.3097 89.4447 126.9997 88.5507 125.9507 89.6777"/>
    <polyline stroke="#FFF" stroke-linecap="round" stroke-linejoin="round" stroke-width="4" points="51 105 77 94 86 102 96 96 107 105 118 98 130 102"/>
    <path fill="#FFF" d="M74.8984 43.5693C64.5024 43.9043 55.4344 53.8353 58.4574 64.6303 60.1844 70.2423 64.5024 74.5603 70.5464 75.4233 75.2964 75.8553 80.0454 74.5603 83.0684 71.1063 85.2274 68.5153 86.0904 65.4933 86.0904 62.0393 85.6594 58.1523 83.0684 54.2663 79.6144 52.5403 76.1604 50.8123 72.7064 51.2443 69.2514 52.9713 64.0704 55.9943 63.2064 62.0393 65.3654 67.2193 67.0924 69.8103 70.1154 71.5383 73.1374 71.5383 76.5914 71.5383 80.9094 69.8103 81.7734 65.4933 82.2054 62.0393 81.3414 58.1523 77.8874 56.8573 78.7514 59.0163 80.9094 61.1743 79.6144 63.7653 77.8874 66.3563 72.7064 66.3563 70.5464 63.3343 68.3884 59.0163 71.8424 54.6983 76.1604 55.1303 78.3184 55.5623 80.4784 56.4253 81.7734 58.1523 84.3634 62.0393 83.5004 67.2193 80.0454 70.2423 75.7284 74.1293 69.6834 73.6973 65.3654 70.2423 61.9114 67.2193 61.0474 62.9023 61.9114 58.5853 63.6384 52.5403 69.2514 48.2213 75.7284 49.0853 85.2274 49.9493 90.8404 60.3113 86.5234 68.9473 83.0684 76.2873 74.4334 78.8783 67.0924 76.2873 58.0254 72.8333 54.1394 62.0393 58.0254 53.4033 61.0474 46.9263 68.8194 41.7453 76.0604 43.2873 76.9684 43.5193 76.1344 43.5573 74.8984 43.5693M123.8984 43.5693C113.5024 43.9043 104.4344 53.8353 107.4574 64.6303 109.1844 70.2423 113.5024 74.5603 119.5464 75.4233 124.2964 75.8553 129.0454 74.5603 132.0684 71.1063 134.2274 68.5153 135.0904 65.4933 135.0904 62.0393 134.6594 58.1523 132.0684 54.2663 128.6144 52.5403 125.1604 50.8123 121.7064 51.2443 118.2514 52.9713 113.0704 55.9943 112.2064 62.0393 114.3654 67.2193 116.0924 69.8103 119.1154 71.5383 122.1374 71.5383 125.5914 71.5383 129.9094 69.8103 130.7734 65.4933 131.2054 62.0393 130.3414 58.1523 126.8874 56.8573 127.7514 59.0163 129.9094 61.1743 128.6144 63.7653 126.8874 66.3563 121.7064 66.3563 119.5464 63.3343 117.3884 59.0163 120.8424 54.6983 125.1604 55.1303 127.3184 55.5623 129.4784 56.4253 130.7734 58.1523 133.3634 62.0393 132.5004 67.2193 129.0454 70.2423 124.7284 74.1293 118.6834 73.6973 114.3654 70.2423 110.9114 67.2193 110.0474 62.9023 110.9114 58.5853 112.6384 52.5403 118.2514 48.2213 124.7284 49.0853 134.2274 49.9493 139.8404 60.3113 135.5234 68.9473 132.0684 76.2873 123.4334 78.8783 116.0924 76.2873 107.0254 72.8333 103.1394 62.0393 107.0254 53.4033 110.0474 46.9263 117.8194 41.7453 125.0604 43.2873 125.9684 43.5193 125.1344 43.5573 123.8984 43.5693"/>
  </g>
</svg>
