<svg xmlns="http://www.w3.org/2000/svg" width="188" height="188" viewBox="0 0 188 188">
  <g fill="none" fill-rule="evenodd" transform="translate(19 19)">
    <path fill="#000" d="M150,75 C150,116.421 116.421,150 75,150 C33.579,150 0,116.421 0,75 C0,33.579 33.579,0 75,0 C116.421,0 150,33.579 150,75"/>
    <path stroke="#FFF" stroke-linecap="round" stroke-linejoin="round" stroke-width="4" d="M53.356,87.2725 L134.781,87.2725"/>
    <path fill="#FFF" d="M56.6372,113.1201 C57.2902,105.9841 57.9462,91.6191 53.3022,86.9081 C53.3012,86.9081 53.3022,86.9081 53.3022,86.9081 L80.0222,86.5631 C80.0222,86.5631 72.7112,107.1211 60.0852,115.2231 C58.5122,116.2321 56.4672,114.9821 56.6372,113.1201"/>
    <path fill="#FFF" d="M87.8462 88.9551L83.7812 97.7031C83.3422 98.6461 81.9872 98.6061 81.6052 97.6381L78.1552 88.8911C77.8492 88.1131 78.4222 87.2721 79.2572 87.2721L86.7722 87.2721C87.6382 87.2721 88.2112 88.1711 87.8462 88.9551M130.3442 113.1201C129.6912 105.9841 129.0352 91.6191 133.6802 86.9081L106.9592 86.5631C106.9592 86.5631 114.2702 107.1211 126.8962 115.2231 128.4692 116.2321 130.5142 114.9821 130.3442 113.1201"/>
    <path fill="#FFF" d="M99.1353 88.9551L103.2003 97.7031C103.6393 98.6461 104.9943 98.6061 105.3763 97.6381L108.8263 88.8911C109.1323 88.1131 108.5593 87.2721 107.7243 87.2721L100.2093 87.2721C99.3433 87.2721 98.7703 88.1711 99.1353 88.9551M66.2637 72C65.3097 72 64.4767 71.691 63.7667 71.072 63.0557 70.456 62.7007 69.594 62.7007 68.482 62.7007 67.5 63.0437 66.671 63.7317 65.999 64.4197 65.327 65.2627 64.992 66.2637 64.992 67.2477 64.992 68.0757 65.327 68.7467 65.999 69.4197 66.671 69.7557 67.5 69.7557 68.482 69.7557 69.576 69.4037 70.437 68.7007 71.063 67.9977 71.687 67.1847 72 66.2637 72M54.8247 46.311C54.8247 44.826 55.3017 43.32 56.2537 41.798 57.2077 40.275 58.5977 39.014 60.4267 38.014 62.2547 37.014 64.3887 36.513 66.8257 36.513 69.0907 36.513 71.0917 36.932 72.8257 37.768 74.5597 38.604 75.8997 39.738 76.8467 41.177 77.7907 42.615 78.2637 44.178 78.2637 45.864 78.2637 47.194 77.9937 48.357 77.4547 49.357 76.9157 50.357 76.2757 51.22 75.5337 51.947 74.7897 52.675 73.4587 53.896 71.5367 55.616 71.0057 56.101 70.5787 56.526 70.2587 56.893 69.9387 57.259 69.6997 57.597 69.5447 57.9 69.3887 58.206 69.2657 58.51 69.1807 58.815 69.0957 59.119 68.9667 59.656 68.7937 60.42 68.4977 62.046 67.5677 62.857 66.0057 62.857 65.1927 62.857 64.5087 62.593 63.9547 62.061 63.3987 61.53 63.1217 60.74 63.1217 59.694 63.1217 58.382 63.3247 57.245 63.7317 56.283 64.1377 55.322 64.6777 54.479 65.3487 53.752 66.0197 53.026 66.9277 52.162 68.0677 51.162 69.0677 50.287 69.7897 49.627 70.2357 49.182 70.6817 48.736 71.0557 48.24 71.3607 47.693 71.6657 47.146 71.8177 46.554 71.8177 45.913 71.8177 44.662 71.3527 43.607 70.4237 42.747 69.4937 41.888 68.2947 41.458 66.8257 41.458 65.1057 41.458 63.8417 41.892 63.0287 42.76 62.2157 43.627 61.5287 44.903 60.9657 46.592 60.4347 48.357 59.4267 49.239 57.9417 49.239 57.0667 49.239 56.3287 48.932 55.7277 48.314 55.1257 47.698 54.8247 47.028 54.8247 46.311M111.2637 72C110.3097 72 109.4767 71.691 108.7667 71.072 108.0557 70.456 107.7007 69.594 107.7007 68.482 107.7007 67.5 108.0437 66.671 108.7317 65.999 109.4197 65.327 110.2627 64.992 111.2637 64.992 112.2477 64.992 113.0757 65.327 113.7467 65.999 114.4197 66.671 114.7557 67.5 114.7557 68.482 114.7557 69.576 114.4037 70.437 113.7007 71.063 112.9977 71.687 112.1847 72 111.2637 72M99.8247 46.311C99.8247 44.826 100.3017 43.32 101.2537 41.798 102.2077 40.275 103.5977 39.014 105.4267 38.014 107.2547 37.014 109.3887 36.513 111.8257 36.513 114.0907 36.513 116.0917 36.932 117.8257 37.768 119.5597 38.604 120.8997 39.738 121.8467 41.177 122.7907 42.615 123.2637 44.178 123.2637 45.864 123.2637 47.194 122.9937 48.357 122.4547 49.357 121.9157 50.357 121.2757 51.22 120.5337 51.947 119.7897 52.675 118.4587 53.896 116.5367 55.616 116.0057 56.101 115.5787 56.526 115.2587 56.893 114.9387 57.259 114.6997 57.597 114.5447 57.9 114.3887 58.206 114.2657 58.51 114.1807 58.815 114.0957 59.119 113.9667 59.656 113.7937 60.42 113.4977 62.046 112.5677 62.857 111.0057 62.857 110.1927 62.857 109.5087 62.593 108.9547 62.061 108.3987 61.53 108.1217 60.74 108.1217 59.694 108.1217 58.382 108.3247 57.245 108.7317 56.283 109.1377 55.322 109.6777 54.479 110.3487 53.752 111.0197 53.026 111.9277 52.162 113.0677 51.162 114.0677 50.287 114.7897 49.627 115.2357 49.182 115.6817 48.736 116.0557 48.24 116.3607 47.693 116.6657 47.146 116.8177 46.554 116.8177 45.913 116.8177 44.662 116.3527 43.607 115.4237 42.747 114.4937 41.888 113.2947 41.458 111.8257 41.458 110.1057 41.458 108.8417 41.892 108.0287 42.76 107.2157 43.627 106.5287 44.903 105.9657 46.592 105.4347 48.357 104.4267 49.239 102.9417 49.239 102.0667 49.239 101.3287 48.932 100.7277 48.314 100.1257 47.698 99.8247 47.028 99.8247 46.311"/>
  </g>
</svg>
