<svg xmlns="http://www.w3.org/2000/svg" xmlns:xlink="http://www.w3.org/1999/xlink" width="188" height="188" viewBox="0 0 188 188">
  <defs>
    <path id="type-06-a" d="M0.193,14.264 C0.193,22.063 18.945,28.385 42.078,28.385 L42.078,28.385 C65.211,28.385 83.963,22.063 83.963,14.264 L83.963,14.264 C83.963,6.467 65.211,0.145 42.078,0.145 L42.078,0.145 C18.945,0.145 0.193,6.467 0.193,14.264"/>
    <path id="type-06-c" d="M0.193,14.264 C0.193,22.063 18.945,28.385 42.078,28.385 L42.078,28.385 C65.211,28.385 83.963,22.063 83.963,14.264 L83.963,14.264 C83.963,6.467 65.211,0.145 42.078,0.145 L42.078,0.145 C18.945,0.145 0.193,6.467 0.193,14.264"/>
    <path id="type-06-e" d="M0.193,14.264 C0.193,22.063 18.945,28.385 42.078,28.385 L42.078,28.385 C65.211,28.385 83.963,22.063 83.963,14.264 L83.963,14.264 C83.963,6.467 65.211,0.145 42.078,0.145 L42.078,0.145 C18.945,0.145 0.193,6.467 0.193,14.264"/>
    <path id="type-06-g" d="M0.193,14.264 C0.193,22.063 18.945,28.385 42.078,28.385 L42.078,28.385 C65.211,28.385 83.963,22.063 83.963,14.264 L83.963,14.264 C83.963,6.467 65.211,0.145 42.078,0.145 L42.078,0.145 C18.945,0.145 0.193,6.467 0.193,14.264"/>
    <path id="type-06-i" d="M0.193,14.264 C0.193,22.063 18.945,28.385 42.078,28.385 L42.078,28.385 C65.211,28.385 83.963,22.063 83.963,14.264 L83.963,14.264 C83.963,6.467 65.211,0.145 42.078,0.145 L42.078,0.145 C18.945,0.145 0.193,6.467 0.193,14.264"/>
    <path id="type-06-k" d="M0.193,14.264 C0.193,22.063 18.945,28.385 42.078,28.385 L42.078,28.385 C65.211,28.385 83.963,22.063 83.963,14.264 L83.963,14.264 C83.963,6.467 65.211,0.145 42.078,0.145 L42.078,0.145 C18.945,0.145 0.193,6.467 0.193,14.264"/>
    <path id="type-06-m" d="M0.193,14.264 C0.193,22.063 18.945,28.385 42.078,28.385 L42.078,28.385 C65.211,28.385 83.963,22.063 83.963,14.264 L83.963,14.264 C83.963,6.467 65.211,0.145 42.078,0.145 L42.078,0.145 C18.945,0.145 0.193,6.467 0.193,14.264"/>
    <path id="type-06-o" d="M0.193,14.264 C0.193,22.063 18.945,28.385 42.078,28.385 L42.078,28.385 C65.211,28.385 83.963,22.063 83.963,14.264 L83.963,14.264 C83.963,6.467 65.211,0.145 42.078,0.145 L42.078,0.145 C18.945,0.145 0.193,6.467 0.193,14.264"/>
    <path id="type-06-q" d="M0.193,14.264 C0.193,22.063 18.945,28.385 42.078,28.385 L42.078,28.385 C65.211,28.385 83.963,22.063 83.963,14.264 L83.963,14.264 C83.963,6.467 65.211,0.145 42.078,0.145 L42.078,0.145 C18.945,0.145 0.193,6.467 0.193,14.264"/>
    <path id="type-06-s" d="M0.193,14.264 C0.193,22.063 18.945,28.385 42.078,28.385 L42.078,28.385 C65.211,28.385 83.963,22.063 83.963,14.264 L83.963,14.264 C83.963,6.467 65.211,0.145 42.078,0.145 L42.078,0.145 C18.945,0.145 0.193,6.467 0.193,14.264"/>
    <path id="type-06-u" d="M0.193,14.264 C0.193,22.063 18.945,28.385 42.078,28.385 L42.078,28.385 C65.211,28.385 83.963,22.063 83.963,14.264 L83.963,14.264 C83.963,6.467 65.211,0.145 42.078,0.145 L42.078,0.145 C18.945,0.145 0.193,6.467 0.193,14.264"/>
    <path id="type-06-w" d="M0.193,14.264 C0.193,22.063 18.945,28.385 42.078,28.385 L42.078,28.385 C65.211,28.385 83.963,22.063 83.963,14.264 L83.963,14.264 C83.963,6.467 65.211,0.145 42.078,0.145 L42.078,0.145 C18.945,0.145 0.193,6.467 0.193,14.264"/>
  </defs>
  <g fill="none" fill-rule="evenodd" transform="translate(19 19)">
    <path fill="#000" d="M150,75 C150,116.421 116.421,150 75,150 C33.579,150 0,116.421 0,75 C0,33.579 33.579,0 75,0 C116.421,0 150,33.579 150,75"/>
    <path fill="#FFF" d="M74.7393,57.9092 C74.7393,70.0102 68.2463,79.8182 60.2373,79.8182 C52.2283,79.8182 45.7353,70.0102 45.7353,57.9092 C45.7353,45.8092 52.2283,36.0002 60.2373,36.0002 C68.2463,36.0002 74.7393,45.8092 74.7393,57.9092"/>
    <path fill="#000" d="M70.749,59.9014 C70.749,65.3414 67.83,69.7524 64.228,69.7524 C60.627,69.7524 57.708,65.3414 57.708,59.9014 C57.708,54.4614 60.627,50.0504 64.228,50.0504 C67.83,50.0504 70.749,54.4614 70.749,59.9014"/>
    <path fill="#FFF" d="M78.5762,40.9092 C78.5762,53.0102 85.0692,62.8182 93.0782,62.8182 C101.0872,62.8182 107.5802,53.0102 107.5802,40.9092 C107.5802,28.8092 101.0872,19.0002 93.0782,19.0002 C85.0692,19.0002 78.5762,28.8092 78.5762,40.9092"/>
    <path fill="#000" d="M86.5664,42.9014 C86.5664,48.3414 89.4854,52.7524 93.0864,52.7524 C96.6874,52.7524 99.6074,48.3414 99.6074,42.9014 C99.6074,37.4614 96.6874,33.0504 93.0864,33.0504 C89.4854,33.0504 86.5664,37.4614 86.5664,42.9014"/>
    <path fill="#FFF" d="M111.417,57.9092 C111.417,70.0102 117.91,79.8182 125.919,79.8182 C133.928,79.8182 140.421,70.0102 140.421,57.9092 C140.421,45.8092 133.928,36.0002 125.919,36.0002 C117.91,36.0002 111.417,45.8092 111.417,57.9092"/>
    <path fill="#000" d="M115.4072,59.9014 C115.4072,65.3414 118.3262,69.7524 121.9272,69.7524 C125.5282,69.7524 128.4482,65.3414 128.4482,59.9014 C128.4482,54.4614 125.5282,50.0504 121.9272,50.0504 C118.3262,50.0504 115.4072,54.4614 115.4072,59.9014"/>
    <g transform="translate(51 84)">
      <mask id="type-06-b" fill="#fff">
        <use xlink:href="#type-06-a"/>
      </mask>
      <path fill="#FFF" d="M-4.2896,18.2002 C-2.5606,12.8622 2.1504,10.3672 6.2334,12.6282 C10.3174,14.8872 12.2264,21.0472 10.4974,26.3852" mask="url(#type-06-b)"/>
      <mask id="type-06-d" fill="#fff">
        <use xlink:href="#type-06-c"/>
      </mask>
      <path fill="#FFF" d="M9.9316,25.0928 C10.4676,20.8878 13.5086,18.0468 16.7246,18.7468 C19.9406,19.4468 22.1136,23.4228 21.5776,27.6278" mask="url(#type-06-d)"/>
      <mask id="type-06-f" fill="#fff">
        <use xlink:href="#type-06-e"/>
      </mask>
      <path fill="#FFF" d="M20.938,26.873 C21.257,22.631 24.146,19.531 27.391,19.948 C30.636,20.365 33.007,24.143 32.688,28.385" mask="url(#type-06-f)"/>
      <mask id="type-06-h" fill="#fff">
        <use xlink:href="#type-06-g"/>
      </mask>
      <path fill="#FFF" d="M88.4458,18.2002 C86.7168,12.8622 82.0058,10.3672 77.9218,12.6282 C73.8388,14.8872 71.9298,21.0472 73.6588,26.3852" mask="url(#type-06-h)"/>
      <mask id="type-06-j" fill="#fff">
        <use xlink:href="#type-06-i"/>
      </mask>
      <path fill="#FFF" d="M74.2246,25.0928 C73.6886,20.8878 70.6476,18.0468 67.4316,18.7468 C64.2156,19.4468 62.0426,23.4228 62.5776,27.6278" mask="url(#type-06-j)"/>
      <mask id="type-06-l" fill="#fff">
        <use xlink:href="#type-06-k"/>
      </mask>
      <path fill="#FFF" d="M63.2183,26.873 C62.8993,22.631 60.0103,19.531 56.7643,19.948 C53.5203,20.365 51.1483,24.143 51.4683,28.385" mask="url(#type-06-l)"/>
      <mask id="type-06-n" fill="#fff">
        <use xlink:href="#type-06-m"/>
      </mask>
      <path fill="#FFF" d="M88.4458,10.5937 C86.7168,15.9317 82.0058,18.4267 77.9218,16.1657 C73.8388,13.9067 71.9298,7.7467 73.6588,2.4087" mask="url(#type-06-n)"/>
      <mask id="type-06-p" fill="#fff">
        <use xlink:href="#type-06-o"/>
      </mask>
      <path fill="#FFF" d="M74.2246,3.7021 C73.6886,7.9061 70.6476,10.7471 67.4316,10.0471 C64.2156,9.3471 62.0426,5.3711 62.5786,1.1661" mask="url(#type-06-p)"/>
      <mask id="type-06-r" fill="#fff">
        <use xlink:href="#type-06-q"/>
      </mask>
      <path fill="#FFF" d="M63.2183,1.9209 C62.8993,6.1629 60.0103,9.2629 56.7653,8.8459 C53.5203,8.4289 51.1493,4.6509 51.4683,0.4099" mask="url(#type-06-r)"/>
      <mask id="type-06-t" fill="#fff">
        <use xlink:href="#type-06-s"/>
      </mask>
      <path fill="#FFF" d="M-4.2896,10.5937 C-2.5606,15.9317 2.1504,18.4267 6.2334,16.1657 C10.3174,13.9067 12.2264,7.7467 10.4974,2.4087" mask="url(#type-06-t)"/>
      <mask id="type-06-v" fill="#fff">
        <use xlink:href="#type-06-u"/>
      </mask>
      <path fill="#FFF" d="M9.9316,3.7021 C10.4676,7.9061 13.5086,10.7471 16.7246,10.0471 C19.9406,9.3471 22.1136,5.3711 21.5786,1.1661" mask="url(#type-06-v)"/>
      <mask id="type-06-x" fill="#fff">
        <use xlink:href="#type-06-w"/>
      </mask>
      <path fill="#FFF" d="M20.938,1.9209 C21.257,6.1629 24.146,9.2629 27.391,8.8459 C30.636,8.4289 33.007,4.6509 32.688,0.4099" mask="url(#type-06-x)"/>
    </g>
    <path stroke="#FFF" stroke-linecap="round" stroke-linejoin="round" stroke-width="4" d="M96.9634 85.2646C96.9634 93.0626 78.2104 99.3846 55.0784 99.3846 31.9454 99.3846 13.1924 93.0626 13.1924 85.2646 13.1924 77.4666 31.9454 71.1456 55.0784 71.1456 78.2104 71.1456 96.9634 77.4666 96.9634 85.2646zM0 37C0 37 8 9 33 20M35.4287 13.6104C35.4287 13.6104 51.0657-13.4016 72.4687 11.1454M75 25C75 25 83 7 96 20" transform="translate(38 13)"/>
  </g>
</svg>
