<svg xmlns="http://www.w3.org/2000/svg" width="188" height="188" viewBox="0 0 188 188">
  <g fill="none" fill-rule="evenodd" transform="translate(19 19)">
    <path fill="#000" d="M150,75 C150,116.421 116.421,150 75,150 C33.579,150 0,116.421 0,75 C0,33.579 33.579,0 75,0 C116.421,0 150,33.579 150,75"/>
    <path fill="#FFF" d="M110.2192,34.293 C110.2192,40.53 105.1632,45.586 98.9262,45.586 C92.6892,45.586 87.6332,40.53 87.6332,34.293 C87.6332,28.056 92.6892,23 98.9262,23 C105.1632,23 110.2192,28.056 110.2192,34.293"/>
    <path fill="#000" d="M103.96,34.2051 C103.96,37.0091 101.687,39.2831 98.883,39.2831 C96.079,39.2831 93.805,37.0091 93.805,34.2051 C93.805,31.4011 96.079,29.1281 98.883,29.1281 C101.687,29.1281 103.96,31.4011 103.96,34.2051"/>
    <path fill="#FFF" d="M100.7476,62.707 C100.7476,68.944 95.6916,74 89.4556,74 C83.2186,74 78.1626,68.944 78.1626,62.707 C78.1626,56.47 83.2186,51.414 89.4556,51.414 C95.6916,51.414 100.7476,56.47 100.7476,62.707"/>
    <path fill="#000" d="M94.4888,62.6196 C94.4888,65.4236 92.2158,67.6966 89.4108,67.6966 C86.6068,67.6966 84.3338,65.4236 84.3338,62.6196 C84.3338,59.8156 86.6068,57.5416 89.4108,57.5416 C92.2158,57.5416 94.4888,59.8156 94.4888,62.6196"/>
    <path fill="#FFF" d="M138.416,54.1035 C138.416,64.9775 129.601,73.7925 118.727,73.7925 C107.853,73.7925 99.038,64.9775 99.038,54.1035 C99.038,43.2295 107.853,34.4145 118.727,34.4145 C129.601,34.4145 138.416,43.2295 138.416,54.1035"/>
    <path fill="#000" d="M132.9985,55.8936 C132.9985,60.7826 129.0355,64.7466 124.1455,64.7466 C119.2565,64.7466 115.2935,60.7826 115.2935,55.8936 C115.2935,51.0046 119.2565,47.0406 124.1455,47.0406 C129.0355,47.0406 132.9985,51.0046 132.9985,55.8936"/>
    <path fill="#FFF" d="M85.2305,51.4321 C85.2305,62.3061 76.4155,71.1211 65.5415,71.1211 C54.6675,71.1211 45.8525,62.3061 45.8525,51.4321 C45.8525,40.5581 54.6675,31.7431 65.5415,31.7431 C76.4155,31.7431 85.2305,40.5581 85.2305,51.4321"/>
    <path fill="#000" d="M68.1558,54.1938 C68.1558,59.0828 64.1928,63.0468 59.3028,63.0468 C54.4138,63.0468 50.4508,59.0828 50.4508,54.1938 C50.4508,49.3048 54.4138,45.3408 59.3028,45.3408 C64.1928,45.3408 68.1558,49.3048 68.1558,54.1938"/>
    <path stroke="#FFF" stroke-linecap="round" stroke-linejoin="round" stroke-width="4" d="M45,87.103 C45,77.539 66.265,89.433 92.497,89.433 C118.729,89.433 139.994,77.539 139.994,87.103 C139.994,96.667 118.729,114.75 92.497,114.75 C66.265,114.75 45,96.667 45,87.103 Z"/>
    <path fill="#FFF" d="M131.9614 83.9404C132.7944 88.2304 129.9924 92.3834 125.7024 93.2164 121.4134 94.0494 117.2594 91.2484 116.4264 86.9584M112.3853 88.0664C112.8113 92.4154 109.6313 96.2864 105.2823 96.7124 100.9323 97.1394 97.0613 93.9594 96.6353 89.6104M109.311 111.9116C107.711 107.8456 109.71 103.2516 113.777 101.6516 117.843 100.0506 122.437 102.0496 124.037 106.1166M53.0322 83.9404C52.1992 88.2304 55.0012 92.3834 59.2912 93.2164 63.5802 94.0494 67.7342 91.2484 68.5672 86.9584M72.6084 88.0664C72.1824 92.4154 75.3624 96.2864 79.7124 96.7124 84.0614 97.1394 87.9324 93.9594 88.3584 89.6104M75.6826 111.9116C77.2826 107.8456 75.2836 103.2516 71.2166 101.6516 67.1506 100.0506 62.5566 102.0496 60.9566 106.1166"/>
  </g>
</svg>
