<svg xmlns="http://www.w3.org/2000/svg" xmlns:xlink="http://www.w3.org/1999/xlink" width="188" height="188" viewBox="0 0 188 188">
  <defs>
    <path id="type-01-a" d="M0.92,14.633 C0.92,22.324 25.098,28.558 54.922,28.558 L54.922,28.558 C84.746,28.558 108.924,22.324 108.924,14.633 L108.924,14.633 C108.924,6.943 84.746,0.708 54.922,0.708 L54.922,0.708 C25.098,0.708 0.92,6.943 0.92,14.633"/>
    <path id="type-01-c" d="M0.92,14.633 C0.92,22.324 25.098,28.558 54.922,28.558 L54.922,28.558 C84.746,28.558 108.924,22.324 108.924,14.633 L108.924,14.633 C108.924,6.943 84.746,0.708 54.922,0.708 L54.922,0.708 C25.098,0.708 0.92,6.943 0.92,14.633"/>
    <path id="type-01-e" d="M0.92,14.633 C0.92,22.324 25.098,28.558 54.922,28.558 L54.922,28.558 C84.746,28.558 108.924,22.324 108.924,14.633 L108.924,14.633 C108.924,6.943 84.746,0.708 54.922,0.708 L54.922,0.708 C25.098,0.708 0.92,6.943 0.92,14.633"/>
    <path id="type-01-g" d="M0.92,14.633 C0.92,22.324 25.098,28.558 54.922,28.558 L54.922,28.558 C84.746,28.558 108.924,22.324 108.924,14.633 L108.924,14.633 C108.924,6.943 84.746,0.708 54.922,0.708 L54.922,0.708 C25.098,0.708 0.92,6.943 0.92,14.633"/>
    <path id="type-01-i" d="M0.92,14.633 C0.92,22.324 25.098,28.558 54.922,28.558 L54.922,28.558 C84.746,28.558 108.924,22.324 108.924,14.633 L108.924,14.633 C108.924,6.943 84.746,0.708 54.922,0.708 L54.922,0.708 C25.098,0.708 0.92,6.943 0.92,14.633"/>
    <path id="type-01-k" d="M0.92,14.633 C0.92,22.324 25.098,28.558 54.922,28.558 L54.922,28.558 C84.746,28.558 108.924,22.324 108.924,14.633 L108.924,14.633 C108.924,6.943 84.746,0.708 54.922,0.708 L54.922,0.708 C25.098,0.708 0.92,6.943 0.92,14.633"/>
    <path id="type-01-m" d="M0.92,14.633 C0.92,22.324 25.098,28.558 54.922,28.558 L54.922,28.558 C84.746,28.558 108.924,22.324 108.924,14.633 L108.924,14.633 C108.924,6.943 84.746,0.708 54.922,0.708 L54.922,0.708 C25.098,0.708 0.92,6.943 0.92,14.633"/>
    <path id="type-01-o" d="M0.92,14.633 C0.92,22.324 25.098,28.558 54.922,28.558 L54.922,28.558 C84.746,28.558 108.924,22.324 108.924,14.633 L108.924,14.633 C108.924,6.943 84.746,0.708 54.922,0.708 L54.922,0.708 C25.098,0.708 0.92,6.943 0.92,14.633"/>
    <path id="type-01-q" d="M0.92,14.633 C0.92,22.324 25.098,28.558 54.922,28.558 L54.922,28.558 C84.746,28.558 108.924,22.324 108.924,14.633 L108.924,14.633 C108.924,6.943 84.746,0.708 54.922,0.708 L54.922,0.708 C25.098,0.708 0.92,6.943 0.92,14.633"/>
    <path id="type-01-s" d="M0.92,14.633 C0.92,22.324 25.098,28.558 54.922,28.558 L54.922,28.558 C84.746,28.558 108.924,22.324 108.924,14.633 L108.924,14.633 C108.924,6.943 84.746,0.708 54.922,0.708 L54.922,0.708 C25.098,0.708 0.92,6.943 0.92,14.633"/>
  </defs>
  <g fill="none" fill-rule="evenodd" transform="translate(19 19)">
    <path fill="#000" d="M150,75 C150,116.421 116.421,150 75,150 C33.579,150 0,116.421 0,75 C0,33.579 33.579,0 75,0 C116.421,0 150,33.579 150,75"/>
    <g transform="translate(32 78)">
      <mask id="type-01-b" fill="#fff">
        <use xlink:href="#type-01-a"/>
      </mask>
      <path fill="#FFF" d="M25.1812,3.9678 C25.9542,7.8648 23.3542,11.6388 19.3722,12.3968 C15.3912,13.1548 11.5352,10.6088 10.7622,6.7108" mask="url(#type-01-b)"/>
      <mask id="type-01-d" fill="#fff">
        <use xlink:href="#type-01-c"/>
      </mask>
      <path fill="#FFF" d="M53.561,0.0679 C53.731,4.7639 49.981,14.5099 45.185,14.6769 C40.388,14.8449 36.362,5.3709 36.192,0.6749" mask="url(#type-01-d)"/>
      <mask id="type-01-f" fill="#fff">
        <use xlink:href="#type-01-e"/>
      </mask>
      <path fill="#FFF" d="M85.1216,3.9678 C84.3476,7.8648 86.9486,11.6388 90.9296,12.3968 C94.9116,13.1548 98.7666,10.6088 99.5406,6.7108" mask="url(#type-01-f)"/>
      <mask id="type-01-h" fill="#fff">
        <use xlink:href="#type-01-g"/>
      </mask>
      <path fill="#FFF" d="M56.2837,0.0679 C56.1137,4.7639 59.8637,14.5099 64.6597,14.6769 C69.4557,14.8449 73.4827,5.3709 73.6527,0.6749" mask="url(#type-01-h)"/>
      <mask id="type-01-j" fill="#fff">
        <use xlink:href="#type-01-i"/>
      </mask>
      <path fill="#FFF" d="M-4.8584,18.5146 C-2.6294,13.2506 3.4456,10.7896 8.7096,13.0186 C13.9746,15.2476 16.4346,21.3216 14.2056,26.5866" mask="url(#type-01-j)"/>
      <mask id="type-01-l" fill="#fff">
        <use xlink:href="#type-01-k"/>
      </mask>
      <path fill="#FFF" d="M13.4766,25.3115 C14.1666,21.1655 18.0886,18.3635 22.2346,19.0545 C26.3816,19.7445 29.1826,23.6655 28.4926,27.8115" mask="url(#type-01-l)"/>
      <mask id="type-01-n" fill="#fff">
        <use xlink:href="#type-01-m"/>
      </mask>
      <path fill="#FFF" d="M27.667,27.0679 C28.079,22.8839 31.804,19.8269 35.987,20.2379 C40.17,20.6499 43.228,24.3749 42.816,28.5579" mask="url(#type-01-n)"/>
      <mask id="type-01-p" fill="#fff">
        <use xlink:href="#type-01-o"/>
      </mask>
      <path fill="#FFF" d="M114.7026,18.5146 C112.4736,13.2506 106.3996,10.7896 101.1346,13.0186 C95.8706,15.2476 93.4096,21.3216 95.6386,26.5866" mask="url(#type-01-p)"/>
      <mask id="type-01-r" fill="#fff">
        <use xlink:href="#type-01-q"/>
      </mask>
      <path fill="#FFF" d="M96.3677,25.3115 C95.6777,21.1655 91.7567,18.3635 87.6097,19.0545 C83.4637,19.7445 80.6617,23.6655 81.3517,27.8115" mask="url(#type-01-r)"/>
      <mask id="type-01-t" fill="#fff">
        <use xlink:href="#type-01-s"/>
      </mask>
      <path fill="#FFF" d="M82.1777,27.0679 C81.7657,22.8839 78.0407,19.8269 73.8577,20.2379 C69.6747,20.6499 66.6167,24.3749 67.0287,28.5579" mask="url(#type-01-t)"/>
    </g>
    <g transform="translate(32 48)">
      <path stroke="#FFF" stroke-width="4" d="M108.9238,44.6333 C108.9238,52.3233 84.7468,58.5583 54.9228,58.5583 C25.0978,58.5583 0.9208,52.3233 0.9208,44.6333 C0.9208,36.9433 25.0978,30.7083 54.9228,30.7083 C84.7468,30.7083 108.9238,36.9433 108.9238,44.6333 Z"/>
      <path fill="#FFF" d="M47.9058,10.0459 C47.9058,15.5939 43.4678,20.0919 37.9928,20.0919 C32.5178,20.0919 28.0798,15.5939 28.0798,10.0459 C28.0798,4.4979 32.5178,-0.0001 37.9928,-0.0001 C43.4678,-0.0001 47.9058,4.4979 47.9058,10.0459"/>
      <path fill="#000" d="M45.1782,10.9595 C45.1782,13.4545 43.1822,15.4765 40.7212,15.4765 C38.2592,15.4765 36.2632,13.4545 36.2632,10.9595 C36.2632,8.4645 38.2592,6.4425 40.7212,6.4425 C43.1822,6.4425 45.1782,8.4645 45.1782,10.9595"/>
      <path fill="#FFF" d="M61.939,10.0459 C61.939,15.5939 66.377,20.0919 71.852,20.0919 C77.327,20.0919 81.765,15.5939 81.765,10.0459 C81.765,4.4979 77.327,-0.0001 71.852,-0.0001 C66.377,-0.0001 61.939,4.4979 61.939,10.0459"/>
      <path fill="#000" d="M64.6665,10.9595 C64.6665,13.4545 66.6625,15.4765 69.1235,15.4765 C71.5845,15.4765 73.5805,13.4545 73.5805,10.9595 C73.5805,8.4645 71.5845,6.4425 69.1235,6.4425 C66.6625,6.4425 64.6665,8.4645 64.6665,10.9595"/>
    </g>
  </g>
</svg>
