<svg xmlns="http://www.w3.org/2000/svg" width="188" height="188" viewBox="0 0 188 188">
  <g fill="none" fill-rule="evenodd" transform="translate(19 19)">
    <path fill="#000" d="M150,75 C150,116.421 116.421,150 75,150 C33.579,150 0,116.421 0,75 C0,33.579 33.579,0 75,0 C116.421,0 150,33.579 150,75"/>
    <path stroke="#FFF" stroke-linecap="round" stroke-linejoin="round" stroke-width="4" d="M61.1895,87.3071 L132.1855,87.3071"/>
    <path fill="#FFF" d="M65.6367 87.0688C65.6367 81.4108 68.6587 76.8238 72.3867 76.8238 76.1147 76.8238 79.1367 81.4108 79.1367 87.0688M79.1372 87.0688C79.1372 82.7268 81.6262 79.2068 84.6962 79.2068 87.7662 79.2068 90.2552 82.7268 90.2552 87.0688M127.103 87.0688C127.103 81.4108 124.081 76.8238 120.353 76.8238 116.624 76.8238 113.603 81.4108 113.603 87.0688M113.6025 87.0688C113.6025 82.7268 111.1135 79.2068 108.0435 79.2068 104.9735 79.2068 102.4845 82.7268 102.4845 87.0688"/>
    <path stroke="#FFF" stroke-linecap="round" stroke-linejoin="round" stroke-width="4" d="M65.4063 65C65.4063 57.82 71.2263 52 78.4063 52 85.5863 52 91.4063 57.82 91.4063 65M101.9688 65C101.9688 57.82 107.7888 52 114.9688 52 122.1488 52 127.9688 57.82 127.9688 65"/>
  </g>
</svg>
