<svg xmlns="http://www.w3.org/2000/svg" width="188" height="188" viewBox="0 0 188 188">
  <g fill="none" fill-rule="evenodd" transform="translate(19 19)">
    <path fill="#000" d="M150,75 C150,116.421 116.421,150 75,150 C33.579,150 0,116.421 0,75 C0,33.579 33.579,0 75,0 C116.421,0 150,33.579 150,75"/>
    <path fill="#FFF" d="M86.7026,63.6592 C86.7026,72.5842 80.2096,79.8192 72.2006,79.8192 C64.1916,79.8192 57.6986,72.5842 57.6986,63.6592 C57.6986,54.7352 64.1916,47.5002 72.2006,47.5002 C80.2096,47.5002 86.7026,54.7352 86.7026,63.6592"/>
    <path fill="#000" d="M82.7124,65.1284 C82.7124,69.1414 79.7934,72.3944 76.1914,72.3944 C72.5904,72.3944 69.6714,69.1414 69.6714,65.1284 C69.6714,61.1164 72.5904,57.8634 76.1914,57.8634 C79.7934,57.8634 82.7124,61.1164 82.7124,65.1284"/>
    <path fill="#FFF" d="M101.3799,63.6592 C101.3799,72.5842 107.8729,79.8192 115.8819,79.8192 C123.8919,79.8192 130.3839,72.5842 130.3839,63.6592 C130.3839,54.7352 123.8919,47.5002 115.8819,47.5002 C107.8729,47.5002 101.3799,54.7352 101.3799,63.6592"/>
    <path fill="#000" d="M105.3706,65.1284 C105.3706,69.1414 108.2896,72.3944 111.8906,72.3944 C115.4916,72.3944 118.4116,69.1414 118.4116,65.1284 C118.4116,61.1164 115.4916,57.8634 111.8906,57.8634 C108.2896,57.8634 105.3706,61.1164 105.3706,65.1284"/>
    <path stroke="#FFF" stroke-linecap="round" stroke-linejoin="round" stroke-width="4" d="M53.356,87.272 L134.781,87.272"/>
    <path fill="#FFF" d="M56.6372,113.1201 C57.2902,105.9851 57.9462,91.6201 53.3022,86.9081 C53.3012,86.9081 53.3022,86.9081 53.3022,86.9081 L80.0222,86.5631 C80.0222,86.5631 72.7112,107.1211 60.0852,115.2231 C58.5122,116.2331 56.4672,114.9821 56.6372,113.1201"/>
    <path fill="#FFF" d="M87.8462 88.9556L83.7812 97.7026C83.3422 98.6466 81.9872 98.6056 81.6052 97.6386L78.1552 88.8906C77.8492 88.1136 78.4222 87.2716 79.2572 87.2716L86.7722 87.2716C87.6382 87.2716 88.2112 88.1706 87.8462 88.9556M130.3442 113.1201C129.6912 105.9851 129.0352 91.6201 133.6802 86.9081L106.9592 86.5631C106.9592 86.5631 114.2702 107.1211 126.8962 115.2231 128.4692 116.2331 130.5142 114.9821 130.3442 113.1201"/>
    <path fill="#FFF" d="M99.1353,88.9556 L103.2003,97.7026 C103.6393,98.6466 104.9943,98.6056 105.3763,97.6386 L108.8263,88.8906 C109.1323,88.1136 108.5593,87.2716 107.7243,87.2716 L100.2093,87.2716 C99.3433,87.2716 98.7703,88.1706 99.1353,88.9556"/>
  </g>
</svg>
