<svg xmlns="http://www.w3.org/2000/svg" width="125" height="125" viewBox="0 0 125 125">
  <g fill="none" fill-rule="evenodd" transform="translate(3 3)">
    <path fill="#000" d="M118.1146,59.0572 C118.1146,91.6742 91.6736,118.1152 59.0576,118.1152 C26.4406,118.1152 -0.0004,91.6742 -0.0004,59.0572 C-0.0004,26.4412 26.4406,0.0002 59.0576,0.0002 C91.6736,0.0002 118.1146,26.4412 118.1146,59.0572"/>
    <path stroke="#FFF" stroke-linecap="round" stroke-linejoin="round" stroke-width="6" d="M118.1146 59.0572C118.1146 91.6742 91.6736 118.1152 59.0576 118.1152 26.4406 118.1152-.0004 91.6742-.0004 59.0572-.0004 26.4412 26.4406.0002 59.0576.0002 91.6736.0002 118.1146 26.4412 118.1146 59.0572zM13.2343 21.8042C13.2343 21.8042 22.0263 84.3732 106.1613 94.6822M23.1571 105.9488C23.1571 105.9488 27.9271 54.0168 99.6221 16.1068M.4257 66.1519C.4257 66.1519 29.8627 54.3459 37.8987 3.9079M117.6527 51.6441C113.3427 52.4961 61.5377 61.8311 65.1227 114.9221"/>
  </g>
</svg>
