<svg xmlns="http://www.w3.org/2000/svg" width="187" height="148" viewBox="0 0 187 148">
  <g fill="none" fill-rule="evenodd" transform="translate(3 2)">
    <polygon fill="#000" points="81.772 142.586 98.429 142.586 98.429 29.771 81.772 29.771"/>
    <g transform="translate(0 .586)">
      <polygon stroke="#FFF" stroke-linecap="round" stroke-linejoin="round" stroke-width="6" points="81.772 142 98.429 142 98.429 29.185 81.772 29.185"/>
      <path fill="#000" d="M81.7716,142.0003 C81.7716,142.0003 31.7996,109.4423 0.0006,117.7713 L0.0006,0.4133 C0.0006,0.4133 74.9576,0.4133 81.7716,29.1853 L81.7716,142.0003 Z"/>
      <path stroke="#FFF" stroke-linecap="round" stroke-linejoin="round" stroke-width="6" d="M81.7716,142.0003 C81.7716,142.0003 31.7996,109.4423 0.0006,117.7713 L0.0006,0.4133 C0.0006,0.4133 74.9576,0.4133 81.7716,29.1853 L81.7716,142.0003 Z"/>
      <path fill="#000" d="M98.4288,142.0003 C98.4288,142.0003 148.4008,109.4423 180.2008,117.7713 L180.2008,0.4133 C180.2008,0.4133 105.2428,0.4133 98.4288,29.1853 L98.4288,142.0003 Z"/>
      <path stroke="#FFF" stroke-linecap="round" stroke-linejoin="round" stroke-width="6" d="M98.4288,142.0003 C98.4288,142.0003 148.4008,109.4423 180.2008,117.7713 L180.2008,0.4133 C180.2008,0.4133 105.2428,0.4133 98.4288,29.1853 L98.4288,142.0003 Z"/>
    </g>
  </g>
</svg>
