<svg xmlns="http://www.w3.org/2000/svg" width="122" height="136" viewBox="0 0 122 136">
  <g fill="none" fill-rule="evenodd" transform="translate(3 3)">
    <path fill="#000" d="M34.6181,0.3444 C33.2391,0.3444 31.8801,0.4234 30.5441,0.5774 C13.3101,2.5734 0.0001,17.0754 0.0001,34.8614 L0.0001,103.1484 C0.0001,110.3174 5.8661,116.1834 13.0351,116.1834 L102.6791,116.1834 C109.8481,116.1834 115.7141,110.3174 115.7141,103.1484 L115.7141,34.8614 C115.7141,15.6974 100.0241,-0.5946 80.8691,0.0174 C69.7071,0.3724 58.1991,6.8374 58.1991,6.8374 C58.1991,6.8374 47.6041,0.3444 34.6181,0.3444"/>
    <path stroke="#FFF" stroke-linecap="round" stroke-linejoin="round" stroke-width="6" d="M34.6181,0.3444 C33.2391,0.3444 31.8801,0.4234 30.5441,0.5774 C13.3101,2.5734 0.0001,17.0754 0.0001,34.8614 L0.0001,103.1484 C0.0001,110.3174 5.8661,116.1834 13.0351,116.1834 L102.6791,116.1834 C109.8481,116.1834 115.7141,110.3174 115.7141,103.1484 L115.7141,34.8614 C115.7141,15.6974 100.0241,-0.5946 80.8691,0.0174 C69.7071,0.3724 58.1991,6.8374 58.1991,6.8374 C58.1991,6.8374 47.6041,0.3444 34.6181,0.3444 Z"/>
    <path fill="#000" d="M34.6181,20.4899 C33.2391,20.4899 31.8801,20.5649 30.5441,20.7109 C13.3101,22.5939 0.0001,36.2859 0.0001,53.0779 L0.0001,117.5469 C0.0001,124.3149 5.8661,129.8529 13.0351,129.8529 L102.6791,129.8529 C109.8481,129.8529 115.7141,124.3149 115.7141,117.5469 L115.7141,53.0779 C115.7141,34.9849 100.0241,19.6039 80.8691,20.1809 C69.7071,20.5169 58.1991,26.6209 58.1991,26.6209 C58.1991,26.6209 47.6041,20.4899 34.6181,20.4899"/>
    <path stroke="#FFF" stroke-linecap="round" stroke-linejoin="round" stroke-width="6" d="M34.6181,20.4899 C33.2391,20.4899 31.8801,20.5649 30.5441,20.7109 C13.3101,22.5939 0.0001,36.2859 0.0001,53.0779 L0.0001,117.5469 C0.0001,124.3149 5.8661,129.8529 13.0351,129.8529 L102.6791,129.8529 C109.8481,129.8529 115.7141,124.3149 115.7141,117.5469 L115.7141,53.0779 C115.7141,34.9849 100.0241,19.6039 80.8691,20.1809 C69.7071,20.5169 58.1991,26.6209 58.1991,26.6209 C58.1991,26.6209 47.6041,20.4899 34.6181,20.4899 Z"/>
    <path fill="#FFF" d="M24.3656 104.5778C24.3656 106.2768 22.9886 107.6538 21.2896 107.6538 19.5916 107.6538 18.2136 106.2768 18.2136 104.5778 18.2136 102.8798 19.5916 101.5028 21.2896 101.5028 22.9886 101.5028 24.3656 102.8798 24.3656 104.5778M74.2612 43.7467C74.2612 45.4447 72.8842 46.8217 71.1852 46.8217 69.4872 46.8217 68.1102 45.4447 68.1102 43.7467 68.1102 42.0477 69.4872 40.6707 71.1852 40.6707 72.8842 40.6707 74.2612 42.0477 74.2612 43.7467M101.601 86.8073C101.601 88.5053 100.224 89.8823 98.525 89.8823 96.827 89.8823 95.45 88.5053 95.45 86.8073 95.45 85.1083 96.827 83.7313 98.525 83.7313 100.224 83.7313 101.601 85.1083 101.601 86.8073M56.4902 91.5914C56.4902 93.2904 55.1132 94.6674 53.4142 94.6674 51.7162 94.6674 50.3382 93.2904 50.3382 91.5914 50.3382 89.8934 51.7162 88.5154 53.4142 88.5154 55.1132 88.5154 56.4902 89.8934 56.4902 91.5914M89.9819 58.1002C89.9819 59.7982 88.6049 61.1752 86.9059 61.1752 85.2079 61.1752 83.8299 59.7982 83.8299 58.1002 83.8299 56.4012 85.2079 55.0242 86.9059 55.0242 88.6049 55.0242 89.9819 56.4012 89.9819 58.1002M72.707 82.5397C72.128 80.9417 72.953 79.1787 74.55 78.5997 76.147 78.0197 77.911 78.8457 78.49 80.4427 79.069 82.0397 78.244 83.8037 76.647 84.3827 75.05 84.9617 73.286 84.1367 72.707 82.5397M62.9882 107.8737C62.4092 106.2767 63.2352 104.5127 64.8312 103.9337 66.4282 103.3547 68.1932 104.1807 68.7712 105.7767 69.3502 107.3737 68.5252 109.1387 66.9282 109.7167 65.3312 110.2957 63.5672 109.4707 62.9882 107.8737M18.2802 84.8219C17.7012 83.2239 18.5272 81.4609 20.1232 80.8819 21.7202 80.3019 23.4852 81.1279 24.0632 82.7249 24.6422 84.3219 23.8172 86.0859 22.2202 86.6649 20.6232 87.2439 18.8592 86.4189 18.2802 84.8219M50.3608 63.0133C49.7818 61.4153 50.6078 59.6523 52.2038 59.0733 53.8008 58.4933 55.5648 59.3203 56.1438 60.9163 56.7228 62.5133 55.8978 64.2783 54.3008 64.8563 52.7038 65.4353 50.9398 64.6103 50.3608 63.0133M39.1161 96.1705C38.5371 94.5735 39.3631 92.8105 40.9591 92.2315 42.5561 91.6515 44.3211 92.4775 44.8991 94.0735 45.4781 95.6715 44.6531 97.4355 43.0561 98.0145 41.4591 98.5935 39.6951 97.7685 39.1161 96.1705"/>
  </g>
</svg>
