<svg xmlns="http://www.w3.org/2000/svg" width="106" height="162" viewBox="0 0 106 162">
  <g fill="none" fill-rule="evenodd" transform="translate(3 2)">
    <polyline fill="#000" points="20.787 69.34 49.978 156.517 84.447 68.72"/>
    <g transform="translate(0 .517)">
      <polyline stroke="#FFF" stroke-linecap="round" stroke-linejoin="round" stroke-width="6" points="20.787 68.823 49.978 156 84.447 68.203"/>
      <path fill="#000" d="M88.8187,42.1774 C88.8707,41.3554 88.9007,40.5264 88.9007,39.6904 C88.9007,18.0364 71.1777,0.4834 49.3157,0.4834 C27.4527,0.4834 9.7307,18.0364 9.7307,39.6904 C9.7307,40.7664 9.7767,41.8304 9.8617,42.8844 C3.9477,46.4624 -0.0003,52.9134 -0.0003,60.2804 C-0.0003,71.5314 9.2077,80.6514 20.5667,80.6514 C25.6437,80.6514 30.2887,78.8244 33.8767,75.8044 C38.6207,77.7964 43.8377,78.8984 49.3157,78.8984 C55.1337,78.8984 60.6587,77.6554 65.6357,75.4214 C69.2797,78.6714 74.1017,80.6514 79.3907,80.6514 C90.7497,80.6514 99.9577,71.5314 99.9577,60.2804 C99.9577,52.3974 95.4327,45.5644 88.8187,42.1774"/>
      <path stroke="#FFF" stroke-linecap="round" stroke-linejoin="round" stroke-width="6" d="M88.8187,42.1774 C88.8707,41.3554 88.9007,40.5264 88.9007,39.6904 C88.9007,18.0364 71.1777,0.4834 49.3157,0.4834 C27.4527,0.4834 9.7307,18.0364 9.7307,39.6904 C9.7307,40.7664 9.7767,41.8304 9.8617,42.8844 C3.9477,46.4624 -0.0003,52.9134 -0.0003,60.2804 C-0.0003,71.5314 9.2077,80.6514 20.5667,80.6514 C25.6437,80.6514 30.2887,78.8244 33.8767,75.8044 C38.6207,77.7964 43.8377,78.8984 49.3157,78.8984 C55.1337,78.8984 60.6587,77.6554 65.6357,75.4214 C69.2797,78.6714 74.1017,80.6514 79.3907,80.6514 C90.7497,80.6514 99.9577,71.5314 99.9577,60.2804 C99.9577,52.3974 95.4327,45.5644 88.8187,42.1774 Z"/>
      <g transform="translate(34 79)">
        <path fill="#000" d="M0.1238,25.7067 L38.2348,0.3777"/>
        <path stroke="#FFF" stroke-linecap="round" stroke-linejoin="round" stroke-width="6" d="M0.1238,25.7067 L38.2348,0.3777"/>
      </g>
      <g transform="translate(40 97)">
        <path fill="#000" d="M0.3157,22.1637 L32.0927,0.7357"/>
        <path stroke="#FFF" stroke-linecap="round" stroke-linejoin="round" stroke-width="6" d="M0.3157,22.1637 L32.0927,0.7357"/>
      </g>
      <g transform="translate(46 88)">
        <path fill="#000" d="M14.2547,39.5416 L0.0307,0.7046"/>
        <path stroke="#FFF" stroke-linecap="round" stroke-linejoin="round" stroke-width="6" d="M14.2547,39.5416 L0.0307,0.7046"/>
      </g>
    </g>
  </g>
</svg>
