<svg xmlns="http://www.w3.org/2000/svg" width="188" height="188" viewBox="0 0 188 188">
  <g fill="none" fill-rule="evenodd" transform="translate(19 19)">
    <path fill="#000" d="M150,75 C150,116.421 116.421,150 75,150 C33.579,150 0,116.421 0,75 C0,33.579 33.579,0 75,0 C116.421,0 150,33.579 150,75"/>
    <path fill="#FFF" d="M110.2192 34.293C110.2192 40.529 105.1632 45.586 98.9262 45.586 92.6892 45.586 87.6332 40.529 87.6332 34.293 87.6332 28.056 92.6892 23 98.9262 23 105.1632 23 110.2192 28.056 110.2192 34.293M100.7476 62.707C100.7476 68.944 95.6916 74 89.4556 74 83.2186 74 78.1626 68.944 78.1626 62.707 78.1626 56.471 83.2186 51.414 89.4556 51.414 95.6916 51.414 100.7476 56.471 100.7476 62.707"/>
    <path fill="#FFF" d="M138.416 54.1035C138.416 64.9775 129.601 73.7925 118.727 73.7925 107.853 73.7925 99.038 64.9775 99.038 54.1035 99.038 43.2295 107.853 34.4145 118.727 34.4145 129.601 34.4145 138.416 43.2295 138.416 54.1035M85.2305 51.4316C85.2305 62.3056 76.4155 71.1206 65.5415 71.1206 54.6675 71.1206 45.8525 62.3056 45.8525 51.4316 45.8525 40.5576 54.6675 31.7436 65.5415 31.7436 76.4155 31.7436 85.2305 40.5576 85.2305 51.4316"/>
    <path stroke="#FFF" stroke-linecap="round" stroke-linejoin="round" stroke-width="4" d="M45,87.1035 C45,77.5395 66.265,89.4325 92.497,89.4325 C118.729,89.4325 139.994,77.5395 139.994,87.1035 C139.994,96.6665 118.729,114.7505 92.497,114.7505 C66.265,114.7505 45,96.6665 45,87.1035 Z"/>
    <path fill="#FFF" d="M131.9614 83.9404C132.7944 88.2304 129.9924 92.3824 125.7024 93.2164 121.4134 94.0494 117.2594 91.2484 116.4264 86.9584M112.3853 88.0664C112.8113 92.4154 109.6313 96.2874 105.2823 96.7124 100.9323 97.1394 97.0613 93.9604 96.6353 89.6104M109.311 111.9121C107.711 107.8461 109.71 103.2521 113.777 101.6511 117.843 100.0511 122.437 102.0501 124.037 106.1161M53.0322 83.9404C52.1992 88.2304 55.0012 92.3824 59.2912 93.2164 63.5802 94.0494 67.7342 91.2484 68.5672 86.9584M72.6084 88.0664C72.1824 92.4154 75.3624 96.2874 79.7124 96.7124 84.0614 97.1394 87.9324 93.9604 88.3584 89.6104M75.6826 111.9121C77.2826 107.8461 75.2836 103.2521 71.2166 101.6511 67.1506 100.0511 62.5566 102.0501 60.9566 106.1161"/>
    <path fill="#000" d="M50.896 51.4316C50.61 52.3016 50.451 53.2286 50.451 54.1936 50.451 59.0826 54.414 63.0456 59.303 63.0456 64.192 63.0456 68.156 59.0826 68.156 54.1936 68.156 53.2286 67.996 52.3016 67.71 51.4316L50.896 51.4316zM84.3428 62.707C84.3908 65.47 86.6368 67.697 89.4108 67.697 92.1848 67.697 94.4318 65.47 94.4798 62.707L84.3428 62.707zM115.4751 54.1035C115.3561 54.6815 115.2931 55.2805 115.2931 55.8935 115.2931 60.7835 119.2571 64.7465 124.1461 64.7465 129.0351 64.7465 132.9981 60.7835 132.9981 55.8935 132.9981 55.2805 132.9361 54.6815 132.8171 54.1035L115.4751 54.1035zM93.814 34.293C93.862 37.056 96.108 39.283 98.882 39.283 101.657 39.283 103.903 37.056 103.951 34.293L93.814 34.293z"/>
  </g>
</svg>
