<svg xmlns="http://www.w3.org/2000/svg" width="188" height="188" viewBox="0 0 188 188">
  <g fill="none" fill-rule="evenodd" transform="translate(19 19)">
    <path fill="#000" d="M150,75 C150,116.421 116.421,150 75,150 C33.579,150 0,116.421 0,75 C0,33.579 33.579,0 75,0 C116.421,0 150,33.579 150,75"/>
    <path stroke="#FFF" stroke-linecap="round" stroke-linejoin="round" stroke-width="4" d="M61.1895,87.3066 L132.1855,87.3066"/>
    <path fill="#FFF" d="M65.6367 87.0684C65.6367 81.4114 68.6587 76.8244 72.3867 76.8244 76.1147 76.8244 79.1367 81.4114 79.1367 87.0684M79.1372 87.0684C79.1372 82.7264 81.6262 79.2074 84.6962 79.2074 87.7662 79.2074 90.2552 82.7264 90.2552 87.0684M127.103 87.0684C127.103 81.4114 124.081 76.8244 120.353 76.8244 116.624 76.8244 113.603 81.4114 113.603 87.0684M113.6025 87.0684C113.6025 82.7264 111.1135 79.2074 108.0435 79.2074 104.9735 79.2074 102.4845 82.7264 102.4845 87.0684"/>
    <path stroke="#FFF" stroke-linecap="round" stroke-linejoin="round" stroke-width="4" d="M57 58L90 58M102 58L135 58"/>
    <polyline stroke="#FFF" stroke-linecap="round" stroke-linejoin="round" stroke-width="4" points="36.692 66.18 47.82 66.18 35.5 78.5 51 78.5"/>
    <polyline stroke="#FFF" stroke-linecap="round" stroke-linejoin="round" stroke-width="4" points="18.692 48.18 29.82 48.18 17.5 60.5 33 60.5"/>
  </g>
</svg>
