<svg xmlns="http://www.w3.org/2000/svg" width="188" height="188" viewBox="0 0 188 188">
  <g fill="none" fill-rule="evenodd" transform="translate(19 19)">
    <path fill="#000" d="M150,75 C150,116.421 116.421,150 75,150 C33.579,150 0,116.421 0,75 C0,33.579 33.579,0 75,0 C116.421,0 150,33.579 150,75"/>
    <path fill="#FFF" d="M86.7026,63.6592 C86.7026,72.5842 80.2096,79.8182 72.2006,79.8182 C64.1916,79.8182 57.6986,72.5842 57.6986,63.6592 C57.6986,54.7342 64.1916,47.5002 72.2006,47.5002 C80.2096,47.5002 86.7026,54.7342 86.7026,63.6592"/>
    <path fill="#000" d="M82.7124,58.1289 C82.7124,62.1419 79.7934,65.3939 76.1914,65.3939 C72.5904,65.3939 69.6714,62.1419 69.6714,58.1289 C69.6714,54.1159 72.5904,50.8629 76.1914,50.8629 C79.7934,50.8629 82.7124,54.1159 82.7124,58.1289"/>
    <path fill="#FFF" d="M101.3799,63.6592 C101.3799,72.5842 107.8729,79.8182 115.8819,79.8182 C123.8919,79.8182 130.3839,72.5842 130.3839,63.6592 C130.3839,54.7342 123.8919,47.5002 115.8819,47.5002 C107.8729,47.5002 101.3799,54.7342 101.3799,63.6592"/>
    <path fill="#000" d="M105.3706,58.1289 C105.3706,62.1419 108.2896,65.3939 111.8906,65.3939 C115.4916,65.3939 118.4116,62.1419 118.4116,58.1289 C118.4116,54.1159 115.4916,50.8629 111.8906,50.8629 C108.2896,50.8629 105.3706,54.1159 105.3706,58.1289"/>
    <path fill="#FFF" d="M90.7974 10.2676L83.3904 35.3446C82.5644 38.1416 84.6344 40.9556 87.5504 40.9996L105.1204 41.2646C108.2684 41.3126 110.4484 38.1396 109.2774 35.2166L99.1144 9.8756C97.5594 5.9966 91.9814 6.2586 90.7974 10.2676M47.1528 77.2051L50.7348 105.4631 75.3838 95.0931 53.8018 73.9071C51.1438 71.2971 46.6838 73.5091 47.1528 77.2051M125.9507 89.6777L117.9287 98.2907 130.0847 103.7157 129.3947 91.0097C129.3097 89.4447 126.9997 88.5507 125.9507 89.6777"/>
    <polyline stroke="#FFF" stroke-linecap="round" stroke-linejoin="round" stroke-width="4" points="51 105 77 94 86 102 96 96 107 105 118 98 130 102"/>
    <path stroke="#FFF" stroke-linecap="round" stroke-linejoin="round" stroke-width="4" d="M100 75C100 75 105 87 121 86M90 75C90 75 85 87 69 86"/>
  </g>
</svg>
