<svg xmlns="http://www.w3.org/2000/svg" width="188" height="188" viewBox="0 0 188 188">
  <g fill="none" fill-rule="evenodd" transform="translate(19 19)">
    <path fill="#000" d="M150,75 C150,116.421 116.421,150 75,150 C33.579,150 0,116.421 0,75 C0,33.579 33.579,0 75,0 C116.421,0 150,33.579 150,75"/>
    <path fill="#FFF" d="M72.2007 79.8184C80.2097 79.8184 86.7027 72.5844 86.7027 63.6594L57.6987 63.6594C57.6987 72.5844 64.1917 79.8184 72.2007 79.8184M115.8823 79.8184C123.8913 79.8184 130.3843 72.5844 130.3843 63.6594L101.3803 63.6594C101.3803 72.5844 107.8733 79.8184 115.8823 79.8184"/>
    <path fill="#000" d="M82.7124,65.1289 C82.7124,69.1419 79.7934,72.3939 76.1914,72.3939 C72.5904,72.3939 69.6714,69.1419 69.6714,65.1289 C69.6714,61.1159 72.5904,57.8629 76.1914,57.8629 C79.7934,57.8629 82.7124,61.1159 82.7124,65.1289"/>
    <path fill="#FFF" d="M102.7124,105.1289 C102.7124,109.1419 99.7934,112.3939 96.1914,112.3939 C92.5904,112.3939 89.6714,109.1419 89.6714,105.1289 C89.6714,101.1159 92.5904,97.8629 96.1914,97.8629 C99.7934,97.8629 102.7124,101.1159 102.7124,105.1289"/>
    <path fill="#000" d="M105.3706,65.1289 C105.3706,69.1419 108.2896,72.3939 111.8906,72.3939 C115.4916,72.3939 118.4116,69.1419 118.4116,65.1289 C118.4116,61.1159 115.4916,57.8629 111.8906,57.8629 C108.2896,57.8629 105.3706,61.1159 105.3706,65.1289"/>
  </g>
</svg>
