<svg xmlns="http://www.w3.org/2000/svg" xmlns:xlink="http://www.w3.org/1999/xlink" width="188" height="188" viewBox="0 0 188 188">
  <defs>
    <path id="type-06-a" d="M0.193,14.264 C0.193,22.063 18.945,28.385 42.078,28.385 L42.078,28.385 C65.211,28.385 83.963,22.063 83.963,14.264 L83.963,14.264 C83.963,6.467 65.211,0.145 42.078,0.145 L42.078,0.145 C18.945,0.145 0.193,6.467 0.193,14.264"/>
    <path id="type-06-c" d="M0.193,14.264 C0.193,22.063 18.945,28.385 42.078,28.385 L42.078,28.385 C65.211,28.385 83.963,22.063 83.963,14.264 L83.963,14.264 C83.963,6.467 65.211,0.145 42.078,0.145 L42.078,0.145 C18.945,0.145 0.193,6.467 0.193,14.264"/>
    <path id="type-06-e" d="M0.193,14.264 C0.193,22.063 18.945,28.385 42.078,28.385 L42.078,28.385 C65.211,28.385 83.963,22.063 83.963,14.264 L83.963,14.264 C83.963,6.467 65.211,0.145 42.078,0.145 L42.078,0.145 C18.945,0.145 0.193,6.467 0.193,14.264"/>
    <path id="type-06-g" d="M0.193,14.264 C0.193,22.063 18.945,28.385 42.078,28.385 L42.078,28.385 C65.211,28.385 83.963,22.063 83.963,14.264 L83.963,14.264 C83.963,6.467 65.211,0.145 42.078,0.145 L42.078,0.145 C18.945,0.145 0.193,6.467 0.193,14.264"/>
    <path id="type-06-i" d="M0.193,14.264 C0.193,22.063 18.945,28.385 42.078,28.385 L42.078,28.385 C65.211,28.385 83.963,22.063 83.963,14.264 L83.963,14.264 C83.963,6.467 65.211,0.145 42.078,0.145 L42.078,0.145 C18.945,0.145 0.193,6.467 0.193,14.264"/>
    <path id="type-06-k" d="M0.193,14.264 C0.193,22.063 18.945,28.385 42.078,28.385 L42.078,28.385 C65.211,28.385 83.963,22.063 83.963,14.264 L83.963,14.264 C83.963,6.467 65.211,0.145 42.078,0.145 L42.078,0.145 C18.945,0.145 0.193,6.467 0.193,14.264"/>
    <path id="type-06-m" d="M0.193,14.264 C0.193,22.063 18.945,28.385 42.078,28.385 L42.078,28.385 C65.211,28.385 83.963,22.063 83.963,14.264 L83.963,14.264 C83.963,6.467 65.211,0.145 42.078,0.145 L42.078,0.145 C18.945,0.145 0.193,6.467 0.193,14.264"/>
    <path id="type-06-o" d="M0.193,14.264 C0.193,22.063 18.945,28.385 42.078,28.385 L42.078,28.385 C65.211,28.385 83.963,22.063 83.963,14.264 L83.963,14.264 C83.963,6.467 65.211,0.145 42.078,0.145 L42.078,0.145 C18.945,0.145 0.193,6.467 0.193,14.264"/>
    <path id="type-06-q" d="M0.193,14.264 C0.193,22.063 18.945,28.385 42.078,28.385 L42.078,28.385 C65.211,28.385 83.963,22.063 83.963,14.264 L83.963,14.264 C83.963,6.467 65.211,0.145 42.078,0.145 L42.078,0.145 C18.945,0.145 0.193,6.467 0.193,14.264"/>
    <path id="type-06-s" d="M0.193,14.264 C0.193,22.063 18.945,28.385 42.078,28.385 L42.078,28.385 C65.211,28.385 83.963,22.063 83.963,14.264 L83.963,14.264 C83.963,6.467 65.211,0.145 42.078,0.145 L42.078,0.145 C18.945,0.145 0.193,6.467 0.193,14.264"/>
    <path id="type-06-u" d="M0.193,14.264 C0.193,22.063 18.945,28.385 42.078,28.385 L42.078,28.385 C65.211,28.385 83.963,22.063 83.963,14.264 L83.963,14.264 C83.963,6.467 65.211,0.145 42.078,0.145 L42.078,0.145 C18.945,0.145 0.193,6.467 0.193,14.264"/>
    <path id="type-06-w" d="M0.193,14.264 C0.193,22.063 18.945,28.385 42.078,28.385 L42.078,28.385 C65.211,28.385 83.963,22.063 83.963,14.264 L83.963,14.264 C83.963,6.467 65.211,0.145 42.078,0.145 L42.078,0.145 C18.945,0.145 0.193,6.467 0.193,14.264"/>
  </defs>
  <g fill="none" fill-rule="evenodd" transform="translate(19 19)">
    <path fill="#000" d="M150,75 C150,116.421 116.421,150 75,150 C33.579,150 0,116.421 0,75 C0,33.579 33.579,0 75,0 C116.421,0 150,33.579 150,75"/>
    <g transform="translate(51 84)">
      <mask id="type-06-b" fill="#fff">
        <use xlink:href="#type-06-a"/>
      </mask>
      <path fill="#FFF" d="M-4.2896,18.2002 C-2.5606,12.8622 2.1504,10.3672 6.2334,12.6282 C10.3174,14.8872 12.2264,21.0472 10.4974,26.3852" mask="url(#type-06-b)"/>
      <mask id="type-06-d" fill="#fff">
        <use xlink:href="#type-06-c"/>
      </mask>
      <path fill="#FFF" d="M9.9316,25.0928 C10.4676,20.8878 13.5086,18.0468 16.7246,18.7468 C19.9406,19.4468 22.1136,23.4228 21.5776,27.6278" mask="url(#type-06-d)"/>
      <mask id="type-06-f" fill="#fff">
        <use xlink:href="#type-06-e"/>
      </mask>
      <path fill="#FFF" d="M20.938,26.873 C21.257,22.631 24.146,19.531 27.391,19.948 C30.636,20.365 33.007,24.143 32.688,28.385" mask="url(#type-06-f)"/>
      <mask id="type-06-h" fill="#fff">
        <use xlink:href="#type-06-g"/>
      </mask>
      <path fill="#FFF" d="M88.4458,18.2002 C86.7168,12.8622 82.0058,10.3672 77.9218,12.6282 C73.8388,14.8872 71.9298,21.0472 73.6588,26.3852" mask="url(#type-06-h)"/>
      <mask id="type-06-j" fill="#fff">
        <use xlink:href="#type-06-i"/>
      </mask>
      <path fill="#FFF" d="M74.2246,25.0928 C73.6886,20.8878 70.6476,18.0468 67.4316,18.7468 C64.2156,19.4468 62.0426,23.4228 62.5776,27.6278" mask="url(#type-06-j)"/>
      <mask id="type-06-l" fill="#fff">
        <use xlink:href="#type-06-k"/>
      </mask>
      <path fill="#FFF" d="M63.2183,26.873 C62.8993,22.631 60.0103,19.531 56.7643,19.948 C53.5203,20.365 51.1483,24.143 51.4683,28.385" mask="url(#type-06-l)"/>
      <mask id="type-06-n" fill="#fff">
        <use xlink:href="#type-06-m"/>
      </mask>
      <path fill="#FFF" d="M88.4458,10.5937 C86.7168,15.9317 82.0058,18.4267 77.9218,16.1657 C73.8388,13.9067 71.9298,7.7467 73.6588,2.4087" mask="url(#type-06-n)"/>
      <mask id="type-06-p" fill="#fff">
        <use xlink:href="#type-06-o"/>
      </mask>
      <path fill="#FFF" d="M74.2246,3.7021 C73.6886,7.9061 70.6476,10.7471 67.4316,10.0471 C64.2156,9.3471 62.0426,5.3711 62.5786,1.1661" mask="url(#type-06-p)"/>
      <mask id="type-06-r" fill="#fff">
        <use xlink:href="#type-06-q"/>
      </mask>
      <path fill="#FFF" d="M63.2183,1.9209 C62.8993,6.1629 60.0103,9.2629 56.7653,8.8459 C53.5203,8.4289 51.1493,4.6509 51.4683,0.4099" mask="url(#type-06-r)"/>
      <mask id="type-06-t" fill="#fff">
        <use xlink:href="#type-06-s"/>
      </mask>
      <path fill="#FFF" d="M-4.2896,10.5937 C-2.5606,15.9317 2.1504,18.4267 6.2334,16.1657 C10.3174,13.9067 12.2264,7.7467 10.4974,2.4087" mask="url(#type-06-t)"/>
      <mask id="type-06-v" fill="#fff">
        <use xlink:href="#type-06-u"/>
      </mask>
      <path fill="#FFF" d="M9.9316,3.7021 C10.4676,7.9061 13.5086,10.7471 16.7246,10.0471 C19.9406,9.3471 22.1136,5.3711 21.5786,1.1661" mask="url(#type-06-v)"/>
      <mask id="type-06-x" fill="#fff">
        <use xlink:href="#type-06-w"/>
      </mask>
      <path fill="#FFF" d="M20.938,1.9209 C21.257,6.1629 24.146,9.2629 27.391,8.8459 C30.636,8.4289 33.007,4.6509 32.688,0.4099" mask="url(#type-06-x)"/>
    </g>
    <g transform="translate(45 36)">
      <path stroke="#FFF" stroke-linecap="round" stroke-linejoin="round" stroke-width="4" d="M89.9634,62.2646 C89.9634,70.0626 71.2104,76.3846 48.0784,76.3846 C24.9454,76.3846 6.1924,70.0626 6.1924,62.2646 C6.1924,54.4666 24.9454,48.1456 48.0784,48.1456 C71.2104,48.1456 89.9634,54.4666 89.9634,62.2646 Z"/>
      <path fill="#FFF" d="M25.7271,23.2529 C25.7361,23.4679 25.7491,23.6829 25.7491,23.9009 C25.7491,29.3419 22.8301,33.7519 19.2281,33.7519 C16.8621,33.7519 14.7971,31.8419 13.6541,28.9919 C8.7041,28.9139 4.1891,26.1879 0.7381,21.7319 C0.7381,21.7909 0.7351,21.8499 0.7351,21.9089 C0.7351,34.0099 7.2281,43.8179 15.2371,43.8179 C23.2461,43.8179 29.7391,34.0099 29.7391,21.9089 C29.7391,20.5309 29.6511,19.1849 29.4901,17.8769 C28.4021,19.9009 27.1391,21.7129 25.7271,23.2529"/>
      <path fill="#000" d="M13.8696,29 C13.7976,29 13.7256,28.993 13.6546,28.992 C14.7966,31.842 16.8626,33.752 19.2286,33.752 C22.8296,33.752 25.7486,29.342 25.7486,23.901 C25.7486,23.683 25.7366,23.468 25.7266,23.253 C22.4176,26.862 18.3136,29 13.8696,29"/>
      <path fill="#FFF" d="M58.5684,6.2529 C58.5774,6.4679 58.5894,6.6829 58.5894,6.9009 C58.5894,12.3419 55.6704,16.7519 52.0694,16.7519 C49.7034,16.7519 47.6374,14.8419 46.4954,11.9919 C41.5444,11.9149 37.0304,9.1879 33.5794,4.7319 C33.5784,4.7919 33.5764,4.8499 33.5764,4.9089 C33.5764,17.0099 40.0684,26.8179 48.0784,26.8179 C56.0874,26.8179 62.5804,17.0099 62.5804,4.9089 C62.5804,3.5309 62.4914,2.1849 62.3304,0.8769 C61.2434,2.9009 59.9804,4.7129 58.5684,6.2529"/>
      <path fill="#000" d="M46.7104,12 C46.6384,12 46.5674,11.993 46.4954,11.992 C47.6374,14.842 49.7034,16.752 52.0694,16.752 C55.6704,16.752 58.5894,12.342 58.5894,6.901 C58.5894,6.683 58.5774,6.468 58.5684,6.253 C55.2584,9.862 51.1554,12 46.7104,12"/>
      <path fill="#FFF" d="M70.4287,23.2529 C70.4197,23.4679 70.4077,23.6829 70.4077,23.9009 C70.4077,29.3419 73.3257,33.7519 76.9277,33.7519 C79.2937,33.7519 81.3587,31.8419 82.5017,28.9919 C87.4517,28.9149 91.9667,26.1879 95.4177,21.7319 C95.4187,21.7919 95.4207,21.8499 95.4207,21.9089 C95.4207,34.0099 88.9287,43.8179 80.9187,43.8179 C72.9097,43.8179 66.4167,34.0099 66.4167,21.9089 C66.4167,20.5309 66.5057,19.1849 66.6657,17.8769 C67.7537,19.9009 69.0167,21.7129 70.4287,23.2529"/>
      <path fill="#000" d="M82.2866,29 C82.3586,29 82.4296,28.993 82.5016,28.992 C81.3586,31.842 79.2936,33.752 76.9276,33.752 C73.3266,33.752 70.4076,29.342 70.4076,23.901 C70.4076,23.683 70.4196,23.468 70.4286,23.253 C73.7386,26.862 77.8416,29 82.2866,29"/>
    </g>
  </g>
</svg>
