<svg xmlns="http://www.w3.org/2000/svg" width="188" height="188" viewBox="0 0 188 188">
  <g fill="none" fill-rule="evenodd" transform="translate(19 19)">
    <path fill="#000" d="M150,75 C150,116.421 116.421,150 75,150 C33.579,150 0,116.421 0,75 C0,33.579 33.579,0 75,0 C116.421,0 150,33.579 150,75"/>
    <path fill="#FFF" d="M110.2192,34.293 C110.2192,40.529 105.1632,45.586 98.9262,45.586 C92.6892,45.586 87.6332,40.529 87.6332,34.293 C87.6332,28.056 92.6892,23 98.9262,23 C105.1632,23 110.2192,28.056 110.2192,34.293"/>
    <path fill="#000" d="M103.96,34.2051 C103.96,37.0101 101.687,39.2831 98.883,39.2831 C96.079,39.2831 93.805,37.0101 93.805,34.2051 C93.805,31.4011 96.079,29.1281 98.883,29.1281 C101.687,29.1281 103.96,31.4011 103.96,34.2051"/>
    <path fill="#FFF" d="M100.7476,62.707 C100.7476,68.944 95.6916,74 89.4556,74 C83.2186,74 78.1626,68.944 78.1626,62.707 C78.1626,56.471 83.2186,51.414 89.4556,51.414 C95.6916,51.414 100.7476,56.471 100.7476,62.707"/>
    <path fill="#000" d="M94.4888,62.6191 C94.4888,65.4241 92.2158,67.6971 89.4108,67.6971 C86.6068,67.6971 84.3338,65.4241 84.3338,62.6191 C84.3338,59.8151 86.6068,57.5421 89.4108,57.5421 C92.2158,57.5421 94.4888,59.8151 94.4888,62.6191"/>
    <path fill="#FFF" d="M138.416,54.1035 C138.416,64.9775 129.601,73.7925 118.727,73.7925 C107.853,73.7925 99.038,64.9775 99.038,54.1035 C99.038,43.2295 107.853,34.4145 118.727,34.4145 C129.601,34.4145 138.416,43.2295 138.416,54.1035"/>
    <path fill="#000" d="M123.9985,48.8936 C123.9985,53.7836 120.0355,57.7466 115.1455,57.7466 C110.2565,57.7466 106.2935,53.7836 106.2935,48.8936 C106.2935,44.0046 110.2565,40.0406 115.1455,40.0406 C120.0355,40.0406 123.9985,44.0046 123.9985,48.8936"/>
    <path fill="#FFF" d="M85.2305,51.4316 C85.2305,62.3056 76.4155,71.1206 65.5415,71.1206 C54.6675,71.1206 45.8525,62.3056 45.8525,51.4316 C45.8525,40.5576 54.6675,31.7436 65.5415,31.7436 C76.4155,31.7436 85.2305,40.5576 85.2305,51.4316"/>
    <path fill="#000" d="M81.1558,54.1934 C81.1558,59.0834 77.1928,63.0464 72.3028,63.0464 C67.4138,63.0464 63.4508,59.0834 63.4508,54.1934 C63.4508,49.3044 67.4138,45.3404 72.3028,45.3404 C77.1928,45.3404 81.1558,49.3044 81.1558,54.1934"/>
    <path stroke="#FFF" stroke-linecap="round" stroke-linejoin="round" stroke-width="4" d="M43.916,85.7422 C43.916,69.3942 64.306,89.7232 89.458,89.7232 C114.61,89.7232 135,69.3942 135,85.7422 C135,102.0912 114.61,133.0002 89.458,133.0002 C64.306,133.0002 43.916,102.0912 43.916,85.7422 Z"/>
    <path fill="#FFF" d="M127.2983 80.3359C128.0973 87.6689 125.4103 94.7679 121.2973 96.1919 117.1843 97.6159 113.2013 92.8269 112.4023 85.4949M108.5278 87.3887C108.9368 94.8227 105.8868 101.4397 101.7168 102.1687 97.5468 102.8977 93.8348 97.4617 93.4258 90.0287M105.5806 128.1475C104.0456 121.1975 105.9626 113.3445 109.8626 110.6095 113.7616 107.8745 118.1656 111.2915 119.7006 118.2415M51.6177 80.3359C50.8187 87.6689 53.5057 94.7679 57.6187 96.1919 61.7317 97.6159 65.7147 92.8269 66.5137 85.4949M70.3882 87.3887C69.9792 94.8227 73.0292 101.4397 77.1992 102.1687 81.3692 102.8977 85.0812 97.4617 85.4902 90.0287"/>
  </g>
</svg>
