<svg xmlns="http://www.w3.org/2000/svg" width="188" height="188" viewBox="0 0 188 188">
  <g fill="none" fill-rule="evenodd" transform="translate(19 19)">
    <path fill="#000" d="M150,75 C150,116.421 116.421,150 75,150 C33.579,150 0,116.421 0,75 C0,33.579 33.579,0 75,0 C116.421,0 150,33.579 150,75"/>
    <path fill="#FFF" d="M86.7026,63.6592 C86.7026,72.5842 80.2096,79.8182 72.2006,79.8182 C64.1916,79.8182 57.6986,72.5842 57.6986,63.6592 C57.6986,54.7342 64.1916,47.5002 72.2006,47.5002 C80.2096,47.5002 86.7026,54.7342 86.7026,63.6592"/>
    <path fill="#000" d="M78.7124,58.1289 C78.7124,62.1419 75.7934,65.3939 72.1914,65.3939 C68.5904,65.3939 65.6714,62.1419 65.6714,58.1289 C65.6714,54.1159 68.5904,50.8629 72.1914,50.8629 C75.7934,50.8629 78.7124,54.1159 78.7124,58.1289"/>
    <path fill="#FFF" d="M100.6987,63.6592 C100.6987,54.7342 107.1917,47.5002 115.2007,47.5002 C123.2097,47.5002 129.7027,54.7342 129.7027,63.6592 C129.7027,72.5842 123.2097,79.8182 115.2007,79.8182 C107.1917,79.8182 100.6987,72.5842 100.6987,63.6592"/>
    <path fill="#000" d="M108.689,69.1904 C108.689,65.1774 111.608,61.9244 115.209,61.9244 C118.81,61.9244 121.73,65.1774 121.73,69.1904 C121.73,73.2024 118.81,76.4554 115.209,76.4554 C111.608,76.4554 108.689,73.2024 108.689,69.1904"/>
    <path fill="#FFF" d="M90.7974 10.2676L83.3904 35.3446C82.5644 38.1416 84.6344 40.9556 87.5504 40.9996L105.1204 41.2646C108.2684 41.3126 110.4484 38.1396 109.2774 35.2166L99.1144 9.8756C97.5594 5.9966 91.9814 6.2596 90.7974 10.2676M47.1528 77.2051L50.7348 105.4631 75.3838 95.0931 53.8018 73.9071C51.1438 71.2971 46.6838 73.5091 47.1528 77.2051M125.9507 89.6777L117.9287 98.2907 130.0847 103.7157 129.3947 91.0097C129.3097 89.4447 126.9997 88.5507 125.9507 89.6777"/>
    <polyline stroke="#FFF" stroke-linecap="round" stroke-linejoin="round" stroke-width="4" points="51 105 77 94 86 102 96 96 107 105 118 98 130 102"/>
    <path fill="#FFF" d="M125.7558,38.659 C116.4348,38.659 104.7518,37.773 92.4978,36.131 C79.0998,34.333 66.5978,31.842 57.2988,29.111 C43.4158,25.038 41.9638,22.074 42.2478,19.949 C43.0018,14.342 61.4878,14.526 76.8658,15.671 C77.7748,15.739 78.4558,16.53 78.3878,17.438 C78.3208,18.346 77.5458,19.026 76.6208,18.961 C56.3898,17.452 47.0208,18.995 45.5858,20.392 C46.7998,22.271 59.8108,28.419 92.9358,32.861 C124.4238,37.083 138.7858,35.031 141.5578,33.538 C138.5898,31.507 125.9688,27.337 114.8918,24.331 C114.0128,24.093 113.4938,23.187 113.7328,22.309 C113.9708,21.429 114.8778,20.907 115.7558,21.148 C145.8308,29.309 145.4128,32.43 145.2338,33.762 C144.9468,35.89 142.7648,38.365 128.3008,38.636 C127.4748,38.651 126.6258,38.659 125.7558,38.659 L125.7558,38.659 Z"/>
    <path stroke="#000" d="M125.7558,38.659 C116.4348,38.659 104.7518,37.773 92.4978,36.131 C79.0998,34.333 66.5978,31.842 57.2988,29.111 C43.4158,25.038 41.9638,22.074 42.2478,19.949 C43.0018,14.342 61.4878,14.526 76.8658,15.671 C77.7748,15.739 78.4558,16.53 78.3878,17.438 C78.3208,18.346 77.5458,19.026 76.6208,18.961 C56.3898,17.452 47.0208,18.995 45.5858,20.392 C46.7998,22.271 59.8108,28.419 92.9358,32.861 C124.4238,37.083 138.7858,35.031 141.5578,33.538 C138.5898,31.507 125.9688,27.337 114.8918,24.331 C114.0128,24.093 113.4938,23.187 113.7328,22.309 C113.9708,21.429 114.8778,20.907 115.7558,21.148 C145.8308,29.309 145.4128,32.43 145.2338,33.762 C144.9468,35.89 142.7648,38.365 128.3008,38.636 C127.4748,38.651 126.6258,38.659 125.7558,38.659 Z"/>
    <path fill="#FFF" d="M74.7998,26.0859 C70.3958,25.8219 66.9248,24.8489 66.5368,22.4959 C66.3508,21.3539 65.7808,17.8799 81.6938,13.7849 C82.5738,13.5539 83.4758,14.0899 83.7028,14.9709 C83.9288,15.8529 83.3978,16.7529 82.5158,16.9799 C74.2198,19.1139 70.9258,21.0709 70.0258,21.9309 C71.9598,22.8869 80.1738,23.5979 93.9268,21.3389 C107.6808,19.0789 115.2378,15.7779 116.7618,14.2519 C115.7908,13.7939 112.8558,13.1199 106.2708,13.3889 C105.3588,13.4279 104.5918,12.7179 104.5548,11.8079 C104.5178,10.8979 105.2248,10.1299 106.1358,10.0919 C119.5718,9.5499 120.0608,12.5419 120.2468,13.6699 C121.2608,19.8679 98.9458,23.8569 94.4618,24.5929 C91.6798,25.0499 81.9958,26.5179 74.7998,26.0859"/>
    <path stroke="#000" d="M74.7998,26.0859 C70.3958,25.8219 66.9248,24.8489 66.5368,22.4959 C66.3508,21.3539 65.7808,17.8799 81.6938,13.7849 C82.5738,13.5539 83.4758,14.0899 83.7028,14.9709 C83.9288,15.8529 83.3978,16.7529 82.5158,16.9799 C74.2198,19.1139 70.9258,21.0709 70.0258,21.9309 C71.9598,22.8869 80.1738,23.5979 93.9268,21.3389 C107.6808,19.0789 115.2378,15.7779 116.7618,14.2519 C115.7908,13.7939 112.8558,13.1199 106.2708,13.3889 C105.3588,13.4279 104.5918,12.7179 104.5548,11.8079 C104.5178,10.8979 105.2248,10.1299 106.1358,10.0919 C119.5718,9.5499 120.0608,12.5419 120.2468,13.6699 C121.2608,19.8679 98.9458,23.8569 94.4618,24.5929 C91.6798,25.0499 81.9958,26.5179 74.7998,26.0859 Z"/>
    <path fill="#FFF" d="M34.1504 24.7441L36.8394 27.5031C37.0694 27.7381 37.4004 27.8461 37.7254 27.7901L41.5224 27.1381C42.3384 26.9981 42.9624 27.8551 42.5764 28.5891L40.7844 31.9991C40.6314 32.2911 40.6314 32.6391 40.7844 32.9301L42.5784 36.3401C42.9634 37.0731 42.3404 37.9311 41.5244 37.7911L37.7274 37.1401C37.4024 37.0851 37.0714 37.1921 36.8414 37.4281L34.1524 40.1871C33.5744 40.7811 32.5664 40.4541 32.4474 39.6341L31.8924 35.8211C31.8454 35.4951 31.6404 35.2141 31.3454 35.0681L27.8904 33.3631C27.1474 32.9971 27.1474 31.9371 27.8904 31.5701L31.3444 29.8641C31.6394 29.7191 31.8444 29.4371 31.8914 29.1111L32.4444 25.2991C32.5634 24.4781 33.5714 24.1501 34.1504 24.7441M67.9185 1.0537L69.7595 2.9417C69.9175 3.1037 70.1445 3.1767 70.3655 3.1387L72.9655 2.6927C73.5245 2.5957 73.9515 3.1837 73.6875 3.6857L72.4605 6.0207C72.3555 6.2207 72.3555 6.4587 72.4605 6.6577L73.6885 8.9927C73.9525 9.4947 73.5265 10.0817 72.9665 9.9867L70.3675 9.5407C70.1455 9.5027 69.9185 9.5757 69.7615 9.7377L67.9205 11.6267C67.5245 12.0327 66.8345 11.8087 66.7525 11.2477L66.3725 8.6367C66.3405 8.4147 66.2005 8.2217 65.9985 8.1217L63.6325 6.9547C63.1235 6.7037 63.1235 5.9787 63.6315 5.7267L65.9975 4.5587C66.1995 4.4597 66.3395 4.2667 66.3715 4.0437L66.7505 1.4327C66.8325.8717 67.5225.6467 67.9185 1.0537M134.896 44.8672L134.317 47.4422C134.268 47.6632 134.33 47.8932 134.483 48.0582L136.276 49.9962C136.662 50.4122 136.403 51.0912 135.837 51.1432L133.209 51.3882C132.984 51.4102 132.784 51.5402 132.674 51.7372L131.386 54.0412C131.109 54.5372 130.384 54.5002 130.159 53.9782L129.113 51.5542C129.024 51.3472 128.838 51.1972 128.617 51.1532L126.027 50.6402C125.47 50.5302 125.281 49.8292 125.708 49.4542L127.69 47.7112C127.859 47.5612 127.945 47.3392 127.918 47.1152L127.605 44.4932C127.538 43.9302 128.147 43.5332 128.635 43.8232L130.906 45.1702C131.1 45.2842 131.338 45.2972 131.543 45.2022L133.94 44.0952C134.456 43.8562 135.021 44.3122 134.896 44.8672"/>
  </g>
</svg>
