<svg xmlns="http://www.w3.org/2000/svg" width="188" height="188" viewBox="0 0 188 188">
  <g fill="none" fill-rule="evenodd" transform="translate(19 19)">
    <path fill="#000" d="M150,75 C150,116.421 116.421,150 75,150 C33.579,150 0,116.421 0,75 C0,33.579 33.579,0 75,0 C116.421,0 150,33.579 150,75"/>
    <path stroke="#FFF" stroke-linecap="round" stroke-linejoin="round" stroke-width="4" d="M61.1895,87.3066 L132.1855,87.3066"/>
    <path fill="#FFF" d="M65.6367 87.0684C65.6367 81.4114 68.6587 76.8244 72.3867 76.8244 76.1147 76.8244 79.1367 81.4114 79.1367 87.0684M79.1372 87.0684C79.1372 82.7264 81.6262 79.2074 84.6962 79.2074 87.7662 79.2074 90.2552 82.7264 90.2552 87.0684M127.103 87.0684C127.103 81.4114 124.081 76.8244 120.353 76.8244 116.624 76.8244 113.603 81.4114 113.603 87.0684M113.6025 87.0684C113.6025 82.7264 111.1135 79.2074 108.0435 79.2074 104.9735 79.2074 102.4845 82.7264 102.4845 87.0684M105.0264 60.0654C109.8924 67.5464 119.2794 70.0724 125.9934 65.7064 132.7074 61.3394 134.2064 51.7344 129.3404 44.2524 124.4754 36.7714 115.0884 34.2464 108.3734 38.6124 101.6594 42.9794 100.1604 52.5844 105.0264 60.0654"/>
    <path fill="#000" d="M118.1611,60.4561 C120.3491,63.8201 124.5691,64.9551 127.5881,62.9921 C130.6071,61.0291 131.2811,56.7101 129.0931,53.3471 C126.9061,49.9821 122.6851,48.8481 119.6661,50.8101 C116.6471,52.7731 115.9731,57.0921 118.1611,60.4561"/>
    <path fill="#FFF" d="M63.4204,45.2744 C59.1834,53.1284 61.4624,62.5794 68.5114,66.3804 C75.5604,70.1834 84.7104,66.8994 88.9464,59.0454 C93.1844,51.1904 90.9044,41.7404 83.8564,37.9374 C76.8064,34.1344 67.6574,37.4204 63.4204,45.2744"/>
    <path fill="#000" d="M70.0786,42.2002 C68.1736,45.7312 69.1986,49.9802 72.3676,51.6902 C75.5366,53.3992 79.6506,51.9232 81.5556,48.3912 C83.4606,44.8602 82.4356,40.6112 79.2666,38.9012 C76.0976,37.1912 71.9836,38.6692 70.0786,42.2002"/>
  </g>
</svg>
