<svg xmlns="http://www.w3.org/2000/svg" width="188" height="188" viewBox="0 0 188 188">
  <g fill="none" fill-rule="evenodd" transform="translate(19 19)">
    <path fill="#000" d="M150,75 C150,116.421 116.421,150 75,150 C33.579,150 0,116.421 0,75 C0,33.579 33.579,0 75,0 C116.421,0 150,33.579 150,75"/>
    <path stroke="#FFF" stroke-linecap="round" stroke-linejoin="round" stroke-width="4" d="M53.356,87.2725 L134.781,87.2725"/>
    <path fill="#FFF" d="M56.6372,113.1201 C57.2902,105.9841 57.9462,91.6191 53.3022,86.9081 C53.3012,86.9081 53.3022,86.9081 53.3022,86.9081 L80.0222,86.5631 C80.0222,86.5631 72.7112,107.1211 60.0852,115.2231 C58.5122,116.2321 56.4672,114.9821 56.6372,113.1201"/>
    <path fill="#FFF" d="M87.8462 88.9551L83.7812 97.7031C83.3422 98.6461 81.9872 98.6061 81.6052 97.6381L78.1552 88.8911C77.8492 88.1131 78.4222 87.2721 79.2572 87.2721L86.7722 87.2721C87.6382 87.2721 88.2112 88.1711 87.8462 88.9551M130.3442 113.1201C129.6912 105.9841 129.0352 91.6191 133.6802 86.9081L106.9592 86.5631C106.9592 86.5631 114.2702 107.1211 126.8962 115.2231 128.4692 116.2321 130.5142 114.9821 130.3442 113.1201"/>
    <path fill="#FFF" d="M99.1353 88.9551L103.2003 97.7031C103.6393 98.6461 104.9943 98.6061 105.3763 97.6381L108.8263 88.8911C109.1323 88.1131 108.5593 87.2721 107.7243 87.2721L100.2093 87.2721C99.3433 87.2721 98.7703 88.1711 99.1353 88.9551M101.3867 63.6592C101.3867 72.5842 107.8797 79.8182 115.8887 79.8182 123.8977 79.8182 130.3907 72.5842 130.3907 63.6592 130.3907 54.7342 123.8977 47.5002 115.8887 47.5002 107.8797 47.5002 101.3867 54.7342 101.3867 63.6592M57.6982 63.6592C57.6982 72.5842 64.1912 79.8182 72.2002 79.8182 80.2102 79.8182 86.7022 72.5842 86.7022 63.6592 86.7022 54.7342 80.2102 47.5002 72.2002 47.5002 64.1912 47.5002 57.6982 54.7342 57.6982 63.6592"/>
    <path fill="#000" d="M67.2007,63.6592 C67.2007,66.7362 69.4387,69.2302 72.2007,69.2302 C74.9617,69.2302 77.2007,66.7362 77.2007,63.6592 C77.2007,60.5822 74.9617,58.0882 72.2007,58.0882 C69.4387,58.0882 67.2007,60.5822 67.2007,63.6592"/>
    <path stroke="#000" stroke-width="2.415" d="M61.2007,63.6592 C61.2007,70.4292 66.1257,75.9162 72.2007,75.9162 C78.2757,75.9162 83.2007,70.4292 83.2007,63.6592 C83.2007,56.8892 78.2757,51.4022 72.2007,51.4022 C66.1257,51.4022 61.2007,56.8892 61.2007,63.6592 Z"/>
    <path fill="#000" d="M110.8887,63.6592 C110.8887,66.7362 113.1267,69.2302 115.8887,69.2302 C118.6497,69.2302 120.8887,66.7362 120.8887,63.6592 C120.8887,60.5822 118.6497,58.0882 115.8887,58.0882 C113.1267,58.0882 110.8887,60.5822 110.8887,63.6592"/>
    <path stroke="#000" stroke-width="2.415" d="M104.8887,63.6592 C104.8887,70.4292 109.8137,75.9162 115.8887,75.9162 C121.9637,75.9162 126.8887,70.4292 126.8887,63.6592 C126.8887,56.8892 121.9637,51.4022 115.8887,51.4022 C109.8137,51.4022 104.8887,56.8892 104.8887,63.6592 Z"/>
  </g>
</svg>
