<svg xmlns="http://www.w3.org/2000/svg" width="300" height="300" viewBox="0 0 300 300">
  <g fill="none" fill-rule="evenodd" transform="translate(-30 -159)">
    <path fill="#FFF" d="M289.5596,13.1296 C289.5596,13.1296 245.8746,150.8776 193.2506,193.7816 C185.7226,199.9196 183.5326,209.7156 188.3486,217.7146 C198.6306,234.7956 220.1076,257.8816 257.2766,245.2616 C313.4726,226.1826 320.6466,35.3886 305.1026,9.9496 C305.1026,9.9496 296.7336,-13.3704 289.5596,13.1296"/>
    <path stroke="#000" stroke-width="10.935" d="M289.5596,13.1296 C289.5596,13.1296 245.8746,150.8776 193.2506,193.7816 C185.7226,199.9196 183.5326,209.7156 188.3486,217.7146 C198.6306,234.7956 220.1076,257.8816 257.2766,245.2616 C313.4726,226.1826 320.6466,35.3886 305.1026,9.9496 C305.1026,9.9496 296.7336,-13.3704 289.5596,13.1296 Z"/>
    <path fill="#000" d="M300.5527,458.467 L300.5527,256.755 C300.5527,204.342 243.7357,161.852 173.6487,161.852 C103.5617,161.852 46.7457,204.342 46.7457,256.755 L46.7457,458.467 L300.5527,458.467 Z"/>
    <path fill="#FFF" d="M23.1611,13.1296 C23.1611,13.1296 66.8461,150.8776 119.4701,193.7816 C126.9981,199.9196 129.1881,209.7156 124.3721,217.7146 C114.0901,234.7956 92.6131,257.8816 55.4441,245.2616 C-0.7519,226.1826 -7.9259,35.3886 7.6181,9.9496 C7.6181,9.9496 15.9871,-13.3704 23.1611,13.1296"/>
    <path stroke="#000" stroke-width="10.935" d="M23.1611,13.1296 C23.1611,13.1296 66.8461,150.8776 119.4701,193.7816 C126.9981,199.9196 129.1881,209.7156 124.3721,217.7146 C114.0901,234.7956 92.6131,257.8816 55.4441,245.2616 C-0.7519,226.1826 -7.9259,35.3886 7.6181,9.9496 C7.6181,9.9496 15.9871,-13.3704 23.1611,13.1296 Z"/>
    <path fill="#FFF" d="M152.9834,123.3151 C152.9834,123.3151 157.3054,158.8441 168.8204,171.3931 C170.4684,173.1881 170.5364,175.6801 168.8714,177.4641 C165.3164,181.2731 158.5354,186.1321 149.4954,181.6171 C135.8284,174.7901 143.7404,127.6061 149.0954,121.9421 C149.0954,121.9421 152.4724,116.5271 152.9834,123.3151"/>
    <path stroke="#000" stroke-width="10.935" d="M152.9834,123.3151 C152.9834,123.3151 157.3054,158.8441 168.8204,171.3931 C170.4684,173.1881 170.5364,175.6801 168.8714,177.4641 C165.3164,181.2731 158.5354,186.1321 149.4954,181.6171 C135.8284,174.7901 143.7404,127.6061 149.0954,121.9421 C149.0954,121.9421 152.4724,116.5271 152.9834,123.3151 Z"/>
    <path fill="#FFF" d="M117.6856,129.4958 C117.6856,129.4958 126.6746,164.4078 139.7776,175.8158 C141.6516,177.4478 142.0486,179.9178 140.6296,181.8448 C137.5996,185.9588 131.5016,191.4158 121.9206,187.7628 C107.4346,182.2398 109.0656,134.6148 113.6406,128.4908 C113.6406,128.4908 116.2816,122.7968 117.6856,129.4958"/>
    <path stroke="#000" stroke-width="10.935" d="M117.6856,129.4958 C117.6856,129.4958 126.6746,164.4078 139.7776,175.8158 C141.6516,177.4478 142.0486,179.9178 140.6296,181.8448 C137.5996,185.9588 131.5016,191.4158 121.9206,187.7628 C107.4346,182.2398 109.0656,134.6148 113.6406,128.4908 C113.6406,128.4908 116.2816,122.7968 117.6856,129.4958 Z"/>
    <path fill="#FFF" d="M6.8892,240.09 C6.8892,240.09 41.9382,260.488 60.8232,261.355 C63.5252,261.478 65.8302,263.058 66.3642,265.277 C67.5032,270.014 67.4952,277.482 57.5112,280.278 C42.4142,284.505 4.7622,248.751 3.1122,241.663 C3.1122,241.663 0.3982,235.993 6.8892,240.09"/>
    <path stroke="#000" stroke-width="10.935" d="M6.8892,240.09 C6.8892,240.09 41.9382,260.488 60.8232,261.355 C63.5252,261.478 65.8302,263.058 66.3642,265.277 C67.5032,270.014 67.4952,277.482 57.5112,280.278 C42.4142,284.505 4.7622,248.751 3.1122,241.663 C3.1122,241.663 0.3982,235.993 6.8892,240.09 Z"/>
    <path fill="#FFF" d="M262.3428,146.4201 C262.3428,146.4201 237.6108,175.5331 236.3898,191.3191 C236.2158,193.5771 234.3038,195.4901 231.6458,195.9151 C225.9718,196.8211 217.0418,196.7411 213.7978,188.3631 C208.8928,175.6961 252.0088,144.5561 260.4988,143.2451 C260.4988,143.2451 267.3048,141.0311 262.3428,146.4201"/>
    <path stroke="#000" stroke-width="10.935" d="M262.3428,146.4201 C262.3428,146.4201 237.6108,175.5331 236.3898,191.3191 C236.2158,193.5771 234.3038,195.4901 231.6458,195.9151 C225.9718,196.8211 217.0418,196.7411 213.7978,188.3631 C208.8928,175.6961 252.0088,144.5561 260.4988,143.2451 C260.4988,143.2451 267.3048,141.0311 262.3428,146.4201 Z"/>
  </g>
</svg>
