<svg xmlns="http://www.w3.org/2000/svg" xmlns:xlink="http://www.w3.org/1999/xlink" width="300" height="300" viewBox="0 0 300 300">
  <defs>
    <polygon id="type-20-a" points=".362 0 179.836 0 179.836 197.035 .362 197.035"/>
    <polygon id="type-20-c" points="0 .776 79.741 .776 79.741 50.331 0 50.331"/>
  </defs>
  <g fill="none" fill-rule="evenodd" transform="translate(-77 -101)">
    <path fill="#000" d="M48.5896,401 L48.5896,234.325 C48.5896,199.79 60.9436,166.394 83.4186,140.173 C110.9036,108.106 151.0296,89.651 193.2626,89.651 L211.7136,89.651 C253.9466,89.651 294.0716,108.106 321.5576,140.173 C344.0326,166.394 356.3866,199.79 356.3866,234.325 L356.3866,401"/>
    <path fill="#000" d="M210.7404,132.0557 C210.7404,132.0557 283.0514,91.0267 358.9814,7.8677 C362.7974,3.6897 367.9134,0.7957 373.5354,0.1477 C380.1244,-0.6123 387.6694,1.6237 389.8734,14.6187 C394.0224,39.0797 363.0844,156.0937 310.1774,197.0337"/>
    <path fill="#000" d="M316.0485 105.3359C316.0485 105.3359 345.1665 121.7769 389.3385 130.3599 389.3385 130.3599 398.5275 135.3269 391.1895 141.6169 383.8515 147.9079 338.5675 161.0369 314.2855 151.5749M257.8762 116.042C257.8762 116.042 263.9072 77.044 256.5032 27.634 256.5032 27.634 258.1822 15.458 267.2202 19.067 276.2582 22.677 306.0392 60.264 305.3082 90.253M316.3391 101.0859C316.3391 101.0859 322.3701 62.0889 314.9661 12.6779 314.9661 12.6779 316.6451.5019 325.6831 4.1109 334.7211 7.7219 364.5021 45.3079 363.7711 75.2969"/>
    <g transform="translate(32)">
      <mask id="type-20-b" fill="#fff">
        <use xlink:href="#type-20-a"/>
      </mask>
      <path fill="#000" d="M179.8361,132.084 C179.8361,132.084 107.5371,91.036 31.6291,7.857 C27.8151,3.677 22.6991,0.781 17.0771,0.132 C10.4881,-0.629 2.9421,1.605 0.7341,14.599 C-3.4199,39.059 27.4851,156.081 80.3821,197.035" mask="url(#type-20-b)"/>
    </g>
    <g transform="translate(0 76)">
      <mask id="type-20-d" fill="#fff">
        <use xlink:href="#type-20-c"/>
      </mask>
      <path fill="#000" d="M77.9914,0.7764 C77.9914,0.7764 48.8694,17.2104 4.6954,25.7814 C4.6954,25.7814 -4.4956,30.7464 2.8404,37.0384 C10.1764,43.3304 55.4574,56.4714 79.7414,47.0164" mask="url(#type-20-d)"/>
    </g>
    <path fill="#000" d="M158.2478 120.3086C158.2478 120.3086 154.0578 93.1676 159.2198 58.7846 159.2198 58.7846 158.0538 50.3106 151.7638 52.8206 145.4728 55.3306 124.7408 81.4826 125.2438 102.3526M123.9177 113.3281C123.9177 113.3281 117.8967 74.3281 125.3147 24.9201 125.3147 24.9201 123.6387 12.7431 114.5997 16.3501 105.5617 19.9581 75.7707 57.5361 76.4927 87.5251"/>
  </g>
</svg>
