<svg xmlns="http://www.w3.org/2000/svg" xmlns:xlink="http://www.w3.org/1999/xlink" width="300" height="300" viewBox="0 0 300 300">
  <defs>
    <polygon id="type-03-a" points=".009 .282 79.447 .282 79.447 140.136 .009 140.136"/>
  </defs>
  <g fill="none" fill-rule="evenodd" transform="translate(0 -36)">
    <path fill="#FFF" d="M213.4368,85.2311 C213.4368,85.2311 278.5818,-3.9149 300.2968,0.6561 C322.0118,5.2281 285.4388,144.6621 260.2948,144.6621 C235.1518,144.6621 202.0078,111.5181 213.4368,85.2311"/>
    <path stroke="#000" stroke-linecap="round" stroke-linejoin="round" stroke-width="8.973" d="M213.4368,85.2311 C213.4368,85.2311 278.5818,-3.9149 300.2968,0.6561 C322.0118,5.2281 285.4388,144.6621 260.2948,144.6621 C235.1518,144.6621 202.0078,111.5181 213.4368,85.2311 Z"/>
    <path fill="#000" d="M272.2683,335.214 L272.2683,146.965 C272.2683,87.062 222.3973,38.5 160.8783,38.5 C99.3603,38.5 49.4893,87.062 49.4893,146.965 L49.4893,335.214 L272.2683,335.214 Z"/>
    <path fill="#FFF" d="M117.1545,85.2311 C117.1545,85.2311 52.0085,-3.9149 30.2945,0.6561 C8.5785,5.2281 45.1515,144.6621 70.2955,144.6621 C95.4395,144.6621 128.5835,111.5181 117.1545,85.2311"/>
    <path stroke="#000" stroke-linecap="round" stroke-linejoin="round" stroke-width="8.973" d="M117.1545,85.2311 C117.1545,85.2311 52.0085,-3.9149 30.2945,0.6561 C8.5785,5.2281 45.1515,144.6621 70.2955,144.6621 C95.4395,144.6621 128.5835,111.5181 117.1545,85.2311 Z"/>
    <path fill="#FFF" d="M145.1223,46.8756 C145.1223,46.8756 126.8823,21.9156 120.8023,23.1956 C114.7223,24.4756 124.9623,63.5156 132.0023,63.5156 C139.0423,63.5156 148.3223,54.2356 145.1223,46.8756"/>
    <path stroke="#000" stroke-linecap="round" stroke-linejoin="round" stroke-width="8.973" d="M145.1223,46.8756 C145.1223,46.8756 126.8823,21.9156 120.8023,23.1956 C114.7223,24.4756 124.9623,63.5156 132.0023,63.5156 C139.0423,63.5156 148.3223,54.2356 145.1223,46.8756 Z"/>
    <path fill="#FFF" d="M177.8406,46.8756 C177.8406,46.8756 196.0806,21.9156 202.1606,23.1956 C208.2406,24.4756 198.0016,63.5156 190.9616,63.5156 C183.9206,63.5156 174.6406,54.2356 177.8406,46.8756"/>
    <path stroke="#000" stroke-linecap="round" stroke-linejoin="round" stroke-width="8.973" d="M177.8406,46.8756 C177.8406,46.8756 196.0806,21.9156 202.1606,23.1956 C208.2406,24.4756 198.0016,63.5156 190.9616,63.5156 C183.9206,63.5156 174.6406,54.2356 177.8406,46.8756 Z"/>
    <path fill="#000" d="M50.0598,188.4957 C50.0598,188.4957 -6.2782,302.3817 0.5788,324.0967 C7.4358,345.8117 77.1528,279.5237 79.4388,234.9507 L50.0598,188.4957 Z"/>
    <g transform="translate(240 188.214)">
      <mask id="type-03-b" fill="#fff">
        <use xlink:href="#type-03-a"/>
      </mask>
      <path fill="#000" d="M29.3875,0.2817 C29.3875,0.2817 85.7255,114.1677 78.8685,135.8827 C72.0115,157.5977 2.2945,91.3097 0.0085,46.7367 L29.3875,0.2817 Z" mask="url(#type-03-b)"/>
    </g>
  </g>
</svg>
