<svg xmlns="http://www.w3.org/2000/svg" width="300" height="300" viewBox="0 0 300 300">
  <g fill="none" fill-rule="evenodd" transform="translate(-86 -33)">
    <path fill="#FFF" d="M289.778745,189 L347.242453,189 C377.042361,189 395.059244,144.882339 378.980421,111.284195 L333.770344,5.67130269 C328.8323,-4.6464233 316.89272,0.0371944106 316.89272,12.2926765 L329.302904,102.586452 C329.302904,109.363412 325.200442,114.856078 320.139795,114.856078 L289.778745,114.856078 C289.778745,114.856078 270.026568,144.836135 289.778745,189"/>
    <path stroke="#000" stroke-width="14.595" d="M289.778745,189 L347.242453,189 C377.042361,189 395.059244,144.882339 378.980421,111.284195 L333.770344,5.67130269 C328.8323,-4.6464233 316.89272,0.0371944106 316.89272,12.2926765 L329.302904,102.586452 C329.302904,109.363412 325.200442,114.856078 320.139795,114.856078 L289.778745,114.856078 C289.778745,114.856078 270.026568,144.836135 289.778745,189 Z"/>
    <path fill="#000" d="M314,333 L314,135.304913 C314,79.4609282 263.407856,52 201,52 C138.592144,52 88,79.4609282 88,135.304913 L88,333 L314,333 Z"/>
    <path fill="#FFF" d="M95.221243,189 L37.7574586,189 C7.9584533,189 -10.0593964,144.882339 6.01944785,111.284195 L51.2305285,5.67130269 C56.1676363,-4.6464233 68.107232,0.0371944106 68.107232,12.2926765 L55.6970314,102.586452 C55.6970314,109.363412 59.7994991,114.856078 64.8601524,114.856078 L95.221243,114.856078 C95.221243,114.856078 114.973446,144.836135 95.221243,189"/>
    <path stroke="#000" stroke-width="14.595" d="M95.221243,189 L37.7574586,189 C7.9584533,189 -10.0593964,144.882339 6.01944785,111.284195 L51.2305285,5.67130269 C56.1676363,-4.6464233 68.107232,0.0371944106 68.107232,12.2926765 L55.6970314,102.586452 C55.6970314,109.363412 59.7994991,114.856078 64.8601524,114.856078 L95.221243,114.856078 C95.221243,114.856078 114.973446,144.836135 95.221243,189 Z"/>
    <path fill="#000" d="M292.810694,83 C292.810694,83 427.173307,255.618147 284,293"/>
  </g>
</svg>
