<svg xmlns="http://www.w3.org/2000/svg" width="300" height="300" viewBox="0 0 300 300">
  <g fill="none" fill-rule="evenodd" transform="translate(0 -45)">
    <path fill="#FFF" d="M55.5757,149.4781 C55.5757,149.4781 13.5007,111.7181 3.1057,116.3091 C-7.2883,120.9001 25.7977,186.8781 38.3937,184.2151 C50.9907,181.5521 64.0847,161.4361 55.5757,149.4781"/>
    <path stroke="#000" stroke-width="12.231" d="M55.5757,149.4781 C55.5757,149.4781 13.5007,111.7181 3.1057,116.3091 C-7.2883,120.9001 25.7977,186.8781 38.3937,184.2151 C50.9907,181.5521 64.0847,161.4361 55.5757,149.4781 Z"/>
    <path fill="#FFF" d="M55.5757,194.4781 C55.5757,194.4781 13.5007,156.7181 3.1057,161.3091 C-7.2883,165.9001 25.7977,231.8781 38.3937,229.2151 C50.9907,226.5521 64.0847,206.4361 55.5757,194.4781"/>
    <path stroke="#000" stroke-width="12.231" d="M55.5757,194.4781 C55.5757,194.4781 13.5007,156.7181 3.1057,161.3091 C-7.2883,165.9001 25.7977,231.8781 38.3937,229.2151 C50.9907,226.5521 64.0847,206.4361 55.5757,194.4781 Z"/>
    <path fill="#FFF" d="M54.5757,242.4781 C54.5757,242.4781 12.5007,204.7181 2.1057,209.3091 C-8.2883,213.9001 24.7977,279.8781 37.3937,277.2151 C49.9907,274.5521 63.0847,254.4361 54.5757,242.4781"/>
    <path stroke="#000" stroke-width="12.231" d="M54.5757,242.4781 C54.5757,242.4781 12.5007,204.7181 2.1057,209.3091 C-8.2883,213.9001 24.7977,279.8781 37.3937,277.2151 C49.9907,274.5521 63.0847,254.4361 54.5757,242.4781 Z"/>
    <path fill="#000" d="M268.5787,344.775 L268.5787,129.162 C268.5787,79.556 169.6517,39.343 120.0457,39.343 C70.4407,39.343 30.2277,79.556 30.2277,129.162 L30.2277,344.775"/>
    <path fill="#FFF" d="M67.5406,81.0104 C67.5406,81.0104 26.3056,42.3354 15.8126,46.6964 C5.3196,51.0564 36.9486,117.7464 49.6006,115.3614 C62.2516,112.9754 75.7846,93.1534 67.5406,81.0104"/>
    <path stroke="#000" stroke-width="12.231" d="M67.5406,81.0104 C67.5406,81.0104 26.3056,42.3354 15.8126,46.6964 C5.3196,51.0564 36.9486,117.7464 49.6006,115.3614 C62.2516,112.9754 75.7846,93.1534 67.5406,81.0104 Z"/>
    <path fill="#FFF" d="M141.5044,61.1324 C141.5044,61.1324 139.6184,4.6304 129.1104,0.3084 C118.6024,-4.0136 93.9044,65.5394 104.5464,72.7844 C115.1894,80.0294 138.7674,75.5524 141.5044,61.1324"/>
    <path stroke="#000" stroke-width="12.231" d="M141.5044,61.1324 C141.5044,61.1324 139.6184,4.6304 129.1104,0.3084 C118.6024,-4.0136 93.9044,65.5394 104.5464,72.7844 C115.1894,80.0294 138.7674,75.5524 141.5044,61.1324 Z"/>
    <path fill="#FFF" d="M101.253,54.0563 C101.253,54.0563 70.529,6.5983 59.296,8.3073 C48.063,10.0163 62.726,82.3553 75.579,83.0813 C88.433,83.8093 106.335,67.8253 101.253,54.0563"/>
    <path stroke="#000" stroke-width="12.231" d="M101.253,54.0563 C101.253,54.0563 70.529,6.5983 59.296,8.3073 C48.063,10.0163 62.726,82.3553 75.579,83.0813 C88.433,83.8093 106.335,67.8253 101.253,54.0563 Z"/>
    <path fill="#FFF" d="M185.419,63.7926 C185.419,63.7926 183.534,7.2906 173.025,2.9686 C162.517,-1.3534 137.819,68.1996 148.461,75.4446 C159.104,82.6896 182.682,78.2116 185.419,63.7926"/>
    <path stroke="#000" stroke-width="12.231" d="M185.419,63.7926 C185.419,63.7926 183.534,7.2906 173.025,2.9686 C162.517,-1.3534 137.819,68.1996 148.461,75.4446 C159.104,82.6896 182.682,78.2116 185.419,63.7926 Z"/>
    <path fill="#FFF" d="M223.3101,79.0436 C223.3101,79.0436 244.3201,26.5596 236.4401,18.3736 C228.5591,10.1886 177.9611,63.9236 184.7881,74.8386 C191.6151,85.7536 215.0021,91.1426 223.3101,79.0436"/>
    <path stroke="#000" stroke-width="12.231" d="M223.3101,79.0436 C223.3101,79.0436 244.3201,26.5596 236.4401,18.3736 C228.5591,10.1886 177.9611,63.9236 184.7881,74.8386 C191.6151,85.7536 215.0021,91.1426 223.3101,79.0436 Z"/>
    <path fill="#FFF" d="M254.0967,108.567 C254.0967,108.567 293.2337,67.77 288.9917,57.229 C284.7497,46.688 217.7097,77.564 219.9527,90.242 C222.1947,102.92 241.8627,116.674 254.0967,108.567"/>
    <path stroke="#000" stroke-width="12.231" d="M254.0967,108.567 C254.0967,108.567 293.2337,67.77 288.9917,57.229 C284.7497,46.688 217.7097,77.564 219.9527,90.242 C222.1947,102.92 241.8627,116.674 254.0967,108.567 Z"/>
  </g>
</svg>
