<svg xmlns="http://www.w3.org/2000/svg" xmlns:xlink="http://www.w3.org/1999/xlink" width="300" height="300" viewBox="0 0 300 300">
  <defs>
    <polygon id="type-26-a" points="0 .724 56.448 .724 56.448 71.272 0 71.272"/>
    <polygon id="type-26-c" points=".27 .724 56.717 .724 56.717 71.272 .27 71.272"/>
  </defs>
  <g fill="none" fill-rule="evenodd" transform="translate(6 3)">
    <path fill="#000" d="M261.7174,296.276 L261.7174,103.663 C261.7174,54.057 153.1814,13.844 98.7594,13.844 C44.3364,13.844 0.2174,54.057 0.2174,103.663 L0.2174,296.276"/>
    <path fill="#000" d="M49.2174,296.276 L49.2174,103.663 C49.2174,54.057 148.1454,13.844 197.7504,13.844 C247.3554,13.844 287.5684,54.057 287.5684,103.663 L287.5684,296.276"/>
    <path fill="#FFF" d="M82.131 48.859C85.382 54.634 80.214 63.709 70.589 69.126 60.963 74.544 50.524 74.255 47.274 68.478 44.023 62.703 49.191 53.63 58.817 48.212 68.442 42.794 78.881 43.084 82.131 48.859M52.5436 81.0553C57.9106 85.8723 57.6696 94.8913 52.0076 101.2003 46.3456 107.5073 37.4046 108.7163 32.0386 103.8993 26.6716 99.0813 26.9116 90.0633 32.5736 83.7543 38.2366 77.4463 47.1766 76.2383 52.5436 81.0553M86.0924 69.9576C89.5524 73.0636 89.3984 78.8806 85.7464 82.9486 82.0954 87.0166 76.3294 87.7956 72.8684 84.6886 69.4084 81.5826 69.5624 75.7666 73.2144 71.6986 76.8654 67.6306 82.6314 66.8516 86.0924 69.9576M32.0924 113.9576C35.5524 117.0636 35.3984 122.8806 31.7464 126.9486 28.0954 131.0166 22.3294 131.7956 18.8684 128.6886 15.4084 125.5826 15.5624 119.7666 19.2144 115.6986 22.8654 111.6306 28.6314 110.8516 32.0924 113.9576M15.0729 234.4537C21.3899 230.9747 29.8259 234.1767 33.9139 241.6017 38.0019 249.0277 36.1949 257.8667 29.8779 261.3447 23.5599 264.8227 15.1239 261.6217 11.0359 254.1957 6.9479 246.7697 8.7549 237.9317 15.0729 234.4537M39.3912 264.61C43.4652 262.368 48.9052 264.431 51.5412 269.22 54.1782 274.009 53.0122 279.71 48.9382 281.952 44.8642 284.195 39.4242 282.131 36.7882 277.342 34.1512 272.553 35.3172 266.853 39.3912 264.61"/>
    <g transform="translate(0 .276)">
      <mask id="type-26-b" fill="#fff">
        <use xlink:href="#type-26-a"/>
      </mask>
      <path fill="#000" d="M16.069,71.2725 C16.069,71.2725 -17.609,-11.3495 12.547,2.2315 C42.703,15.8125 56.448,32.3385 56.448,32.3385" mask="url(#type-26-b)"/>
    </g>
    <path fill="#000" d="M48.0445,40.9615 C48.0445,40.9615 40.2145,4.1365 51.7275,12.0245 C63.2405,19.9125 67.7175,27.8015 67.7175,27.8015"/>
    <g transform="translate(231 5.276)">
      <mask id="type-26-d" fill="#fff">
        <use xlink:href="#type-26-c"/>
      </mask>
      <path fill="#000" d="M40.6485,71.2725 C40.6485,71.2725 74.3265,-11.3495 44.1705,2.2315 C14.0145,15.8125 0.2695,32.3385 0.2695,32.3385" mask="url(#type-26-d)"/>
    </g>
    <path fill="#000" d="M239.6725,45.9615 C239.6725,45.9615 247.5025,9.1365 235.9895,17.0245 C224.4775,24.9125 220.0005,32.8015 220.0005,32.8015"/>
    <path fill="#FFF" d="M230.7667 56.0973C227.3107 61.7523 216.8687 61.6673 207.4437 55.9083 198.0177 50.1483 193.1797 40.8943 196.6357 35.2393 200.0917 29.5843 210.5337 29.6683 219.9587 35.4293 229.3837 41.1893 234.2227 50.4423 230.7667 56.0973M264.0108 82.3492C258.4318 86.9182 249.5548 85.3072 244.1828 78.7492 238.8118 72.1922 238.9798 63.1712 244.5588 58.6022 250.1378 54.0322 259.0148 55.6432 264.3858 62.2012 269.7578 68.7582 269.5898 77.7792 264.0108 82.3492M252.5069 50.0992C249.7879 53.8712 243.9879 54.3382 239.5529 51.1442 235.1179 47.9502 233.7269 42.3022 236.4459 38.5312 239.1649 34.7592 244.9649 34.2912 249.3999 37.4862 253.8349 40.6802 255.2259 46.3282 252.5069 50.0992"/>
  </g>
</svg>
