<svg xmlns="http://www.w3.org/2000/svg" xmlns:xlink="http://www.w3.org/1999/xlink" width="300" height="300" viewBox="0 0 300 300">
  <defs>
    <polygon id="type-28-a" points=".962 .579 303.98 .579 303.98 325 .962 325"/>
  </defs>
  <g fill="none" fill-rule="evenodd" transform="translate(-23 -28)">
    <g transform="translate(61 .632)">
      <path fill="#FFF" d="M164.4212,19.2363 C164.4212,19.2363 87.1282,-1.3507 20.7102,0.0703 C4.1692,0.4243 -4.9308,19.4343 5.2212,32.4983 L36.6672,72.9633"/>
      <path stroke="#000" stroke-width="11.265" d="M164.4212,19.2363 C164.4212,19.2363 87.1282,-1.3507 20.7102,0.0703 C4.1692,0.4243 -4.9308,19.4343 5.2212,32.4983 L36.6672,72.9633"/>
    </g>
    <g transform="translate(20 26.632)">
      <path fill="#FFF" d="M164.1981,14.5938 C164.1981,14.5938 86.1001,-2.6932 19.8021,1.5468 C3.2921,2.6038 -4.9919,21.9828 5.7051,34.6038 L38.8411,73.6968"/>
      <path stroke="#000" stroke-width="11.265" d="M164.1981,14.5938 C164.1981,14.5938 86.1001,-2.6932 19.8021,1.5468 C3.2921,2.6038 -4.9919,21.9828 5.7051,34.6038 L38.8411,73.6968"/>
    </g>
    <g transform="translate(0 67.632)">
      <path fill="#FFF" d="M163.9222,14.1465 C163.9222,14.1465 85.8242,-3.1405 19.5262,1.0995 C3.0152,2.1565 -5.2678,21.5355 5.4292,34.1565 L38.5642,73.2495"/>
      <path stroke="#000" stroke-width="11.265" d="M163.9222,14.1465 C163.9222,14.1465 85.8242,-3.1405 19.5262,1.0995 C3.0152,2.1565 -5.2678,21.5355 5.4292,34.1565 L38.5642,73.2495"/>
    </g>
    <g transform="translate(0 128.632)">
      <path fill="#FFF" d="M163.9222,13.9756 C163.9222,13.9756 85.8242,-3.3114 19.5262,0.9286 C3.0152,1.9856 -5.2678,21.3646 5.4292,33.9856 L38.5642,73.0786"/>
      <path stroke="#000" stroke-width="11.265" d="M163.9222,13.9756 C163.9222,13.9756 85.8242,-3.3114 19.5262,0.9286 C3.0152,1.9856 -5.2678,21.3646 5.4292,33.9856 L38.5642,73.0786"/>
    </g>
    <g transform="translate(0 189.632)">
      <path fill="#FFF" d="M163.9222,13.8047 C163.9222,13.8047 85.8242,-3.4823 19.5262,0.7577 C3.0152,1.8137 -5.2678,21.1937 5.4292,33.8147 L38.5642,72.9077"/>
      <path stroke="#000" stroke-width="11.265" d="M163.9222,13.8047 C163.9222,13.8047 85.8242,-3.4823 19.5262,0.7577 C3.0152,1.8137 -5.2678,21.1937 5.4292,33.8147 L38.5642,72.9077"/>
    </g>
    <g transform="translate(0 249.632)">
      <path fill="#FFF" d="M163.9222,14.6338 C163.9222,14.6338 85.8242,-2.6532 19.5262,1.5868 C3.0152,2.6428 -5.2678,22.0228 5.4292,34.6438 L38.5642,73.7358"/>
      <path stroke="#000" stroke-width="11.265" d="M163.9222,14.6338 C163.9222,14.6338 85.8242,-2.6532 19.5262,1.5868 C3.0152,2.6428 -5.2678,22.0228 5.4292,34.6438 L38.5642,73.7358"/>
    </g>
    <g transform="translate(19 2.632)">
      <mask id="type-28-b" fill="#fff">
        <use xlink:href="#type-28-a"/>
      </mask>
      <path fill="#000" d="M0.9618,325 L0.9618,118.294 C0.9618,34.618 68.7948,0.579 152.4708,0.579 C236.1478,0.579 303.9808,68.412 303.9808,152.088 L303.9808,325" mask="url(#type-28-b)"/>
    </g>
    <path stroke="#FFF" stroke-linecap="round" stroke-linejoin="round" stroke-width="4.506" d="M65.7919 201.7384C65.7919 207.9214 61.5359 212.9334 56.2869 212.9334 51.0369 212.9334 46.7809 207.9214 46.7809 201.7384M56.2865 188.7756C56.2865 194.9596 52.0305 199.9716 46.7815 199.9716 41.5315 199.9716 37.2755 194.9596 37.2755 188.7756M77.0257 188.7756C77.0257 194.9596 72.7697 199.9716 67.5207 199.9716 62.2707 199.9716 58.0147 194.9596 58.0147 188.7756M289.9271 287.9045C289.9271 294.0885 285.6711 299.0995 280.4221 299.0995 275.1721 299.0995 270.9161 294.0885 270.9161 287.9045M259.5433 72.1945C259.5433 78.3785 255.2883 83.3895 250.0383 83.3895 244.7883 83.3895 240.5323 78.3785 240.5323 72.1945M250.0379 59.2326C250.0379 65.4166 245.7819 70.4276 240.5329 70.4276 235.2829 70.4276 231.0269 65.4166 231.0269 59.2326M270.7772 59.2326C270.7772 65.4166 266.5212 70.4276 261.2722 70.4276 256.0222 70.4276 251.7662 65.4166 251.7662 59.2326M306.8549 158.9328C306.8549 165.1158 302.5989 170.1278 297.3499 170.1278 292.0999 170.1278 287.8439 165.1158 287.8439 158.9328M318.0887 145.9709C318.0887 152.1539 313.8327 157.1659 308.5837 157.1659 303.3337 157.1659 299.0777 152.1539 299.0777 145.9709M81.0687 68.2443C81.0687 74.4283 76.8127 79.4393 71.5637 79.4393 66.3137 79.4393 62.0577 74.4283 62.0577 68.2443M101.808 68.2443C101.808 74.4283 97.552 79.4393 92.303 79.4393 87.053 79.4393 82.797 74.4283 82.797 68.2443M204.9794 29.9445C204.9794 36.1285 200.7244 41.1395 195.4744 41.1395 190.2244 41.1395 185.9684 36.1285 185.9684 29.9445M225.7186 29.9445C225.7186 36.1285 221.4636 41.1395 216.2136 41.1395 210.9636 41.1395 206.7076 36.1285 206.7076 29.9445M83.0746 280.3742C83.0746 286.5582 78.8186 291.5692 73.5696 291.5692 68.3196 291.5692 64.0636 286.5582 64.0636 280.3742M73.5692 267.4123C73.5692 273.5963 69.3132 278.6073 64.0642 278.6073 58.8142 278.6073 54.5582 273.5963 54.5582 267.4123M94.3085 267.4123C94.3085 273.5963 90.0525 278.6073 84.8035 278.6073 79.5535 278.6073 75.2975 273.5963 75.2975 267.4123M59.743 306.298C59.743 312.482 55.487 317.494 50.238 317.494 44.988 317.494 40.732 312.482 40.732 306.298M50.2377 293.3361C50.2377 299.5201 45.9817 304.5311 40.7317 304.5311 35.4827 304.5311 31.2267 299.5201 31.2267 293.3361M70.9769 293.3361C70.9769 299.5201 66.7209 304.5311 61.4709 304.5311 56.2219 304.5311 51.9659 299.5201 51.9659 293.3361"/>
  </g>
</svg>
