<svg xmlns="http://www.w3.org/2000/svg" width="300" height="300" viewBox="0 0 300 300">
  <g fill="none" fill-rule="evenodd" transform="translate(-17 -10)">
    <path fill="#FFF" d="M275.7756,102.5082 C275.7756,102.5082 307.2276,14.6602 293.7306,1.6412 C280.2336,-11.3788 200.0566,80.3372 211.9826,97.9232 C223.9086,115.5102 262.8116,122.9712 275.7756,102.5082"/>
    <path stroke="#000" stroke-width="10.761" d="M275.7756,102.5082 C275.7756,102.5082 307.2276,14.6602 293.7306,1.6412 C280.2336,-11.3788 200.0566,80.3372 211.9826,97.9232 C223.9086,115.5102 262.8116,122.9712 275.7756,102.5082 Z"/>
    <path fill="#000" d="M288.2253,309.309 L6.7753,309.309 L6.7753,78.69 C6.7753,64.017 18.6703,52.122 33.3443,52.122 L209.7013,52.122 C253.0683,52.122 288.2253,87.278 288.2253,130.645 L288.2253,309.309 Z"/>
    <path fill="#FFF" d="M76.924,77.7074 C76.924,77.7074 23.58,4.7094 5.798,8.4534 C-11.983,12.1964 17.965,126.3724 38.553,126.3724 C59.143,126.3724 86.283,99.2314 76.924,77.7074"/>
    <path stroke="#000" stroke-width="10.761" d="M76.924,77.7074 C76.924,77.7074 23.58,4.7094 5.798,8.4534 C-11.983,12.1964 17.965,126.3724 38.553,126.3724 C59.143,126.3724 86.283,99.2314 76.924,77.7074 Z"/>
    <path fill="#000" d="M209.4372,55.6977 C208.2572,38.5827 193.4292,25.6587 176.3162,26.8327 C159.2032,28.0057 146.2872,42.8317 147.4672,59.9467"/>
    <path fill="#000" d="M152.404,55.6977 C151.224,38.5827 136.396,25.6587 119.283,26.8327 C102.17,28.0057 89.254,42.8317 90.434,59.9467"/>
  </g>
</svg>
