<svg xmlns="http://www.w3.org/2000/svg" xmlns:xlink="http://www.w3.org/1999/xlink" width="300" height="300" viewBox="0 0 300 300">
  <defs>
    <polygon id="type-14-a" points="0 0 315.772 0 315.772 328 0 328"/>
  </defs>
  <g fill="none" fill-rule="evenodd" transform="translate(-7.35 -28)">
    <path fill="#FFF" d="M207.900352,55.9954491 L266.051712,29.6250036 C272.437527,26.7290118 278.292212,34.5407515 273.722861,39.8611046 L223.788487,98 C223.788487,98 181.797365,80.9714373 207.900352,55.9954491"/>
    <path stroke="#000" stroke-width="13.889" d="M207.900352,55.9954491 L266.051712,29.6250036 C272.437527,26.7290118 278.292212,34.5407515 273.722861,39.8611046 L223.788487,98 C223.788487,98 181.797365,80.9714373 207.900352,55.9954491 Z"/>
    <g transform="translate(.35)">
      <mask id="type-14-b" fill="#fff">
        <use xlink:href="#type-14-a"/>
      </mask>
      <path fill="#000" d="M-0.000164155844,328 L97.41648,50.68502 C120.967919,-16.35818 190.108719,-17.04042 214.353716,49.53128 L315.77248,328" mask="url(#type-14-b)"/>
    </g>
    <path fill="#FFF" d="M106.799948,55.9954491 L48.6483291,29.6250036 C42.262486,26.7290118 36.4077752,34.5407515 40.9771462,39.8611046 L90.911742,98 C90.911742,98 132.902235,80.9714373 106.799948,55.9954491"/>
    <path stroke="#000" stroke-width="13.889" d="M106.799948,55.9954491 L48.6483291,29.6250036 C42.262486,26.7290118 36.4077752,34.5407515 40.9771462,39.8611046 L90.911742,98 C90.911742,98 132.902235,80.9714373 106.799948,55.9954491 Z"/>
  </g>
</svg>
