<svg xmlns="http://www.w3.org/2000/svg" xmlns:xlink="http://www.w3.org/1999/xlink" width="300" height="300" viewBox="0 0 300 300">
  <defs>
    <polygon id="type-29-a" points=".245 0 101.655 0 101.655 51.514 .245 51.514"/>
  </defs>
  <g fill="none" fill-rule="evenodd" transform="translate(0 -20)">
    <path fill="#000" d="M7.2277,320 L7.2277,187.329 C7.2277,123.126 72.6837,71.079 153.4277,71.079 C234.1717,71.079 299.6277,123.126 299.6277,187.329 L299.6277,320"/>
    <path fill="#000" d="M203.2673,122.8096 C203.2673,122.8096 203.4583,28.9906 256.9203,2.8166 C272.1543,-4.6424 290.2523,4.8606 292.6073,21.6576 C298.3053,62.3076 296.3123,135.8706 203.2673,122.8096"/>
    <g transform="translate(234 41)">
      <path fill="#000" d="M32.572,0.7305 C32.572,0.7305 -1.766,25.7315 0.729,56.1675"/>
      <path stroke="#FFF" stroke-linecap="round" stroke-linejoin="round" stroke-width="10.87" d="M32.572,0.7305 C32.572,0.7305 -1.766,25.7315 0.729,56.1675"/>
    </g>
    <g transform="translate(247 59)">
      <path fill="#000" d="M0.9724,1.2246 C0.9724,1.2246 17.3984,-3.1384 22.8324,21.8626"/>
      <path stroke="#FFF" stroke-linecap="round" stroke-linejoin="round" stroke-width="10.87" d="M0.9724,1.2246 C0.9724,1.2246 17.3984,-3.1384 22.8324,21.8626"/>
    </g>
    <path fill="#000" d="M56.194,164.5605 L56.194,84.0315 C56.194,45.0605 99.727,38.4695 153.427,38.4695 C207.129,38.4695 250.661,45.0605 250.661,84.0315 L250.661,164.5605"/>
    <path fill="#000" d="M91.1853,122.8096 C91.1853,122.8096 90.9933,28.9906 37.5323,2.8166 C22.2983,-4.6424 4.2003,4.8606 1.8453,21.6576 C-3.8537,62.3076 -1.8597,135.8706 91.1853,122.8096"/>
    <g transform="translate(27 41)">
      <path fill="#000" d="M0.8806,0.7305 C0.8806,0.7305 35.2176,25.7315 32.7236,56.1675"/>
      <path stroke="#FFF" stroke-linecap="round" stroke-linejoin="round" stroke-width="10.87" d="M0.8806,0.7305 C0.8806,0.7305 35.2176,25.7315 32.7236,56.1675"/>
    </g>
    <g transform="translate(24 59)">
      <path fill="#000" d="M22.4792,1.2246 C22.4792,1.2246 6.0542,-3.1384 0.6192,21.8626"/>
      <path stroke="#FFF" stroke-linecap="round" stroke-linejoin="round" stroke-width="10.87" d="M22.4792,1.2246 C22.4792,1.2246 6.0542,-3.1384 0.6192,21.8626"/>
    </g>
    <g transform="translate(96)">
      <mask id="type-29-b" fill="#fff">
        <use xlink:href="#type-29-a"/>
      </mask>
      <path fill="#000" d="M34.0573,51.5137 C34.0573,51.5137 -7.2487,33.0347 1.4483,23.2517 C10.1433,13.4687 37.3183,19.9917 38.4053,26.5127 C38.4053,26.5127 54.7093,-3.9233 63.4063,0.4247 C72.1023,4.7737 62.3193,24.3387 63.4063,25.4257 C64.4933,26.5127 63.4063,25.4257 63.4063,25.4257 C63.4063,25.4257 98.1903,5.8607 101.4513,17.8177 C104.7113,29.7737 67.7533,51.5137 67.7533,51.5137" mask="url(#type-29-b)"/>
    </g>
  </g>
</svg>
