<svg xmlns="http://www.w3.org/2000/svg" xmlns:xlink="http://www.w3.org/1999/xlink" width="300" height="300" viewBox="0 0 300 300">
  <defs>
    <polygon id="type-04-a" points=".614 .944 87.482 .944 87.482 67.52 .614 67.52"/>
  </defs>
  <g fill="none" fill-rule="evenodd" transform="translate(-9 -33)">
    <path fill="#000" d="M271.952,332.869 L271.952,142.362 C271.952,81.74 221.483,32.596 159.226,32.596 C96.97,32.596 46.5,81.74 46.5,142.362 L46.5,332.869 L271.952,332.869 Z"/>
    <path fill="#000" d="M96.4491,114.0863 C98.7271,102.0663 90.3441,90.2013 78.3981,88.4683 C55.0641,85.0833 22.8011,82.0373 12.8101,89.0853 C-3.4219,100.5353 53.6031,178.6333 81.7341,141.4163 C91.1581,128.9483 94.0571,126.7073 96.4491,114.0863"/>
    <g transform="translate(221 83.869)">
      <mask id="type-04-b" fill="#fff">
        <use xlink:href="#type-04-a"/>
      </mask>
      <path fill="#000" d="M0.9882,30.2173 C-1.2888,18.1973 7.0922,6.3323 19.0392,4.5993 C42.3742,1.2143 74.6362,-1.8317 84.6272,5.2163 C100.8582,16.6663 43.8352,94.7643 15.7032,57.5473 C6.2792,45.0793 3.3802,42.8383 0.9882,30.2173" mask="url(#type-04-b)"/>
    </g>
    <path fill="#FFF" d="M206.6678,61.3524 C206.6678,61.3524 244.8908,-1.2516 259.5188,0.5804 C274.1468,2.4114 257.6068,96.7344 240.9608,98.1184 C224.3138,99.5024 200.5478,79.3844 206.6678,61.3524"/>
    <path stroke="#000" stroke-linecap="round" stroke-linejoin="round" stroke-width="9.08" d="M206.6678,61.3524 C206.6678,61.3524 244.8908,-1.2516 259.5188,0.5804 C274.1468,2.4114 257.6068,96.7344 240.9608,98.1184 C224.3138,99.5024 200.5478,79.3844 206.6678,61.3524 Z"/>
    <path fill="#FFF" d="M177.3993,46.1053 C177.3993,46.1053 199.7043,6.8223 208.7443,7.6643 C217.7843,8.5053 209.4463,66.8903 199.2263,68.0673 C189.0063,69.2443 173.9843,57.3243 177.3993,46.1053"/>
    <path stroke="#000" stroke-linecap="round" stroke-linejoin="round" stroke-width="9.08" d="M177.3993,46.1053 C177.3993,46.1053 199.7043,6.8223 208.7443,7.6643 C217.7843,8.5053 209.4463,66.8903 199.2263,68.0673 C189.0063,69.2443 173.9843,57.3243 177.3993,46.1053 Z"/>
    <path fill="#FFF" d="M72.5682,86.9769 C72.5682,86.9769 40.7952,54.8649 44.0532,46.3909 C47.3112,37.9159 101.2552,61.7569 99.6202,71.9139 C97.9852,82.0699 82.4432,93.3029 72.5682,86.9769"/>
    <path stroke="#000" stroke-linecap="round" stroke-linejoin="round" stroke-width="9.08" d="M72.5682,86.9769 C72.5682,86.9769 40.7952,54.8649 44.0532,46.3909 C47.3112,37.9159 101.2552,61.7569 99.6202,71.9139 C97.9852,82.0699 82.4432,93.3029 72.5682,86.9769 Z"/>
    <path fill="#FFF" d="M48.9569,207.9086 C48.9569,207.9086 3.8729,205.0496 0.6719,196.5536 C-2.5291,188.0576 53.6149,169.9976 59.1469,178.6706 C64.6789,187.3436 60.5389,206.0676 48.9569,207.9086"/>
    <path stroke="#000" stroke-linecap="round" stroke-linejoin="round" stroke-width="9.08" d="M48.9569,207.9086 C48.9569,207.9086 3.8729,205.0496 0.6719,196.5536 C-2.5291,188.0576 53.6149,169.9976 59.1469,178.6706 C64.6789,187.3436 60.5389,206.0676 48.9569,207.9086 Z"/>
    <path fill="#FFF" d="M48.9569,239.1366 C48.9569,239.1366 3.8729,236.2776 0.6719,227.7816 C-2.5291,219.2856 53.6149,201.2256 59.1469,209.8986 C64.6789,218.5716 60.5389,237.2956 48.9569,239.1366"/>
    <path stroke="#000" stroke-linecap="round" stroke-linejoin="round" stroke-width="9.08" d="M48.9569,239.1366 C48.9569,239.1366 3.8729,236.2776 0.6719,227.7816 C-2.5291,219.2856 53.6149,201.2256 59.1469,209.8986 C64.6789,218.5716 60.5389,237.2956 48.9569,239.1366 Z"/>
    <path fill="#FFF" d="M48.9569,270.3651 C48.9569,270.3651 3.8729,267.5061 0.6719,259.0101 C-2.5291,250.5141 53.6149,232.4541 59.1469,241.1271 C64.6789,249.8001 60.5389,268.5241 48.9569,270.3651"/>
    <path stroke="#000" stroke-linecap="round" stroke-linejoin="round" stroke-width="9.08" d="M48.9569,270.3651 C48.9569,270.3651 3.8729,267.5061 0.6719,259.0101 C-2.5291,250.5141 53.6149,232.4541 59.1469,241.1271 C64.6789,249.8001 60.5389,268.5241 48.9569,270.3651 Z"/>
  </g>
</svg>
