<svg xmlns="http://www.w3.org/2000/svg" width="300" height="300" viewBox="0 0 300 300">
  <g fill="none" fill-rule="evenodd" transform="translate(-27 -62)">
    <path fill="#000" d="M27.7918,361.462 L35.7248,168.727 C35.7248,143.599 45.2028,119.3 62.4468,100.222 C83.5348,76.89 114.3208,63.462 146.7248,63.462 L160.8798,63.462 C193.2838,63.462 224.0688,76.89 245.1568,100.222 C262.4008,119.3 271.8798,143.599 271.8798,168.727 L271.8798,361.462"/>
    <path fill="#FFF" d="M30.4217,274.0704 C18.8787,254.2704 -5.0063,207.3674 2.2617,170.7004 C2.7577,168.2014 5.8487,167.0544 8.0177,168.5504 C10.6397,170.3594 14.2597,168.2824 13.7927,165.2394 C10.6527,144.8324 3.8367,92.1764 13.7597,73.6614 C14.4727,72.3304 15.9947,71.5784 17.5537,71.7894 L41.0757,74.9754 C43.0437,75.2424 44.8717,73.9744 45.2027,72.1154 C46.9337,62.3964 53.2067,33.8124 69.3627,17.2544 C78.2227,8.1744 92.6747,6.4094 103.7677,12.9214 L111.3827,17.3924 C112.5087,18.0524 113.9217,18.0864 115.0797,17.4794 L142.2627,3.2334 C149.3097,-0.4596 158.0217,0.3004 164.2237,5.1704 C183.6947,20.4574 223.7217,59.4114 238.8807,130.2274 C242.3037,146.2174 219.3267,154.2194 211.0597,139.9104 C189.6637,102.8814 159.0217,67.3564 122.6947,75.4624 C61.2547,89.1724 41.6207,232.1004 37.2587,272.7394 C36.8967,276.1174 32.1537,277.0424 30.4217,274.0704"/>
    <path stroke="#000" stroke-width="11.822" d="M30.4217,274.0704 C18.8787,254.2704 -5.0063,207.3674 2.2617,170.7004 C2.7577,168.2014 5.8487,167.0544 8.0177,168.5504 C10.6397,170.3594 14.2597,168.2824 13.7927,165.2394 C10.6527,144.8324 3.8367,92.1764 13.7597,73.6614 C14.4727,72.3304 15.9947,71.5784 17.5537,71.7894 L41.0757,74.9754 C43.0437,75.2424 44.8717,73.9744 45.2027,72.1154 C46.9337,62.3964 53.2067,33.8124 69.3627,17.2544 C78.2227,8.1744 92.6747,6.4094 103.7677,12.9214 L111.3827,17.3924 C112.5087,18.0524 113.9217,18.0864 115.0797,17.4794 L142.2627,3.2334 C149.3097,-0.4596 158.0217,0.3004 164.2237,5.1704 C183.6947,20.4574 223.7217,59.4114 238.8807,130.2274 C242.3037,146.2174 219.3267,154.2194 211.0597,139.9104 C189.6637,102.8814 159.0217,67.3564 122.6947,75.4624 C61.2547,89.1724 41.6207,232.1004 37.2587,272.7394 C36.8967,276.1174 32.1537,277.0424 30.4217,274.0704 Z"/>
  </g>
</svg>
