<svg xmlns="http://www.w3.org/2000/svg" xmlns:xlink="http://www.w3.org/1999/xlink" width="300" height="300" viewBox="0 0 300 300">
  <defs>
    <polygon id="type-18-a" points=".457 .234 27.467 .234 27.467 76.743 .457 76.743"/>
    <polygon id="type-18-c" points=".457 .123 27.467 .123 27.467 76.633 .457 76.633"/>
  </defs>
  <g fill="none" fill-rule="evenodd" transform="translate(-66 -43)">
    <path fill="#000" d="M9.2957,343 L9.2957,160.186 C9.2957,71.718 81.0137,0 169.4817,0 C257.9497,0 329.6677,71.718 329.6677,160.186 L329.6677,343"/>
    <path fill="#000" d="M113.4187 23.4756C113.4187 23.4756 33.3377 25.7976 36.5467 32.6136 39.7557 39.4276 73.2327 48.6416 73.2327 48.6416M238.9177 31.8125C238.9177 31.8125 318.9987 34.1345 315.7897 40.9495 312.5807 47.7645 279.1037 56.9785 279.1037 56.9785"/>
    <g transform="translate(315 248)">
      <mask id="type-18-b" fill="#fff">
        <use xlink:href="#type-18-a"/>
      </mask>
      <path fill="#000" d="M13.8787,0.2344 C13.8787,0.2344 33.1937,77.9854 25.7677,76.7284 C18.3407,75.4724 0.4567,45.7104 0.4567,45.7104" mask="url(#type-18-b)"/>
    </g>
    <g transform="translate(315 210)">
      <mask id="type-18-d" fill="#fff">
        <use xlink:href="#type-18-c"/>
      </mask>
      <path fill="#000" d="M13.8787,0.123 C13.8787,0.123 33.1937,77.874 25.7677,76.618 C18.3407,75.361 0.4567,45.599 0.4567,45.599" mask="url(#type-18-d)"/>
    </g>
  </g>
</svg>
