<svg xmlns="http://www.w3.org/2000/svg" xmlns:xlink="http://www.w3.org/1999/xlink" width="300" height="300" viewBox="0 0 300 300">
  <defs>
    <polygon id="type-09-a" points=".99 .389 265.236 .389 265.236 288 .99 288"/>
    <polygon id="type-09-c" points="0 .213 102.801 .213 102.801 96.771 0 96.771"/>
    <polygon id="type-09-e" points=".553 -.005 59.658 -.005 59.658 117.338 .553 117.338"/>
  </defs>
  <g fill="none" fill-rule="evenodd" transform="translate(-23 -31)">
    <g transform="translate(43 43.005)">
      <mask id="type-09-b" fill="#fff">
        <use xlink:href="#type-09-a"/>
      </mask>
      <path fill="#000" d="M265.2362,287.9999 C265.2362,271.2309 256.7942,271.2309 256.7942,254.4629 C256.7942,237.6929 265.2362,237.6929 265.2362,220.9239 C265.2362,204.1539 256.7942,204.1539 256.7942,187.3859 C256.7942,170.6139 265.2362,170.6139 265.2362,153.8429 C265.2362,137.0709 256.7942,137.0709 256.7942,120.2999 C256.7942,107.9059 263.2022,94.8029 259.9582,84.2929 C256.5052,73.1099 244.1572,67.7349 237.8042,58.7329 C231.4862,49.7789 229.6092,34.8189 221.2112,28.0729 C213.0172,21.4909 200.0242,24.5039 190.5902,20.0679 C181.2412,15.6719 173.8682,3.0269 164.0152,0.7819 C153.9382,-1.5141 142.9662,6.9999 133.1132,6.9999 C123.2602,6.9999 112.2892,-1.5141 102.2122,0.7819 C92.3592,3.0269 84.9862,15.6719 75.6372,20.0679 C66.2032,24.5039 53.2092,21.4909 45.0152,28.0729 C36.6172,34.8189 34.7402,49.7789 28.4212,58.7329 C22.0692,67.7349 9.7212,73.1099 6.2692,84.2929 C3.0242,94.8019 9.4322,107.9059 9.4322,120.2999 C9.4322,137.0679 0.9902,137.0679 0.9902,153.8369 C0.9902,170.6049 9.4322,170.6049 9.4322,187.3749 C9.4322,204.1449 0.9902,204.1449 0.9902,220.9139 C0.9902,237.6829 9.4322,237.6829 9.4322,254.4519 C9.4322,271.2239 0.9902,271.2239 0.9902,287.9939 L265.2362,287.9999 Z" mask="url(#type-09-b)"/>
    </g>
    <g transform="translate(0 21.005)">
      <mask id="type-09-d" fill="#fff">
        <use xlink:href="#type-09-c"/>
      </mask>
      <path fill="#000" d="M102.8006,77.2845 C102.8006,77.2845 63.9146,-8.4495 14.7646,0.9305 C-34.3844,10.3105 52.7596,100.3035 78.6446,96.6635" mask="url(#type-09-d)"/>
    </g>
    <g transform="translate(85 .005)">
      <mask id="type-09-f" fill="#fff">
        <use xlink:href="#type-09-e"/>
      </mask>
      <path fill="#000" d="M56.4632,115.2953 C56.4632,115.2953 73.7112,22.7483 28.0542,2.2763 C-17.6028,-18.1947 2.2612,105.4913 25.5622,117.3383" mask="url(#type-09-f)"/>
    </g>
  </g>
</svg>
