<svg xmlns="http://www.w3.org/2000/svg" xmlns:xlink="http://www.w3.org/1999/xlink" width="300" height="300" viewBox="0 0 300 300">
  <defs>
    <polygon id="type-12-a" points=".117 0 102.116 0 102.116 110.939 .117 110.939"/>
    <polygon id="type-12-c" points=".392 0 102.391 0 102.391 110.939 .392 110.939"/>
  </defs>
  <g fill="none" fill-rule="evenodd" transform="translate(10 -18)">
    <path fill="#000" d="M287,318 L287,163.466172 C287,92.7662365 222.753481,58 143.500504,58 C64.2465194,58 0,92.7662365 0,163.466172 L0,318 L287,318 Z"/>
    <g transform="translate(16)">
      <mask id="type-12-b" fill="#fff">
        <use xlink:href="#type-12-a"/>
      </mask>
      <path fill="#000" d="M102.116422,78.4472066 C102.116422,78.4472066 78.3617941,-3.2565608 28.5895686,0.100512369 C-21.1836667,3.45858467 -3.08495098,113.143957 62.5240294,110.904909" mask="url(#type-12-b)"/>
    </g>
    <g transform="translate(187)">
      <mask id="type-12-d" fill="#fff">
        <use xlink:href="#type-12-c"/>
      </mask>
      <path fill="#000" d="M0.39150098,78.4472066 C0.39150098,78.4472066 24.1461284,-3.2565608 73.9183539,0.100512369 C123.691589,3.45858467 105.592874,113.143957 39.9838931,110.904909" mask="url(#type-12-d)"/>
    </g>
    <path fill="#FFF" d="M79.9167961 101.211128C83.5388441 107.85749 77.7815581 118.299572 67.0576307 124.534003 56.3337034 130.768434 44.7047613 130.434575 41.0827133 123.789241 37.4616599 117.142879 43.2189459 106.701824 53.9428732 100.466366 64.6668006 94.2319343 76.2957427 94.564766 79.9167961 101.211128M46.6128472 138.38722C52.6917709 143.917267 52.4197764 154.271245 46.0061682 161.512777 39.5925601 168.75636 29.4650652 170.142971 23.3871528 164.612924 17.3082291 159.081852 17.5802236 148.727875 23.9938318 141.485317 30.4074399 134.243784 40.5339236 132.857173 46.6128472 138.38722M84.1208349 125.155525C88.1100304 128.673923 87.932024 135.263715 83.7226356 139.873332 79.5132471 144.480927 72.8673317 145.363814 68.8791651 141.844404 64.8899696 138.324994 65.067976 131.736214 69.2773644 127.127608 73.4867529 122.519001 80.1316393 121.636115 84.1208349 125.155525M216.399412 96.6728438C218.692445 89.609924 230.221387 86.9405999 242.151231 90.7108204 254.081074 94.481041 261.893583 103.263237 259.600551 110.327156 257.30853 117.390076 245.778576 120.0594 233.848732 116.28918 221.919901 112.51796 214.10638 103.735764 216.399412 96.6728438M203.755241 63.8981183C201.653592 60.8080241 204.088502 55.4384681 209.194507 51.9052013 214.299512 48.370925 220.142095 48.0115413 222.244745 51.100626 224.346394 54.1917297 221.911483 59.5602762 216.806479 63.0945525 211.700473 66.6288287 205.85789 66.9892219 203.755241 63.8981183M213.342861 44.6297748C211.459631 43.5364689 211.570859 40.3529907 213.590396 37.5198426 215.609933 34.6866946 218.773365 33.2775011 220.657685 34.3698229 222.539823 35.4641128 222.429687 38.6466069 220.409059 41.479755 218.389522 44.312903 215.22609 45.7230806 213.342861 44.6297748M31.329552 56.2446241C29.9493679 57.7034843 26.8914462 56.9853976 24.5003549 54.6407656 22.1092637 52.2961336 21.290264 49.2136873 22.670448 47.7558134 24.0516013 46.2959668 27.1085538 47.0150399 29.4996451 49.3596719 31.8907363 51.7033175 32.709736 54.7857639 31.329552 56.2446241M32.3295496 69.2446241C30.9493609 70.7034843 27.8914285 69.9853976 25.5012982 67.6407656 23.1092295 65.2961336 22.290227 62.2136873 23.6704158 60.7558134 25.0515738 59.2959668 28.1095061 60.0150399 30.4996364 62.3596719 32.890736 64.7033175 33.7097384 67.7857639 32.3295496 69.2446241M7.82490339 262.753073C5.69157202 261.815251 5.38465952 258.478591 7.13695614 255.302199 8.89041091 252.124772 12.0417652 250.3091 14.1750966 251.246922 16.308428 252.184743 16.6153405 255.521403 14.8630439 258.698829 13.1084309 261.875222 9.95823476 263.690894 7.82490339 262.753073M10.230215 295.050651C13.0852625 291.518781 19.9973304 292.663063 25.6698336 297.606281 31.3413728 302.5485 33.6248325 309.417193 30.769785 312.950064 27.9147375 316.480934 21.0017057 315.336652 15.3301664 310.394434 9.65862717 305.451215 7.37516754 298.581522 10.230215 295.050651M19.6038192 245.719541C16.1371481 247.045218 11.4897992 243.544124 9.22369329 237.901316 6.95654065 232.256466 7.92997184 226.606509 11.3966429 225.280832 14.863314 223.954134 19.5106629 227.455228 21.7767688 233.100078 24.0428748 238.742886 23.0704903 244.392843 19.6038192 245.719541M254.395268 119.00036C259.640945 118.951741 263.941011 123.837384 263.999419 129.912686 264.056821 135.987987 259.851417 140.952014 254.604732 140.99964 249.359055 141.048259 245.058989 136.162616 245.000581 130.087314 244.943179 124.013005 249.148583 119.048978 254.395268 119.00036"/>
  </g>
</svg>
