<svg xmlns="http://www.w3.org/2000/svg" xmlns:xlink="http://www.w3.org/1999/xlink" width="300" height="300" viewBox="0 0 300 300">
  <defs>
    <polygon id="type-19-a" points="0 0 290.264 0 290.264 294 0 294"/>
  </defs>
  <g fill="none" fill-rule="evenodd" transform="translate(0 6)">
    <mask id="type-19-b" fill="#fff">
      <use xlink:href="#type-19-a"/>
    </mask>
    <path fill="#000" d="M-0.000174251497,294 L-0.000174251497,113.900136 C-0.000174251497,95.9451988 6.41402335,78.5826231 18.0836461,64.9504451 L51.1992719,26.2645816 C65.4695982,9.59469436 86.3022359,0 108.230916,0 L182.034266,0 C203.962074,0 224.794712,9.59469436 239.06591,26.2645816 L272.180664,64.9504451 C283.850287,78.5826231 290.264484,95.9451988 290.264484,113.900136 L290.264484,294" mask="url(#type-19-b)"/>
    <path fill="#000" d="M13.9216396 73C2.02612013 61.1036161 2.02612013 41.8180235 13.9216396 29.9216396 25.8171591 18.0261201 45.1036161 18.0261201 57 29.9216396M274.078212 73C285.973929 61.1036161 285.973929 41.8180235 274.078212 29.9216396 262.182495 18.0261201 242.895717 18.0261201 231 29.9216396"/>
  </g>
</svg>
