<svg xmlns="http://www.w3.org/2000/svg" xmlns:xlink="http://www.w3.org/1999/xlink" width="300" height="300" viewBox="0 0 300 300">
  <defs>
    <polygon id="type-01-a" points=".266 .463 203.708 .463 203.708 271 .266 271"/>
  </defs>
  <g fill="none" fill-rule="evenodd" transform="translate(35)">
    <g transform="translate(0 160)">
      <path fill="#FFF" d="M37.1538632,44.8867212 L20.2927053,40.1487404 C6.40765263,36.1298942 -2.39687368,24.2931635 0.626512281,13.710375 C3.6490386,3.12758654 17.3552842,-2.19279808 31.2394772,1.82604808 L48.3516526,4.710375"/>
      <path stroke="#000" stroke-width="12.074" d="M37.1538632,44.8867212 L20.2927053,40.1487404 C6.40765263,36.1298942 -2.39687368,24.2931635 0.626512281,13.710375 C3.6490386,3.12758654 17.3552842,-2.19279808 31.2394772,1.82604808 L48.3516526,4.710375"/>
    </g>
    <g transform="translate(0 201)">
      <path fill="#FFF" d="M44.8690673,41.616776 L27.2697404,42.499996 C12.7399327,43.116616 0.580413462,34.753116 0.111375,23.819936 C-0.358528846,12.886756 11.0394519,3.524796 25.5692596,2.908176 L42.8207019,0.198316"/>
      <path stroke="#000" stroke-width="12.074" d="M44.8690673,41.616776 L27.2697404,42.499996 C12.7399327,43.116616 0.580413462,34.753116 0.111375,23.819936 C-0.358528846,12.886756 11.0394519,3.524796 25.5692596,2.908176 L42.8207019,0.198316"/>
    </g>
    <g transform="translate(6 241)">
      <path fill="#FFF" d="M38.5879,34.8641143 L23.7419,35.6055429 C11.4863667,36.1232571 1.23023333,29.1024 0.8333,19.9241143 C0.437233333,10.7466857 10.0520333,2.88668571 22.3084333,2.36897143 L36.8597667,0.0949714286"/>
      <path stroke="#000" stroke-width="12.074" d="M38.5879,34.8641143 L23.7419,35.6055429 C11.4863667,36.1232571 1.23023333,29.1024 0.8333,19.9241143 C0.437233333,10.7466857 10.0520333,2.88668571 22.3084333,2.36897143 L36.8597667,0.0949714286"/>
    </g>
    <g transform="translate(2 120)">
      <path fill="#FFF" d="M37.5857509,44.8922596 L20.724593,40.1542788 C6.83954035,36.1354327 -1.96498596,24.2987019 1.0584,13.7159135 C4.08092632,3.133125 17.7871719,-2.18725962 31.6713649,1.83158654 L48.7835404,4.71591346"/>
      <path stroke="#000" stroke-width="12.074" d="M37.5857509,44.8922596 L20.724593,40.1542788 C6.83954035,36.1354327 -1.96498596,24.2987019 1.0584,13.7159135 C4.08092632,3.133125 17.7871719,-2.18725962 31.6713649,1.83158654 L48.7835404,4.71591346"/>
    </g>
    <g transform="translate(10 78)">
      <path fill="#FFF" d="M32.146078,47.2584 L16.3196542,39.6169714 C3.30860339,33.2106857 -3.27385424,20.0981143 1.61868814,10.3301143 C6.50950169,0.562114286 21.0228915,-2.1636 34.0348068,4.24268571 L50.4421119,10.1226857"/>
      <path stroke="#000" stroke-width="12.074" d="M32.146078,47.2584 L16.3196542,39.6169714 C3.30860339,33.2106857 -3.27385424,20.0981143 1.61868814,10.3301143 C6.50950169,0.562114286 21.0228915,-2.1636 34.0348068,4.24268571 L50.4421119,10.1226857"/>
    </g>
    <g transform="translate(23 39)">
      <path fill="#FFF" d="M24.1143933,49.5327586 L10.76946,38.0439655 C-0.16874,28.4775862 -3.13274,14.0448276 4.14812667,5.80689655 C11.42986,-2.43103448 26.20046,-1.35431034 37.13866,8.21206897 L51.5045267,18.1387931"/>
      <path stroke="#000" stroke-width="12.074" d="M24.1143933,49.5327586 L10.76946,38.0439655 C-0.16874,28.4775862 -3.13274,14.0448276 4.14812667,5.80689655 C11.42986,-2.43103448 26.20046,-1.35431034 37.13866,8.21206897 L51.5045267,18.1387931"/>
    </g>
    <g transform="translate(57 7)">
      <path fill="#FFF" d="M10.610907,49.5638793 L3.50590702,33.5190517 C-2.25374211,20.2337069 1.20892456,5.91732759 11.2401702,1.54318966 C21.2714158,-2.83008621 34.0733105,4.39491379 39.8338193,17.6811207 L48.5179947,32.7440517"/>
      <path stroke="#000" stroke-width="12.074" d="M10.610907,49.5638793 L3.50590702,33.5190517 C-2.25374211,20.2337069 1.20892456,5.91732759 11.2401702,1.54318966 C21.2714158,-2.83008621 34.0733105,4.39491379 39.8338193,17.6811207 L48.5179947,32.7440517"/>
    </g>
    <g transform="translate(104)">
      <path fill="#FFF" d="M1.048598,44.3015481 L0.602258,26.6849135 C0.345978,12.1438558 9.007898,0.198086538 19.948818,0.00250961538 C30.890598,-0.193067308 39.967898,11.4368365 40.224178,25.9778942 L42.504898,43.2916442"/>
      <path stroke="#000" stroke-width="12.074" d="M1.048598,44.3015481 L0.602258,26.6849135 C0.345978,12.1438558 9.007898,0.198086538 19.948818,0.00250961538 C30.890598,-0.193067308 39.967898,11.4368365 40.224178,25.9778942 L42.504898,43.2916442"/>
    </g>
    <g transform="translate(146 12)">
      <path fill="#FFF" d="M0.866738462,23.8978293 L5.62412308,12.7405122 C9.62304615,3.56368293 18.6173538,-1.47204878 25.7137641,1.49270732 C32.8101744,4.45746341 35.3209436,14.301 31.3220205,23.4778293 L27.8313538,34.9629512"/>
      <path stroke="#000" stroke-width="12.074" d="M0.866738462,23.8978293 L5.62412308,12.7405122 C9.62304615,3.56368293 18.6173538,-1.47204878 25.7137641,1.49270732 C32.8101744,4.45746341 35.3209436,14.301 31.3220205,23.4778293 L27.8313538,34.9629512"/>
    </g>
    <g transform="translate(173 30)">
      <path fill="#FFF" d="M0.337280488,14.9694857 L9.06508537,6.56862857 C16.3211829,-0.308228571 26.4071585,-1.41051429 31.5922805,4.10605714 C36.7782561,9.62262857 35.0991098,19.6692 27.8430122,26.5452 L20.1216707,35.7466286"/>
      <path stroke="#000" stroke-width="12.074" d="M0.337280488,14.9694857 L9.06508537,6.56862857 C16.3211829,-0.308228571 26.4071585,-1.41051429 31.5922805,4.10605714 C36.7782561,9.62262857 35.0991098,19.6692 27.8430122,26.5452 L20.1216707,35.7466286"/>
    </g>
    <g transform="translate(22 28)">
      <mask id="type-01-b" fill="#fff">
        <use xlink:href="#type-01-a"/>
      </mask>
      <path fill="#000" d="M203.708003,271 L203.708003,99.3594745 C203.708003,44.7400287 158.165868,0.462598726 101.986342,0.462598726 C45.8076814,0.462598726 0.265545763,44.7400287 0.265545763,99.3594745 L0.265545763,271 L203.708003,271 Z" mask="url(#type-01-b)"/>
    </g>
  </g>
</svg>
