<svg xmlns="http://www.w3.org/2000/svg" width="300" height="300" viewBox="0 0 300 300">
  <g fill-rule="evenodd" transform="translate(-33 13)">
    <path d="M291.1186,286.646 L291.1186,121.934 C291.1186,69.521 243.5986,27.031 184.9816,27.031 C126.3636,27.031 78.8436,69.521 78.8436,121.934 L78.8436,286.646 L291.1186,286.646 Z"/>
    <path d="M267.1186,61.646 C267.1186,61.646 220.1186,-7.354 85.1186,0.646 C-49.8814,8.646 137.1186,46.646 149.1186,93.646"/>
    <path d="M219.8096,69.8477 C219.8096,69.8477 169.4866,19.5927 43.0506,67.5807 C-83.3854,115.5687 106.4226,95.9337 131.9236,137.1977"/>
    <path d="M210.2998,114.8599 C210.2998,114.8599 150.4478,76.4439 37.0948,150.1999 C-76.2592,223.9569 105.0448,164.4409 138.7298,199.3449"/>
  </g>
</svg>
