<svg xmlns="http://www.w3.org/2000/svg" width="300" height="300" viewBox="0 0 300 300">
  <g fill="none" fill-rule="evenodd" transform="translate(-12)">
    <path fill="#FFF" d="M65.9572588,41.2064182 C65.9572588,41.2064182 36.7169405,1.01559952 26.9695758,3.07664428 C17.2230991,5.13768904 33.6385917,68 44.9246869,68 C56.2098941,68 71.0866563,53.0572026 65.9572588,41.2064182"/>
    <path stroke="#000" stroke-width="12.075" d="M65.9572588,41.2064182 C65.9572588,41.2064182 36.7169405,1.01559952 26.9695758,3.07664428 C17.2230991,5.13768904 33.6385917,68 44.9246869,68 C56.2098941,68 71.0866563,53.0572026 65.9572588,41.2064182 Z"/>
    <path fill="#FFF" d="M255.042754,248.206418 C255.042754,248.206418 284.283431,208.0156 294.030027,210.076644 C303.777512,212.137689 287.36093,275 276.075584,275 C264.790238,275 249.913294,260.057203 255.042754,248.206418"/>
    <path stroke="#000" stroke-width="12.075" d="M255.042754,248.206418 C255.042754,248.206418 284.283431,208.0156 294.030027,210.076644 C303.777512,212.137689 287.36093,275 276.075584,275 C264.790238,275 249.913294,260.057203 255.042754,248.206418 Z"/>
    <path fill="#FFF" d="M250.042754,123.206392 C250.042754,123.206392 279.283431,83.0164259 289.030027,85.0765808 C298.777512,87.1385194 282.36093,150 271.075584,150 C259.790238,150 244.913294,135.057188 250.042754,123.206392"/>
    <path stroke="#000" stroke-width="12.075" d="M250.042754,123.206392 C250.042754,123.206392 279.283431,83.0164259 289.030027,85.0765808 C298.777512,87.1385194 282.36093,150 271.075584,150 C259.790238,150 244.913294,135.057188 250.042754,123.206392 Z"/>
    <path fill="#000" d="M11,299 L11,141.23631 C11,64.8893165 72.7844066,3 149,3 L149,3 C225.215593,3 287,64.8893165 287,141.23631 L287,299"/>
    <path fill="#FFF" d="M41.9569336,202.206392 C41.9569336,202.206392 12.7164744,162.016426 2.96995063,164.076581 C-6.77746104,166.138519 9.63899864,229 20.9242603,229 C32.2104098,229 47.0872437,214.057188 41.9569336,202.206392"/>
    <path stroke="#000" stroke-width="12.075" d="M41.9569336,202.206392 C41.9569336,202.206392 12.7164744,162.016426 2.96995063,164.076581 C-6.77746104,166.138519 9.63899864,229 20.9242603,229 C32.2104098,229 47.0872437,214.057188 41.9569336,202.206392 Z"/>
    <path fill="#FFF" d="M47.957246,97.2064182 C47.957246,97.2064182 18.7165691,57.0155995 8.96997274,59.0766443 C-0.777511508,61.137689 15.6390704,124 26.9244161,124 C38.2097617,124 53.0867064,109.057203 47.957246,97.2064182"/>
    <path stroke="#000" stroke-width="12.075" d="M47.957246,97.2064182 C47.957246,97.2064182 18.7165691,57.0155995 8.96997274,59.0766443 C-0.777511508,61.137689 15.6390704,124 26.9244161,124 C38.2097617,124 53.0867064,109.057203 47.957246,97.2064182 Z"/>
    <path fill="#FFF" d="M115.956925,51.206392 C115.956925,51.206392 86.7162266,11.0164259 76.9696231,13.0765808 C67.2230196,15.1385194 83.6387257,78 94.9240797,78 C106.210322,78 121.087277,63.0571879 115.956925,51.206392"/>
    <path stroke="#000" stroke-width="12.075" d="M115.956925,51.206392 C115.956925,51.206392 86.7162266,11.0164259 76.9696231,13.0765808 C67.2230196,15.1385194 83.6387257,78 94.9240797,78 C106.210322,78 121.087277,63.0571879 115.956925,51.206392 Z"/>
    <path fill="#FFF" d="M65.9569251,151.205527 C65.9569251,151.205527 36.7162266,111.015601 26.9696231,113.076646 C17.2230196,115.137691 33.6387257,178 44.9240797,178 C56.2103215,178 71.0872772,163.057203 65.9569251,151.205527"/>
    <path stroke="#000" stroke-width="12.075" d="M65.9569251,151.205527 C65.9569251,151.205527 36.7162266,111.015601 26.9696231,113.076646 C17.2230196,115.137691 33.6387257,178 44.9240797,178 C56.2103215,178 71.0872772,163.057203 65.9569251,151.205527 Z"/>
    <path fill="#FFF" d="M62.957246,256.206418 C62.957246,256.206418 33.7165691,216.0156 23.9699727,218.076644 C14.2224885,220.137689 30.6390704,283 41.9244161,283 C53.2097617,283 68.0867064,268.057203 62.957246,256.206418"/>
    <path stroke="#000" stroke-width="12.075" d="M62.957246,256.206418 C62.957246,256.206418 33.7165691,216.0156 23.9699727,218.076644 C14.2224885,220.137689 30.6390704,283 41.9244161,283 C53.2097617,283 68.0867064,268.057203 62.957246,256.206418 Z"/>
    <path fill="#FFF" d="M228.043078,41.2064182 C228.043078,41.2064182 257.28378,1.01559952 267.030385,3.07664428 C276.77699,5.13768904 260.361282,68 249.075038,68 C237.789682,68 222.912725,53.0572026 228.043078,41.2064182"/>
    <path stroke="#000" stroke-width="12.075" d="M228.043078,41.2064182 C228.043078,41.2064182 257.28378,1.01559952 267.030385,3.07664428 C276.77699,5.13768904 260.361282,68 249.075038,68 C237.789682,68 222.912725,53.0572026 228.043078,41.2064182 Z"/>
    <path fill="#FFF" d="M236.042754,91.2064182 C236.042754,91.2064182 265.283431,51.0155995 275.030027,53.0766443 C284.777512,55.137689 268.36093,118 257.075584,118 C245.790238,118 230.913294,103.057203 236.042754,91.2064182"/>
    <path stroke="#000" stroke-width="12.075" d="M236.042754,91.2064182 C236.042754,91.2064182 265.283431,51.0155995 275.030027,53.0766443 C284.777512,55.137689 268.36093,118 257.075584,118 C245.790238,118 230.913294,103.057203 236.042754,91.2064182 Z"/>
    <path fill="#FFF" d="M171.042798,38.205527 C171.042798,38.205527 200.283444,-1.98439878 210.03003,0.0766459221 C219.777504,2.13769063 203.36094,65 192.075606,65 C180.789384,65 165.913343,50.0572029 171.042798,38.205527"/>
    <path stroke="#000" stroke-width="12.075" d="M171.042798,38.205527 C171.042798,38.205527 200.283444,-1.98439878 210.03003,0.0766459221 C219.777504,2.13769063 203.36094,65 192.075606,65 C180.789384,65 165.913343,50.0572029 171.042798,38.205527 Z"/>
    <path fill="#FFF" d="M250.042754,205.206418 C250.042754,205.206418 279.283431,165.0156 289.030027,167.076644 C298.777512,169.137689 282.36093,232 271.075584,232 C259.790238,232 244.913294,217.057203 250.042754,205.206418"/>
    <path stroke="#000" stroke-width="12.075" d="M250.042754,205.206418 C250.042754,205.206418 279.283431,165.0156 289.030027,167.076644 C298.777512,169.137689 282.36093,232 271.075584,232 C259.790238,232 244.913294,217.057203 250.042754,205.206418 Z"/>
  </g>
</svg>
