<svg xmlns="http://www.w3.org/2000/svg" xmlns:xlink="http://www.w3.org/1999/xlink" width="300" height="300" viewBox="0 0 300 300">
  <defs>
    <polygon id="type-16-a" points="0 0 326 0 326 320.548 0 320.548"/>
  </defs>
  <g fill="none" fill-rule="evenodd" transform="translate(-13 -21)">
    <mask id="type-16-b" fill="#fff">
      <use xlink:href="#type-16-a"/>
    </mask>
    <path fill="#000" d="M264.3271,40.6359 C252.3301,-13.8151 218.9611,-13.4711 207.1701,41.2249 L203.9991,55.9359 C202.8891,61.0839 195.5491,61.1009 194.4161,55.9569 L191.0401,40.6359 C185.0171,13.2989 173.6071,-0.2221 162.2461,0.0069 C150.8491,-0.0731 139.4391,13.6809 133.5011,41.2249 L130.3301,55.9359 C129.2201,61.0839 121.8801,61.1009 120.7471,55.9569 L117.3711,40.6359 C105.3741,-13.8151 72.0061,-13.4711 60.2141,41.2249 L0.0001,320.5479 L73.2861,320.5479 L73.6691,320.5479 L146.9561,320.5479 L179.0441,320.5479 L252.3311,320.5479 L252.7131,320.5479 L326.0001,320.5479 L264.3271,40.6359 Z" mask="url(#type-16-b)"/>
  </g>
</svg>
