<svg xmlns="http://www.w3.org/2000/svg" width="188" height="188" viewBox="0 0 188 188">
  <g fill="none" fill-rule="evenodd" transform="translate(19 19)">
    <path fill="#000" d="M150,75 C150,116.421 116.421,150 75,150 C33.579,150 0,116.421 0,75 C0,33.579 33.579,0 75,0 C116.421,0 150,33.579 150,75"/>
    <path fill="#FFF" d="M91.6191,83.2075 C88.0091,89.3965 81.3381,102.1365 83.5531,108.3705 L59.1951,97.3795 C59.1951,97.3795 74.5161,81.8435 89.3841,79.8435 C91.2371,79.5935 92.5611,81.5925 91.6191,83.2075"/>
    <path fill="#FFF" d="M53.1177 91.9019L60.5017 85.6959C61.2987 85.0259 62.5097 85.6359 62.4457 86.6749L61.8707 96.0599C61.8207 96.8939 60.9457 97.4139 60.1887 97.0609L53.3787 93.8819C52.5947 93.5159 52.4547 92.4589 53.1177 91.9019M100.146 85.3765C103.324 89.9905 109.273 99.5315 107.912 104.5225L107.912 104.5225 126.258 94.5235C126.258 94.5235 113.401 83.3095 101.691 82.6225 100.232 82.5365 99.317 84.1725 100.146 85.3765M134.9565 84.3389L127.1275 78.7049C126.2825 78.0969 125.1205 78.7959 125.2625 79.8269L126.5395 89.1419C126.6525 89.9699 127.5645 90.4229 128.2925 90.0139L134.8445 86.3329C135.5995 85.9089 135.6595 84.8449 134.9565 84.3389"/>
    <path stroke="#FFF" stroke-linecap="round" stroke-linejoin="round" stroke-width="4" d="M37,87 L87.376,109.49 C90.911,111.067 94.986,110.865 98.347,108.945 L142,84"/>
    <path fill="#FFF" d="M76.1919,72.394 C72.5909,72.394 69.6719,69.141 69.6719,65.128 C69.6719,64.47 69.7569,63.835 69.9049,63.228 L58.7709,57.576 C58.0839,59.455 57.6979,61.506 57.6979,63.659 C57.6979,72.584 64.1919,79.818 72.2009,79.818 C77.8499,79.818 82.7339,76.21 85.1279,70.957 L81.6089,69.171 C80.4399,71.114 78.4499,72.394 76.1919,72.394"/>
    <path fill="#000" d="M76.1919,72.394 C78.4499,72.394 80.4399,71.114 81.6089,69.171 L69.9049,63.228 C69.7569,63.835 69.6719,64.47 69.6719,65.128 C69.6719,69.141 72.5909,72.394 76.1919,72.394"/>
    <path fill="#FFF" d="M119.8906,70.394 C116.2896,70.394 113.3696,67.141 113.3696,63.128 C113.3696,59.116 116.2896,55.863 119.8906,55.863 C123.4916,55.863 126.4116,59.116 126.4116,63.128 C126.4116,67.141 123.4916,70.394 119.8906,70.394 M123.8826,45.5 C123.5676,45.5 123.2596,45.53 122.9496,45.553 L109.5156,63.753 C110.4386,71.686 116.5116,77.818 123.8826,77.818 C131.8906,77.818 138.3846,70.584 138.3846,61.659 C138.3846,52.735 131.8906,45.5 123.8826,45.5"/>
    <path fill="#000" d="M119.8906,55.8633 C116.2896,55.8633 113.3696,59.1163 113.3696,63.1283 C113.3696,67.1413 116.2896,70.3943 119.8906,70.3943 C123.4916,70.3943 126.4116,67.1413 126.4116,63.1283 C126.4116,59.1163 123.4916,55.8633 119.8906,55.8633"/>
  </g>
</svg>
