<svg xmlns="http://www.w3.org/2000/svg" xmlns:xlink="http://www.w3.org/1999/xlink" width="188" height="188" viewBox="0 0 188 188">
  <defs>
    <path id="type-01-a" d="M0.92,11.279 C0.92,17.508 25.098,22.558 54.922,22.558 L54.922,22.558 C84.746,22.558 108.924,17.508 108.924,11.279 L108.924,11.279 C108.924,5.05 84.746,0 54.922,0 L54.922,0 C25.098,0 0.92,5.05 0.92,11.279"/>
    <path id="type-01-c" d="M0.92,11.279 C0.92,17.508 25.098,22.558 54.922,22.558 L54.922,22.558 C84.746,22.558 108.924,17.508 108.924,11.279 L108.924,11.279 C108.924,5.05 84.746,0 54.922,0 L54.922,0 C25.098,0 0.92,5.05 0.92,11.279"/>
    <path id="type-01-e" d="M0.92,11.279 C0.92,17.508 25.098,22.558 54.922,22.558 L54.922,22.558 C84.746,22.558 108.924,17.508 108.924,11.279 L108.924,11.279 C108.924,5.05 84.746,0 54.922,0 L54.922,0 C25.098,0 0.92,5.05 0.92,11.279"/>
    <path id="type-01-g" d="M0.92,11.279 C0.92,17.508 25.098,22.558 54.922,22.558 L54.922,22.558 C84.746,22.558 108.924,17.508 108.924,11.279 L108.924,11.279 C108.924,5.05 84.746,0 54.922,0 L54.922,0 C25.098,0 0.92,5.05 0.92,11.279"/>
    <path id="type-01-i" d="M0.92,11.279 C0.92,17.508 25.098,22.558 54.922,22.558 L54.922,22.558 C84.746,22.558 108.924,17.508 108.924,11.279 L108.924,11.279 C108.924,5.05 84.746,0 54.922,0 L54.922,0 C25.098,0 0.92,5.05 0.92,11.279"/>
    <path id="type-01-k" d="M0.92,11.279 C0.92,17.508 25.098,22.558 54.922,22.558 L54.922,22.558 C84.746,22.558 108.924,17.508 108.924,11.279 L108.924,11.279 C108.924,5.05 84.746,0 54.922,0 L54.922,0 C25.098,0 0.92,5.05 0.92,11.279"/>
    <path id="type-01-m" d="M0.92,11.279 C0.92,17.508 25.098,22.558 54.922,22.558 L54.922,22.558 C84.746,22.558 108.924,17.508 108.924,11.279 L108.924,11.279 C108.924,5.05 84.746,0 54.922,0 L54.922,0 C25.098,0 0.92,5.05 0.92,11.279"/>
    <path id="type-01-o" d="M0.92,11.279 C0.92,17.508 25.098,22.558 54.922,22.558 L54.922,22.558 C84.746,22.558 108.924,17.508 108.924,11.279 L108.924,11.279 C108.924,5.05 84.746,0 54.922,0 L54.922,0 C25.098,0 0.92,5.05 0.92,11.279"/>
    <path id="type-01-q" d="M0.92,11.279 C0.92,17.508 25.098,22.558 54.922,22.558 L54.922,22.558 C84.746,22.558 108.924,17.508 108.924,11.279 L108.924,11.279 C108.924,5.05 84.746,0 54.922,0 L54.922,0 C25.098,0 0.92,5.05 0.92,11.279"/>
    <path id="type-01-s" d="M0.92,11.279 C0.92,17.508 25.098,22.558 54.922,22.558 L54.922,22.558 C84.746,22.558 108.924,17.508 108.924,11.279 L108.924,11.279 C108.924,5.05 84.746,0 54.922,0 L54.922,0 C25.098,0 0.92,5.05 0.92,11.279"/>
  </defs>
  <g fill="none" fill-rule="evenodd" transform="translate(19 19)">
    <path fill="#000" d="M150,75 C150,116.421 116.421,150 75,150 C33.579,150 0,116.421 0,75 C0,33.579 33.579,0 75,0 C116.421,0 150,33.579 150,75"/>
    <g transform="translate(32 84)">
      <mask id="type-01-b" fill="#fff">
        <use xlink:href="#type-01-a"/>
      </mask>
      <path fill="#FFF" d="M25.1812,2.6396 C25.9542,5.7966 23.3542,8.8536 19.3722,9.4676 C15.3912,10.0806 11.5352,8.0186 10.7622,4.8616" mask="url(#type-01-b)"/>
      <mask id="type-01-d" fill="#fff">
        <use xlink:href="#type-01-c"/>
      </mask>
      <path fill="#FFF" d="M53.561,-0.519 C53.731,3.285 49.981,11.179 45.185,11.314 C40.388,11.451 36.362,3.776 36.192,-0.027" mask="url(#type-01-d)"/>
      <mask id="type-01-f" fill="#fff">
        <use xlink:href="#type-01-e"/>
      </mask>
      <path fill="#FFF" d="M85.1216,2.6396 C84.3476,5.7966 86.9486,8.8536 90.9296,9.4676 C94.9116,10.0806 98.7666,8.0186 99.5406,4.8616" mask="url(#type-01-f)"/>
      <mask id="type-01-h" fill="#fff">
        <use xlink:href="#type-01-g"/>
      </mask>
      <path fill="#FFF" d="M56.2837,-0.519 C56.1137,3.285 59.8637,11.179 64.6597,11.314 C69.4557,11.451 73.4827,3.776 73.6527,-0.027" mask="url(#type-01-h)"/>
      <mask id="type-01-j" fill="#fff">
        <use xlink:href="#type-01-i"/>
      </mask>
      <path fill="#FFF" d="M-4.8584,14.4229 C-2.6294,10.1589 3.4456,8.1659 8.7096,9.9709 C13.9746,11.7769 16.4346,16.6969 14.2056,20.9609" mask="url(#type-01-j)"/>
      <mask id="type-01-l" fill="#fff">
        <use xlink:href="#type-01-k"/>
      </mask>
      <path fill="#FFF" d="M13.4766,19.9287 C14.1666,16.5697 18.0886,14.3007 22.2346,14.8597 C26.3816,15.4187 29.1826,18.5957 28.4926,21.9537" mask="url(#type-01-l)"/>
      <mask id="type-01-n" fill="#fff">
        <use xlink:href="#type-01-m"/>
      </mask>
      <path fill="#FFF" d="M27.667,21.3511 C28.079,17.9621 31.804,15.4861 35.987,15.8191 C40.17,16.1531 43.228,19.1701 42.816,22.5581" mask="url(#type-01-n)"/>
      <mask id="type-01-p" fill="#fff">
        <use xlink:href="#type-01-o"/>
      </mask>
      <path fill="#FFF" d="M114.7026,14.4229 C112.4736,10.1589 106.3996,8.1659 101.1346,9.9709 C95.8706,11.7769 93.4096,16.6969 95.6386,20.9609" mask="url(#type-01-p)"/>
      <mask id="type-01-r" fill="#fff">
        <use xlink:href="#type-01-q"/>
      </mask>
      <path fill="#FFF" d="M96.3677,19.9287 C95.6777,16.5697 91.7567,14.3007 87.6097,14.8597 C83.4637,15.4187 80.6617,18.5957 81.3517,21.9537" mask="url(#type-01-r)"/>
      <mask id="type-01-t" fill="#fff">
        <use xlink:href="#type-01-s"/>
      </mask>
      <path fill="#FFF" d="M82.1777,21.3511 C81.7657,17.9621 78.0407,15.4861 73.8577,15.8191 C69.6747,16.1531 66.6167,19.1701 67.0287,22.5581" mask="url(#type-01-t)"/>
    </g>
    <g transform="translate(32 40)">
      <path stroke="#FFF" stroke-width="4" d="M108.9238,55.2793 C108.9238,61.5083 84.7468,66.5583 54.9228,66.5583 C25.0978,66.5583 0.9208,61.5083 0.9208,55.2793 C0.9208,49.0503 25.0978,44.0003 54.9228,44.0003 C84.7468,44.0003 108.9238,49.0503 108.9238,55.2793 Z"/>
      <path fill="#FFF" d="M42.9307,16.5244 C42.9797,16.8854 43.0137,17.2524 43.0137,17.6284 C43.0137,21.6414 40.0947,24.8944 36.4937,24.8944 C32.8927,24.8944 29.9727,21.6414 29.9727,17.6284 C29.9727,15.1184 31.1157,12.9064 32.8527,11.6014 C28.7707,9.3174 25.2457,6.9744 22.2317,4.7534 C19.6177,7.6754 17.9997,11.7064 17.9997,16.1594 C17.9997,25.0844 24.4927,32.3184 32.5017,32.3184 C39.9167,32.3184 46.0207,26.1144 46.8877,18.1124 C45.5257,17.5994 44.2127,17.0674 42.9307,16.5244"/>
      <path fill="#000" d="M29.9731,17.6284 C29.9731,21.6414 32.8921,24.8944 36.4941,24.8944 C40.0951,24.8944 43.0141,21.6414 43.0141,17.6284 C43.0141,17.2524 42.9801,16.8854 42.9311,16.5244 C39.2551,14.9674 35.8961,13.3034 32.8521,11.6014 C31.1161,12.9064 29.9731,15.1184 29.9731,17.6284"/>
      <path fill="#FFF" d="M62.6816,16.1592 C62.6816,25.0842 69.1746,32.3192 77.1836,32.3192 C85.1926,32.3192 91.6856,25.0842 91.6856,16.1592 C91.6856,7.2352 85.1926,0.0002 77.1836,0.0002 C69.1746,0.0002 62.6816,7.2352 62.6816,16.1592"/>
      <path fill="#000" d="M66.6719,17.6284 C66.6719,21.6414 69.5909,24.8944 73.1929,24.8944 C76.7939,24.8944 79.7129,21.6414 79.7129,17.6284 C79.7129,13.6164 76.7939,10.3634 73.1929,10.3634 C69.5909,10.3634 66.6719,13.6164 66.6719,17.6284"/>
    </g>
  </g>
</svg>
