<svg xmlns="http://www.w3.org/2000/svg" width="188" height="188" viewBox="0 0 188 188">
  <g fill="none" fill-rule="evenodd" transform="translate(19 19)">
    <path fill="#000" d="M150,75 C150,116.421 116.421,150 75,150 C33.579,150 0,116.421 0,75 C0,33.579 33.579,0 75,0 C116.421,0 150,33.579 150,75"/>
    <path fill="#FFF" d="M47.1528 77.2046L50.7348 105.4626 75.3838 95.0926 53.8018 73.9066C51.1438 71.2966 46.6838 73.5086 47.1528 77.2046M125.9507 89.6777L117.9287 98.2907 130.0847 103.7157 129.3947 91.0097C129.3097 89.4437 126.9997 88.5507 125.9507 89.6777M86.5083 87.7295L76.3383 93.6555 86.4073 102.3635 89.4203 90.0005C89.7913 88.4775 87.8393 86.9545 86.5083 87.7295"/>
    <polyline stroke="#FFF" stroke-linecap="round" stroke-linejoin="round" stroke-width="4" points="51 105 77 94 86 102 96 96 107 105 118 98 130 102"/>
    <path fill="#FFF" d="M82.7124,65.1284 C82.7124,69.1414 79.7934,72.3944 76.1914,72.3944 C72.5904,72.3944 69.6714,69.1414 69.6714,65.1284 C69.6714,61.6904 71.8174,58.8174 74.6954,58.0634 L61.3144,53.0074 C59.0704,55.8534 57.6984,59.5734 57.6984,63.6594 C57.6984,72.5844 64.1914,79.8184 72.2004,79.8184 C80.2104,79.8184 86.7024,72.5844 86.7024,63.6594 C86.7024,63.2954 86.6744,62.9384 86.6534,62.5804 L81.2434,60.5364 C82.1604,61.7884 82.7124,63.3864 82.7124,65.1284"/>
    <path fill="#000" d="M69.6719,65.1284 C69.6719,69.1414 72.5909,72.3944 76.1919,72.3944 C79.7929,72.3944 82.7129,69.1414 82.7129,65.1284 C82.7129,63.3864 82.1609,61.7884 81.2429,60.5364 L74.6959,58.0634 C71.8179,58.8174 69.6719,61.6904 69.6719,65.1284"/>
    <path fill="#FFF" d="M122.9004,49.5215 L112.9004,57.9595 C116.0214,58.5005 118.4114,61.4995 118.4114,65.1285 C118.4114,69.1415 115.4914,72.3945 111.8904,72.3945 C108.2894,72.3945 105.3704,69.1415 105.3704,65.1285 C105.3704,64.8375 105.3904,64.5525 105.4204,64.2715 L101.7744,67.3465 C103.2734,74.4915 109.0134,79.8185 115.8824,79.8185 C123.8914,79.8185 130.3844,72.5835 130.3844,63.6595 C130.3844,57.5725 127.3614,52.2775 122.9004,49.5215"/>
    <path fill="#000" d="M105.3706,65.1284 C105.3706,69.1414 108.2896,72.3944 111.8906,72.3944 C115.4916,72.3944 118.4116,69.1414 118.4116,65.1284 C118.4116,61.4994 116.0206,58.5014 112.9006,57.9594 L105.4196,64.2714 C105.3906,64.5524 105.3706,64.8374 105.3706,65.1284"/>
    <path fill="#FFF" d="M101.8999,11.1089 L84.9839,31.0479 C83.0969,33.2719 83.8529,36.6829 86.5019,37.9019 L102.4629,45.2499 C105.3229,46.5669 108.6009,44.5469 108.7119,41.4009 L109.6659,14.1139 C109.8119,9.9369 104.6039,7.9209 101.8999,11.1089"/>
  </g>
</svg>
