<svg xmlns="http://www.w3.org/2000/svg" width="115" height="115" viewBox="0 0 115 115">
  <g fill="none" fill-rule="evenodd" transform="translate(2 6)">
    <path fill="#000" d="M31.4381,66.2056 C29.3341,59.5596 24.0861,42.4256 21.7581,29.7596 C20.8781,24.9726 27.4381,22.7086 29.7061,27.0166 L49.8961,46.5386 C50.1871,47.0906 50.3571,47.6986 50.3811,48.3206 C50.4941,51.2016 45.1181,68.8996 35.5491,69.1716 C33.6761,69.2256 32.0041,67.9926 31.4381,66.2056"/>
    <path stroke="#FFF" stroke-linecap="round" stroke-linejoin="round" stroke-width="6" d="M31.4381,66.2056 C29.3341,59.5596 24.0861,42.4256 21.7581,29.7596 C20.8781,24.9726 27.4381,22.7086 29.7061,27.0166 L49.8961,46.5386 C50.1871,47.0906 50.3571,47.6986 50.3811,48.3206 C50.4941,51.2016 45.1181,68.8996 35.5491,69.1716 C33.6761,69.2256 32.0041,67.9926 31.4381,66.2056 Z"/>
    <path fill="#000" d="M59.0514,25.398 C59.9944,20.748 61.9794,11.419 64.3244,3.097 C65.6774,-1.703 72.7694,-0.643 72.6694,4.342 L72.2704,24.149 C72.2574,24.808 72.0964,25.456 71.7864,26.037 C70.6714,28.127 67.4994,32.59 61.6224,30.182 C59.7294,29.407 58.6454,27.403 59.0514,25.398"/>
    <path stroke="#FFF" stroke-linecap="round" stroke-linejoin="round" stroke-width="6" d="M59.0514,25.398 C59.9944,20.748 61.9794,11.419 64.3244,3.097 C65.6774,-1.703 72.7694,-0.643 72.6694,4.342 L72.2704,24.149 C72.2574,24.808 72.0964,25.456 71.7864,26.037 C70.6714,28.127 67.4994,32.59 61.6224,30.182 C59.7294,29.407 58.6454,27.403 59.0514,25.398 Z"/>
    <path fill="#000" d="M75.0514,25.2222 C76.7964,20.8072 80.3884,11.9662 84.1584,4.1812 C86.3324,-0.3078 93.1284,1.9772 92.1554,6.8692 L88.2844,26.3072 C88.1564,26.9532 87.8844,27.5632 87.4764,28.0812 C86.0114,29.9452 82.1054,33.7852 76.7424,30.3832 C75.0144,29.2872 74.2994,27.1242 75.0514,25.2222"/>
    <path stroke="#FFF" stroke-linecap="round" stroke-linejoin="round" stroke-width="6" d="M75.0514,25.2222 C76.7964,20.8072 80.3884,11.9662 84.1584,4.1812 C86.3324,-0.3078 93.1284,1.9772 92.1554,6.8692 L88.2844,26.3072 C88.1564,26.9532 87.8844,27.5632 87.4764,28.0812 C86.0114,29.9452 82.1054,33.7852 76.7424,30.3832 C75.0144,29.2872 74.2994,27.1242 75.0514,25.2222 Z"/>
    <path fill="#000" d="M96.507,39.3472 C99.549,35.1452 106.33,25.5892 111.188,17.3132 C113.441,13.4752 108.423,9.5322 105.213,12.6152 L88.594,28.5732 C88.165,28.9852 87.839,29.4892 87.638,30.0492 C86.838,32.2832 85.545,37.9862 91.912,40.6322 C93.559,41.3172 95.461,40.7912 96.507,39.3472"/>
    <path stroke="#FFF" stroke-linecap="round" stroke-linejoin="round" stroke-width="6" d="M96.507,39.3472 C99.549,35.1452 106.33,25.5892 111.188,17.3132 C113.441,13.4752 108.423,9.5322 105.213,12.6152 L88.594,28.5732 C88.165,28.9852 87.839,29.4892 87.638,30.0492 C86.838,32.2832 85.545,37.9862 91.912,40.6322 C93.559,41.3172 95.461,40.7912 96.507,39.3472 Z"/>
    <g transform="translate(0 21.103)">
      <path fill="#000" d="M0.0001,87 C0.0001,87 41.5391,-2.841 80.6641,0.54 C119.7881,3.922 85.4941,87 85.4941,87"/>
      <path stroke="#FFF" stroke-linecap="round" stroke-linejoin="round" stroke-width="6" d="M0.0001,87 C0.0001,87 41.5391,-2.841 80.6641,0.54 C119.7881,3.922 85.4941,87 85.4941,87"/>
    </g>
  </g>
</svg>
