<svg xmlns="http://www.w3.org/2000/svg" width="115" height="115" viewBox="0 0 115 115">
  <g fill="none" fill-rule="evenodd" transform="translate(8 3)">
    <path fill="#000" d="M74.4664,111.745 C74.4664,111.745 110.4174,71.392 93.5424,70.292 C76.6674,69.191 74.4664,70.292 74.4664,70.292 C74.4664,70.292 91.3414,21.502 74.4664,18.2 C57.5914,14.898 54.6564,35.808 54.6564,35.808 C54.6564,35.808 36.3154,-12.614 17.2394,3.16 C-1.8366,18.934 -7.7056,84.599 13.2034,111.745"/>
    <path stroke="#FFF" stroke-linecap="round" stroke-linejoin="round" stroke-width="6" d="M74.4664,111.745 C74.4664,111.745 110.4174,71.392 93.5424,70.292 C76.6674,69.191 74.4664,70.292 74.4664,70.292 C74.4664,70.292 91.3414,21.502 74.4664,18.2 C57.5914,14.898 54.6564,35.808 54.6564,35.808 C54.6564,35.808 36.3154,-12.614 17.2394,3.16 C-1.8366,18.934 -7.7056,84.599 13.2034,111.745"/>
  </g>
</svg>
