<svg xmlns="http://www.w3.org/2000/svg" width="99" height="130" viewBox="0 0 99 130">
  <g fill="none" fill-rule="evenodd" transform="translate(3 3)">
    <path fill="#000" d="M-0.0001,122.6592 L50.2729,57.8542 C50.2729,57.8542 41.8429,24.9402 47.1719,23.0522 C52.4999,21.1622 55.3439,27.9472 55.3439,27.9472 C55.3439,27.9472 60.8349,5.7722 65.6659,5.8112 C70.4959,5.8492 69.9429,14.5402 69.9429,14.5402 C69.9429,14.5402 80.7009,-1.7968 84.0659,0.1632 C84.0659,0.1632 90.8199,1.1822 77.6039,22.8132 C77.6039,22.8132 82.9639,17.0592 91.6499,18.0962 C91.6499,18.0962 96.9479,20.0702 86.7119,31.5812 C86.7119,31.5812 68.2289,47.3722 72.4289,65.7622 C72.4289,65.7622 76.2389,72.5542 70.3959,78.3042 L47.8169,123.0442"/>
    <path stroke="#FFF" stroke-linecap="round" stroke-linejoin="round" stroke-width="6" d="M-0.0001,122.6592 L50.2729,57.8542 C50.2729,57.8542 41.8429,24.9402 47.1719,23.0522 C52.4999,21.1622 55.3439,27.9472 55.3439,27.9472 C55.3439,27.9472 60.8349,5.7722 65.6659,5.8112 C70.4959,5.8492 69.9429,14.5402 69.9429,14.5402 C69.9429,14.5402 80.7009,-1.7968 84.0659,0.1632 C84.0659,0.1632 90.8199,1.1822 77.6039,22.8132 C77.6039,22.8132 82.9639,17.0592 91.6499,18.0962 C91.6499,18.0962 96.9479,20.0702 86.7119,31.5812 C86.7119,31.5812 68.2289,47.3722 72.4289,65.7622 C72.4289,65.7622 76.2389,72.5542 70.3959,78.3042 L47.8169,123.0442"/>
  </g>
</svg>
