<svg xmlns="http://www.w3.org/2000/svg" xmlns:xlink="http://www.w3.org/1999/xlink" width="115" height="115" viewBox="0 0 115 115">
  <defs>
    <polygon id="type-02-a" points=".962 .786 19.976 .786 19.976 35.552 .962 35.552"/>
  </defs>
  <g fill="none" fill-rule="evenodd" transform="translate(8 -4)">
    <path fill="#FFF" d="M29.5868,68.2218 C30.9128,66.5318 27.0488,33.6868 33.8108,31.7538 C40.5728,29.8228 44.9368,49.9888 44.9368,49.9888"/>
    <g transform="translate(0 31.214)">
      <path fill="#000" d="M-0.0001,87 C-0.0001,87 41.5399,-2.841 80.6639,0.54 C119.7879,3.922 75.8329,87 75.8329,87"/>
      <path stroke="#FFF" stroke-linecap="round" stroke-linejoin="round" stroke-width="6" d="M-0.0001,87 C-0.0001,87 41.5399,-2.841 80.6639,0.54 C119.7879,3.922 75.8329,87 75.8329,87"/>
    </g>
    <path fill="#FFF" d="M41.3627,49.7736 C43.0147,48.3996 46.1517,15.4776 53.1687,15.0116 C60.1857,14.5466 60.2067,35.1796 60.2067,35.1796"/>
    <g transform="translate(66 .214)">
      <mask id="type-02-b" fill="#fff">
        <use xlink:href="#type-02-a"/>
      </mask>
      <path fill="#FFF" d="M0.9623,35.5518 C2.6143,34.1788 5.7513,1.2558 12.7683,0.7908 C19.7863,0.3248 19.9763,31.5398 19.9763,31.5398" mask="url(#type-02-b)"/>
    </g>
    <path fill="#FFF" d="M85.9764,31.7541 C87.6284,30.3811 89.6224,1.4701 96.6404,1.0051 C103.6574,0.5391 97.0854,44.7961 97.0854,44.7961"/>
  </g>
</svg>
