<svg xmlns="http://www.w3.org/2000/svg" width="115" height="115" viewBox="0 0 115 115">
  <g fill="none" fill-rule="evenodd" transform="translate(-12 16)">
    <g transform="translate(0 .768)">
      <path fill="#000" d="M120.147,98 C120.147,98 157.057,53.559 128.433,54.312 C128.433,54.312 120.524,53.935 115.251,60.714 C109.979,67.493 82.108,-23.273 41.056,6.104 C0.004,35.48 26.368,76.155 26.368,76.155 C26.368,76.155 -0.373,58.831 0.004,71.637 C0.38,84.441 24.861,98 24.861,98"/>
      <path stroke="#FFF" stroke-linecap="round" stroke-linejoin="round" stroke-width="6" d="M120.147,98 C120.147,98 157.057,53.559 128.433,54.312 C128.433,54.312 120.524,53.935 115.251,60.714 C109.979,67.493 82.108,-23.273 41.056,6.104 C0.004,35.48 26.368,76.155 26.368,76.155 C26.368,76.155 -0.373,58.831 0.004,71.637 C0.38,84.441 24.861,98 24.861,98"/>
    </g>
    <path stroke="#FFF" stroke-linecap="round" stroke-linejoin="round" stroke-width="6" d="M85.8745 90.8589C85.8745 90.8589 55.7445 52.4429 61.7705 17.7939M76.729 92.3715C76.729 92.3715 39.889 60.3345 39.265 25.1705"/>
  </g>
</svg>
